G04                                                      *
G04 Greetings!                                           *
G04 This Gerber was generated by PCBmodE, an open source *
G04 PCB design software. Get it here:                    *
G04                                                      *
G04   http://pcbmode.com                                 *
G04                                                      *
G04 Also visit                                           *
G04                                                      *
G04   http://boldport.com                                *
G04                                                      *
G04 and follow @boldport / @pcbmode for updates!         *
G04                                                      *

G04 leading zeros omitted (L); absolute data (A); 6 integer digits and 6 fractional digits *
%FSLAX66Y66*%

G04 mode (MO): millimeters (MM) *
%MOMM*%

G04 Aperture definitions *
%ADD10C,0.001X*%
%ADD11C,0.001X*%

%LPD*%
G36*
G01X50722324Y-62318997D02*
G01X50722324Y-62318997D01*
G01X50766187Y-62272200D01*
G01X50806396Y-62223314D01*
G01X50842949Y-62172520D01*
G01X50875846Y-62120001D01*
G01X50905089Y-62065936D01*
G01X50930676Y-62010509D01*
G01X50952608Y-61953902D01*
G01X50970884Y-61896294D01*
G01X50985506Y-61837870D01*
G01X50996472Y-61778809D01*
G01X51003782Y-61719294D01*
G01X51007437Y-61659507D01*
G01X51007437Y-61599629D01*
G01X51003782Y-61539841D01*
G01X50996472Y-61480326D01*
G01X50985506Y-61421266D01*
G01X50970884Y-61362841D01*
G01X50952608Y-61305234D01*
G01X50930676Y-61248626D01*
G01X50905089Y-61193199D01*
G01X50875846Y-61139135D01*
G01X50842949Y-61086615D01*
G01X50806396Y-61035821D01*
G01X50766187Y-60986935D01*
G01X50722324Y-60940139D01*
G01X50722324Y-60940139D01*
G01X50722324Y-60940139D01*
G01X50675527Y-60896275D01*
G01X50626641Y-60856066D01*
G01X50575847Y-60819513D01*
G01X50523327Y-60786616D01*
G01X50469263Y-60757373D01*
G01X50413836Y-60731786D01*
G01X50357228Y-60709854D01*
G01X50299621Y-60691578D01*
G01X50241196Y-60676956D01*
G01X50182136Y-60665991D01*
G01X50122621Y-60658680D01*
G01X50062834Y-60655025D01*
G01X50002955Y-60655025D01*
G01X49943168Y-60658680D01*
G01X49883653Y-60665991D01*
G01X49824592Y-60676956D01*
G01X49766168Y-60691578D01*
G01X49708560Y-60709854D01*
G01X49651953Y-60731786D01*
G01X49596526Y-60757373D01*
G01X49542462Y-60786616D01*
G01X49489942Y-60819513D01*
G01X49439148Y-60856066D01*
G01X49390262Y-60896275D01*
G01X49343465Y-60940139D01*
G01X49343465Y-60940139D01*
G01X49343465Y-60940139D01*
G01X49299602Y-60986935D01*
G01X49259393Y-61035821D01*
G01X49222840Y-61086615D01*
G01X49189942Y-61139135D01*
G01X49160700Y-61193199D01*
G01X49135113Y-61248626D01*
G01X49113181Y-61305234D01*
G01X49094904Y-61362841D01*
G01X49080283Y-61421266D01*
G01X49069317Y-61480326D01*
G01X49062007Y-61539841D01*
G01X49058351Y-61599629D01*
G01X49058351Y-61659507D01*
G01X49062007Y-61719294D01*
G01X49069317Y-61778809D01*
G01X49080283Y-61837870D01*
G01X49094904Y-61896294D01*
G01X49113181Y-61953902D01*
G01X49135113Y-62010509D01*
G01X49160700Y-62065936D01*
G01X49189942Y-62120001D01*
G01X49222840Y-62172520D01*
G01X49259393Y-62223314D01*
G01X49299602Y-62272200D01*
G01X49343465Y-62318997D01*
G01X49343465Y-62318997D01*
G01X49343465Y-62318997D01*
G01X49390262Y-62362860D01*
G01X49439148Y-62403069D01*
G01X49489942Y-62439622D01*
G01X49542462Y-62472520D01*
G01X49596526Y-62501762D01*
G01X49651953Y-62527349D01*
G01X49708560Y-62549281D01*
G01X49766168Y-62567558D01*
G01X49824592Y-62582179D01*
G01X49883653Y-62593145D01*
G01X49943168Y-62600455D01*
G01X50002955Y-62604111D01*
G01X50062834Y-62604111D01*
G01X50122621Y-62600455D01*
G01X50182136Y-62593145D01*
G01X50241196Y-62582179D01*
G01X50299621Y-62567558D01*
G01X50357228Y-62549281D01*
G01X50413836Y-62527349D01*
G01X50469263Y-62501762D01*
G01X50523327Y-62472520D01*
G01X50575847Y-62439622D01*
G01X50626641Y-62403069D01*
G01X50675527Y-62362860D01*
G01X50722324Y-62318997D01*
G01X50722324Y-62318997D01*
G37*
G36*
G01X51139517Y-60522946D02*
G01X50662220Y-60045648D01*
G01X50662220Y-60045648D01*
G01X50630587Y-60008463D01*
G01X50605984Y-59967784D01*
G01X50588411Y-59924484D01*
G01X50577867Y-59879437D01*
G01X50574352Y-59833516D01*
G01X50577867Y-59787596D01*
G01X50588411Y-59742549D01*
G01X50605984Y-59699249D01*
G01X50630587Y-59658570D01*
G01X50662220Y-59621384D01*
G01X50662220Y-59621384D01*
G01X51139517Y-59144087D01*
G01X51616814Y-58666790D01*
G01X51616814Y-58666790D01*
G01X51653999Y-58635158D01*
G01X51694678Y-58610555D01*
G01X51737978Y-58592981D01*
G01X51783025Y-58582437D01*
G01X51828946Y-58578923D01*
G01X51874866Y-58582437D01*
G01X51919913Y-58592981D01*
G01X51963213Y-58610555D01*
G01X52003893Y-58635158D01*
G01X52041078Y-58666790D01*
G01X52041078Y-58666790D01*
G01X52518375Y-59144087D01*
G01X52995672Y-59621384D01*
G01X52995672Y-59621384D01*
G01X53027304Y-59658570D01*
G01X53051907Y-59699249D01*
G01X53069481Y-59742549D01*
G01X53080025Y-59787596D01*
G01X53083540Y-59833516D01*
G01X53080025Y-59879437D01*
G01X53069481Y-59924484D01*
G01X53051907Y-59967784D01*
G01X53027304Y-60008463D01*
G01X52995672Y-60045648D01*
G01X52995672Y-60045648D01*
G01X52518375Y-60522946D01*
G01X52041078Y-61000243D01*
G01X52041078Y-61000243D01*
G01X52003893Y-61031875D01*
G01X51963213Y-61056478D01*
G01X51919913Y-61074052D01*
G01X51874866Y-61084596D01*
G01X51828946Y-61088110D01*
G01X51783025Y-61084596D01*
G01X51737978Y-61074052D01*
G01X51694678Y-61056478D01*
G01X51653999Y-61031875D01*
G01X51616814Y-61000243D01*
G01X51616814Y-61000243D01*
G01X51139517Y-60522946D01*
G37*
G36*
G01X73009250Y-31223854D02*
G01X73009250Y-31223854D01*
G01X73021327Y-31286847D01*
G01X73037243Y-31348111D01*
G01X73056851Y-31407538D01*
G01X73080003Y-31465024D01*
G01X73106554Y-31520459D01*
G01X73136355Y-31573739D01*
G01X73169261Y-31624756D01*
G01X73205123Y-31673402D01*
G01X73243796Y-31719572D01*
G01X73285131Y-31763159D01*
G01X73328983Y-31804055D01*
G01X73375203Y-31842155D01*
G01X73423646Y-31877350D01*
G01X73474163Y-31909535D01*
G01X73526609Y-31938603D01*
G01X73580836Y-31964446D01*
G01X73636696Y-31986958D01*
G01X73694044Y-32006033D01*
G01X73752732Y-32021563D01*
G01X73812613Y-32033442D01*
G01X73873540Y-32041562D01*
G01X73935366Y-32045818D01*
G01X73997945Y-32046101D01*
G01X74061128Y-32042307D01*
G01X74124770Y-32034327D01*
G01X74124770Y-32034327D01*
G01X74124770Y-32034327D01*
G01X74187763Y-32022250D01*
G01X74249027Y-32006334D01*
G01X74308455Y-31986726D01*
G01X74365940Y-31963574D01*
G01X74421376Y-31937023D01*
G01X74474655Y-31907222D01*
G01X74525672Y-31874316D01*
G01X74574318Y-31838454D01*
G01X74620488Y-31799781D01*
G01X74664075Y-31758446D01*
G01X74704971Y-31714594D01*
G01X74743071Y-31668374D01*
G01X74778266Y-31619931D01*
G01X74810451Y-31569414D01*
G01X74839519Y-31516968D01*
G01X74865362Y-31462741D01*
G01X74887874Y-31406881D01*
G01X74906949Y-31349533D01*
G01X74922479Y-31290845D01*
G01X74934358Y-31230964D01*
G01X74942478Y-31170037D01*
G01X74946734Y-31108210D01*
G01X74947017Y-31045632D01*
G01X74943223Y-30982448D01*
G01X74935243Y-30918807D01*
G01X74935243Y-30918807D01*
G01X74935243Y-30918807D01*
G01X74923166Y-30855814D01*
G01X74907250Y-30794550D01*
G01X74887642Y-30735122D01*
G01X74864490Y-30677637D01*
G01X74837939Y-30622201D01*
G01X74808138Y-30568922D01*
G01X74775232Y-30517905D01*
G01X74739370Y-30469259D01*
G01X74700697Y-30423089D01*
G01X74659362Y-30379502D01*
G01X74615510Y-30338606D01*
G01X74569290Y-30300506D01*
G01X74520847Y-30265311D01*
G01X74470330Y-30233126D01*
G01X74417884Y-30204058D01*
G01X74363657Y-30178215D01*
G01X74307797Y-30155702D01*
G01X74250449Y-30136628D01*
G01X74191761Y-30121098D01*
G01X74131880Y-30109219D01*
G01X74070953Y-30101099D01*
G01X74009127Y-30096843D01*
G01X73946548Y-30096559D01*
G01X73883365Y-30100354D01*
G01X73819723Y-30108334D01*
G01X73819723Y-30108334D01*
G01X73819723Y-30108334D01*
G01X73756730Y-30120411D01*
G01X73695466Y-30136327D01*
G01X73636038Y-30155935D01*
G01X73578553Y-30179087D01*
G01X73523117Y-30205638D01*
G01X73469838Y-30235439D01*
G01X73418821Y-30268345D01*
G01X73370175Y-30304207D01*
G01X73324005Y-30342880D01*
G01X73280418Y-30384215D01*
G01X73239522Y-30428067D01*
G01X73201422Y-30474287D01*
G01X73166227Y-30522730D01*
G01X73134042Y-30573247D01*
G01X73104974Y-30625693D01*
G01X73079131Y-30679919D01*
G01X73056619Y-30735780D01*
G01X73037544Y-30793128D01*
G01X73022014Y-30851816D01*
G01X73010135Y-30911697D01*
G01X73002015Y-30972624D01*
G01X72997759Y-31034450D01*
G01X72997475Y-31097029D01*
G01X73001270Y-31160212D01*
G01X73009250Y-31223854D01*
G01X73009250Y-31223854D01*
G37*
G36*
G01X74217066Y-32617062D02*
G01X74883756Y-32511469D01*
G01X74883756Y-32511469D01*
G01X74932432Y-32507735D01*
G01X74979804Y-32511741D01*
G01X75025164Y-32522975D01*
G01X75067805Y-32540923D01*
G01X75107021Y-32565071D01*
G01X75142106Y-32594906D01*
G01X75172352Y-32629914D01*
G01X75197053Y-32669582D01*
G01X75215502Y-32713397D01*
G01X75226992Y-32760845D01*
G01X75226992Y-32760845D01*
G01X75332586Y-33427535D01*
G01X75438179Y-34094225D01*
G01X75438179Y-34094225D01*
G01X75441913Y-34142901D01*
G01X75437907Y-34190273D01*
G01X75426673Y-34235633D01*
G01X75408725Y-34278274D01*
G01X75384577Y-34317490D01*
G01X75354742Y-34352575D01*
G01X75319734Y-34382821D01*
G01X75280066Y-34407522D01*
G01X75236251Y-34425971D01*
G01X75188803Y-34437461D01*
G01X75188803Y-34437461D01*
G01X74522113Y-34543055D01*
G01X73855423Y-34648648D01*
G01X73855423Y-34648648D01*
G01X73806747Y-34652382D01*
G01X73759375Y-34648376D01*
G01X73714015Y-34637142D01*
G01X73671374Y-34619194D01*
G01X73632158Y-34595046D01*
G01X73597073Y-34565211D01*
G01X73566827Y-34530203D01*
G01X73542126Y-34490535D01*
G01X73523677Y-34446720D01*
G01X73512187Y-34399272D01*
G01X73512187Y-34399272D01*
G01X73406593Y-33732582D01*
G01X73301000Y-33065892D01*
G01X73301000Y-33065892D01*
G01X73297266Y-33017216D01*
G01X73301272Y-32969844D01*
G01X73312506Y-32924484D01*
G01X73330454Y-32881843D01*
G01X73354602Y-32842627D01*
G01X73384437Y-32807542D01*
G01X73419445Y-32777296D01*
G01X73459113Y-32752595D01*
G01X73502928Y-32734146D01*
G01X73550376Y-32722656D01*
G01X73550376Y-32722656D01*
G01X74217066Y-32617062D01*
G37*
G36*
G01X72808133Y-48846867D02*
G01X72808133Y-48846867D01*
G01X72777876Y-48903422D01*
G01X72751690Y-48961049D01*
G01X72729529Y-49019572D01*
G01X72711345Y-49078817D01*
G01X72697092Y-49138608D01*
G01X72686722Y-49198769D01*
G01X72680189Y-49259124D01*
G01X72677445Y-49319498D01*
G01X72678444Y-49379717D01*
G01X72683137Y-49439603D01*
G01X72691479Y-49498982D01*
G01X72703423Y-49557678D01*
G01X72718920Y-49615516D01*
G01X72737925Y-49672320D01*
G01X72760390Y-49727915D01*
G01X72786269Y-49782125D01*
G01X72815513Y-49834775D01*
G01X72848077Y-49885689D01*
G01X72883912Y-49934692D01*
G01X72922973Y-49981607D01*
G01X72965212Y-50026261D01*
G01X73010582Y-50068476D01*
G01X73059036Y-50108079D01*
G01X73110527Y-50144892D01*
G01X73165008Y-50178742D01*
G01X73165008Y-50178742D01*
G01X73165008Y-50178742D01*
G01X73221563Y-50208999D01*
G01X73279190Y-50235185D01*
G01X73337713Y-50257346D01*
G01X73396958Y-50275530D01*
G01X73456749Y-50289783D01*
G01X73516909Y-50300152D01*
G01X73577265Y-50306686D01*
G01X73637639Y-50309430D01*
G01X73697857Y-50308431D01*
G01X73757744Y-50303738D01*
G01X73817123Y-50295396D01*
G01X73875819Y-50283452D01*
G01X73933657Y-50267955D01*
G01X73990461Y-50248950D01*
G01X74046056Y-50226485D01*
G01X74100266Y-50200606D01*
G01X74152916Y-50171362D01*
G01X74203830Y-50138798D01*
G01X74252832Y-50102962D01*
G01X74299748Y-50063902D01*
G01X74344402Y-50021663D01*
G01X74386617Y-49976293D01*
G01X74426220Y-49927839D01*
G01X74463033Y-49876348D01*
G01X74496883Y-49821867D01*
G01X74496883Y-49821867D01*
G01X74496883Y-49821867D01*
G01X74527140Y-49765312D01*
G01X74553326Y-49707685D01*
G01X74575487Y-49649162D01*
G01X74593670Y-49589917D01*
G01X74607924Y-49530126D01*
G01X74618293Y-49469966D01*
G01X74624827Y-49409610D01*
G01X74627571Y-49349236D01*
G01X74626572Y-49289017D01*
G01X74621878Y-49229131D01*
G01X74613536Y-49169752D01*
G01X74601593Y-49111056D01*
G01X74586095Y-49053218D01*
G01X74567091Y-48996414D01*
G01X74544625Y-48940819D01*
G01X74518747Y-48886609D01*
G01X74489503Y-48833959D01*
G01X74456939Y-48783045D01*
G01X74421103Y-48734043D01*
G01X74382043Y-48687127D01*
G01X74339804Y-48642473D01*
G01X74294434Y-48600258D01*
G01X74245980Y-48560655D01*
G01X74194489Y-48523842D01*
G01X74140008Y-48489992D01*
G01X74140008Y-48489992D01*
G01X74140008Y-48489992D01*
G01X74083453Y-48459735D01*
G01X74025826Y-48433549D01*
G01X73967302Y-48411388D01*
G01X73908058Y-48393205D01*
G01X73848267Y-48378951D01*
G01X73788106Y-48368582D01*
G01X73727751Y-48362048D01*
G01X73667377Y-48359304D01*
G01X73607158Y-48360303D01*
G01X73547272Y-48364996D01*
G01X73487893Y-48373339D01*
G01X73429197Y-48385282D01*
G01X73371359Y-48400779D01*
G01X73314554Y-48419784D01*
G01X73258960Y-48442249D01*
G01X73204750Y-48468128D01*
G01X73152100Y-48497372D01*
G01X73101186Y-48529936D01*
G01X73052183Y-48565772D01*
G01X73005268Y-48604832D01*
G01X72960614Y-48647071D01*
G01X72918398Y-48692441D01*
G01X72878796Y-48740895D01*
G01X72841982Y-48792386D01*
G01X72808133Y-48846867D01*
G01X72808133Y-48846867D01*
G37*
G36*
G01X72870008Y-50689697D02*
G01X73454575Y-51027197D01*
G01X73454575Y-51027197D01*
G01X73494754Y-51054928D01*
G01X73529047Y-51087853D01*
G01X73557229Y-51125129D01*
G01X73579073Y-51165912D01*
G01X73594353Y-51209359D01*
G01X73602843Y-51254624D01*
G01X73604317Y-51300865D01*
G01X73598549Y-51347238D01*
G01X73585313Y-51392899D01*
G01X73564383Y-51437004D01*
G01X73564383Y-51437004D01*
G01X73226883Y-52021571D01*
G01X72889383Y-52606138D01*
G01X72889383Y-52606138D01*
G01X72861652Y-52646317D01*
G01X72828726Y-52680610D01*
G01X72791450Y-52708792D01*
G01X72750667Y-52730636D01*
G01X72707221Y-52745916D01*
G01X72661955Y-52754406D01*
G01X72615714Y-52755880D01*
G01X72569342Y-52750112D01*
G01X72523681Y-52736876D01*
G01X72479575Y-52715946D01*
G01X72479575Y-52715946D01*
G01X71895008Y-52378446D01*
G01X71310441Y-52040946D01*
G01X71310441Y-52040946D01*
G01X71270262Y-52013215D01*
G01X71235969Y-51980289D01*
G01X71207787Y-51943013D01*
G01X71185943Y-51902230D01*
G01X71170663Y-51858784D01*
G01X71162173Y-51813519D01*
G01X71160699Y-51767278D01*
G01X71166467Y-51720905D01*
G01X71179703Y-51675244D01*
G01X71200633Y-51631138D01*
G01X71200633Y-51631138D01*
G01X71538133Y-51046571D01*
G01X71875633Y-50462004D01*
G01X71875633Y-50462004D01*
G01X71903365Y-50421825D01*
G01X71936290Y-50387532D01*
G01X71973566Y-50359351D01*
G01X72014349Y-50337507D01*
G01X72057795Y-50322227D01*
G01X72103061Y-50313736D01*
G01X72149302Y-50312262D01*
G01X72195675Y-50318030D01*
G01X72241336Y-50331266D01*
G01X72285441Y-50352197D01*
G01X72285441Y-50352197D01*
G01X72870008Y-50689697D01*
G37*
G36*
G01X22765797Y-92588202D02*
G01X22765797Y-92588202D01*
G01X22829904Y-92586128D01*
G01X22892903Y-92579992D01*
G01X22954666Y-92569923D01*
G01X23015066Y-92556048D01*
G01X23073973Y-92538496D01*
G01X23131258Y-92517396D01*
G01X23186794Y-92492877D01*
G01X23240452Y-92465066D01*
G01X23292103Y-92434092D01*
G01X23341619Y-92400084D01*
G01X23388872Y-92363170D01*
G01X23433733Y-92323478D01*
G01X23476073Y-92281138D01*
G01X23515765Y-92236277D01*
G01X23552679Y-92189025D01*
G01X23586687Y-92139508D01*
G01X23617661Y-92087857D01*
G01X23645471Y-92034199D01*
G01X23669991Y-91978663D01*
G01X23691091Y-91921378D01*
G01X23708643Y-91862471D01*
G01X23722517Y-91802072D01*
G01X23732587Y-91740308D01*
G01X23738723Y-91677309D01*
G01X23740797Y-91613202D01*
G01X23740797Y-91613202D01*
G01X23740797Y-91613202D01*
G01X23738723Y-91549096D01*
G01X23732587Y-91486096D01*
G01X23722517Y-91424333D01*
G01X23708643Y-91363933D01*
G01X23691091Y-91305027D01*
G01X23669991Y-91247741D01*
G01X23645471Y-91192205D01*
G01X23617661Y-91138547D01*
G01X23586687Y-91086896D01*
G01X23552679Y-91037380D01*
G01X23515765Y-90990127D01*
G01X23476073Y-90945266D01*
G01X23433733Y-90902926D01*
G01X23388872Y-90863235D01*
G01X23341619Y-90826321D01*
G01X23292103Y-90792313D01*
G01X23240452Y-90761339D01*
G01X23186794Y-90733528D01*
G01X23131258Y-90709008D01*
G01X23073973Y-90687908D01*
G01X23015066Y-90670357D01*
G01X22954666Y-90656482D01*
G01X22892903Y-90646412D01*
G01X22829904Y-90640276D01*
G01X22765797Y-90638202D01*
G01X22765797Y-90638202D01*
G01X22765797Y-90638202D01*
G01X22701691Y-90640276D01*
G01X22638691Y-90646412D01*
G01X22576928Y-90656482D01*
G01X22516528Y-90670357D01*
G01X22457622Y-90687908D01*
G01X22400336Y-90709008D01*
G01X22344800Y-90733528D01*
G01X22291142Y-90761339D01*
G01X22239491Y-90792313D01*
G01X22189975Y-90826321D01*
G01X22142722Y-90863235D01*
G01X22097861Y-90902926D01*
G01X22055521Y-90945266D01*
G01X22015830Y-90990127D01*
G01X21978916Y-91037380D01*
G01X21944907Y-91086896D01*
G01X21913934Y-91138547D01*
G01X21886123Y-91192205D01*
G01X21861603Y-91247741D01*
G01X21840503Y-91305027D01*
G01X21822952Y-91363933D01*
G01X21809077Y-91424333D01*
G01X21799007Y-91486096D01*
G01X21792871Y-91549096D01*
G01X21790797Y-91613202D01*
G01X21790797Y-91613202D01*
G01X21790797Y-91613202D01*
G01X21792871Y-91677309D01*
G01X21799007Y-91740308D01*
G01X21809077Y-91802072D01*
G01X21822952Y-91862471D01*
G01X21840503Y-91921378D01*
G01X21861603Y-91978663D01*
G01X21886123Y-92034199D01*
G01X21913934Y-92087857D01*
G01X21944907Y-92139508D01*
G01X21978916Y-92189025D01*
G01X22015830Y-92236277D01*
G01X22055521Y-92281138D01*
G01X22097861Y-92323478D01*
G01X22142722Y-92363170D01*
G01X22189975Y-92400084D01*
G01X22239491Y-92434092D01*
G01X22291142Y-92465066D01*
G01X22344800Y-92492877D01*
G01X22400336Y-92517396D01*
G01X22457622Y-92538496D01*
G01X22516528Y-92556048D01*
G01X22576928Y-92569923D01*
G01X22638691Y-92579992D01*
G01X22701691Y-92586128D01*
G01X22765797Y-92588202D01*
G01X22765797Y-92588202D01*
G37*
G36*
G01X25880002Y-91088770D02*
G01X25880002Y-91088770D01*
G01X25944109Y-91086696D01*
G01X26007108Y-91080560D01*
G01X26068871Y-91070491D01*
G01X26129271Y-91056616D01*
G01X26188178Y-91039064D01*
G01X26245463Y-91017964D01*
G01X26300999Y-90993445D01*
G01X26354657Y-90965634D01*
G01X26406308Y-90934660D01*
G01X26455824Y-90900652D01*
G01X26503077Y-90863738D01*
G01X26547938Y-90824046D01*
G01X26590278Y-90781706D01*
G01X26629970Y-90736845D01*
G01X26666884Y-90689593D01*
G01X26700892Y-90640076D01*
G01X26731866Y-90588425D01*
G01X26759676Y-90534767D01*
G01X26784196Y-90479231D01*
G01X26805296Y-90421946D01*
G01X26822848Y-90363039D01*
G01X26836722Y-90302640D01*
G01X26846792Y-90240876D01*
G01X26852928Y-90177877D01*
G01X26855002Y-90113770D01*
G01X26855002Y-90113770D01*
G01X26855002Y-90113770D01*
G01X26852928Y-90049664D01*
G01X26846792Y-89986664D01*
G01X26836722Y-89924901D01*
G01X26822848Y-89864501D01*
G01X26805296Y-89805595D01*
G01X26784196Y-89748309D01*
G01X26759676Y-89692773D01*
G01X26731866Y-89639115D01*
G01X26700892Y-89587464D01*
G01X26666884Y-89537948D01*
G01X26629970Y-89490695D01*
G01X26590278Y-89445834D01*
G01X26547938Y-89403494D01*
G01X26503077Y-89363803D01*
G01X26455824Y-89326889D01*
G01X26406308Y-89292881D01*
G01X26354657Y-89261907D01*
G01X26300999Y-89234096D01*
G01X26245463Y-89209576D01*
G01X26188178Y-89188476D01*
G01X26129271Y-89170925D01*
G01X26068871Y-89157050D01*
G01X26007108Y-89146980D01*
G01X25944109Y-89140844D01*
G01X25880002Y-89138770D01*
G01X25880002Y-89138770D01*
G01X25880002Y-89138770D01*
G01X25815896Y-89140844D01*
G01X25752896Y-89146980D01*
G01X25691133Y-89157050D01*
G01X25630733Y-89170925D01*
G01X25571827Y-89188476D01*
G01X25514541Y-89209576D01*
G01X25459005Y-89234096D01*
G01X25405347Y-89261907D01*
G01X25353696Y-89292881D01*
G01X25304180Y-89326889D01*
G01X25256927Y-89363803D01*
G01X25212066Y-89403494D01*
G01X25169726Y-89445834D01*
G01X25130035Y-89490695D01*
G01X25093121Y-89537948D01*
G01X25059112Y-89587464D01*
G01X25028139Y-89639115D01*
G01X25000328Y-89692773D01*
G01X24975808Y-89748309D01*
G01X24954708Y-89805595D01*
G01X24937157Y-89864501D01*
G01X24923282Y-89924901D01*
G01X24913212Y-89986664D01*
G01X24907076Y-90049664D01*
G01X24905002Y-90113770D01*
G01X24905002Y-90113770D01*
G01X24905002Y-90113770D01*
G01X24907076Y-90177877D01*
G01X24913212Y-90240876D01*
G01X24923282Y-90302640D01*
G01X24937157Y-90363039D01*
G01X24954708Y-90421946D01*
G01X24975808Y-90479231D01*
G01X25000328Y-90534767D01*
G01X25028139Y-90588425D01*
G01X25059112Y-90640076D01*
G01X25093121Y-90689593D01*
G01X25130035Y-90736845D01*
G01X25169726Y-90781706D01*
G01X25212066Y-90824046D01*
G01X25256927Y-90863738D01*
G01X25304180Y-90900652D01*
G01X25353696Y-90934660D01*
G01X25405347Y-90965634D01*
G01X25459005Y-90993445D01*
G01X25514541Y-91017964D01*
G01X25571827Y-91039064D01*
G01X25630733Y-91056616D01*
G01X25691133Y-91070491D01*
G01X25752896Y-91080560D01*
G01X25815896Y-91086696D01*
G01X25880002Y-91088770D01*
G01X25880002Y-91088770D01*
G37*
G36*
G01X30551310Y-79208655D02*
G01X30551310Y-79208655D01*
G01X30615416Y-79206581D01*
G01X30678415Y-79200445D01*
G01X30740179Y-79190376D01*
G01X30800578Y-79176501D01*
G01X30859485Y-79158949D01*
G01X30916771Y-79137849D01*
G01X30972307Y-79113330D01*
G01X31025964Y-79085519D01*
G01X31077616Y-79054545D01*
G01X31127132Y-79020537D01*
G01X31174385Y-78983623D01*
G01X31219245Y-78943931D01*
G01X31261586Y-78901591D01*
G01X31301277Y-78856730D01*
G01X31338191Y-78809478D01*
G01X31372199Y-78759961D01*
G01X31403173Y-78708310D01*
G01X31430984Y-78654652D01*
G01X31455504Y-78599116D01*
G01X31476603Y-78541831D01*
G01X31494155Y-78482924D01*
G01X31508030Y-78422525D01*
G01X31518100Y-78360761D01*
G01X31524236Y-78297762D01*
G01X31526310Y-78233655D01*
G01X31526310Y-78233655D01*
G01X31526310Y-78233655D01*
G01X31524236Y-78169549D01*
G01X31518100Y-78106549D01*
G01X31508030Y-78044786D01*
G01X31494155Y-77984386D01*
G01X31476603Y-77925480D01*
G01X31455504Y-77868194D01*
G01X31430984Y-77812658D01*
G01X31403173Y-77759000D01*
G01X31372199Y-77707349D01*
G01X31338191Y-77657833D01*
G01X31301277Y-77610580D01*
G01X31261586Y-77565719D01*
G01X31219245Y-77523379D01*
G01X31174385Y-77483688D01*
G01X31127132Y-77446774D01*
G01X31077616Y-77412766D01*
G01X31025964Y-77381792D01*
G01X30972307Y-77353981D01*
G01X30916771Y-77329461D01*
G01X30859485Y-77308361D01*
G01X30800578Y-77290810D01*
G01X30740179Y-77276935D01*
G01X30678415Y-77266865D01*
G01X30615416Y-77260729D01*
G01X30551310Y-77258655D01*
G01X30551310Y-77258655D01*
G01X30551310Y-77258655D01*
G01X30487203Y-77260729D01*
G01X30424204Y-77266865D01*
G01X30362440Y-77276935D01*
G01X30302041Y-77290810D01*
G01X30243134Y-77308361D01*
G01X30185849Y-77329461D01*
G01X30130313Y-77353981D01*
G01X30076655Y-77381792D01*
G01X30025004Y-77412766D01*
G01X29975487Y-77446774D01*
G01X29928235Y-77483688D01*
G01X29883374Y-77523379D01*
G01X29841033Y-77565719D01*
G01X29801342Y-77610580D01*
G01X29764428Y-77657833D01*
G01X29730420Y-77707349D01*
G01X29699446Y-77759000D01*
G01X29671635Y-77812658D01*
G01X29647116Y-77868194D01*
G01X29626016Y-77925480D01*
G01X29608464Y-77984386D01*
G01X29594589Y-78044786D01*
G01X29584520Y-78106549D01*
G01X29578384Y-78169549D01*
G01X29576310Y-78233655D01*
G01X29576310Y-78233655D01*
G01X29576310Y-78233655D01*
G01X29578384Y-78297762D01*
G01X29584520Y-78360761D01*
G01X29594589Y-78422525D01*
G01X29608464Y-78482924D01*
G01X29626016Y-78541831D01*
G01X29647116Y-78599116D01*
G01X29671635Y-78654652D01*
G01X29699446Y-78708310D01*
G01X29730420Y-78759961D01*
G01X29764428Y-78809478D01*
G01X29801342Y-78856730D01*
G01X29841033Y-78901591D01*
G01X29883374Y-78943931D01*
G01X29928235Y-78983623D01*
G01X29975487Y-79020537D01*
G01X30025004Y-79054545D01*
G01X30076655Y-79085519D01*
G01X30130313Y-79113330D01*
G01X30185849Y-79137849D01*
G01X30243134Y-79158949D01*
G01X30302041Y-79176501D01*
G01X30362440Y-79190376D01*
G01X30424204Y-79200445D01*
G01X30487203Y-79206581D01*
G01X30551310Y-79208655D01*
G01X30551310Y-79208655D01*
G37*
G36*
G01X33031140Y-76498143D02*
G01X33031140Y-76498143D01*
G01X33095246Y-76496069D01*
G01X33158245Y-76489933D01*
G01X33220009Y-76479864D01*
G01X33280408Y-76465989D01*
G01X33339315Y-76448437D01*
G01X33396600Y-76427337D01*
G01X33452136Y-76402818D01*
G01X33505794Y-76375007D01*
G01X33557446Y-76344033D01*
G01X33606962Y-76310025D01*
G01X33654215Y-76273111D01*
G01X33699075Y-76233419D01*
G01X33741416Y-76191079D01*
G01X33781107Y-76146218D01*
G01X33818021Y-76098966D01*
G01X33852029Y-76049449D01*
G01X33883003Y-75997798D01*
G01X33910814Y-75944140D01*
G01X33935334Y-75888604D01*
G01X33956433Y-75831319D01*
G01X33973985Y-75772412D01*
G01X33987860Y-75712013D01*
G01X33997930Y-75650249D01*
G01X34004066Y-75587250D01*
G01X34006140Y-75523143D01*
G01X34006140Y-75523143D01*
G01X34006140Y-75523143D01*
G01X34004066Y-75459037D01*
G01X33997930Y-75396037D01*
G01X33987860Y-75334274D01*
G01X33973985Y-75273874D01*
G01X33956433Y-75214968D01*
G01X33935334Y-75157682D01*
G01X33910814Y-75102146D01*
G01X33883003Y-75048488D01*
G01X33852029Y-74996837D01*
G01X33818021Y-74947321D01*
G01X33781107Y-74900068D01*
G01X33741416Y-74855207D01*
G01X33699075Y-74812867D01*
G01X33654215Y-74773176D01*
G01X33606962Y-74736262D01*
G01X33557446Y-74702254D01*
G01X33505794Y-74671280D01*
G01X33452136Y-74643469D01*
G01X33396600Y-74618949D01*
G01X33339315Y-74597849D01*
G01X33280408Y-74580298D01*
G01X33220009Y-74566423D01*
G01X33158245Y-74556353D01*
G01X33095246Y-74550217D01*
G01X33031140Y-74548143D01*
G01X33031140Y-74548143D01*
G01X33031140Y-74548143D01*
G01X32967033Y-74550217D01*
G01X32904034Y-74556353D01*
G01X32842270Y-74566423D01*
G01X32781871Y-74580298D01*
G01X32722964Y-74597849D01*
G01X32665679Y-74618949D01*
G01X32610143Y-74643469D01*
G01X32556485Y-74671280D01*
G01X32504833Y-74702254D01*
G01X32455317Y-74736262D01*
G01X32408064Y-74773176D01*
G01X32363204Y-74812867D01*
G01X32320863Y-74855207D01*
G01X32281172Y-74900068D01*
G01X32244258Y-74947321D01*
G01X32210250Y-74996837D01*
G01X32179276Y-75048488D01*
G01X32151465Y-75102146D01*
G01X32126946Y-75157682D01*
G01X32105846Y-75214968D01*
G01X32088294Y-75273874D01*
G01X32074419Y-75334274D01*
G01X32064349Y-75396037D01*
G01X32058213Y-75459037D01*
G01X32056140Y-75523143D01*
G01X32056140Y-75523143D01*
G01X32056140Y-75523143D01*
G01X32058213Y-75587250D01*
G01X32064349Y-75650249D01*
G01X32074419Y-75712013D01*
G01X32088294Y-75772412D01*
G01X32105846Y-75831319D01*
G01X32126946Y-75888604D01*
G01X32151465Y-75944140D01*
G01X32179276Y-75997798D01*
G01X32210250Y-76049449D01*
G01X32244258Y-76098966D01*
G01X32281172Y-76146218D01*
G01X32320863Y-76191079D01*
G01X32363204Y-76233419D01*
G01X32408064Y-76273111D01*
G01X32455317Y-76310025D01*
G01X32504833Y-76344033D01*
G01X32556485Y-76375007D01*
G01X32610143Y-76402818D01*
G01X32665679Y-76427337D01*
G01X32722964Y-76448437D01*
G01X32781871Y-76465989D01*
G01X32842270Y-76479864D01*
G01X32904034Y-76489933D01*
G01X32967033Y-76496069D01*
G01X33031140Y-76498143D01*
G01X33031140Y-76498143D01*
G37*
G36*
G01X28729763Y-71740379D02*
G01X28729763Y-71740379D01*
G01X28793870Y-71738305D01*
G01X28856869Y-71732169D01*
G01X28918632Y-71722100D01*
G01X28979032Y-71708225D01*
G01X29037939Y-71690673D01*
G01X29095224Y-71669573D01*
G01X29150760Y-71645054D01*
G01X29204418Y-71617243D01*
G01X29256069Y-71586269D01*
G01X29305585Y-71552261D01*
G01X29352838Y-71515347D01*
G01X29397699Y-71475655D01*
G01X29440039Y-71433315D01*
G01X29479731Y-71388454D01*
G01X29516645Y-71341202D01*
G01X29550653Y-71291685D01*
G01X29581627Y-71240034D01*
G01X29609437Y-71186376D01*
G01X29633957Y-71130840D01*
G01X29655057Y-71073555D01*
G01X29672609Y-71014648D01*
G01X29686483Y-70954249D01*
G01X29696553Y-70892485D01*
G01X29702689Y-70829486D01*
G01X29704763Y-70765379D01*
G01X29704763Y-70765379D01*
G01X29704763Y-70765379D01*
G01X29702689Y-70701273D01*
G01X29696553Y-70638273D01*
G01X29686483Y-70576510D01*
G01X29672609Y-70516110D01*
G01X29655057Y-70457204D01*
G01X29633957Y-70399918D01*
G01X29609437Y-70344382D01*
G01X29581627Y-70290724D01*
G01X29550653Y-70239073D01*
G01X29516645Y-70189557D01*
G01X29479731Y-70142304D01*
G01X29440039Y-70097443D01*
G01X29397699Y-70055103D01*
G01X29352838Y-70015412D01*
G01X29305585Y-69978498D01*
G01X29256069Y-69944490D01*
G01X29204418Y-69913516D01*
G01X29150760Y-69885705D01*
G01X29095224Y-69861185D01*
G01X29037939Y-69840085D01*
G01X28979032Y-69822534D01*
G01X28918632Y-69808659D01*
G01X28856869Y-69798589D01*
G01X28793870Y-69792453D01*
G01X28729763Y-69790379D01*
G01X28729763Y-69790379D01*
G01X28729763Y-69790379D01*
G01X28665657Y-69792453D01*
G01X28602657Y-69798589D01*
G01X28540894Y-69808659D01*
G01X28480494Y-69822534D01*
G01X28421588Y-69840085D01*
G01X28364302Y-69861185D01*
G01X28308766Y-69885705D01*
G01X28255108Y-69913516D01*
G01X28203457Y-69944490D01*
G01X28153941Y-69978498D01*
G01X28106688Y-70015412D01*
G01X28061827Y-70055103D01*
G01X28019487Y-70097443D01*
G01X27979796Y-70142304D01*
G01X27942882Y-70189557D01*
G01X27908873Y-70239073D01*
G01X27877900Y-70290724D01*
G01X27850089Y-70344382D01*
G01X27825569Y-70399918D01*
G01X27804469Y-70457204D01*
G01X27786918Y-70516110D01*
G01X27773043Y-70576510D01*
G01X27762973Y-70638273D01*
G01X27756837Y-70701273D01*
G01X27754763Y-70765379D01*
G01X27754763Y-70765379D01*
G01X27754763Y-70765379D01*
G01X27756837Y-70829486D01*
G01X27762973Y-70892485D01*
G01X27773043Y-70954249D01*
G01X27786918Y-71014648D01*
G01X27804469Y-71073555D01*
G01X27825569Y-71130840D01*
G01X27850089Y-71186376D01*
G01X27877900Y-71240034D01*
G01X27908873Y-71291685D01*
G01X27942882Y-71341202D01*
G01X27979796Y-71388454D01*
G01X28019487Y-71433315D01*
G01X28061827Y-71475655D01*
G01X28106688Y-71515347D01*
G01X28153941Y-71552261D01*
G01X28203457Y-71586269D01*
G01X28255108Y-71617243D01*
G01X28308766Y-71645054D01*
G01X28364302Y-71669573D01*
G01X28421588Y-71690673D01*
G01X28480494Y-71708225D01*
G01X28540894Y-71722100D01*
G01X28602657Y-71732169D01*
G01X28665657Y-71738305D01*
G01X28729763Y-71740379D01*
G01X28729763Y-71740379D01*
G37*
G36*
G01X26173657Y-74236387D02*
G01X26173657Y-74236387D01*
G01X26237764Y-74234313D01*
G01X26300763Y-74228177D01*
G01X26362526Y-74218108D01*
G01X26422926Y-74204233D01*
G01X26481833Y-74186681D01*
G01X26539118Y-74165581D01*
G01X26594654Y-74141062D01*
G01X26648312Y-74113251D01*
G01X26699963Y-74082277D01*
G01X26749479Y-74048269D01*
G01X26796732Y-74011355D01*
G01X26841593Y-73971663D01*
G01X26883933Y-73929323D01*
G01X26923625Y-73884462D01*
G01X26960539Y-73837210D01*
G01X26994547Y-73787693D01*
G01X27025521Y-73736042D01*
G01X27053331Y-73682384D01*
G01X27077851Y-73626848D01*
G01X27098951Y-73569563D01*
G01X27116503Y-73510656D01*
G01X27130377Y-73450257D01*
G01X27140447Y-73388493D01*
G01X27146583Y-73325494D01*
G01X27148657Y-73261387D01*
G01X27148657Y-73261387D01*
G01X27148657Y-73261387D01*
G01X27146583Y-73197281D01*
G01X27140447Y-73134281D01*
G01X27130377Y-73072518D01*
G01X27116503Y-73012118D01*
G01X27098951Y-72953212D01*
G01X27077851Y-72895926D01*
G01X27053331Y-72840390D01*
G01X27025521Y-72786732D01*
G01X26994547Y-72735081D01*
G01X26960539Y-72685565D01*
G01X26923625Y-72638312D01*
G01X26883933Y-72593451D01*
G01X26841593Y-72551111D01*
G01X26796732Y-72511420D01*
G01X26749479Y-72474506D01*
G01X26699963Y-72440498D01*
G01X26648312Y-72409524D01*
G01X26594654Y-72381713D01*
G01X26539118Y-72357193D01*
G01X26481833Y-72336093D01*
G01X26422926Y-72318542D01*
G01X26362526Y-72304667D01*
G01X26300763Y-72294597D01*
G01X26237764Y-72288461D01*
G01X26173657Y-72286387D01*
G01X26173657Y-72286387D01*
G01X26173657Y-72286387D01*
G01X26109551Y-72288461D01*
G01X26046551Y-72294597D01*
G01X25984788Y-72304667D01*
G01X25924388Y-72318542D01*
G01X25865482Y-72336093D01*
G01X25808196Y-72357193D01*
G01X25752660Y-72381713D01*
G01X25699002Y-72409524D01*
G01X25647351Y-72440498D01*
G01X25597835Y-72474506D01*
G01X25550582Y-72511420D01*
G01X25505721Y-72551111D01*
G01X25463381Y-72593451D01*
G01X25423690Y-72638312D01*
G01X25386776Y-72685565D01*
G01X25352767Y-72735081D01*
G01X25321794Y-72786732D01*
G01X25293983Y-72840390D01*
G01X25269463Y-72895926D01*
G01X25248363Y-72953212D01*
G01X25230812Y-73012118D01*
G01X25216937Y-73072518D01*
G01X25206867Y-73134281D01*
G01X25200731Y-73197281D01*
G01X25198657Y-73261387D01*
G01X25198657Y-73261387D01*
G01X25198657Y-73261387D01*
G01X25200731Y-73325494D01*
G01X25206867Y-73388493D01*
G01X25216937Y-73450257D01*
G01X25230812Y-73510656D01*
G01X25248363Y-73569563D01*
G01X25269463Y-73626848D01*
G01X25293983Y-73682384D01*
G01X25321794Y-73736042D01*
G01X25352767Y-73787693D01*
G01X25386776Y-73837210D01*
G01X25423690Y-73884462D01*
G01X25463381Y-73929323D01*
G01X25505721Y-73971663D01*
G01X25550582Y-74011355D01*
G01X25597835Y-74048269D01*
G01X25647351Y-74082277D01*
G01X25699002Y-74113251D01*
G01X25752660Y-74141062D01*
G01X25808196Y-74165581D01*
G01X25865482Y-74186681D01*
G01X25924388Y-74204233D01*
G01X25984788Y-74218108D01*
G01X26046551Y-74228177D01*
G01X26109551Y-74234313D01*
G01X26173657Y-74236387D01*
G01X26173657Y-74236387D01*
G37*
G36*
G01X7409714Y-82839194D02*
G01X7409714Y-82839194D01*
G01X7473821Y-82837120D01*
G01X7536820Y-82830984D01*
G01X7598583Y-82820915D01*
G01X7658983Y-82807040D01*
G01X7717890Y-82789488D01*
G01X7775175Y-82768388D01*
G01X7830711Y-82743869D01*
G01X7884369Y-82716058D01*
G01X7936020Y-82685084D01*
G01X7985536Y-82651076D01*
G01X8032789Y-82614162D01*
G01X8077650Y-82574470D01*
G01X8119990Y-82532130D01*
G01X8159682Y-82487269D01*
G01X8196596Y-82440017D01*
G01X8230604Y-82390500D01*
G01X8261578Y-82338849D01*
G01X8289388Y-82285191D01*
G01X8313908Y-82229655D01*
G01X8335008Y-82172370D01*
G01X8352560Y-82113463D01*
G01X8366434Y-82053064D01*
G01X8376504Y-81991300D01*
G01X8382640Y-81928301D01*
G01X8384714Y-81864194D01*
G01X8384714Y-81864194D01*
G01X8384714Y-81864194D01*
G01X8382640Y-81800088D01*
G01X8376504Y-81737088D01*
G01X8366434Y-81675325D01*
G01X8352560Y-81614925D01*
G01X8335008Y-81556019D01*
G01X8313908Y-81498733D01*
G01X8289388Y-81443197D01*
G01X8261578Y-81389539D01*
G01X8230604Y-81337888D01*
G01X8196596Y-81288372D01*
G01X8159682Y-81241119D01*
G01X8119990Y-81196258D01*
G01X8077650Y-81153918D01*
G01X8032789Y-81114227D01*
G01X7985536Y-81077313D01*
G01X7936020Y-81043305D01*
G01X7884369Y-81012331D01*
G01X7830711Y-80984520D01*
G01X7775175Y-80960000D01*
G01X7717890Y-80938900D01*
G01X7658983Y-80921349D01*
G01X7598583Y-80907474D01*
G01X7536820Y-80897404D01*
G01X7473821Y-80891268D01*
G01X7409714Y-80889194D01*
G01X7409714Y-80889194D01*
G01X7409714Y-80889194D01*
G01X7345608Y-80891268D01*
G01X7282608Y-80897404D01*
G01X7220845Y-80907474D01*
G01X7160445Y-80921349D01*
G01X7101539Y-80938900D01*
G01X7044253Y-80960000D01*
G01X6988717Y-80984520D01*
G01X6935059Y-81012331D01*
G01X6883408Y-81043305D01*
G01X6833892Y-81077313D01*
G01X6786639Y-81114227D01*
G01X6741778Y-81153918D01*
G01X6699438Y-81196258D01*
G01X6659747Y-81241119D01*
G01X6622833Y-81288372D01*
G01X6588824Y-81337888D01*
G01X6557851Y-81389539D01*
G01X6530040Y-81443197D01*
G01X6505520Y-81498733D01*
G01X6484420Y-81556019D01*
G01X6466869Y-81614925D01*
G01X6452994Y-81675325D01*
G01X6442924Y-81737088D01*
G01X6436788Y-81800088D01*
G01X6434714Y-81864194D01*
G01X6434714Y-81864194D01*
G01X6434714Y-81864194D01*
G01X6436788Y-81928301D01*
G01X6442924Y-81991300D01*
G01X6452994Y-82053064D01*
G01X6466869Y-82113463D01*
G01X6484420Y-82172370D01*
G01X6505520Y-82229655D01*
G01X6530040Y-82285191D01*
G01X6557851Y-82338849D01*
G01X6588824Y-82390500D01*
G01X6622833Y-82440017D01*
G01X6659747Y-82487269D01*
G01X6699438Y-82532130D01*
G01X6741778Y-82574470D01*
G01X6786639Y-82614162D01*
G01X6833892Y-82651076D01*
G01X6883408Y-82685084D01*
G01X6935059Y-82716058D01*
G01X6988717Y-82743869D01*
G01X7044253Y-82768388D01*
G01X7101539Y-82789488D01*
G01X7160445Y-82807040D01*
G01X7220845Y-82820915D01*
G01X7282608Y-82830984D01*
G01X7345608Y-82837120D01*
G01X7409714Y-82839194D01*
G01X7409714Y-82839194D01*
G37*
G36*
G01X7434728Y-86419272D02*
G01X7434728Y-86419272D01*
G01X7498835Y-86417198D01*
G01X7561834Y-86411062D01*
G01X7623597Y-86400993D01*
G01X7683997Y-86387118D01*
G01X7742904Y-86369566D01*
G01X7800189Y-86348466D01*
G01X7855725Y-86323947D01*
G01X7909383Y-86296136D01*
G01X7961034Y-86265162D01*
G01X8010550Y-86231154D01*
G01X8057803Y-86194240D01*
G01X8102664Y-86154548D01*
G01X8145004Y-86112208D01*
G01X8184696Y-86067347D01*
G01X8221610Y-86020095D01*
G01X8255618Y-85970578D01*
G01X8286592Y-85918927D01*
G01X8314402Y-85865269D01*
G01X8338922Y-85809733D01*
G01X8360022Y-85752448D01*
G01X8377574Y-85693541D01*
G01X8391448Y-85633142D01*
G01X8401518Y-85571378D01*
G01X8407654Y-85508379D01*
G01X8409728Y-85444272D01*
G01X8409728Y-85444272D01*
G01X8409728Y-85444272D01*
G01X8407654Y-85380166D01*
G01X8401518Y-85317166D01*
G01X8391448Y-85255403D01*
G01X8377574Y-85195003D01*
G01X8360022Y-85136097D01*
G01X8338922Y-85078811D01*
G01X8314402Y-85023275D01*
G01X8286592Y-84969617D01*
G01X8255618Y-84917966D01*
G01X8221610Y-84868450D01*
G01X8184696Y-84821197D01*
G01X8145004Y-84776336D01*
G01X8102664Y-84733996D01*
G01X8057803Y-84694305D01*
G01X8010550Y-84657391D01*
G01X7961034Y-84623383D01*
G01X7909383Y-84592409D01*
G01X7855725Y-84564598D01*
G01X7800189Y-84540078D01*
G01X7742904Y-84518978D01*
G01X7683997Y-84501427D01*
G01X7623597Y-84487552D01*
G01X7561834Y-84477482D01*
G01X7498835Y-84471346D01*
G01X7434728Y-84469272D01*
G01X7434728Y-84469272D01*
G01X7434728Y-84469272D01*
G01X7370622Y-84471346D01*
G01X7307622Y-84477482D01*
G01X7245859Y-84487552D01*
G01X7185459Y-84501427D01*
G01X7126553Y-84518978D01*
G01X7069267Y-84540078D01*
G01X7013731Y-84564598D01*
G01X6960073Y-84592409D01*
G01X6908422Y-84623383D01*
G01X6858906Y-84657391D01*
G01X6811653Y-84694305D01*
G01X6766792Y-84733996D01*
G01X6724452Y-84776336D01*
G01X6684761Y-84821197D01*
G01X6647847Y-84868450D01*
G01X6613838Y-84917966D01*
G01X6582865Y-84969617D01*
G01X6555054Y-85023275D01*
G01X6530534Y-85078811D01*
G01X6509434Y-85136097D01*
G01X6491883Y-85195003D01*
G01X6478008Y-85255403D01*
G01X6467938Y-85317166D01*
G01X6461802Y-85380166D01*
G01X6459728Y-85444272D01*
G01X6459728Y-85444272D01*
G01X6459728Y-85444272D01*
G01X6461802Y-85508379D01*
G01X6467938Y-85571378D01*
G01X6478008Y-85633142D01*
G01X6491883Y-85693541D01*
G01X6509434Y-85752448D01*
G01X6530534Y-85809733D01*
G01X6555054Y-85865269D01*
G01X6582865Y-85918927D01*
G01X6613838Y-85970578D01*
G01X6647847Y-86020095D01*
G01X6684761Y-86067347D01*
G01X6724452Y-86112208D01*
G01X6766792Y-86154548D01*
G01X6811653Y-86194240D01*
G01X6858906Y-86231154D01*
G01X6908422Y-86265162D01*
G01X6960073Y-86296136D01*
G01X7013731Y-86323947D01*
G01X7069267Y-86348466D01*
G01X7126553Y-86369566D01*
G01X7185459Y-86387118D01*
G01X7245859Y-86400993D01*
G01X7307622Y-86411062D01*
G01X7370622Y-86417198D01*
G01X7434728Y-86419272D01*
G01X7434728Y-86419272D01*
G37*
G36*
G01X47792967Y-7333575D02*
G01X47792967Y-7333575D01*
G01X47789011Y-7382683D01*
G01X47777651Y-7433091D01*
G01X47759649Y-7483479D01*
G01X47735768Y-7532527D01*
G01X47706769Y-7578914D01*
G01X47673415Y-7621319D01*
G01X47636468Y-7658424D01*
G01X47596689Y-7688906D01*
G01X47582932Y-7697367D01*
G01X45899641Y-8669225D01*
G01X45899641Y-8669225D01*
G01X45855139Y-8690343D01*
G01X45805807Y-8705701D01*
G01X45753172Y-8715301D01*
G01X45698758Y-8719140D01*
G01X45644089Y-8717220D01*
G01X45590689Y-8709541D01*
G01X45540085Y-8696102D01*
G01X45493799Y-8676904D01*
G01X45479594Y-8669225D01*
G01X43796295Y-7697367D01*
G01X43796295Y-7697367D01*
G01X43755744Y-7669385D01*
G01X43717770Y-7634341D01*
G01X43683133Y-7593556D01*
G01X43652598Y-7548349D01*
G01X43626925Y-7500042D01*
G01X43606878Y-7449954D01*
G01X43593219Y-7399406D01*
G01X43586710Y-7349718D01*
G01X43586261Y-7333575D01*
G01X43586261Y-5389885D01*
G01X43586261Y-5389885D01*
G01X43590217Y-5340779D01*
G01X43601578Y-5290373D01*
G01X43619580Y-5239986D01*
G01X43643462Y-5190940D01*
G01X43672461Y-5144556D01*
G01X43705816Y-5102153D01*
G01X43742762Y-5065052D01*
G01X43782539Y-5034574D01*
G01X43796295Y-5026115D01*
G01X45479594Y-4054264D01*
G01X45479594Y-4054264D01*
G01X45524101Y-4033134D01*
G01X45573435Y-4017766D01*
G01X45626072Y-4008162D01*
G01X45680488Y-4004320D01*
G01X45735157Y-4006241D01*
G01X45788554Y-4013925D01*
G01X45839156Y-4027371D01*
G01X45885437Y-4046580D01*
G01X45899641Y-4054264D01*
G01X47582932Y-5026115D01*
G01X47582932Y-5026115D01*
G01X47623485Y-5054091D01*
G01X47661461Y-5089131D01*
G01X47696098Y-5129913D01*
G01X47726633Y-5175118D01*
G01X47752304Y-5223423D01*
G01X47772351Y-5273510D01*
G01X47786009Y-5324056D01*
G01X47792518Y-5373742D01*
G01X47792967Y-5389885D01*
G37*
G36*
G01X74360676Y-45544644D02*
G01X74360676Y-45544644D01*
G01X74360512Y-45608784D01*
G01X74364445Y-45671959D01*
G01X74372353Y-45734036D01*
G01X74384112Y-45794883D01*
G01X74399597Y-45854366D01*
G01X74418685Y-45912353D01*
G01X74441251Y-45968711D01*
G01X74467173Y-46023307D01*
G01X74496325Y-46076008D01*
G01X74528584Y-46126681D01*
G01X74563827Y-46175193D01*
G01X74601928Y-46221412D01*
G01X74642765Y-46265204D01*
G01X74686213Y-46306437D01*
G01X74732149Y-46344977D01*
G01X74780448Y-46380693D01*
G01X74830987Y-46413450D01*
G01X74883642Y-46443117D01*
G01X74938288Y-46469560D01*
G01X74994802Y-46492646D01*
G01X75053061Y-46512243D01*
G01X75112939Y-46528217D01*
G01X75174314Y-46540436D01*
G01X75237060Y-46548767D01*
G01X75301055Y-46553077D01*
G01X75301055Y-46553077D01*
G01X75301055Y-46553077D01*
G01X75365195Y-46553242D01*
G01X75428370Y-46549308D01*
G01X75490448Y-46541400D01*
G01X75551294Y-46529641D01*
G01X75610778Y-46514156D01*
G01X75668765Y-46495068D01*
G01X75725123Y-46472502D01*
G01X75779718Y-46446581D01*
G01X75832419Y-46417428D01*
G01X75883092Y-46385169D01*
G01X75931604Y-46349927D01*
G01X75977823Y-46311825D01*
G01X76021615Y-46270988D01*
G01X76062848Y-46227540D01*
G01X76101389Y-46181604D01*
G01X76137104Y-46133305D01*
G01X76169862Y-46082766D01*
G01X76199528Y-46030111D01*
G01X76225971Y-45975465D01*
G01X76249057Y-45918951D01*
G01X76268654Y-45860693D01*
G01X76284628Y-45800814D01*
G01X76296848Y-45739440D01*
G01X76305178Y-45676693D01*
G01X76309488Y-45612698D01*
G01X76309488Y-45612698D01*
G01X76309488Y-45612698D01*
G01X76309653Y-45548558D01*
G01X76305719Y-45485383D01*
G01X76297811Y-45423306D01*
G01X76286053Y-45362459D01*
G01X76270568Y-45302975D01*
G01X76251480Y-45244988D01*
G01X76228913Y-45188631D01*
G01X76202992Y-45134035D01*
G01X76173840Y-45081334D01*
G01X76141580Y-45030661D01*
G01X76106338Y-44982149D01*
G01X76068236Y-44935930D01*
G01X76027400Y-44892138D01*
G01X75983951Y-44850905D01*
G01X75938016Y-44812365D01*
G01X75889716Y-44776649D01*
G01X75839178Y-44743892D01*
G01X75786523Y-44714225D01*
G01X75731877Y-44687782D01*
G01X75675362Y-44664696D01*
G01X75617104Y-44645099D01*
G01X75557226Y-44629125D01*
G01X75495851Y-44616906D01*
G01X75433104Y-44608575D01*
G01X75369109Y-44604265D01*
G01X75369109Y-44604265D01*
G01X75369109Y-44604265D01*
G01X75304970Y-44604100D01*
G01X75241794Y-44608034D01*
G01X75179717Y-44615942D01*
G01X75118870Y-44627700D01*
G01X75059387Y-44643185D01*
G01X75001400Y-44662273D01*
G01X74945042Y-44684840D01*
G01X74890446Y-44710761D01*
G01X74837746Y-44739913D01*
G01X74787073Y-44772173D01*
G01X74738560Y-44807415D01*
G01X74692342Y-44845517D01*
G01X74648549Y-44886354D01*
G01X74607317Y-44929802D01*
G01X74568776Y-44975738D01*
G01X74533061Y-45024037D01*
G01X74500303Y-45074576D01*
G01X74470636Y-45127230D01*
G01X74444194Y-45181877D01*
G01X74421107Y-45238391D01*
G01X74401511Y-45296649D01*
G01X74385536Y-45356527D01*
G01X74373317Y-45417902D01*
G01X74364986Y-45480649D01*
G01X74360676Y-45544644D01*
G01X74360676Y-45544644D01*
G37*
G36*
G01X74661510Y-36929895D02*
G01X74661510Y-36929895D01*
G01X74661345Y-36994035D01*
G01X74665279Y-37057210D01*
G01X74673187Y-37119287D01*
G01X74684946Y-37180134D01*
G01X74700431Y-37239617D01*
G01X74719518Y-37297604D01*
G01X74742085Y-37353962D01*
G01X74768006Y-37408558D01*
G01X74797159Y-37461259D01*
G01X74829418Y-37511932D01*
G01X74864660Y-37560444D01*
G01X74902762Y-37606663D01*
G01X74943599Y-37650455D01*
G01X74987047Y-37691688D01*
G01X75032983Y-37730228D01*
G01X75081282Y-37765944D01*
G01X75131821Y-37798701D01*
G01X75184475Y-37828368D01*
G01X75239122Y-37854811D01*
G01X75295636Y-37877897D01*
G01X75353894Y-37897494D01*
G01X75413773Y-37913468D01*
G01X75475147Y-37925687D01*
G01X75537894Y-37934018D01*
G01X75601889Y-37938328D01*
G01X75601889Y-37938328D01*
G01X75601889Y-37938328D01*
G01X75666029Y-37938493D01*
G01X75729204Y-37934559D01*
G01X75791281Y-37926651D01*
G01X75852128Y-37914892D01*
G01X75911611Y-37899407D01*
G01X75969598Y-37880320D01*
G01X76025956Y-37857753D01*
G01X76080552Y-37831832D01*
G01X76133253Y-37802679D01*
G01X76183926Y-37770420D01*
G01X76232438Y-37735178D01*
G01X76278657Y-37697076D01*
G01X76322449Y-37656239D01*
G01X76363682Y-37612791D01*
G01X76402222Y-37566855D01*
G01X76437938Y-37518556D01*
G01X76470695Y-37468017D01*
G01X76500362Y-37415363D01*
G01X76526805Y-37360716D01*
G01X76549891Y-37304202D01*
G01X76569488Y-37245944D01*
G01X76585462Y-37186065D01*
G01X76597681Y-37124691D01*
G01X76606012Y-37061944D01*
G01X76610322Y-36997949D01*
G01X76610322Y-36997949D01*
G01X76610322Y-36997949D01*
G01X76610487Y-36933809D01*
G01X76606553Y-36870634D01*
G01X76598645Y-36808557D01*
G01X76586886Y-36747710D01*
G01X76571401Y-36688227D01*
G01X76552314Y-36630240D01*
G01X76529747Y-36573882D01*
G01X76503826Y-36519286D01*
G01X76474673Y-36466585D01*
G01X76442414Y-36415912D01*
G01X76407172Y-36367400D01*
G01X76369070Y-36321181D01*
G01X76328233Y-36277389D01*
G01X76284785Y-36236156D01*
G01X76238849Y-36197616D01*
G01X76190550Y-36161900D01*
G01X76140011Y-36129143D01*
G01X76087357Y-36099476D01*
G01X76032710Y-36073033D01*
G01X75976196Y-36049947D01*
G01X75917938Y-36030350D01*
G01X75858059Y-36014376D01*
G01X75796685Y-36002157D01*
G01X75733938Y-35993826D01*
G01X75669943Y-35989516D01*
G01X75669943Y-35989516D01*
G01X75669943Y-35989516D01*
G01X75605803Y-35989351D01*
G01X75542628Y-35993285D01*
G01X75480551Y-36001193D01*
G01X75419704Y-36012951D01*
G01X75360221Y-36028437D01*
G01X75302234Y-36047524D01*
G01X75245876Y-36070091D01*
G01X75191280Y-36096012D01*
G01X75138579Y-36125165D01*
G01X75087906Y-36157424D01*
G01X75039394Y-36192666D01*
G01X74993175Y-36230768D01*
G01X74949383Y-36271605D01*
G01X74908150Y-36315053D01*
G01X74869610Y-36360989D01*
G01X74833894Y-36409288D01*
G01X74801137Y-36459827D01*
G01X74771470Y-36512481D01*
G01X74745027Y-36567128D01*
G01X74721941Y-36623642D01*
G01X74702344Y-36681900D01*
G01X74686370Y-36741779D01*
G01X74674151Y-36803153D01*
G01X74665820Y-36865900D01*
G01X74661510Y-36929895D01*
G01X74661510Y-36929895D01*
G37*
G36*
G01X31913712Y-40246418D02*
G01X31913712Y-40246418D01*
G01X31960509Y-40290282D01*
G01X32009395Y-40330490D01*
G01X32060189Y-40367044D01*
G01X32112709Y-40399941D01*
G01X32166773Y-40429184D01*
G01X32222200Y-40454771D01*
G01X32278808Y-40476703D01*
G01X32336415Y-40494979D01*
G01X32394839Y-40509601D01*
G01X32453900Y-40520566D01*
G01X32513415Y-40527877D01*
G01X32573202Y-40531532D01*
G01X32633081Y-40531532D01*
G01X32692868Y-40527877D01*
G01X32752383Y-40520566D01*
G01X32811444Y-40509601D01*
G01X32869868Y-40494979D01*
G01X32927475Y-40476703D01*
G01X32984083Y-40454771D01*
G01X33039510Y-40429184D01*
G01X33093574Y-40399941D01*
G01X33146094Y-40367044D01*
G01X33196888Y-40330490D01*
G01X33245774Y-40290282D01*
G01X33292571Y-40246418D01*
G01X33292571Y-40246418D01*
G01X33292571Y-40246418D01*
G01X33336434Y-40199622D01*
G01X33376643Y-40150736D01*
G01X33413196Y-40099942D01*
G01X33446093Y-40047422D01*
G01X33475336Y-39993358D01*
G01X33500923Y-39937931D01*
G01X33522855Y-39881323D01*
G01X33541131Y-39823716D01*
G01X33555753Y-39765291D01*
G01X33566719Y-39706231D01*
G01X33574029Y-39646716D01*
G01X33577685Y-39586928D01*
G01X33577685Y-39527050D01*
G01X33574029Y-39467263D01*
G01X33566719Y-39407748D01*
G01X33555753Y-39348687D01*
G01X33541131Y-39290263D01*
G01X33522855Y-39232655D01*
G01X33500923Y-39176048D01*
G01X33475336Y-39120621D01*
G01X33446093Y-39066556D01*
G01X33413196Y-39014037D01*
G01X33376643Y-38963243D01*
G01X33336434Y-38914357D01*
G01X33292571Y-38867560D01*
G01X33292571Y-38867560D01*
G01X33292571Y-38867560D01*
G01X33245774Y-38823696D01*
G01X33196888Y-38783488D01*
G01X33146094Y-38746935D01*
G01X33093574Y-38714037D01*
G01X33039510Y-38684795D01*
G01X32984083Y-38659208D01*
G01X32927475Y-38637276D01*
G01X32869868Y-38618999D01*
G01X32811444Y-38604378D01*
G01X32752383Y-38593412D01*
G01X32692868Y-38586102D01*
G01X32633081Y-38582446D01*
G01X32573202Y-38582446D01*
G01X32513415Y-38586102D01*
G01X32453900Y-38593412D01*
G01X32394839Y-38604378D01*
G01X32336415Y-38618999D01*
G01X32278808Y-38637276D01*
G01X32222200Y-38659208D01*
G01X32166773Y-38684795D01*
G01X32112709Y-38714037D01*
G01X32060189Y-38746935D01*
G01X32009395Y-38783488D01*
G01X31960509Y-38823696D01*
G01X31913712Y-38867560D01*
G01X31913712Y-38867560D01*
G01X31913712Y-38867560D01*
G01X31869849Y-38914357D01*
G01X31829640Y-38963243D01*
G01X31793087Y-39014037D01*
G01X31760189Y-39066556D01*
G01X31730947Y-39120621D01*
G01X31705360Y-39176048D01*
G01X31683428Y-39232655D01*
G01X31665151Y-39290263D01*
G01X31650530Y-39348687D01*
G01X31639564Y-39407748D01*
G01X31632254Y-39467263D01*
G01X31628598Y-39527050D01*
G01X31628598Y-39586928D01*
G01X31632254Y-39646716D01*
G01X31639564Y-39706231D01*
G01X31650530Y-39765291D01*
G01X31665151Y-39823716D01*
G01X31683428Y-39881323D01*
G01X31705360Y-39937931D01*
G01X31730947Y-39993358D01*
G01X31760189Y-40047422D01*
G01X31793087Y-40099942D01*
G01X31829640Y-40150736D01*
G01X31869849Y-40199622D01*
G01X31913712Y-40246418D01*
G01X31913712Y-40246418D01*
G37*
G36*
G01X25818452Y-34151158D02*
G01X25818452Y-34151158D01*
G01X25865249Y-34195022D01*
G01X25914135Y-34235230D01*
G01X25964928Y-34271783D01*
G01X26017448Y-34304681D01*
G01X26071512Y-34333923D01*
G01X26126939Y-34359510D01*
G01X26183547Y-34381442D01*
G01X26241154Y-34399719D01*
G01X26299579Y-34414340D01*
G01X26358640Y-34425306D01*
G01X26418154Y-34432617D01*
G01X26477942Y-34436272D01*
G01X26537820Y-34436272D01*
G01X26597608Y-34432617D01*
G01X26657122Y-34425306D01*
G01X26716183Y-34414340D01*
G01X26774608Y-34399719D01*
G01X26832215Y-34381442D01*
G01X26888823Y-34359510D01*
G01X26944250Y-34333923D01*
G01X26998314Y-34304681D01*
G01X27050834Y-34271783D01*
G01X27101627Y-34235230D01*
G01X27150514Y-34195022D01*
G01X27197310Y-34151158D01*
G01X27197310Y-34151158D01*
G01X27197310Y-34151158D01*
G01X27241174Y-34104361D01*
G01X27281382Y-34055475D01*
G01X27317935Y-34004681D01*
G01X27350833Y-33952162D01*
G01X27380075Y-33898097D01*
G01X27405663Y-33842671D01*
G01X27427594Y-33786063D01*
G01X27445871Y-33728456D01*
G01X27460492Y-33670031D01*
G01X27471458Y-33610970D01*
G01X27478769Y-33551455D01*
G01X27482424Y-33491668D01*
G01X27482424Y-33431790D01*
G01X27478769Y-33372002D01*
G01X27471458Y-33312487D01*
G01X27460492Y-33253427D01*
G01X27445871Y-33195002D01*
G01X27427594Y-33137395D01*
G01X27405663Y-33080787D01*
G01X27380075Y-33025360D01*
G01X27350833Y-32971296D01*
G01X27317935Y-32918776D01*
G01X27281382Y-32867982D01*
G01X27241174Y-32819096D01*
G01X27197310Y-32772300D01*
G01X27197310Y-32772300D01*
G01X27197310Y-32772300D01*
G01X27150514Y-32728436D01*
G01X27101627Y-32688228D01*
G01X27050834Y-32651675D01*
G01X26998314Y-32618777D01*
G01X26944250Y-32589534D01*
G01X26888823Y-32563947D01*
G01X26832215Y-32542015D01*
G01X26774608Y-32523739D01*
G01X26716183Y-32509118D01*
G01X26657122Y-32498152D01*
G01X26597608Y-32490841D01*
G01X26537820Y-32487186D01*
G01X26477942Y-32487186D01*
G01X26418154Y-32490841D01*
G01X26358640Y-32498152D01*
G01X26299579Y-32509118D01*
G01X26241154Y-32523739D01*
G01X26183547Y-32542015D01*
G01X26126939Y-32563947D01*
G01X26071512Y-32589534D01*
G01X26017448Y-32618777D01*
G01X25964928Y-32651675D01*
G01X25914135Y-32688228D01*
G01X25865249Y-32728436D01*
G01X25818452Y-32772300D01*
G01X25818452Y-32772300D01*
G01X25818452Y-32772300D01*
G01X25774588Y-32819096D01*
G01X25734380Y-32867982D01*
G01X25697827Y-32918776D01*
G01X25664929Y-32971296D01*
G01X25635687Y-33025360D01*
G01X25610099Y-33080787D01*
G01X25588168Y-33137395D01*
G01X25569891Y-33195002D01*
G01X25555270Y-33253427D01*
G01X25544304Y-33312487D01*
G01X25536993Y-33372002D01*
G01X25533338Y-33431790D01*
G01X25533338Y-33491668D01*
G01X25536993Y-33551455D01*
G01X25544304Y-33610970D01*
G01X25555270Y-33670031D01*
G01X25569891Y-33728456D01*
G01X25588168Y-33786063D01*
G01X25610099Y-33842671D01*
G01X25635687Y-33898097D01*
G01X25664929Y-33952162D01*
G01X25697827Y-34004681D01*
G01X25734380Y-34055475D01*
G01X25774588Y-34104361D01*
G01X25818452Y-34151158D01*
G01X25818452Y-34151158D01*
G37*
G36*
G01X64373308Y-31203422D02*
G01X64373308Y-31203422D01*
G01X64375382Y-31267529D01*
G01X64381518Y-31330528D01*
G01X64391588Y-31392292D01*
G01X64405463Y-31452691D01*
G01X64423014Y-31511598D01*
G01X64444114Y-31568883D01*
G01X64468634Y-31624419D01*
G01X64496445Y-31678077D01*
G01X64527418Y-31729728D01*
G01X64561427Y-31779245D01*
G01X64598341Y-31826497D01*
G01X64638032Y-31871358D01*
G01X64680372Y-31913698D01*
G01X64725233Y-31953390D01*
G01X64772486Y-31990304D01*
G01X64822002Y-32024312D01*
G01X64873653Y-32055286D01*
G01X64927311Y-32083097D01*
G01X64982847Y-32107616D01*
G01X65040133Y-32128716D01*
G01X65099039Y-32146268D01*
G01X65159439Y-32160143D01*
G01X65221202Y-32170212D01*
G01X65284202Y-32176348D01*
G01X65348308Y-32178422D01*
G01X65348308Y-32178422D01*
G01X65348308Y-32178422D01*
G01X65412415Y-32176348D01*
G01X65475414Y-32170212D01*
G01X65537177Y-32160143D01*
G01X65597577Y-32146268D01*
G01X65656484Y-32128716D01*
G01X65713769Y-32107616D01*
G01X65769305Y-32083097D01*
G01X65822963Y-32055286D01*
G01X65874614Y-32024312D01*
G01X65924130Y-31990304D01*
G01X65971383Y-31953390D01*
G01X66016244Y-31913698D01*
G01X66058584Y-31871358D01*
G01X66098276Y-31826497D01*
G01X66135190Y-31779245D01*
G01X66169198Y-31729728D01*
G01X66200172Y-31678077D01*
G01X66227982Y-31624419D01*
G01X66252502Y-31568883D01*
G01X66273602Y-31511598D01*
G01X66291154Y-31452691D01*
G01X66305028Y-31392292D01*
G01X66315098Y-31330528D01*
G01X66321234Y-31267529D01*
G01X66323308Y-31203422D01*
G01X66323308Y-31203422D01*
G01X66323308Y-31203422D01*
G01X66321234Y-31139316D01*
G01X66315098Y-31076316D01*
G01X66305028Y-31014553D01*
G01X66291154Y-30954153D01*
G01X66273602Y-30895247D01*
G01X66252502Y-30837961D01*
G01X66227982Y-30782425D01*
G01X66200172Y-30728767D01*
G01X66169198Y-30677116D01*
G01X66135190Y-30627600D01*
G01X66098276Y-30580347D01*
G01X66058584Y-30535486D01*
G01X66016244Y-30493146D01*
G01X65971383Y-30453455D01*
G01X65924130Y-30416541D01*
G01X65874614Y-30382533D01*
G01X65822963Y-30351559D01*
G01X65769305Y-30323748D01*
G01X65713769Y-30299228D01*
G01X65656484Y-30278128D01*
G01X65597577Y-30260577D01*
G01X65537177Y-30246702D01*
G01X65475414Y-30236632D01*
G01X65412415Y-30230496D01*
G01X65348308Y-30228422D01*
G01X65348308Y-30228422D01*
G01X65348308Y-30228422D01*
G01X65284202Y-30230496D01*
G01X65221202Y-30236632D01*
G01X65159439Y-30246702D01*
G01X65099039Y-30260577D01*
G01X65040133Y-30278128D01*
G01X64982847Y-30299228D01*
G01X64927311Y-30323748D01*
G01X64873653Y-30351559D01*
G01X64822002Y-30382533D01*
G01X64772486Y-30416541D01*
G01X64725233Y-30453455D01*
G01X64680372Y-30493146D01*
G01X64638032Y-30535486D01*
G01X64598341Y-30580347D01*
G01X64561427Y-30627600D01*
G01X64527418Y-30677116D01*
G01X64496445Y-30728767D01*
G01X64468634Y-30782425D01*
G01X64444114Y-30837961D01*
G01X64423014Y-30895247D01*
G01X64405463Y-30954153D01*
G01X64391588Y-31014553D01*
G01X64381518Y-31076316D01*
G01X64375382Y-31139316D01*
G01X64373308Y-31203422D01*
G01X64373308Y-31203422D01*
G37*
G36*
G01X64373308Y-22583422D02*
G01X64373308Y-22583422D01*
G01X64375382Y-22647529D01*
G01X64381518Y-22710528D01*
G01X64391588Y-22772292D01*
G01X64405463Y-22832691D01*
G01X64423014Y-22891598D01*
G01X64444114Y-22948883D01*
G01X64468634Y-23004419D01*
G01X64496445Y-23058077D01*
G01X64527418Y-23109728D01*
G01X64561427Y-23159245D01*
G01X64598341Y-23206497D01*
G01X64638032Y-23251358D01*
G01X64680372Y-23293698D01*
G01X64725233Y-23333390D01*
G01X64772486Y-23370304D01*
G01X64822002Y-23404312D01*
G01X64873653Y-23435286D01*
G01X64927311Y-23463097D01*
G01X64982847Y-23487616D01*
G01X65040133Y-23508716D01*
G01X65099039Y-23526268D01*
G01X65159439Y-23540143D01*
G01X65221202Y-23550212D01*
G01X65284202Y-23556348D01*
G01X65348308Y-23558422D01*
G01X65348308Y-23558422D01*
G01X65348308Y-23558422D01*
G01X65412415Y-23556348D01*
G01X65475414Y-23550212D01*
G01X65537177Y-23540143D01*
G01X65597577Y-23526268D01*
G01X65656484Y-23508716D01*
G01X65713769Y-23487616D01*
G01X65769305Y-23463097D01*
G01X65822963Y-23435286D01*
G01X65874614Y-23404312D01*
G01X65924130Y-23370304D01*
G01X65971383Y-23333390D01*
G01X66016244Y-23293698D01*
G01X66058584Y-23251358D01*
G01X66098276Y-23206497D01*
G01X66135190Y-23159245D01*
G01X66169198Y-23109728D01*
G01X66200172Y-23058077D01*
G01X66227982Y-23004419D01*
G01X66252502Y-22948883D01*
G01X66273602Y-22891598D01*
G01X66291154Y-22832691D01*
G01X66305028Y-22772292D01*
G01X66315098Y-22710528D01*
G01X66321234Y-22647529D01*
G01X66323308Y-22583422D01*
G01X66323308Y-22583422D01*
G01X66323308Y-22583422D01*
G01X66321234Y-22519316D01*
G01X66315098Y-22456316D01*
G01X66305028Y-22394553D01*
G01X66291154Y-22334153D01*
G01X66273602Y-22275247D01*
G01X66252502Y-22217961D01*
G01X66227982Y-22162425D01*
G01X66200172Y-22108767D01*
G01X66169198Y-22057116D01*
G01X66135190Y-22007600D01*
G01X66098276Y-21960347D01*
G01X66058584Y-21915486D01*
G01X66016244Y-21873146D01*
G01X65971383Y-21833455D01*
G01X65924130Y-21796541D01*
G01X65874614Y-21762533D01*
G01X65822963Y-21731559D01*
G01X65769305Y-21703748D01*
G01X65713769Y-21679228D01*
G01X65656484Y-21658128D01*
G01X65597577Y-21640577D01*
G01X65537177Y-21626702D01*
G01X65475414Y-21616632D01*
G01X65412415Y-21610496D01*
G01X65348308Y-21608422D01*
G01X65348308Y-21608422D01*
G01X65348308Y-21608422D01*
G01X65284202Y-21610496D01*
G01X65221202Y-21616632D01*
G01X65159439Y-21626702D01*
G01X65099039Y-21640577D01*
G01X65040133Y-21658128D01*
G01X64982847Y-21679228D01*
G01X64927311Y-21703748D01*
G01X64873653Y-21731559D01*
G01X64822002Y-21762533D01*
G01X64772486Y-21796541D01*
G01X64725233Y-21833455D01*
G01X64680372Y-21873146D01*
G01X64638032Y-21915486D01*
G01X64598341Y-21960347D01*
G01X64561427Y-22007600D01*
G01X64527418Y-22057116D01*
G01X64496445Y-22108767D01*
G01X64468634Y-22162425D01*
G01X64444114Y-22217961D01*
G01X64423014Y-22275247D01*
G01X64405463Y-22334153D01*
G01X64391588Y-22394553D01*
G01X64381518Y-22456316D01*
G01X64375382Y-22519316D01*
G01X64373308Y-22583422D01*
G01X64373308Y-22583422D01*
G37*
G36*
G01X61842484Y-71665544D02*
G01X61842484Y-71665544D01*
G01X61889281Y-71709408D01*
G01X61938167Y-71749616D01*
G01X61988961Y-71786170D01*
G01X62041481Y-71819067D01*
G01X62095545Y-71848310D01*
G01X62150972Y-71873897D01*
G01X62207580Y-71895829D01*
G01X62265187Y-71914105D01*
G01X62323611Y-71928727D01*
G01X62382672Y-71939692D01*
G01X62442187Y-71947003D01*
G01X62501974Y-71950658D01*
G01X62561853Y-71950658D01*
G01X62621640Y-71947003D01*
G01X62681155Y-71939692D01*
G01X62740216Y-71928727D01*
G01X62798640Y-71914105D01*
G01X62856247Y-71895829D01*
G01X62912855Y-71873897D01*
G01X62968282Y-71848310D01*
G01X63022346Y-71819067D01*
G01X63074866Y-71786170D01*
G01X63125660Y-71749616D01*
G01X63174546Y-71709408D01*
G01X63221343Y-71665544D01*
G01X63221343Y-71665544D01*
G01X63221343Y-71665544D01*
G01X63265206Y-71618748D01*
G01X63305415Y-71569862D01*
G01X63341968Y-71519068D01*
G01X63374865Y-71466548D01*
G01X63404108Y-71412484D01*
G01X63429695Y-71357057D01*
G01X63451627Y-71300449D01*
G01X63469903Y-71242842D01*
G01X63484525Y-71184417D01*
G01X63495491Y-71125357D01*
G01X63502801Y-71065842D01*
G01X63506457Y-71006054D01*
G01X63506457Y-70946176D01*
G01X63502801Y-70886389D01*
G01X63495491Y-70826874D01*
G01X63484525Y-70767813D01*
G01X63469903Y-70709389D01*
G01X63451627Y-70651781D01*
G01X63429695Y-70595174D01*
G01X63404108Y-70539747D01*
G01X63374865Y-70485682D01*
G01X63341968Y-70433163D01*
G01X63305415Y-70382369D01*
G01X63265206Y-70333483D01*
G01X63221343Y-70286686D01*
G01X63221343Y-70286686D01*
G01X63221343Y-70286686D01*
G01X63174546Y-70242822D01*
G01X63125660Y-70202614D01*
G01X63074866Y-70166061D01*
G01X63022346Y-70133163D01*
G01X62968282Y-70103921D01*
G01X62912855Y-70078334D01*
G01X62856247Y-70056402D01*
G01X62798640Y-70038125D01*
G01X62740216Y-70023504D01*
G01X62681155Y-70012538D01*
G01X62621640Y-70005228D01*
G01X62561853Y-70001572D01*
G01X62501974Y-70001572D01*
G01X62442187Y-70005228D01*
G01X62382672Y-70012538D01*
G01X62323611Y-70023504D01*
G01X62265187Y-70038125D01*
G01X62207580Y-70056402D01*
G01X62150972Y-70078334D01*
G01X62095545Y-70103921D01*
G01X62041481Y-70133163D01*
G01X61988961Y-70166061D01*
G01X61938167Y-70202614D01*
G01X61889281Y-70242822D01*
G01X61842484Y-70286686D01*
G01X61842484Y-70286686D01*
G01X61842484Y-70286686D01*
G01X61798621Y-70333483D01*
G01X61758412Y-70382369D01*
G01X61721859Y-70433163D01*
G01X61688961Y-70485682D01*
G01X61659719Y-70539747D01*
G01X61634132Y-70595174D01*
G01X61612200Y-70651781D01*
G01X61593923Y-70709389D01*
G01X61579302Y-70767813D01*
G01X61568336Y-70826874D01*
G01X61561026Y-70886389D01*
G01X61557370Y-70946176D01*
G01X61557370Y-71006054D01*
G01X61561026Y-71065842D01*
G01X61568336Y-71125357D01*
G01X61579302Y-71184417D01*
G01X61593923Y-71242842D01*
G01X61612200Y-71300449D01*
G01X61634132Y-71357057D01*
G01X61659719Y-71412484D01*
G01X61688961Y-71466548D01*
G01X61721859Y-71519068D01*
G01X61758412Y-71569862D01*
G01X61798621Y-71618748D01*
G01X61842484Y-71665544D01*
G01X61842484Y-71665544D01*
G37*
G36*
G01X55747224Y-65570284D02*
G01X55747224Y-65570284D01*
G01X55794021Y-65614148D01*
G01X55842907Y-65654356D01*
G01X55893700Y-65690909D01*
G01X55946220Y-65723807D01*
G01X56000284Y-65753049D01*
G01X56055711Y-65778636D01*
G01X56112319Y-65800568D01*
G01X56169926Y-65818845D01*
G01X56228351Y-65833466D01*
G01X56287412Y-65844432D01*
G01X56346926Y-65851743D01*
G01X56406714Y-65855398D01*
G01X56466592Y-65855398D01*
G01X56526380Y-65851743D01*
G01X56585894Y-65844432D01*
G01X56644955Y-65833466D01*
G01X56703380Y-65818845D01*
G01X56760987Y-65800568D01*
G01X56817595Y-65778636D01*
G01X56873022Y-65753049D01*
G01X56927086Y-65723807D01*
G01X56979606Y-65690909D01*
G01X57030399Y-65654356D01*
G01X57079286Y-65614148D01*
G01X57126082Y-65570284D01*
G01X57126082Y-65570284D01*
G01X57126082Y-65570284D01*
G01X57169946Y-65523487D01*
G01X57210154Y-65474601D01*
G01X57246707Y-65423807D01*
G01X57279605Y-65371288D01*
G01X57308847Y-65317223D01*
G01X57334435Y-65261797D01*
G01X57356366Y-65205189D01*
G01X57374643Y-65147582D01*
G01X57389264Y-65089157D01*
G01X57400230Y-65030096D01*
G01X57407541Y-64970581D01*
G01X57411196Y-64910794D01*
G01X57411196Y-64850916D01*
G01X57407541Y-64791128D01*
G01X57400230Y-64731613D01*
G01X57389264Y-64672553D01*
G01X57374643Y-64614128D01*
G01X57356366Y-64556521D01*
G01X57334435Y-64499913D01*
G01X57308847Y-64444486D01*
G01X57279605Y-64390422D01*
G01X57246707Y-64337902D01*
G01X57210154Y-64287108D01*
G01X57169946Y-64238222D01*
G01X57126082Y-64191426D01*
G01X57126082Y-64191426D01*
G01X57126082Y-64191426D01*
G01X57079286Y-64147562D01*
G01X57030399Y-64107354D01*
G01X56979606Y-64070801D01*
G01X56927086Y-64037903D01*
G01X56873022Y-64008660D01*
G01X56817595Y-63983073D01*
G01X56760987Y-63961141D01*
G01X56703380Y-63942865D01*
G01X56644955Y-63928244D01*
G01X56585894Y-63917278D01*
G01X56526380Y-63909967D01*
G01X56466592Y-63906312D01*
G01X56406714Y-63906312D01*
G01X56346926Y-63909967D01*
G01X56287412Y-63917278D01*
G01X56228351Y-63928244D01*
G01X56169926Y-63942865D01*
G01X56112319Y-63961141D01*
G01X56055711Y-63983073D01*
G01X56000284Y-64008660D01*
G01X55946220Y-64037903D01*
G01X55893700Y-64070801D01*
G01X55842907Y-64107354D01*
G01X55794021Y-64147562D01*
G01X55747224Y-64191426D01*
G01X55747224Y-64191426D01*
G01X55747224Y-64191426D01*
G01X55703360Y-64238222D01*
G01X55663152Y-64287108D01*
G01X55626599Y-64337902D01*
G01X55593701Y-64390422D01*
G01X55564459Y-64444486D01*
G01X55538871Y-64499913D01*
G01X55516940Y-64556521D01*
G01X55498663Y-64614128D01*
G01X55484042Y-64672553D01*
G01X55473076Y-64731613D01*
G01X55465765Y-64791128D01*
G01X55462110Y-64850916D01*
G01X55462110Y-64910794D01*
G01X55465765Y-64970581D01*
G01X55473076Y-65030096D01*
G01X55484042Y-65089157D01*
G01X55498663Y-65147582D01*
G01X55516940Y-65205189D01*
G01X55538871Y-65261797D01*
G01X55564459Y-65317223D01*
G01X55593701Y-65371288D01*
G01X55626599Y-65423807D01*
G01X55663152Y-65474601D01*
G01X55703360Y-65523487D01*
G01X55747224Y-65570284D01*
G01X55747224Y-65570284D01*
G37*
G36*
G01X32158226Y-60993965D02*
G01X32158226Y-60993965D01*
G01X32220685Y-61008554D01*
G01X32283126Y-61018932D01*
G01X32345391Y-61025191D01*
G01X32407324Y-61027422D01*
G01X32468766Y-61025714D01*
G01X32529561Y-61020160D01*
G01X32589550Y-61010850D01*
G01X32648578Y-60997874D01*
G01X32706486Y-60981324D01*
G01X32763117Y-60961291D01*
G01X32818313Y-60937864D01*
G01X32871919Y-60911136D01*
G01X32923775Y-60881197D01*
G01X32973724Y-60848138D01*
G01X33021610Y-60812049D01*
G01X33067276Y-60773022D01*
G01X33110562Y-60731147D01*
G01X33151313Y-60686516D01*
G01X33189371Y-60639218D01*
G01X33224579Y-60589346D01*
G01X33256778Y-60536989D01*
G01X33285813Y-60482239D01*
G01X33311525Y-60425186D01*
G01X33333757Y-60365922D01*
G01X33352353Y-60304536D01*
G01X33352353Y-60304536D01*
G01X33352353Y-60304536D01*
G01X33366941Y-60242077D01*
G01X33377320Y-60179636D01*
G01X33383579Y-60117371D01*
G01X33385809Y-60055439D01*
G01X33384102Y-59993997D01*
G01X33378548Y-59933202D01*
G01X33369237Y-59873212D01*
G01X33356262Y-59814185D01*
G01X33339712Y-59756277D01*
G01X33319678Y-59699646D01*
G01X33296252Y-59644449D01*
G01X33269524Y-59590844D01*
G01X33239585Y-59538988D01*
G01X33206525Y-59489038D01*
G01X33170437Y-59441152D01*
G01X33131410Y-59395487D01*
G01X33089535Y-59352200D01*
G01X33044903Y-59311449D01*
G01X32997606Y-59273392D01*
G01X32947733Y-59238184D01*
G01X32895376Y-59205984D01*
G01X32840626Y-59176950D01*
G01X32783573Y-59151237D01*
G01X32724309Y-59129005D01*
G01X32662924Y-59110410D01*
G01X32662924Y-59110410D01*
G01X32662924Y-59110410D01*
G01X32600465Y-59095821D01*
G01X32538024Y-59085443D01*
G01X32475759Y-59079184D01*
G01X32413826Y-59076953D01*
G01X32352384Y-59078661D01*
G01X32291589Y-59084215D01*
G01X32231600Y-59093525D01*
G01X32172572Y-59106501D01*
G01X32114664Y-59123051D01*
G01X32058033Y-59143085D01*
G01X32002837Y-59166511D01*
G01X31949232Y-59193239D01*
G01X31897375Y-59223178D01*
G01X31847426Y-59256237D01*
G01X31799540Y-59292326D01*
G01X31753875Y-59331353D01*
G01X31710588Y-59373228D01*
G01X31669837Y-59417859D01*
G01X31631779Y-59465157D01*
G01X31596571Y-59515029D01*
G01X31564372Y-59567386D01*
G01X31535337Y-59622136D01*
G01X31509625Y-59679189D01*
G01X31487393Y-59738454D01*
G01X31468797Y-59799839D01*
G01X31468797Y-59799839D01*
G01X31468797Y-59799839D01*
G01X31454209Y-59862298D01*
G01X31443830Y-59924739D01*
G01X31437571Y-59987004D01*
G01X31435341Y-60048936D01*
G01X31437048Y-60110378D01*
G01X31442602Y-60171173D01*
G01X31451913Y-60231163D01*
G01X31464888Y-60290190D01*
G01X31481438Y-60348098D01*
G01X31501472Y-60404729D01*
G01X31524898Y-60459926D01*
G01X31551626Y-60513531D01*
G01X31581566Y-60565387D01*
G01X31614625Y-60615337D01*
G01X31650713Y-60663223D01*
G01X31689741Y-60708888D01*
G01X31731615Y-60752175D01*
G01X31776247Y-60792926D01*
G01X31823544Y-60830984D01*
G01X31873417Y-60866191D01*
G01X31925774Y-60898391D01*
G01X31980524Y-60927426D01*
G01X32037577Y-60953138D01*
G01X32096841Y-60975370D01*
G01X32158226Y-60993965D01*
G01X32158226Y-60993965D01*
G37*
G36*
G01X23831946Y-58762945D02*
G01X23831946Y-58762945D01*
G01X23894405Y-58777534D01*
G01X23956845Y-58787912D01*
G01X24019111Y-58794171D01*
G01X24081043Y-58796402D01*
G01X24142485Y-58794694D01*
G01X24203280Y-58789140D01*
G01X24263270Y-58779830D01*
G01X24322297Y-58766854D01*
G01X24380205Y-58750304D01*
G01X24436836Y-58730270D01*
G01X24492033Y-58706844D01*
G01X24545638Y-58680116D01*
G01X24597494Y-58650177D01*
G01X24647444Y-58617118D01*
G01X24695330Y-58581029D01*
G01X24740995Y-58542002D01*
G01X24784282Y-58500127D01*
G01X24825033Y-58455496D01*
G01X24863090Y-58408198D01*
G01X24898298Y-58358326D01*
G01X24930498Y-58305969D01*
G01X24959532Y-58251219D01*
G01X24985244Y-58194166D01*
G01X25007477Y-58134901D01*
G01X25026072Y-58073516D01*
G01X25026072Y-58073516D01*
G01X25026072Y-58073516D01*
G01X25040661Y-58011057D01*
G01X25051039Y-57948616D01*
G01X25057298Y-57886351D01*
G01X25059529Y-57824419D01*
G01X25057821Y-57762977D01*
G01X25052267Y-57702182D01*
G01X25042957Y-57642192D01*
G01X25029981Y-57583165D01*
G01X25013431Y-57525257D01*
G01X24993397Y-57468626D01*
G01X24969971Y-57413429D01*
G01X24943243Y-57359824D01*
G01X24913304Y-57307968D01*
G01X24880245Y-57258018D01*
G01X24844156Y-57210132D01*
G01X24805129Y-57164467D01*
G01X24763254Y-57121180D01*
G01X24718623Y-57080429D01*
G01X24671325Y-57042371D01*
G01X24621453Y-57007164D01*
G01X24569096Y-56974964D01*
G01X24514346Y-56945929D01*
G01X24457293Y-56920217D01*
G01X24398028Y-56897985D01*
G01X24336643Y-56879390D01*
G01X24336643Y-56879390D01*
G01X24336643Y-56879390D01*
G01X24274184Y-56864801D01*
G01X24211743Y-56854423D01*
G01X24149478Y-56848164D01*
G01X24087546Y-56845933D01*
G01X24026103Y-56847641D01*
G01X23965309Y-56853195D01*
G01X23905319Y-56862505D01*
G01X23846292Y-56875481D01*
G01X23788384Y-56892031D01*
G01X23731753Y-56912064D01*
G01X23676556Y-56935491D01*
G01X23622951Y-56962219D01*
G01X23571095Y-56992158D01*
G01X23521145Y-57025217D01*
G01X23473259Y-57061306D01*
G01X23427594Y-57100333D01*
G01X23384307Y-57142208D01*
G01X23343556Y-57186839D01*
G01X23305498Y-57234137D01*
G01X23270291Y-57284009D01*
G01X23238091Y-57336366D01*
G01X23209056Y-57391116D01*
G01X23183344Y-57448169D01*
G01X23161112Y-57507433D01*
G01X23142517Y-57568819D01*
G01X23142517Y-57568819D01*
G01X23142517Y-57568819D01*
G01X23127928Y-57631278D01*
G01X23117549Y-57693719D01*
G01X23111290Y-57755984D01*
G01X23109060Y-57817916D01*
G01X23110767Y-57879358D01*
G01X23116322Y-57940153D01*
G01X23125632Y-58000143D01*
G01X23138608Y-58059170D01*
G01X23155158Y-58117078D01*
G01X23175191Y-58173709D01*
G01X23198618Y-58228906D01*
G01X23225346Y-58282511D01*
G01X23255285Y-58334367D01*
G01X23288344Y-58384317D01*
G01X23324433Y-58432203D01*
G01X23363460Y-58477868D01*
G01X23405335Y-58521155D01*
G01X23449966Y-58561906D01*
G01X23497264Y-58599963D01*
G01X23547136Y-58635171D01*
G01X23599493Y-58667371D01*
G01X23654243Y-58696405D01*
G01X23711296Y-58722118D01*
G01X23770560Y-58744350D01*
G01X23831946Y-58762945D01*
G01X23831946Y-58762945D01*
G37*
G36*
G01X63592605Y-59859609D02*
G01X63592605Y-59859609D01*
G01X63548741Y-59906406D01*
G01X63508533Y-59955292D01*
G01X63471980Y-60006086D01*
G01X63439082Y-60058606D01*
G01X63409840Y-60112670D01*
G01X63384252Y-60168097D01*
G01X63362321Y-60224705D01*
G01X63344044Y-60282312D01*
G01X63329423Y-60340736D01*
G01X63318457Y-60399797D01*
G01X63311146Y-60459312D01*
G01X63307491Y-60519099D01*
G01X63307491Y-60578978D01*
G01X63311146Y-60638765D01*
G01X63318457Y-60698280D01*
G01X63329423Y-60757341D01*
G01X63344044Y-60815765D01*
G01X63362321Y-60873372D01*
G01X63384252Y-60929980D01*
G01X63409840Y-60985407D01*
G01X63439082Y-61039471D01*
G01X63471980Y-61091991D01*
G01X63508533Y-61142785D01*
G01X63548741Y-61191671D01*
G01X63592605Y-61238468D01*
G01X63592605Y-61238468D01*
G01X63592605Y-61238468D01*
G01X63639402Y-61282331D01*
G01X63688288Y-61322540D01*
G01X63739081Y-61359093D01*
G01X63791601Y-61391991D01*
G01X63845665Y-61421233D01*
G01X63901092Y-61446820D01*
G01X63957700Y-61468752D01*
G01X64015307Y-61487029D01*
G01X64073732Y-61501650D01*
G01X64132793Y-61512616D01*
G01X64192307Y-61519926D01*
G01X64252095Y-61523582D01*
G01X64311973Y-61523582D01*
G01X64371761Y-61519926D01*
G01X64431275Y-61512616D01*
G01X64490336Y-61501650D01*
G01X64548761Y-61487029D01*
G01X64606368Y-61468752D01*
G01X64662976Y-61446820D01*
G01X64718403Y-61421233D01*
G01X64772467Y-61391991D01*
G01X64824987Y-61359093D01*
G01X64875780Y-61322540D01*
G01X64924667Y-61282331D01*
G01X64971463Y-61238468D01*
G01X64971463Y-61238468D01*
G01X64971463Y-61238468D01*
G01X65015327Y-61191671D01*
G01X65055535Y-61142785D01*
G01X65092088Y-61091991D01*
G01X65124986Y-61039471D01*
G01X65154228Y-60985407D01*
G01X65179816Y-60929980D01*
G01X65201747Y-60873372D01*
G01X65220024Y-60815765D01*
G01X65234645Y-60757341D01*
G01X65245611Y-60698280D01*
G01X65252922Y-60638765D01*
G01X65256577Y-60578978D01*
G01X65256577Y-60519099D01*
G01X65252922Y-60459312D01*
G01X65245611Y-60399797D01*
G01X65234645Y-60340736D01*
G01X65220024Y-60282312D01*
G01X65201747Y-60224705D01*
G01X65179816Y-60168097D01*
G01X65154228Y-60112670D01*
G01X65124986Y-60058606D01*
G01X65092088Y-60006086D01*
G01X65055535Y-59955292D01*
G01X65015327Y-59906406D01*
G01X64971463Y-59859609D01*
G01X64971463Y-59859609D01*
G01X64971463Y-59859609D01*
G01X64924667Y-59815746D01*
G01X64875780Y-59775537D01*
G01X64824987Y-59738984D01*
G01X64772467Y-59706087D01*
G01X64718403Y-59676844D01*
G01X64662976Y-59651257D01*
G01X64606368Y-59629325D01*
G01X64548761Y-59611049D01*
G01X64490336Y-59596427D01*
G01X64431275Y-59585461D01*
G01X64371761Y-59578151D01*
G01X64311973Y-59574495D01*
G01X64252095Y-59574495D01*
G01X64192307Y-59578151D01*
G01X64132793Y-59585461D01*
G01X64073732Y-59596427D01*
G01X64015307Y-59611049D01*
G01X63957700Y-59629325D01*
G01X63901092Y-59651257D01*
G01X63845665Y-59676844D01*
G01X63791601Y-59706087D01*
G01X63739081Y-59738984D01*
G01X63688288Y-59775537D01*
G01X63639402Y-59815746D01*
G01X63592605Y-59859609D01*
G01X63592605Y-59859609D01*
G37*
G36*
G01X69687865Y-53764349D02*
G01X69687865Y-53764349D01*
G01X69644002Y-53811146D01*
G01X69603793Y-53860032D01*
G01X69567240Y-53910825D01*
G01X69534342Y-53963345D01*
G01X69505100Y-54017409D01*
G01X69479513Y-54072836D01*
G01X69457581Y-54129444D01*
G01X69439304Y-54187051D01*
G01X69424683Y-54245476D01*
G01X69413717Y-54304537D01*
G01X69406407Y-54364052D01*
G01X69402751Y-54423839D01*
G01X69402751Y-54483717D01*
G01X69406407Y-54543505D01*
G01X69413717Y-54603019D01*
G01X69424683Y-54662080D01*
G01X69439304Y-54720505D01*
G01X69457581Y-54778112D01*
G01X69479513Y-54834720D01*
G01X69505100Y-54890147D01*
G01X69534342Y-54944211D01*
G01X69567240Y-54996731D01*
G01X69603793Y-55047525D01*
G01X69644002Y-55096411D01*
G01X69687865Y-55143207D01*
G01X69687865Y-55143207D01*
G01X69687865Y-55143207D01*
G01X69734662Y-55187071D01*
G01X69783548Y-55227279D01*
G01X69834342Y-55263832D01*
G01X69886862Y-55296730D01*
G01X69940926Y-55325973D01*
G01X69996353Y-55351560D01*
G01X70052961Y-55373492D01*
G01X70110568Y-55391768D01*
G01X70168992Y-55406389D01*
G01X70228053Y-55417355D01*
G01X70287568Y-55424666D01*
G01X70347355Y-55428321D01*
G01X70407234Y-55428321D01*
G01X70467021Y-55424666D01*
G01X70526536Y-55417355D01*
G01X70585597Y-55406389D01*
G01X70644021Y-55391768D01*
G01X70701628Y-55373492D01*
G01X70758236Y-55351560D01*
G01X70813663Y-55325973D01*
G01X70867727Y-55296730D01*
G01X70920247Y-55263832D01*
G01X70971041Y-55227279D01*
G01X71019927Y-55187071D01*
G01X71066724Y-55143207D01*
G01X71066724Y-55143207D01*
G01X71066724Y-55143207D01*
G01X71110587Y-55096411D01*
G01X71150796Y-55047525D01*
G01X71187349Y-54996731D01*
G01X71220246Y-54944211D01*
G01X71249489Y-54890147D01*
G01X71275076Y-54834720D01*
G01X71297008Y-54778112D01*
G01X71315284Y-54720505D01*
G01X71329906Y-54662080D01*
G01X71340872Y-54603019D01*
G01X71348182Y-54543505D01*
G01X71351838Y-54483717D01*
G01X71351838Y-54423839D01*
G01X71348182Y-54364052D01*
G01X71340872Y-54304537D01*
G01X71329906Y-54245476D01*
G01X71315284Y-54187051D01*
G01X71297008Y-54129444D01*
G01X71275076Y-54072836D01*
G01X71249489Y-54017409D01*
G01X71220246Y-53963345D01*
G01X71187349Y-53910825D01*
G01X71150796Y-53860032D01*
G01X71110587Y-53811146D01*
G01X71066724Y-53764349D01*
G01X71066724Y-53764349D01*
G01X71066724Y-53764349D01*
G01X71019927Y-53720485D01*
G01X70971041Y-53680277D01*
G01X70920247Y-53643724D01*
G01X70867727Y-53610826D01*
G01X70813663Y-53581584D01*
G01X70758236Y-53555996D01*
G01X70701628Y-53534065D01*
G01X70644021Y-53515788D01*
G01X70585597Y-53501167D01*
G01X70526536Y-53490201D01*
G01X70467021Y-53482890D01*
G01X70407234Y-53479235D01*
G01X70347355Y-53479235D01*
G01X70287568Y-53482890D01*
G01X70228053Y-53490201D01*
G01X70168992Y-53501167D01*
G01X70110568Y-53515788D01*
G01X70052961Y-53534065D01*
G01X69996353Y-53555996D01*
G01X69940926Y-53581584D01*
G01X69886862Y-53610826D01*
G01X69834342Y-53643724D01*
G01X69783548Y-53680277D01*
G01X69734662Y-53720485D01*
G01X69687865Y-53764349D01*
G01X69687865Y-53764349D01*
G37*
G36*
G01X20691515Y-32120360D02*
G01X20691515Y-32120360D01*
G01X20738311Y-32164223D01*
G01X20787197Y-32204432D01*
G01X20837991Y-32240985D01*
G01X20890511Y-32273882D01*
G01X20944575Y-32303125D01*
G01X21000002Y-32328712D01*
G01X21056610Y-32350644D01*
G01X21114217Y-32368920D01*
G01X21172642Y-32383542D01*
G01X21231702Y-32394508D01*
G01X21291217Y-32401818D01*
G01X21351005Y-32405474D01*
G01X21410883Y-32405474D01*
G01X21470670Y-32401818D01*
G01X21530185Y-32394508D01*
G01X21589246Y-32383542D01*
G01X21647670Y-32368920D01*
G01X21705278Y-32350644D01*
G01X21761885Y-32328712D01*
G01X21817312Y-32303125D01*
G01X21871376Y-32273882D01*
G01X21923896Y-32240985D01*
G01X21974690Y-32204432D01*
G01X22023576Y-32164223D01*
G01X22070373Y-32120360D01*
G01X22070373Y-32120360D01*
G01X22070373Y-32120360D01*
G01X22114236Y-32073563D01*
G01X22154445Y-32024677D01*
G01X22190998Y-31973883D01*
G01X22223896Y-31921363D01*
G01X22253138Y-31867299D01*
G01X22278725Y-31811872D01*
G01X22300657Y-31755264D01*
G01X22318934Y-31697657D01*
G01X22333555Y-31639233D01*
G01X22344521Y-31580172D01*
G01X22351831Y-31520657D01*
G01X22355487Y-31460870D01*
G01X22355487Y-31400991D01*
G01X22351831Y-31341204D01*
G01X22344521Y-31281689D01*
G01X22333555Y-31222628D01*
G01X22318934Y-31164204D01*
G01X22300657Y-31106597D01*
G01X22278725Y-31049989D01*
G01X22253138Y-30994562D01*
G01X22223896Y-30940498D01*
G01X22190998Y-30887978D01*
G01X22154445Y-30837184D01*
G01X22114236Y-30788298D01*
G01X22070373Y-30741501D01*
G01X22070373Y-30741501D01*
G01X22070373Y-30741501D01*
G01X22023576Y-30697638D01*
G01X21974690Y-30657429D01*
G01X21923896Y-30620876D01*
G01X21871376Y-30587978D01*
G01X21817312Y-30558736D01*
G01X21761885Y-30533149D01*
G01X21705278Y-30511217D01*
G01X21647670Y-30492940D01*
G01X21589246Y-30478319D01*
G01X21530185Y-30467353D01*
G01X21470670Y-30460043D01*
G01X21410883Y-30456387D01*
G01X21351005Y-30456387D01*
G01X21291217Y-30460043D01*
G01X21231702Y-30467353D01*
G01X21172642Y-30478319D01*
G01X21114217Y-30492940D01*
G01X21056610Y-30511217D01*
G01X21000002Y-30533149D01*
G01X20944575Y-30558736D01*
G01X20890511Y-30587978D01*
G01X20837991Y-30620876D01*
G01X20787197Y-30657429D01*
G01X20738311Y-30697638D01*
G01X20691515Y-30741501D01*
G01X20691515Y-30741501D01*
G01X20691515Y-30741501D01*
G01X20647651Y-30788298D01*
G01X20607442Y-30837184D01*
G01X20570889Y-30887978D01*
G01X20537992Y-30940498D01*
G01X20508749Y-30994562D01*
G01X20483162Y-31049989D01*
G01X20461230Y-31106597D01*
G01X20442954Y-31164204D01*
G01X20428332Y-31222628D01*
G01X20417366Y-31281689D01*
G01X20410056Y-31341204D01*
G01X20406401Y-31400991D01*
G01X20406401Y-31460870D01*
G01X20410056Y-31520657D01*
G01X20417366Y-31580172D01*
G01X20428332Y-31639233D01*
G01X20442954Y-31697657D01*
G01X20461230Y-31755264D01*
G01X20483162Y-31811872D01*
G01X20508749Y-31867299D01*
G01X20537992Y-31921363D01*
G01X20570889Y-31973883D01*
G01X20607442Y-32024677D01*
G01X20647651Y-32073563D01*
G01X20691515Y-32120360D01*
G01X20691515Y-32120360D01*
G37*
G36*
G01X22487566Y-32537553D02*
G01X22964863Y-32060256D01*
G01X22964863Y-32060256D01*
G01X23002048Y-32028623D01*
G01X23042727Y-32004020D01*
G01X23086027Y-31986447D01*
G01X23131074Y-31975903D01*
G01X23176995Y-31972388D01*
G01X23222915Y-31975903D01*
G01X23267962Y-31986447D01*
G01X23311262Y-32004020D01*
G01X23351942Y-32028623D01*
G01X23389127Y-32060256D01*
G01X23389127Y-32060256D01*
G01X23866424Y-32537553D01*
G01X24343721Y-33014850D01*
G01X24343721Y-33014850D01*
G01X24375353Y-33052035D01*
G01X24399956Y-33092715D01*
G01X24417530Y-33136014D01*
G01X24428074Y-33181061D01*
G01X24431589Y-33226982D01*
G01X24428074Y-33272902D01*
G01X24417530Y-33317949D01*
G01X24399956Y-33361249D01*
G01X24375353Y-33401929D01*
G01X24343721Y-33439114D01*
G01X24343721Y-33439114D01*
G01X23866424Y-33916411D01*
G01X23389127Y-34393708D01*
G01X23389127Y-34393708D01*
G01X23351942Y-34425340D01*
G01X23311262Y-34449943D01*
G01X23267962Y-34467517D01*
G01X23222915Y-34478061D01*
G01X23176995Y-34481576D01*
G01X23131074Y-34478061D01*
G01X23086027Y-34467517D01*
G01X23042727Y-34449943D01*
G01X23002048Y-34425340D01*
G01X22964863Y-34393708D01*
G01X22964863Y-34393708D01*
G01X22487566Y-33916411D01*
G01X22010269Y-33439114D01*
G01X22010269Y-33439114D01*
G01X21978636Y-33401929D01*
G01X21954033Y-33361249D01*
G01X21936460Y-33317949D01*
G01X21925916Y-33272902D01*
G01X21922401Y-33226982D01*
G01X21925916Y-33181061D01*
G01X21936460Y-33136014D01*
G01X21954033Y-33092715D01*
G01X21978636Y-33052035D01*
G01X22010269Y-33014850D01*
G01X22010269Y-33014850D01*
G01X22487566Y-32537553D01*
G37*
G36*
G01X19833948Y-61014076D02*
G01X19833948Y-61014076D01*
G01X19853924Y-60953126D01*
G01X19869705Y-60891827D01*
G01X19881367Y-60830345D01*
G01X19888987Y-60768842D01*
G01X19892641Y-60707485D01*
G01X19892407Y-60646438D01*
G01X19888360Y-60585865D01*
G01X19880579Y-60525931D01*
G01X19869138Y-60466801D01*
G01X19854117Y-60408640D01*
G01X19835590Y-60351611D01*
G01X19813636Y-60295881D01*
G01X19788330Y-60241612D01*
G01X19759750Y-60188971D01*
G01X19727973Y-60138122D01*
G01X19693074Y-60089229D01*
G01X19655131Y-60042458D01*
G01X19614221Y-59997972D01*
G01X19570421Y-59955937D01*
G01X19523807Y-59916517D01*
G01X19474455Y-59879876D01*
G01X19422444Y-59846180D01*
G01X19367849Y-59815593D01*
G01X19310748Y-59788280D01*
G01X19251217Y-59764406D01*
G01X19251217Y-59764406D01*
G01X19251217Y-59764406D01*
G01X19190267Y-59744429D01*
G01X19128969Y-59728648D01*
G01X19067486Y-59716986D01*
G01X19005983Y-59709366D01*
G01X18944626Y-59705712D01*
G01X18883579Y-59705947D01*
G01X18823006Y-59709993D01*
G01X18763072Y-59717775D01*
G01X18703942Y-59729215D01*
G01X18645781Y-59744237D01*
G01X18588752Y-59762763D01*
G01X18533022Y-59784717D01*
G01X18478753Y-59810023D01*
G01X18426112Y-59838603D01*
G01X18375263Y-59870381D01*
G01X18326371Y-59905279D01*
G01X18279599Y-59943222D01*
G01X18235113Y-59984132D01*
G01X18193078Y-60027933D01*
G01X18153658Y-60074547D01*
G01X18117017Y-60123898D01*
G01X18083321Y-60175909D01*
G01X18052734Y-60230504D01*
G01X18025421Y-60287605D01*
G01X18001547Y-60347137D01*
G01X18001547Y-60347137D01*
G01X18001547Y-60347137D01*
G01X17981570Y-60408086D01*
G01X17965789Y-60469385D01*
G01X17954127Y-60530868D01*
G01X17946507Y-60592370D01*
G01X17942853Y-60653727D01*
G01X17943088Y-60714775D01*
G01X17947134Y-60775348D01*
G01X17954916Y-60835281D01*
G01X17966356Y-60894411D01*
G01X17981378Y-60952573D01*
G01X17999904Y-61009601D01*
G01X18021858Y-61065332D01*
G01X18047164Y-61119600D01*
G01X18075744Y-61172241D01*
G01X18107522Y-61223090D01*
G01X18142421Y-61271983D01*
G01X18180363Y-61318754D01*
G01X18221273Y-61363240D01*
G01X18265074Y-61405276D01*
G01X18311688Y-61444696D01*
G01X18361039Y-61481336D01*
G01X18413050Y-61515032D01*
G01X18467645Y-61545619D01*
G01X18524746Y-61572932D01*
G01X18584278Y-61596806D01*
G01X18584278Y-61596806D01*
G01X18584278Y-61596806D01*
G01X18645227Y-61616783D01*
G01X18706526Y-61632564D01*
G01X18768009Y-61644226D01*
G01X18829511Y-61651846D01*
G01X18890868Y-61655500D01*
G01X18951916Y-61655266D01*
G01X19012489Y-61651219D01*
G01X19072422Y-61643437D01*
G01X19131552Y-61631997D01*
G01X19189714Y-61616976D01*
G01X19246742Y-61598449D01*
G01X19302473Y-61576495D01*
G01X19356741Y-61551189D01*
G01X19409382Y-61522609D01*
G01X19460231Y-61490832D01*
G01X19509124Y-61455933D01*
G01X19555896Y-61417990D01*
G01X19600381Y-61377080D01*
G01X19642417Y-61333280D01*
G01X19681837Y-61286665D01*
G01X19718477Y-61237314D01*
G01X19752173Y-61185303D01*
G01X19782760Y-61130708D01*
G01X19810073Y-61073607D01*
G01X19833948Y-61014076D01*
G01X19833948Y-61014076D01*
G37*
G36*
G01X19453009Y-59209987D02*
G01X18818716Y-58979123D01*
G01X18818716Y-58979123D01*
G01X18774332Y-58958790D01*
G01X18734843Y-58932320D01*
G01X18700616Y-58900504D01*
G01X18672022Y-58864133D01*
G01X18649430Y-58824001D01*
G01X18633209Y-58780897D01*
G01X18623727Y-58735615D01*
G01X18621355Y-58688945D01*
G01X18626461Y-58641679D01*
G01X18639414Y-58594609D01*
G01X18639414Y-58594609D01*
G01X18870278Y-57960317D01*
G01X19101142Y-57326024D01*
G01X19101142Y-57326024D01*
G01X19121475Y-57281640D01*
G01X19147945Y-57242151D01*
G01X19179761Y-57207924D01*
G01X19216131Y-57179330D01*
G01X19256264Y-57156738D01*
G01X19299368Y-57140517D01*
G01X19344650Y-57131035D01*
G01X19391320Y-57128663D01*
G01X19438586Y-57133769D01*
G01X19485655Y-57146722D01*
G01X19485655Y-57146722D01*
G01X20119948Y-57377586D01*
G01X20754241Y-57608450D01*
G01X20754241Y-57608450D01*
G01X20798624Y-57628782D01*
G01X20838114Y-57655253D01*
G01X20872340Y-57687069D01*
G01X20900934Y-57723439D01*
G01X20923527Y-57763572D01*
G01X20939748Y-57806675D01*
G01X20949229Y-57851958D01*
G01X20951602Y-57898628D01*
G01X20946496Y-57945894D01*
G01X20933542Y-57992963D01*
G01X20933542Y-57992963D01*
G01X20702679Y-58627256D01*
G01X20471815Y-59261548D01*
G01X20471815Y-59261548D01*
G01X20451482Y-59305932D01*
G01X20425012Y-59345422D01*
G01X20393196Y-59379648D01*
G01X20356825Y-59408242D01*
G01X20316693Y-59430834D01*
G01X20273589Y-59447056D01*
G01X20228307Y-59456537D01*
G01X20181637Y-59458910D01*
G01X20134371Y-59453804D01*
G01X20087301Y-59440850D01*
G01X20087301Y-59440850D01*
G01X19453009Y-59209987D01*
G37*
G36*
G01X20728741Y-88047265D02*
G01X21276749Y-88595273D01*
G01X20728741Y-89143280D01*
G01X20180733Y-89691288D01*
G01X19632726Y-89143280D01*
G01X19084718Y-88595273D01*
G01X19632726Y-88047265D01*
G01X19650403Y-88029587D01*
G01X19650403Y-88029587D01*
G01X19695657Y-87987850D01*
G01X19743367Y-87950506D01*
G01X19793261Y-87917555D01*
G01X19845065Y-87888998D01*
G01X19898508Y-87864835D01*
G01X19953315Y-87845064D01*
G01X20009214Y-87829687D01*
G01X20065932Y-87818704D01*
G01X20123196Y-87812114D01*
G01X20180733Y-87809917D01*
G01X20238270Y-87812114D01*
G01X20295534Y-87818704D01*
G01X20352253Y-87829687D01*
G01X20408152Y-87845064D01*
G01X20462959Y-87864835D01*
G01X20516401Y-87888998D01*
G01X20568206Y-87917555D01*
G01X20618100Y-87950506D01*
G01X20665810Y-87987850D01*
G01X20711063Y-88029587D01*
G01X20711063Y-88029587D01*
G01X20728741Y-88047265D01*
G37*
G36*
G01X24320844Y-85551178D02*
G01X24320844Y-85551178D01*
G01X24355710Y-85513981D01*
G01X24387670Y-85475123D01*
G01X24416725Y-85434748D01*
G01X24442875Y-85393002D01*
G01X24466119Y-85350028D01*
G01X24486457Y-85305971D01*
G01X24503890Y-85260975D01*
G01X24518418Y-85215184D01*
G01X24530040Y-85168744D01*
G01X24538756Y-85121798D01*
G01X24544567Y-85074492D01*
G01X24547473Y-85026968D01*
G01X24547473Y-84979373D01*
G01X24544567Y-84931850D01*
G01X24538756Y-84884543D01*
G01X24530040Y-84837597D01*
G01X24518418Y-84791157D01*
G01X24503890Y-84745367D01*
G01X24486457Y-84700371D01*
G01X24466119Y-84656314D01*
G01X24442875Y-84613339D01*
G01X24416725Y-84571593D01*
G01X24387670Y-84531218D01*
G01X24355710Y-84492360D01*
G01X24320844Y-84455163D01*
G01X24320844Y-84455163D01*
G01X24320844Y-84455163D01*
G01X24283646Y-84420297D01*
G01X24244788Y-84388336D01*
G01X24204414Y-84359281D01*
G01X24162667Y-84333132D01*
G01X24119693Y-84309888D01*
G01X24075636Y-84289549D01*
G01X24030640Y-84272116D01*
G01X23984849Y-84257589D01*
G01X23938409Y-84245967D01*
G01X23891464Y-84237250D01*
G01X23844157Y-84231439D01*
G01X23796634Y-84228534D01*
G01X23749038Y-84228534D01*
G01X23701515Y-84231439D01*
G01X23654208Y-84237250D01*
G01X23607262Y-84245967D01*
G01X23560822Y-84257589D01*
G01X23515032Y-84272116D01*
G01X23470036Y-84289549D01*
G01X23425979Y-84309888D01*
G01X23383005Y-84333132D01*
G01X23341258Y-84359281D01*
G01X23300884Y-84388336D01*
G01X23262025Y-84420297D01*
G01X23224828Y-84455163D01*
G01X23224828Y-84455163D01*
G01X23224828Y-84455163D01*
G01X23189962Y-84492360D01*
G01X23158002Y-84531218D01*
G01X23128947Y-84571593D01*
G01X23102797Y-84613339D01*
G01X23079553Y-84656314D01*
G01X23059215Y-84700371D01*
G01X23041782Y-84745367D01*
G01X23027254Y-84791157D01*
G01X23015632Y-84837597D01*
G01X23006916Y-84884543D01*
G01X23001105Y-84931850D01*
G01X22998199Y-84979373D01*
G01X22998199Y-85026968D01*
G01X23001105Y-85074492D01*
G01X23006916Y-85121798D01*
G01X23015632Y-85168744D01*
G01X23027254Y-85215184D01*
G01X23041782Y-85260975D01*
G01X23059215Y-85305971D01*
G01X23079553Y-85350028D01*
G01X23102797Y-85393002D01*
G01X23128947Y-85434748D01*
G01X23158002Y-85475123D01*
G01X23189962Y-85513981D01*
G01X23224828Y-85551178D01*
G01X23224828Y-85551178D01*
G01X23224828Y-85551178D01*
G01X23262025Y-85586044D01*
G01X23300884Y-85618005D01*
G01X23341258Y-85647060D01*
G01X23383005Y-85673209D01*
G01X23425979Y-85696453D01*
G01X23470036Y-85716792D01*
G01X23515032Y-85734225D01*
G01X23560822Y-85748752D01*
G01X23607262Y-85760374D01*
G01X23654208Y-85769091D01*
G01X23701515Y-85774902D01*
G01X23749038Y-85777807D01*
G01X23796634Y-85777807D01*
G01X23844157Y-85774902D01*
G01X23891464Y-85769091D01*
G01X23938409Y-85760374D01*
G01X23984849Y-85748752D01*
G01X24030640Y-85734225D01*
G01X24075636Y-85716792D01*
G01X24119693Y-85696453D01*
G01X24162667Y-85673209D01*
G01X24204414Y-85647060D01*
G01X24244788Y-85618005D01*
G01X24283646Y-85586044D01*
G01X24320844Y-85551178D01*
G01X24320844Y-85551178D01*
G37*
G36*
G01X22524792Y-87347230D02*
G01X22524792Y-87347230D01*
G01X22559658Y-87310032D01*
G01X22591619Y-87271174D01*
G01X22620674Y-87230800D01*
G01X22646823Y-87189053D01*
G01X22670067Y-87146079D01*
G01X22690406Y-87102022D01*
G01X22707839Y-87057026D01*
G01X22722366Y-87011235D01*
G01X22733988Y-86964795D01*
G01X22742705Y-86917850D01*
G01X22748516Y-86870543D01*
G01X22751421Y-86823020D01*
G01X22751421Y-86775424D01*
G01X22748516Y-86727901D01*
G01X22742705Y-86680594D01*
G01X22733988Y-86633648D01*
G01X22722366Y-86587208D01*
G01X22707839Y-86541418D01*
G01X22690406Y-86496422D01*
G01X22670067Y-86452365D01*
G01X22646823Y-86409391D01*
G01X22620674Y-86367644D01*
G01X22591619Y-86327270D01*
G01X22559658Y-86288411D01*
G01X22524792Y-86251214D01*
G01X22524792Y-86251214D01*
G01X22524792Y-86251214D01*
G01X22487595Y-86216348D01*
G01X22448737Y-86184388D01*
G01X22408362Y-86155333D01*
G01X22366616Y-86129183D01*
G01X22323642Y-86105939D01*
G01X22279584Y-86085601D01*
G01X22234588Y-86068168D01*
G01X22188798Y-86053640D01*
G01X22142358Y-86042018D01*
G01X22095412Y-86033302D01*
G01X22048106Y-86027491D01*
G01X22000582Y-86024585D01*
G01X21952987Y-86024585D01*
G01X21905464Y-86027491D01*
G01X21858157Y-86033302D01*
G01X21811211Y-86042018D01*
G01X21764771Y-86053640D01*
G01X21718981Y-86068168D01*
G01X21673985Y-86085601D01*
G01X21629927Y-86105939D01*
G01X21586953Y-86129183D01*
G01X21545207Y-86155333D01*
G01X21504832Y-86184388D01*
G01X21465974Y-86216348D01*
G01X21428777Y-86251214D01*
G01X21428777Y-86251214D01*
G01X21428777Y-86251214D01*
G01X21393911Y-86288411D01*
G01X21361950Y-86327270D01*
G01X21332895Y-86367644D01*
G01X21306746Y-86409391D01*
G01X21283502Y-86452365D01*
G01X21263163Y-86496422D01*
G01X21245730Y-86541418D01*
G01X21231203Y-86587208D01*
G01X21219581Y-86633648D01*
G01X21210864Y-86680594D01*
G01X21205053Y-86727901D01*
G01X21202148Y-86775424D01*
G01X21202148Y-86823020D01*
G01X21205053Y-86870543D01*
G01X21210864Y-86917850D01*
G01X21219581Y-86964795D01*
G01X21231203Y-87011235D01*
G01X21245730Y-87057026D01*
G01X21263163Y-87102022D01*
G01X21283502Y-87146079D01*
G01X21306746Y-87189053D01*
G01X21332895Y-87230800D01*
G01X21361950Y-87271174D01*
G01X21393911Y-87310032D01*
G01X21428777Y-87347230D01*
G01X21428777Y-87347230D01*
G01X21428777Y-87347230D01*
G01X21465974Y-87382096D01*
G01X21504832Y-87414056D01*
G01X21545207Y-87443111D01*
G01X21586953Y-87469261D01*
G01X21629927Y-87492505D01*
G01X21673985Y-87512843D01*
G01X21718981Y-87530276D01*
G01X21764771Y-87544804D01*
G01X21811211Y-87556426D01*
G01X21858157Y-87565142D01*
G01X21905464Y-87570953D01*
G01X21952987Y-87573859D01*
G01X22000582Y-87573859D01*
G01X22048106Y-87570953D01*
G01X22095412Y-87565142D01*
G01X22142358Y-87556426D01*
G01X22188798Y-87544804D01*
G01X22234588Y-87530276D01*
G01X22279584Y-87512843D01*
G01X22323642Y-87492505D01*
G01X22366616Y-87469261D01*
G01X22408362Y-87443111D01*
G01X22448737Y-87414056D01*
G01X22487595Y-87382096D01*
G01X22524792Y-87347230D01*
G01X22524792Y-87347230D01*
G37*
G36*
G01X20728741Y-78366974D02*
G01X20728741Y-78366974D01*
G01X20763607Y-78329776D01*
G01X20795568Y-78290918D01*
G01X20824623Y-78250544D01*
G01X20850772Y-78208797D01*
G01X20874016Y-78165823D01*
G01X20894355Y-78121766D01*
G01X20911788Y-78076770D01*
G01X20926315Y-78030979D01*
G01X20937937Y-77984539D01*
G01X20946654Y-77937594D01*
G01X20952465Y-77890287D01*
G01X20955370Y-77842764D01*
G01X20955370Y-77795168D01*
G01X20952465Y-77747645D01*
G01X20946654Y-77700338D01*
G01X20937937Y-77653392D01*
G01X20926315Y-77606952D01*
G01X20911788Y-77561162D01*
G01X20894355Y-77516166D01*
G01X20874016Y-77472109D01*
G01X20850772Y-77429135D01*
G01X20824623Y-77387388D01*
G01X20795568Y-77347013D01*
G01X20763607Y-77308155D01*
G01X20728741Y-77270958D01*
G01X20728741Y-77270958D01*
G01X20728741Y-77270958D01*
G01X20691544Y-77236092D01*
G01X20652686Y-77204131D01*
G01X20612311Y-77175076D01*
G01X20570565Y-77148927D01*
G01X20527590Y-77125683D01*
G01X20483533Y-77105344D01*
G01X20438537Y-77087911D01*
G01X20392747Y-77073384D01*
G01X20346307Y-77061762D01*
G01X20299361Y-77053045D01*
G01X20252054Y-77047234D01*
G01X20204531Y-77044329D01*
G01X20156936Y-77044329D01*
G01X20109412Y-77047234D01*
G01X20062106Y-77053045D01*
G01X20015160Y-77061762D01*
G01X19968720Y-77073384D01*
G01X19922929Y-77087911D01*
G01X19877934Y-77105344D01*
G01X19833876Y-77125683D01*
G01X19790902Y-77148927D01*
G01X19749156Y-77175076D01*
G01X19708781Y-77204131D01*
G01X19669923Y-77236092D01*
G01X19632726Y-77270958D01*
G01X19632726Y-77270958D01*
G01X19632726Y-77270958D01*
G01X19597860Y-77308155D01*
G01X19565899Y-77347013D01*
G01X19536844Y-77387388D01*
G01X19510695Y-77429135D01*
G01X19487451Y-77472109D01*
G01X19467112Y-77516166D01*
G01X19449679Y-77561162D01*
G01X19435152Y-77606952D01*
G01X19423530Y-77653392D01*
G01X19414813Y-77700338D01*
G01X19409002Y-77747645D01*
G01X19406097Y-77795168D01*
G01X19406097Y-77842764D01*
G01X19409002Y-77890287D01*
G01X19414813Y-77937594D01*
G01X19423530Y-77984539D01*
G01X19435152Y-78030979D01*
G01X19449679Y-78076770D01*
G01X19467112Y-78121766D01*
G01X19487451Y-78165823D01*
G01X19510695Y-78208797D01*
G01X19536844Y-78250544D01*
G01X19565899Y-78290918D01*
G01X19597860Y-78329776D01*
G01X19632726Y-78366974D01*
G01X19632726Y-78366974D01*
G01X19632726Y-78366974D01*
G01X19669923Y-78401840D01*
G01X19708781Y-78433800D01*
G01X19749156Y-78462855D01*
G01X19790902Y-78489005D01*
G01X19833876Y-78512249D01*
G01X19877934Y-78532587D01*
G01X19922929Y-78550020D01*
G01X19968720Y-78564548D01*
G01X20015160Y-78576170D01*
G01X20062106Y-78584886D01*
G01X20109412Y-78590697D01*
G01X20156936Y-78593603D01*
G01X20204531Y-78593603D01*
G01X20252054Y-78590697D01*
G01X20299361Y-78584886D01*
G01X20346307Y-78576170D01*
G01X20392747Y-78564548D01*
G01X20438537Y-78550020D01*
G01X20483533Y-78532587D01*
G01X20527590Y-78512249D01*
G01X20570565Y-78489005D01*
G01X20612311Y-78462855D01*
G01X20652686Y-78433800D01*
G01X20691544Y-78401840D01*
G01X20728741Y-78366974D01*
G01X20728741Y-78366974D01*
G37*
G36*
G01X26116895Y-83755127D02*
G01X26116895Y-83755127D01*
G01X26151761Y-83717930D01*
G01X26183721Y-83679072D01*
G01X26212776Y-83638697D01*
G01X26238926Y-83596951D01*
G01X26262170Y-83553977D01*
G01X26282508Y-83509919D01*
G01X26299941Y-83464923D01*
G01X26314469Y-83419133D01*
G01X26326091Y-83372693D01*
G01X26334807Y-83325747D01*
G01X26340618Y-83278441D01*
G01X26343524Y-83230917D01*
G01X26343524Y-83183322D01*
G01X26340618Y-83135798D01*
G01X26334807Y-83088492D01*
G01X26326091Y-83041546D01*
G01X26314469Y-82995106D01*
G01X26299941Y-82949316D01*
G01X26282508Y-82904320D01*
G01X26262170Y-82860262D01*
G01X26238926Y-82817288D01*
G01X26212776Y-82775542D01*
G01X26183721Y-82735167D01*
G01X26151761Y-82696309D01*
G01X26116895Y-82659112D01*
G01X26116895Y-82659112D01*
G01X26116895Y-82659112D01*
G01X26079697Y-82624246D01*
G01X26040839Y-82592285D01*
G01X26000465Y-82563230D01*
G01X25958718Y-82537081D01*
G01X25915744Y-82513837D01*
G01X25871687Y-82493498D01*
G01X25826691Y-82476065D01*
G01X25780901Y-82461538D01*
G01X25734460Y-82449916D01*
G01X25687515Y-82441199D01*
G01X25640208Y-82435388D01*
G01X25592685Y-82432483D01*
G01X25545089Y-82432483D01*
G01X25497566Y-82435388D01*
G01X25450259Y-82441199D01*
G01X25403314Y-82449916D01*
G01X25356873Y-82461538D01*
G01X25311083Y-82476065D01*
G01X25266087Y-82493498D01*
G01X25222030Y-82513837D01*
G01X25179056Y-82537081D01*
G01X25137309Y-82563230D01*
G01X25096935Y-82592285D01*
G01X25058077Y-82624246D01*
G01X25020879Y-82659112D01*
G01X25020879Y-82659112D01*
G01X25020879Y-82659112D01*
G01X24986013Y-82696309D01*
G01X24954053Y-82735167D01*
G01X24924998Y-82775542D01*
G01X24898848Y-82817288D01*
G01X24875604Y-82860262D01*
G01X24855266Y-82904320D01*
G01X24837833Y-82949316D01*
G01X24823305Y-82995106D01*
G01X24811683Y-83041546D01*
G01X24802967Y-83088492D01*
G01X24797156Y-83135798D01*
G01X24794250Y-83183322D01*
G01X24794250Y-83230917D01*
G01X24797156Y-83278441D01*
G01X24802967Y-83325747D01*
G01X24811683Y-83372693D01*
G01X24823305Y-83419133D01*
G01X24837833Y-83464923D01*
G01X24855266Y-83509919D01*
G01X24875604Y-83553977D01*
G01X24898848Y-83596951D01*
G01X24924998Y-83638697D01*
G01X24954053Y-83679072D01*
G01X24986013Y-83717930D01*
G01X25020879Y-83755127D01*
G01X25020879Y-83755127D01*
G01X25020879Y-83755127D01*
G01X25058077Y-83789993D01*
G01X25096935Y-83821954D01*
G01X25137309Y-83851009D01*
G01X25179056Y-83877158D01*
G01X25222030Y-83900402D01*
G01X25266087Y-83920741D01*
G01X25311083Y-83938174D01*
G01X25356873Y-83952701D01*
G01X25403314Y-83964323D01*
G01X25450259Y-83973040D01*
G01X25497566Y-83978851D01*
G01X25545089Y-83981756D01*
G01X25592685Y-83981756D01*
G01X25640208Y-83978851D01*
G01X25687515Y-83973040D01*
G01X25734460Y-83964323D01*
G01X25780901Y-83952701D01*
G01X25826691Y-83938174D01*
G01X25871687Y-83920741D01*
G01X25915744Y-83900402D01*
G01X25958718Y-83877158D01*
G01X26000465Y-83851009D01*
G01X26040839Y-83821954D01*
G01X26079697Y-83789993D01*
G01X26116895Y-83755127D01*
G01X26116895Y-83755127D01*
G37*
G36*
G01X17136639Y-81959076D02*
G01X17136639Y-81959076D01*
G01X17171505Y-81921879D01*
G01X17203465Y-81883021D01*
G01X17232520Y-81842646D01*
G01X17258670Y-81800899D01*
G01X17281914Y-81757925D01*
G01X17302252Y-81713868D01*
G01X17319685Y-81668872D01*
G01X17334213Y-81623082D01*
G01X17345835Y-81576642D01*
G01X17354551Y-81529696D01*
G01X17360362Y-81482389D01*
G01X17363268Y-81434866D01*
G01X17363268Y-81387270D01*
G01X17360362Y-81339747D01*
G01X17354551Y-81292440D01*
G01X17345835Y-81245495D01*
G01X17334213Y-81199055D01*
G01X17319685Y-81153264D01*
G01X17302252Y-81108268D01*
G01X17281914Y-81064211D01*
G01X17258670Y-81021237D01*
G01X17232520Y-80979490D01*
G01X17203465Y-80939116D01*
G01X17171505Y-80900258D01*
G01X17136639Y-80863060D01*
G01X17136639Y-80863060D01*
G01X17136639Y-80863060D01*
G01X17099441Y-80828194D01*
G01X17060583Y-80796234D01*
G01X17020209Y-80767179D01*
G01X16978462Y-80741029D01*
G01X16935488Y-80717785D01*
G01X16891431Y-80697447D01*
G01X16846435Y-80680014D01*
G01X16800645Y-80665486D01*
G01X16754204Y-80653864D01*
G01X16707259Y-80645148D01*
G01X16659952Y-80639337D01*
G01X16612429Y-80636431D01*
G01X16564833Y-80636431D01*
G01X16517310Y-80639337D01*
G01X16470003Y-80645148D01*
G01X16423057Y-80653864D01*
G01X16376617Y-80665486D01*
G01X16330827Y-80680014D01*
G01X16285831Y-80697447D01*
G01X16241774Y-80717785D01*
G01X16198800Y-80741029D01*
G01X16157053Y-80767179D01*
G01X16116679Y-80796234D01*
G01X16077820Y-80828194D01*
G01X16040623Y-80863060D01*
G01X16040623Y-80863060D01*
G01X16040623Y-80863060D01*
G01X16005757Y-80900258D01*
G01X15973797Y-80939116D01*
G01X15944742Y-80979490D01*
G01X15918592Y-81021237D01*
G01X15895348Y-81064211D01*
G01X15875010Y-81108268D01*
G01X15857577Y-81153264D01*
G01X15843049Y-81199055D01*
G01X15831427Y-81245495D01*
G01X15822711Y-81292440D01*
G01X15816900Y-81339747D01*
G01X15813994Y-81387270D01*
G01X15813994Y-81434866D01*
G01X15816900Y-81482389D01*
G01X15822711Y-81529696D01*
G01X15831427Y-81576642D01*
G01X15843049Y-81623082D01*
G01X15857577Y-81668872D01*
G01X15875010Y-81713868D01*
G01X15895348Y-81757925D01*
G01X15918592Y-81800899D01*
G01X15944742Y-81842646D01*
G01X15973797Y-81883021D01*
G01X16005757Y-81921879D01*
G01X16040623Y-81959076D01*
G01X16040623Y-81959076D01*
G01X16040623Y-81959076D01*
G01X16077820Y-81993942D01*
G01X16116679Y-82025902D01*
G01X16157053Y-82054957D01*
G01X16198800Y-82081107D01*
G01X16241774Y-82104351D01*
G01X16285831Y-82124690D01*
G01X16330827Y-82142123D01*
G01X16376617Y-82156650D01*
G01X16423057Y-82168272D01*
G01X16470003Y-82176989D01*
G01X16517310Y-82182800D01*
G01X16564833Y-82185705D01*
G01X16612429Y-82185705D01*
G01X16659952Y-82182800D01*
G01X16707259Y-82176989D01*
G01X16754204Y-82168272D01*
G01X16800645Y-82156650D01*
G01X16846435Y-82142123D01*
G01X16891431Y-82124690D01*
G01X16935488Y-82104351D01*
G01X16978462Y-82081107D01*
G01X17020209Y-82054957D01*
G01X17060583Y-82025902D01*
G01X17099441Y-81993942D01*
G01X17136639Y-81959076D01*
G01X17136639Y-81959076D01*
G37*
G36*
G01X18932690Y-80163025D02*
G01X18932690Y-80163025D01*
G01X18967556Y-80125827D01*
G01X18999516Y-80086969D01*
G01X19028571Y-80046595D01*
G01X19054721Y-80004848D01*
G01X19077965Y-79961874D01*
G01X19098303Y-79917817D01*
G01X19115736Y-79872821D01*
G01X19130264Y-79827031D01*
G01X19141886Y-79780590D01*
G01X19150602Y-79733645D01*
G01X19156413Y-79686338D01*
G01X19159319Y-79638815D01*
G01X19159319Y-79591219D01*
G01X19156413Y-79543696D01*
G01X19150602Y-79496389D01*
G01X19141886Y-79449444D01*
G01X19130264Y-79403003D01*
G01X19115736Y-79357213D01*
G01X19098303Y-79312217D01*
G01X19077965Y-79268160D01*
G01X19054721Y-79225186D01*
G01X19028571Y-79183439D01*
G01X18999516Y-79143065D01*
G01X18967556Y-79104207D01*
G01X18932690Y-79067009D01*
G01X18932690Y-79067009D01*
G01X18932690Y-79067009D01*
G01X18895493Y-79032143D01*
G01X18856634Y-79000183D01*
G01X18816260Y-78971128D01*
G01X18774513Y-78944978D01*
G01X18731539Y-78921734D01*
G01X18687482Y-78901396D01*
G01X18642486Y-78883963D01*
G01X18596696Y-78869435D01*
G01X18550256Y-78857813D01*
G01X18503310Y-78849097D01*
G01X18456003Y-78843286D01*
G01X18408480Y-78840380D01*
G01X18360884Y-78840380D01*
G01X18313361Y-78843286D01*
G01X18266054Y-78849097D01*
G01X18219109Y-78857813D01*
G01X18172669Y-78869435D01*
G01X18126878Y-78883963D01*
G01X18081882Y-78901396D01*
G01X18037825Y-78921734D01*
G01X17994851Y-78944978D01*
G01X17953104Y-78971128D01*
G01X17912730Y-79000183D01*
G01X17873872Y-79032143D01*
G01X17836674Y-79067009D01*
G01X17836674Y-79067009D01*
G01X17836674Y-79067009D01*
G01X17801808Y-79104207D01*
G01X17769848Y-79143065D01*
G01X17740793Y-79183439D01*
G01X17714643Y-79225186D01*
G01X17691399Y-79268160D01*
G01X17671061Y-79312217D01*
G01X17653628Y-79357213D01*
G01X17639100Y-79403003D01*
G01X17627478Y-79449444D01*
G01X17618762Y-79496389D01*
G01X17612951Y-79543696D01*
G01X17610045Y-79591219D01*
G01X17610045Y-79638815D01*
G01X17612951Y-79686338D01*
G01X17618762Y-79733645D01*
G01X17627478Y-79780590D01*
G01X17639100Y-79827031D01*
G01X17653628Y-79872821D01*
G01X17671061Y-79917817D01*
G01X17691399Y-79961874D01*
G01X17714643Y-80004848D01*
G01X17740793Y-80046595D01*
G01X17769848Y-80086969D01*
G01X17801808Y-80125827D01*
G01X17836674Y-80163025D01*
G01X17836674Y-80163025D01*
G01X17836674Y-80163025D01*
G01X17873872Y-80197891D01*
G01X17912730Y-80229851D01*
G01X17953104Y-80258906D01*
G01X17994851Y-80285056D01*
G01X18037825Y-80308300D01*
G01X18081882Y-80328638D01*
G01X18126878Y-80346071D01*
G01X18172669Y-80360599D01*
G01X18219109Y-80372221D01*
G01X18266054Y-80380937D01*
G01X18313361Y-80386748D01*
G01X18360884Y-80389654D01*
G01X18408480Y-80389654D01*
G01X18456003Y-80386748D01*
G01X18503310Y-80380937D01*
G01X18550256Y-80372221D01*
G01X18596696Y-80360599D01*
G01X18642486Y-80346071D01*
G01X18687482Y-80328638D01*
G01X18731539Y-80308300D01*
G01X18774513Y-80285056D01*
G01X18816260Y-80258906D01*
G01X18856634Y-80229851D01*
G01X18895493Y-80197891D01*
G01X18932690Y-80163025D01*
G01X18932690Y-80163025D01*
G37*
G36*
G01X15340587Y-83755127D02*
G01X15340587Y-83755127D01*
G01X15375453Y-83717930D01*
G01X15407414Y-83679072D01*
G01X15436469Y-83638697D01*
G01X15462618Y-83596951D01*
G01X15485862Y-83553977D01*
G01X15506201Y-83509919D01*
G01X15523634Y-83464923D01*
G01X15538162Y-83419133D01*
G01X15549784Y-83372693D01*
G01X15558500Y-83325747D01*
G01X15564311Y-83278441D01*
G01X15567217Y-83230917D01*
G01X15567217Y-83183322D01*
G01X15564311Y-83135798D01*
G01X15558500Y-83088492D01*
G01X15549784Y-83041546D01*
G01X15538162Y-82995106D01*
G01X15523634Y-82949316D01*
G01X15506201Y-82904320D01*
G01X15485862Y-82860262D01*
G01X15462618Y-82817288D01*
G01X15436469Y-82775542D01*
G01X15407414Y-82735167D01*
G01X15375453Y-82696309D01*
G01X15340587Y-82659112D01*
G01X15340587Y-82659112D01*
G01X15340587Y-82659112D01*
G01X15303390Y-82624246D01*
G01X15264532Y-82592285D01*
G01X15224157Y-82563230D01*
G01X15182411Y-82537081D01*
G01X15139437Y-82513837D01*
G01X15095380Y-82493498D01*
G01X15050384Y-82476065D01*
G01X15004593Y-82461538D01*
G01X14958153Y-82449916D01*
G01X14911207Y-82441199D01*
G01X14863901Y-82435388D01*
G01X14816377Y-82432483D01*
G01X14768782Y-82432483D01*
G01X14721259Y-82435388D01*
G01X14673952Y-82441199D01*
G01X14627006Y-82449916D01*
G01X14580566Y-82461538D01*
G01X14534776Y-82476065D01*
G01X14489780Y-82493498D01*
G01X14445723Y-82513837D01*
G01X14402748Y-82537081D01*
G01X14361002Y-82563230D01*
G01X14320627Y-82592285D01*
G01X14281769Y-82624246D01*
G01X14244572Y-82659112D01*
G01X14244572Y-82659112D01*
G01X14244572Y-82659112D01*
G01X14209706Y-82696309D01*
G01X14177745Y-82735167D01*
G01X14148690Y-82775542D01*
G01X14122541Y-82817288D01*
G01X14099297Y-82860262D01*
G01X14078958Y-82904320D01*
G01X14061525Y-82949316D01*
G01X14046998Y-82995106D01*
G01X14035376Y-83041546D01*
G01X14026659Y-83088492D01*
G01X14020848Y-83135798D01*
G01X14017943Y-83183322D01*
G01X14017943Y-83230917D01*
G01X14020848Y-83278441D01*
G01X14026659Y-83325747D01*
G01X14035376Y-83372693D01*
G01X14046998Y-83419133D01*
G01X14061525Y-83464923D01*
G01X14078958Y-83509919D01*
G01X14099297Y-83553977D01*
G01X14122541Y-83596951D01*
G01X14148690Y-83638697D01*
G01X14177745Y-83679072D01*
G01X14209706Y-83717930D01*
G01X14244572Y-83755127D01*
G01X14244572Y-83755127D01*
G01X14244572Y-83755127D01*
G01X14281769Y-83789993D01*
G01X14320627Y-83821954D01*
G01X14361002Y-83851009D01*
G01X14402748Y-83877158D01*
G01X14445723Y-83900402D01*
G01X14489780Y-83920741D01*
G01X14534776Y-83938174D01*
G01X14580566Y-83952701D01*
G01X14627006Y-83964323D01*
G01X14673952Y-83973040D01*
G01X14721259Y-83978851D01*
G01X14768782Y-83981756D01*
G01X14816377Y-83981756D01*
G01X14863901Y-83978851D01*
G01X14911207Y-83973040D01*
G01X14958153Y-83964323D01*
G01X15004593Y-83952701D01*
G01X15050384Y-83938174D01*
G01X15095380Y-83920741D01*
G01X15139437Y-83900402D01*
G01X15182411Y-83877158D01*
G01X15224157Y-83851009D01*
G01X15264532Y-83821954D01*
G01X15303390Y-83789993D01*
G01X15340587Y-83755127D01*
G01X15340587Y-83755127D01*
G37*
G36*
G01X64606282Y-15780384D02*
G01X64606282Y-15780384D01*
G01X64619456Y-15843157D01*
G01X64636439Y-15904133D01*
G01X64657081Y-15963210D01*
G01X64681233Y-16020283D01*
G01X64708747Y-16075246D01*
G01X64739474Y-16127998D01*
G01X64773265Y-16178432D01*
G01X64809971Y-16226446D01*
G01X64849443Y-16271934D01*
G01X64891533Y-16314792D01*
G01X64936091Y-16354917D01*
G01X64982970Y-16392204D01*
G01X65032019Y-16426549D01*
G01X65083091Y-16457847D01*
G01X65136036Y-16485995D01*
G01X65190705Y-16510888D01*
G01X65246950Y-16532422D01*
G01X65304622Y-16550493D01*
G01X65363572Y-16564996D01*
G01X65423652Y-16575828D01*
G01X65484711Y-16582884D01*
G01X65546602Y-16586060D01*
G01X65609176Y-16585251D01*
G01X65672284Y-16580355D01*
G01X65735776Y-16571265D01*
G01X65735776Y-16571265D01*
G01X65735776Y-16571265D01*
G01X65798549Y-16558091D01*
G01X65859526Y-16541108D01*
G01X65918602Y-16520466D01*
G01X65975675Y-16496314D01*
G01X66030639Y-16468800D01*
G01X66083390Y-16438073D01*
G01X66133824Y-16404282D01*
G01X66181838Y-16367576D01*
G01X66227326Y-16328104D01*
G01X66270184Y-16286014D01*
G01X66310309Y-16241455D01*
G01X66347596Y-16194577D01*
G01X66381941Y-16145528D01*
G01X66413239Y-16094456D01*
G01X66441387Y-16041511D01*
G01X66466280Y-15986842D01*
G01X66487814Y-15930597D01*
G01X66505885Y-15872925D01*
G01X66520388Y-15813975D01*
G01X66531220Y-15753895D01*
G01X66538276Y-15692836D01*
G01X66541452Y-15630945D01*
G01X66540644Y-15568371D01*
G01X66535747Y-15505263D01*
G01X66526657Y-15441770D01*
G01X66526657Y-15441770D01*
G01X66526657Y-15441770D01*
G01X66513483Y-15378998D01*
G01X66496500Y-15318021D01*
G01X66475858Y-15258945D01*
G01X66451706Y-15201872D01*
G01X66424192Y-15146908D01*
G01X66393465Y-15094157D01*
G01X66359674Y-15043722D01*
G01X66322968Y-14995709D01*
G01X66283496Y-14950221D01*
G01X66241406Y-14907363D01*
G01X66196848Y-14867238D01*
G01X66149969Y-14829951D01*
G01X66100920Y-14795606D01*
G01X66049848Y-14764308D01*
G01X65996903Y-14736160D01*
G01X65942234Y-14711267D01*
G01X65885989Y-14689733D01*
G01X65828317Y-14671662D01*
G01X65769367Y-14657158D01*
G01X65709287Y-14646327D01*
G01X65648228Y-14639271D01*
G01X65586337Y-14636095D01*
G01X65523763Y-14636903D01*
G01X65460655Y-14641800D01*
G01X65397163Y-14650890D01*
G01X65397163Y-14650890D01*
G01X65397163Y-14650890D01*
G01X65334390Y-14664064D01*
G01X65273413Y-14681047D01*
G01X65214337Y-14701689D01*
G01X65157264Y-14725841D01*
G01X65102300Y-14753355D01*
G01X65049549Y-14784082D01*
G01X64999115Y-14817873D01*
G01X64951101Y-14854579D01*
G01X64905613Y-14894051D01*
G01X64862755Y-14936141D01*
G01X64822630Y-14980699D01*
G01X64785343Y-15027578D01*
G01X64750998Y-15076627D01*
G01X64719700Y-15127699D01*
G01X64691552Y-15180644D01*
G01X64666659Y-15235313D01*
G01X64645125Y-15291558D01*
G01X64627054Y-15349230D01*
G01X64612551Y-15408180D01*
G01X64601719Y-15468259D01*
G01X64594663Y-15529319D01*
G01X64591487Y-15591210D01*
G01X64592295Y-15653784D01*
G01X64597192Y-15716892D01*
G01X64606282Y-15780384D01*
G01X64606282Y-15780384D01*
G37*
G36*
G01X65838229Y-17152301D02*
G01X66502975Y-17035089D01*
G01X66502975Y-17035089D01*
G01X66551579Y-17030505D01*
G01X66599013Y-17033685D01*
G01X66644562Y-17044125D01*
G01X66687510Y-17061326D01*
G01X66727142Y-17084785D01*
G01X66762742Y-17114003D01*
G01X66793594Y-17148479D01*
G01X66818984Y-17187710D01*
G01X66838195Y-17231196D01*
G01X66850511Y-17278436D01*
G01X66850511Y-17278436D01*
G01X66967724Y-17943182D01*
G01X67084936Y-18607927D01*
G01X67084936Y-18607927D01*
G01X67089519Y-18656531D01*
G01X67086340Y-18703965D01*
G01X67075900Y-18749514D01*
G01X67058699Y-18792462D01*
G01X67035239Y-18832094D01*
G01X67006021Y-18867694D01*
G01X66971546Y-18898546D01*
G01X66932315Y-18923936D01*
G01X66888829Y-18943147D01*
G01X66841588Y-18955464D01*
G01X66841588Y-18955464D01*
G01X66176843Y-19072676D01*
G01X65512098Y-19189889D01*
G01X65512098Y-19189889D01*
G01X65463494Y-19194472D01*
G01X65416060Y-19191293D01*
G01X65370511Y-19180852D01*
G01X65327563Y-19163652D01*
G01X65287931Y-19140192D01*
G01X65252331Y-19110974D01*
G01X65221478Y-19076499D01*
G01X65196089Y-19037267D01*
G01X65176878Y-18993781D01*
G01X65164561Y-18946541D01*
G01X65164561Y-18946541D01*
G01X65047349Y-18281796D01*
G01X64930136Y-17617050D01*
G01X64930136Y-17617050D01*
G01X64925553Y-17568446D01*
G01X64928732Y-17521012D01*
G01X64939173Y-17475463D01*
G01X64956373Y-17432515D01*
G01X64979833Y-17392883D01*
G01X65009051Y-17357283D01*
G01X65043526Y-17326431D01*
G01X65082757Y-17301041D01*
G01X65126244Y-17281830D01*
G01X65173484Y-17269514D01*
G01X65173484Y-17269514D01*
G01X65838229Y-17152301D01*
G37*
G36*
G01X81580792Y-1450000D02*
G01X82780792Y-1450000D01*
G01X82780792Y-2650000D01*
G01X81580792Y-2650000D01*
G01X81580792Y-1450000D01*
G37*
G36*
G01X83030793Y-1829102D02*
G01X83030793Y-1829102D01*
G01X83048664Y-1793946D01*
G01X83048664Y-1793946D01*
G01X83105671Y-1786381D01*
G01X83109894Y-1786329D01*
G01X83143879Y-1786329D01*
G01X83143879Y-1786329D01*
G01X83140388Y-1707561D01*
G01X83137059Y-1660582D01*
G01X83136261Y-1651563D01*
G01X83136261Y-1651563D01*
G01X83176105Y-1648047D01*
G01X83176105Y-1648047D01*
G01X83230376Y-1678967D01*
G01X83233527Y-1693750D01*
G01X83233527Y-1693750D01*
G01X83230903Y-1752063D01*
G01X83228840Y-1787500D01*
G01X83228840Y-1787500D01*
G01X83324604Y-1786493D01*
G01X83386750Y-1784278D01*
G01X83420331Y-1782062D01*
G01X83430402Y-1781055D01*
G01X83430402Y-1781055D01*
G01X83430402Y-1781055D01*
G01X83435090Y-1809180D01*
G01X83435090Y-1809180D01*
G01X83422492Y-1841407D01*
G01X83422492Y-1841407D01*
G01X83382355Y-1850782D01*
G01X83382355Y-1850782D01*
G01X83324410Y-1851601D01*
G01X83258908Y-1851908D01*
G01X83226530Y-1851954D01*
G01X83226496Y-1851954D01*
G01X83226496Y-1851954D01*
G01X83225398Y-1926151D01*
G01X83224711Y-1996828D01*
G01X83224338Y-2057548D01*
G01X83224184Y-2101872D01*
G01X83224152Y-2123362D01*
G01X83224152Y-2124415D01*
G01X83224152Y-2124415D01*
G01X83231078Y-2210115D01*
G01X83243106Y-2251574D01*
G01X83247590Y-2260059D01*
G01X83247590Y-2260059D01*
G01X83302657Y-2290169D01*
G01X83324933Y-2292579D01*
G01X83324933Y-2292579D01*
G01X83389570Y-2272782D01*
G01X83411066Y-2256250D01*
G01X83411066Y-2256250D01*
G01X83432746Y-2299610D01*
G01X83432746Y-2299610D01*
G01X83402013Y-2340166D01*
G01X83401691Y-2340332D01*
G01X83401691Y-2340332D01*
G01X83339983Y-2355194D01*
G01X83326105Y-2355860D01*
G01X83326105Y-2355860D01*
G01X83247833Y-2341983D01*
G01X83202041Y-2315405D01*
G01X83185387Y-2298706D01*
G01X83185187Y-2298438D01*
G01X83185187Y-2298438D01*
G01X83159297Y-2240592D01*
G01X83147397Y-2178545D01*
G01X83144048Y-2134832D01*
G01X83143879Y-2126758D01*
G01X83143879Y-2126758D01*
G01X83144977Y-2019360D01*
G01X83145664Y-1942231D01*
G01X83146036Y-1891250D01*
G01X83146190Y-1862292D01*
G01X83146222Y-1851234D01*
G01X83146222Y-1850782D01*
G01X83146222Y-1850782D01*
G01X83097195Y-1854519D01*
G01X83037347Y-1859325D01*
G01X83034308Y-1859571D01*
G01X83034308Y-1859571D01*
G01X83030793Y-1829102D01*
G37*
G36*
G01X83506574Y-2065821D02*
G01X83506574Y-2065821D01*
G01X83515504Y-1986638D01*
G01X83536154Y-1924311D01*
G01X83559316Y-1880636D01*
G01X83575780Y-1857411D01*
G01X83578644Y-1854004D01*
G01X83578644Y-1854004D01*
G01X83636002Y-1809133D01*
G01X83695385Y-1785270D01*
G01X83743429Y-1775780D01*
G01X83766767Y-1774029D01*
G01X83767316Y-1774024D01*
G01X83767316Y-1774024D01*
G01X83843808Y-1785633D01*
G01X83902266Y-1811616D01*
G01X83940551Y-1838704D01*
G01X83956524Y-1853631D01*
G01X83956867Y-1854004D01*
G01X83956867Y-1854004D01*
G01X83994582Y-1912365D01*
G01X84016039Y-1974049D01*
G01X84025823Y-2027320D01*
G01X84028520Y-2060443D01*
G01X84028644Y-2065821D01*
G01X84028644Y-2065821D01*
G01X84019000Y-2148098D01*
G01X83997053Y-2211712D01*
G01X83973284Y-2254739D01*
G01X83958172Y-2275253D01*
G01X83956867Y-2276758D01*
G01X83956867Y-2276758D01*
G01X83899503Y-2321136D01*
G01X83839827Y-2344738D01*
G01X83791421Y-2354123D01*
G01X83767871Y-2355855D01*
G01X83767316Y-2355860D01*
G01X83767316Y-2355860D01*
G01X83691439Y-2344378D01*
G01X83633235Y-2318681D01*
G01X83594991Y-2291890D01*
G01X83578988Y-2277128D01*
G01X83578644Y-2276758D01*
G01X83578644Y-2276758D01*
G01X83540775Y-2218859D01*
G01X83519231Y-2157439D01*
G01X83509407Y-2104287D01*
G01X83506698Y-2071197D01*
G01X83506574Y-2065821D01*
G37*
%LPC*%
G36*
G01X83590949Y-2048829D02*
G01X83590949Y-2048829D01*
G01X83599860Y-2126577D01*
G01X83618412Y-2183587D01*
G01X83634335Y-2215382D01*
G01X83637531Y-2220508D01*
G01X83637531Y-2220508D01*
G01X83691305Y-2268444D01*
G01X83743171Y-2286368D01*
G01X83767291Y-2289063D01*
G01X83767316Y-2289063D01*
G01X83767316Y-2289063D01*
G01X83841302Y-2273215D01*
G01X83885593Y-2244963D01*
G01X83897980Y-2232813D01*
G01X83897980Y-2232813D01*
G01X83930116Y-2171594D01*
G01X83942668Y-2113139D01*
G01X83944852Y-2083255D01*
G01X83944855Y-2082813D01*
G01X83944855Y-2082813D01*
G01X83935664Y-2004953D01*
G01X83916528Y-1947709D01*
G01X83900105Y-1915713D01*
G01X83896808Y-1910547D01*
G01X83896808Y-1910547D01*
G01X83842458Y-1862202D01*
G01X83791048Y-1844124D01*
G01X83767340Y-1841407D01*
G01X83767316Y-1841407D01*
G01X83767316Y-1841407D01*
G01X83693496Y-1857420D01*
G01X83649499Y-1885966D01*
G01X83637238Y-1898243D01*
G01X83637238Y-1898243D01*
G01X83605504Y-1959864D01*
G01X83593109Y-2018475D01*
G01X83590952Y-2048387D01*
G01X83590949Y-2048829D01*
G37*
%LPD*%
G36*
G01X84154621Y-1792188D02*
G01X84154621Y-1792188D01*
G01X84201496Y-1782813D01*
G01X84201496Y-1782813D01*
G01X84248959Y-1818930D01*
G01X84253058Y-1842579D01*
G01X84253058Y-1842579D01*
G01X84321192Y-1802945D01*
G01X84381965Y-1782593D01*
G01X84425599Y-1775095D01*
G01X84442316Y-1774024D01*
G01X84442316Y-1774024D01*
G01X84442316Y-1774024D01*
G01X84516242Y-1788698D01*
G01X84567042Y-1817431D01*
G01X84590003Y-1837285D01*
G01X84590851Y-1838184D01*
G01X84590851Y-1838184D01*
G01X84624556Y-1895784D01*
G01X84641864Y-1959949D01*
G01X84648241Y-2012084D01*
G01X84649152Y-2033594D01*
G01X84649152Y-2033594D01*
G01X84649152Y-2033594D01*
G01X84642568Y-2109919D01*
G01X84629957Y-2166070D01*
G01X84622033Y-2190872D01*
G01X84621906Y-2191211D01*
G01X84621906Y-2191211D01*
G01X84586464Y-2254637D01*
G01X84550230Y-2295678D01*
G01X84534894Y-2309278D01*
G01X84534894Y-2309278D01*
G01X84471603Y-2341850D01*
G01X84415731Y-2354029D01*
G01X84390779Y-2355860D01*
G01X84390754Y-2355860D01*
G01X84390754Y-2355860D01*
G01X84319742Y-2343913D01*
G01X84270236Y-2323164D01*
G01X84256574Y-2315430D01*
G01X84256574Y-2315430D01*
G01X84257099Y-2372430D01*
G01X84257160Y-2378418D01*
G01X84257160Y-2378418D01*
G01X84258142Y-2447617D01*
G01X84258332Y-2455762D01*
G01X84258332Y-2455762D01*
G01X84261013Y-2514140D01*
G01X84261261Y-2518750D01*
G01X84261261Y-2518750D01*
G01X84267515Y-2582415D01*
G01X84268586Y-2589063D01*
G01X84268586Y-2589063D01*
G01X84280595Y-2638275D01*
G01X84280597Y-2638282D01*
G01X84280597Y-2638282D01*
G01X84232550Y-2647657D01*
G01X84232550Y-2647657D01*
G01X84185968Y-2632129D01*
G01X84185968Y-2632129D01*
G01X84185968Y-2632129D01*
G01X84173965Y-2579970D01*
G01X84173957Y-2579102D01*
G01X84173957Y-2579102D01*
G01X84174107Y-2511405D01*
G01X84174476Y-2440867D01*
G01X84174941Y-2375525D01*
G01X84175378Y-2323417D01*
G01X84175665Y-2292580D01*
G01X84175715Y-2287598D01*
G01X84175715Y-2287598D01*
G01X84176606Y-2191724D01*
G01X84177129Y-2121644D01*
G01X84177383Y-2075323D01*
G01X84177465Y-2050728D01*
G01X84177472Y-2045313D01*
G01X84177472Y-2045313D01*
G01X84175096Y-1946313D01*
G01X84169429Y-1874454D01*
G01X84162665Y-1826782D01*
G01X84156997Y-1800344D01*
G01X84154621Y-1792188D01*
G01X84154621Y-1792188D01*
G37*
%LPC*%
G36*
G01X84256574Y-1907618D02*
G01X84256574Y-1907618D01*
G01X84257478Y-2014310D01*
G01X84258114Y-2098442D01*
G01X84258528Y-2162056D01*
G01X84258768Y-2207191D01*
G01X84258881Y-2235889D01*
G01X84258915Y-2250191D01*
G01X84258918Y-2252735D01*
G01X84258918Y-2252735D01*
G01X84322047Y-2278358D01*
G01X84379730Y-2287750D01*
G01X84403058Y-2289063D01*
G01X84403058Y-2289063D01*
G01X84469123Y-2270752D01*
G01X84494758Y-2252442D01*
G01X84494758Y-2252442D01*
G01X84494758Y-2252442D01*
G01X84534535Y-2196459D01*
G01X84548003Y-2163918D01*
G01X84548078Y-2163672D01*
G01X84548078Y-2163672D01*
G01X84560878Y-2095912D01*
G01X84563578Y-2053661D01*
G01X84563605Y-2051172D01*
G01X84563605Y-2051172D01*
G01X84554157Y-1967118D01*
G01X84535658Y-1914788D01*
G01X84522875Y-1893135D01*
G01X84522297Y-1892383D01*
G01X84522297Y-1892383D01*
G01X84464266Y-1851353D01*
G01X84420580Y-1841615D01*
G01X84415949Y-1841407D01*
G01X84415949Y-1841407D01*
G01X84347793Y-1854882D01*
G01X84292301Y-1882390D01*
G01X84260361Y-1904552D01*
G01X84256574Y-1907618D01*
G37*
%LPD*%
G36*
G01X85026496Y-2260352D02*
G01X85026496Y-2260352D01*
G01X85064473Y-2216249D01*
G01X85080402Y-2209961D01*
G01X85080402Y-2209961D01*
G01X85121303Y-2259257D01*
G01X85137531Y-2268848D01*
G01X85137531Y-2268848D01*
G01X85203683Y-2286827D01*
G01X85232746Y-2289063D01*
G01X85232746Y-2289063D01*
G01X85300254Y-2274918D01*
G01X85316242Y-2266211D01*
G01X85316242Y-2266211D01*
G01X85346558Y-2211336D01*
G01X85348175Y-2195313D01*
G01X85348175Y-2195313D01*
G01X85320877Y-2143536D01*
G01X85316242Y-2140235D01*
G01X85316242Y-2140235D01*
G01X85256126Y-2115254D01*
G01X85238898Y-2110645D01*
G01X85238898Y-2110645D01*
G01X85172320Y-2093680D01*
G01X85147785Y-2086622D01*
G01X85147785Y-2086622D01*
G01X85089425Y-2053367D01*
G01X85070148Y-2034473D01*
G01X85070148Y-2034473D01*
G01X85042969Y-1973012D01*
G01X85038221Y-1933477D01*
G01X85038215Y-1932813D01*
G01X85038215Y-1932813D01*
G01X85058209Y-1865300D01*
G01X85091058Y-1825983D01*
G01X85100031Y-1818555D01*
G01X85100031Y-1818555D01*
G01X85164976Y-1786826D01*
G01X85218919Y-1775483D01*
G01X85239777Y-1774024D01*
G01X85239777Y-1774024D01*
G01X85308394Y-1784365D01*
G01X85347975Y-1798218D01*
G01X85350226Y-1799219D01*
G01X85350226Y-1799219D01*
G01X85399150Y-1846894D01*
G01X85404425Y-1868946D01*
G01X85404425Y-1868946D01*
G01X85366448Y-1913632D01*
G01X85350519Y-1919336D01*
G01X85350519Y-1919336D01*
G01X85309602Y-1871545D01*
G01X85296320Y-1863086D01*
G01X85296320Y-1863086D01*
G01X85231924Y-1843130D01*
G01X85211066Y-1841407D01*
G01X85211066Y-1841407D01*
G01X85149257Y-1857998D01*
G01X85140168Y-1863672D01*
G01X85140168Y-1863672D01*
G01X85111092Y-1917034D01*
G01X85110285Y-1926368D01*
G01X85110285Y-1926368D01*
G01X85137229Y-1978855D01*
G01X85142218Y-1982618D01*
G01X85142218Y-1982618D01*
G01X85201534Y-2008837D01*
G01X85219562Y-2013965D01*
G01X85219562Y-2013965D01*
G01X85285163Y-2031183D01*
G01X85310675Y-2038575D01*
G01X85310675Y-2038575D01*
G01X85369809Y-2071179D01*
G01X85388312Y-2088379D01*
G01X85388312Y-2088379D01*
G01X85416254Y-2148914D01*
G01X85420246Y-2182422D01*
G01X85420246Y-2182422D01*
G01X85420246Y-2182422D01*
G01X85403824Y-2254822D01*
G01X85373813Y-2298147D01*
G01X85359015Y-2311622D01*
G01X85359015Y-2311622D01*
G01X85294700Y-2342555D01*
G01X85238445Y-2354121D01*
G01X85213435Y-2355860D01*
G01X85213410Y-2355860D01*
G01X85213410Y-2355860D01*
G01X85139239Y-2346952D01*
G01X85092594Y-2332318D01*
G01X85083332Y-2328321D01*
G01X85083332Y-2328321D01*
G01X85032028Y-2280827D01*
G01X85026496Y-2260352D01*
G37*
G36*
G01X85522785Y-2065821D02*
G01X85522785Y-2065821D01*
G01X85531715Y-1986638D01*
G01X85552365Y-1924311D01*
G01X85575526Y-1880636D01*
G01X85591991Y-1857411D01*
G01X85594855Y-1854004D01*
G01X85594855Y-1854004D01*
G01X85652213Y-1809133D01*
G01X85711596Y-1785270D01*
G01X85759640Y-1775780D01*
G01X85782978Y-1774029D01*
G01X85783527Y-1774024D01*
G01X85783527Y-1774024D01*
G01X85860019Y-1785633D01*
G01X85918477Y-1811616D01*
G01X85956762Y-1838704D01*
G01X85972735Y-1853631D01*
G01X85973078Y-1854004D01*
G01X85973078Y-1854004D01*
G01X86010793Y-1912365D01*
G01X86032250Y-1974049D01*
G01X86042034Y-2027320D01*
G01X86044731Y-2060443D01*
G01X86044855Y-2065821D01*
G01X86044855Y-2065821D01*
G01X86035211Y-2148098D01*
G01X86013264Y-2211712D01*
G01X85989495Y-2254739D01*
G01X85974382Y-2275253D01*
G01X85973078Y-2276758D01*
G01X85973078Y-2276758D01*
G01X85915714Y-2321136D01*
G01X85856038Y-2344738D01*
G01X85807632Y-2354123D01*
G01X85784082Y-2355855D01*
G01X85783527Y-2355860D01*
G01X85783527Y-2355860D01*
G01X85707650Y-2344378D01*
G01X85649446Y-2318681D01*
G01X85611202Y-2291890D01*
G01X85595199Y-2277128D01*
G01X85594855Y-2276758D01*
G01X85594855Y-2276758D01*
G01X85556986Y-2218859D01*
G01X85535442Y-2157439D01*
G01X85525618Y-2104287D01*
G01X85522909Y-2071197D01*
G01X85522785Y-2065821D01*
G37*
%LPC*%
G36*
G01X85607160Y-2048829D02*
G01X85607160Y-2048829D01*
G01X85616071Y-2126577D01*
G01X85634623Y-2183587D01*
G01X85650546Y-2215382D01*
G01X85653742Y-2220508D01*
G01X85653742Y-2220508D01*
G01X85707516Y-2268444D01*
G01X85759382Y-2286368D01*
G01X85783502Y-2289063D01*
G01X85783527Y-2289063D01*
G01X85783527Y-2289063D01*
G01X85857513Y-2273215D01*
G01X85901804Y-2244963D01*
G01X85914191Y-2232813D01*
G01X85914191Y-2232813D01*
G01X85946327Y-2171594D01*
G01X85958879Y-2113139D01*
G01X85961063Y-2083255D01*
G01X85961066Y-2082813D01*
G01X85961066Y-2082813D01*
G01X85951875Y-2004953D01*
G01X85932739Y-1947709D01*
G01X85916316Y-1915713D01*
G01X85913019Y-1910547D01*
G01X85913019Y-1910547D01*
G01X85858669Y-1862202D01*
G01X85807258Y-1844124D01*
G01X85783551Y-1841407D01*
G01X85783527Y-1841407D01*
G01X85783527Y-1841407D01*
G01X85709707Y-1857420D01*
G01X85665710Y-1885966D01*
G01X85653449Y-1898243D01*
G01X85653449Y-1898243D01*
G01X85621715Y-1959864D01*
G01X85609320Y-2018475D01*
G01X85607163Y-2048387D01*
G01X85607160Y-2048829D01*
G37*
%LPD*%
G36*
G01X86170832Y-1455860D02*
G01X86170832Y-1455860D01*
G01X86213019Y-1452344D01*
G01X86213019Y-1452344D01*
G01X86265307Y-1483907D01*
G01X86268097Y-1498047D01*
G01X86268097Y-1498047D01*
G01X86266557Y-1554789D01*
G01X86266340Y-1562207D01*
G01X86266340Y-1562207D01*
G01X86264497Y-1626627D01*
G01X86262806Y-1687843D01*
G01X86261957Y-1719071D01*
G01X86261945Y-1719532D01*
G01X86261945Y-1719532D01*
G01X86260377Y-1794038D01*
G01X86259600Y-1858111D01*
G01X86259336Y-1901555D01*
G01X86259308Y-1914649D01*
G01X86259308Y-2101563D01*
G01X86259308Y-2101563D01*
G01X86261908Y-2191160D01*
G01X86268015Y-2259312D01*
G01X86275090Y-2306279D01*
G01X86280592Y-2332322D01*
G01X86282160Y-2338282D01*
G01X86282160Y-2338282D01*
G01X86237043Y-2347657D01*
G01X86237043Y-2347657D01*
G01X86190754Y-2333301D01*
G01X86190754Y-2333301D01*
G01X86177863Y-2285547D01*
G01X86177863Y-2285547D01*
G01X86177863Y-2285547D01*
G01X86178162Y-2235454D01*
G01X86178721Y-2168080D01*
G01X86179035Y-2132949D01*
G01X86179035Y-2132911D01*
G01X86179035Y-2132911D01*
G01X86179751Y-2043698D01*
G01X86180093Y-1982444D01*
G01X86180199Y-1949047D01*
G01X86180207Y-1942188D01*
G01X86180207Y-1802735D01*
G01X86180207Y-1802735D01*
G01X86179637Y-1689649D01*
G01X86178182Y-1603003D01*
G01X86176220Y-1539653D01*
G01X86174132Y-1496454D01*
G01X86172297Y-1470261D01*
G01X86171094Y-1457931D01*
G01X86170832Y-1455860D01*
G37*
G36*
G01X86408136Y-2065821D02*
G01X86408136Y-2065821D01*
G01X86417284Y-1987181D01*
G01X86438438Y-1925036D01*
G01X86462164Y-1881333D01*
G01X86479030Y-1858018D01*
G01X86481965Y-1854590D01*
G01X86481965Y-1854590D01*
G01X86540943Y-1808013D01*
G01X86598713Y-1784095D01*
G01X86642640Y-1775283D01*
G01X86660090Y-1774024D01*
G01X86660090Y-1774024D01*
G01X86660090Y-1774024D01*
G01X86731353Y-1785580D01*
G01X86783042Y-1806180D01*
G01X86799543Y-1815040D01*
G01X86799543Y-1815040D01*
G01X86801405Y-1736439D01*
G01X86801873Y-1694792D01*
G01X86801886Y-1690235D01*
G01X86801886Y-1690235D01*
G01X86800725Y-1601904D01*
G01X86798039Y-1532917D01*
G01X86795026Y-1484921D01*
G01X86792884Y-1459562D01*
G01X86792511Y-1455860D01*
G01X86792511Y-1455860D01*
G01X86835285Y-1452344D01*
G01X86835285Y-1452344D01*
G01X86886676Y-1484543D01*
G01X86889191Y-1498047D01*
G01X86889191Y-1498047D01*
G01X86888692Y-1539368D01*
G01X86887485Y-1602903D01*
G01X86886004Y-1672160D01*
G01X86884683Y-1730644D01*
G01X86883956Y-1761862D01*
G01X86883918Y-1763477D01*
G01X86883918Y-1763477D01*
G01X86881770Y-1860156D01*
G01X86880302Y-1937669D01*
G01X86879386Y-1997009D01*
G01X86878890Y-2039170D01*
G01X86878686Y-2065146D01*
G01X86878645Y-2075929D01*
G01X86878644Y-2076368D01*
G01X86878644Y-2076368D01*
G01X86880806Y-2176081D01*
G01X86886036Y-2248900D01*
G01X86892454Y-2298005D01*
G01X86898179Y-2326581D01*
G01X86901330Y-2337811D01*
G01X86901496Y-2338282D01*
G01X86901496Y-2338282D01*
G01X86855793Y-2347657D01*
G01X86855793Y-2347657D01*
G01X86807992Y-2311539D01*
G01X86803058Y-2287891D01*
G01X86803058Y-2287891D01*
G01X86739987Y-2331533D01*
G01X86684644Y-2350824D01*
G01X86651263Y-2355710D01*
G01X86647199Y-2355860D01*
G01X86646027Y-2355860D01*
G01X86646027Y-2355860D01*
G01X86574601Y-2341149D01*
G01X86519593Y-2309933D01*
G01X86486400Y-2281587D01*
G01X86479035Y-2273829D01*
G01X86479035Y-2273829D01*
G01X86440504Y-2212320D01*
G01X86419300Y-2149268D01*
G01X86410249Y-2097078D01*
G01X86408173Y-2068153D01*
G01X86408136Y-2065821D01*
G37*
%LPC*%
G36*
G01X86492511Y-2048829D02*
G01X86492511Y-2048829D01*
G01X86502151Y-2128780D01*
G01X86522220Y-2186803D01*
G01X86539445Y-2218884D01*
G01X86542902Y-2224024D01*
G01X86542902Y-2224024D01*
G01X86599595Y-2273752D01*
G01X86647976Y-2290728D01*
G01X86664777Y-2292579D01*
G01X86664777Y-2292579D01*
G01X86730627Y-2275109D01*
G01X86779627Y-2242410D01*
G01X86799524Y-2224044D01*
G01X86799543Y-2224024D01*
G01X86799543Y-2224024D01*
G01X86798638Y-2102175D01*
G01X86798003Y-2012406D01*
G01X86797589Y-1949935D01*
G01X86797349Y-1909980D01*
G01X86797236Y-1887760D01*
G01X86797201Y-1878492D01*
G01X86797199Y-1877149D01*
G01X86797199Y-1877149D01*
G01X86727648Y-1849519D01*
G01X86681651Y-1841787D01*
G01X86673566Y-1841407D01*
G01X86673566Y-1841407D01*
G01X86600823Y-1856650D01*
G01X86555643Y-1884507D01*
G01X86541144Y-1898243D01*
G01X86541144Y-1898243D01*
G01X86507803Y-1959864D01*
G01X86494780Y-2018475D01*
G01X86492515Y-2048387D01*
G01X86492511Y-2048829D01*
G37*
%LPD*%
G36*
G01X87026886Y-2068165D02*
G01X87026886Y-2068165D01*
G01X87036796Y-1984220D01*
G01X87059713Y-1920006D01*
G01X87085417Y-1876198D01*
G01X87103688Y-1853468D01*
G01X87106867Y-1850196D01*
G01X87106867Y-1850196D01*
G01X87169951Y-1806159D01*
G01X87230756Y-1783545D01*
G01X87276564Y-1775214D01*
G01X87294660Y-1774024D01*
G01X87294660Y-1774024D01*
G01X87294660Y-1774024D01*
G01X87370131Y-1787396D01*
G01X87417071Y-1811233D01*
G01X87430597Y-1821485D01*
G01X87430597Y-1821485D01*
G01X87471482Y-1881175D01*
G01X87482329Y-1925791D01*
G01X87482746Y-1932813D01*
G01X87482746Y-1932813D01*
G01X87471213Y-1998760D01*
G01X87466047Y-2010743D01*
G01X87466047Y-2010743D01*
G01X87426537Y-2056645D01*
G01X87422394Y-2059668D01*
G01X87422394Y-2059668D01*
G01X87363276Y-2082883D01*
G01X87344465Y-2087207D01*
G01X87344465Y-2087207D01*
G01X87275251Y-2096839D01*
G01X87244269Y-2099219D01*
G01X87244269Y-2099219D01*
G01X87244269Y-2099219D01*
G01X87179117Y-2101031D01*
G01X87125247Y-2101538D01*
G01X87114777Y-2101563D01*
G01X87114777Y-2101563D01*
G01X87132850Y-2176526D01*
G01X87156059Y-2223309D01*
G01X87166633Y-2238379D01*
G01X87166633Y-2238379D01*
G01X87223437Y-2276984D01*
G01X87273140Y-2288362D01*
G01X87284699Y-2289063D01*
G01X87284699Y-2289063D01*
G01X87360090Y-2272249D01*
G01X87400904Y-2241519D01*
G01X87412433Y-2226368D01*
G01X87412433Y-2226368D01*
G01X87458597Y-2269079D01*
G01X87459894Y-2276758D01*
G01X87459894Y-2276758D01*
G01X87424583Y-2324261D01*
G01X87405402Y-2334180D01*
G01X87405402Y-2334180D01*
G01X87337408Y-2351407D01*
G01X87289608Y-2355733D01*
G01X87283527Y-2355860D01*
G01X87283527Y-2355860D01*
G01X87206934Y-2344736D01*
G01X87148688Y-2320264D01*
G01X87111646Y-2295792D01*
G01X87098664Y-2284668D01*
G01X87098664Y-2284668D01*
G01X87098664Y-2284668D01*
G01X87060949Y-2229256D01*
G01X87039492Y-2166338D01*
G01X87029708Y-2109934D01*
G01X87027010Y-2074063D01*
G01X87026886Y-2068165D01*
G37*
%LPC*%
G36*
G01X87113605Y-2041797D02*
G01X87113605Y-2041797D01*
G01X87183864Y-2041055D01*
G01X87199738Y-2040625D01*
G01X87199738Y-2040625D01*
G01X87262697Y-2034997D01*
G01X87275324Y-2033301D01*
G01X87275324Y-2033301D01*
G01X87336396Y-2018374D01*
G01X87341535Y-2016309D01*
G01X87341535Y-2016309D01*
G01X87382797Y-1985308D01*
G01X87382843Y-1985254D01*
G01X87382843Y-1985254D01*
G01X87400123Y-1935582D01*
G01X87400129Y-1935157D01*
G01X87400129Y-1935157D01*
G01X87376974Y-1877423D01*
G01X87368488Y-1868360D01*
G01X87368488Y-1868360D01*
G01X87309331Y-1842173D01*
G01X87289972Y-1840235D01*
G01X87289972Y-1840235D01*
G01X87220151Y-1855463D01*
G01X87176738Y-1881202D01*
G01X87166925Y-1889454D01*
G01X87166925Y-1889454D01*
G01X87132159Y-1946090D01*
G01X87117160Y-2005740D01*
G01X87113656Y-2040335D01*
G01X87113605Y-2041797D01*
G37*
%LPD*%
G36*
G01X87608722Y-1786329D02*
G01X87608722Y-1786329D01*
G01X87649738Y-1782813D01*
G01X87649738Y-1782813D01*
G01X87699274Y-1815830D01*
G01X87701300Y-1827930D01*
G01X87701300Y-1827930D01*
G01X87700715Y-1844336D01*
G01X87700715Y-1844336D01*
G01X87700129Y-1870118D01*
G01X87700129Y-1870118D01*
G01X87744285Y-1820230D01*
G01X87764289Y-1803614D01*
G01X87764289Y-1803614D01*
G01X87826531Y-1776063D01*
G01X87843683Y-1774024D01*
G01X87843683Y-1774024D01*
G01X87887043Y-1786622D01*
G01X87887043Y-1786622D01*
G01X87902863Y-1820899D01*
G01X87902863Y-1820899D01*
G01X87880488Y-1872581D01*
G01X87878840Y-1874805D01*
G01X87878840Y-1874805D01*
G01X87824676Y-1852165D01*
G01X87820832Y-1851954D01*
G01X87820832Y-1851954D01*
G01X87762443Y-1872290D01*
G01X87753742Y-1878321D01*
G01X87753742Y-1878321D01*
G01X87709448Y-1928005D01*
G01X87697199Y-1948047D01*
G01X87697199Y-1948047D01*
G01X87696380Y-2005096D01*
G01X87696073Y-2068922D01*
G01X87696027Y-2100358D01*
G01X87696027Y-2100391D01*
G01X87696027Y-2100391D01*
G01X87698627Y-2191043D01*
G01X87704734Y-2259580D01*
G01X87711808Y-2306523D01*
G01X87717311Y-2332393D01*
G01X87718879Y-2338282D01*
G01X87718879Y-2338282D01*
G01X87673175Y-2347657D01*
G01X87673175Y-2347657D01*
G01X87626593Y-2332129D01*
G01X87626593Y-2332129D01*
G01X87626593Y-2332129D01*
G01X87614590Y-2279970D01*
G01X87614582Y-2279102D01*
G01X87614582Y-2279102D01*
G01X87615220Y-2220743D01*
G01X87615754Y-2184473D01*
G01X87615754Y-2184473D01*
G01X87616708Y-2106431D01*
G01X87616922Y-2069448D01*
G01X87616925Y-2066993D01*
G01X87616925Y-2066993D01*
G01X87616224Y-1980650D01*
G01X87614502Y-1908114D01*
G01X87612333Y-1851006D01*
G01X87610292Y-1810946D01*
G01X87608952Y-1789552D01*
G01X87608722Y-1786329D01*
G37*
G36*
G01X87986652Y-1792188D02*
G01X87986652Y-1792188D01*
G01X88030011Y-1782813D01*
G01X88030011Y-1782813D01*
G01X88080071Y-1817163D01*
G01X88085090Y-1842579D01*
G01X88085090Y-1842579D01*
G01X88143171Y-1806763D01*
G01X88173566Y-1793360D01*
G01X88173566Y-1793360D01*
G01X88173566Y-1793360D01*
G01X88242707Y-1776441D01*
G01X88273175Y-1774024D01*
G01X88273175Y-1774024D01*
G01X88273175Y-1774024D01*
G01X88347576Y-1791848D01*
G01X88390154Y-1826747D01*
G01X88406251Y-1850861D01*
G01X88406769Y-1851954D01*
G01X88406769Y-1851954D01*
G01X88460728Y-1814126D01*
G01X88496685Y-1797119D01*
G01X88497297Y-1796875D01*
G01X88497297Y-1796875D01*
G01X88567825Y-1777826D01*
G01X88605658Y-1774047D01*
G01X88607160Y-1774024D01*
G01X88607160Y-1774024D01*
G01X88677491Y-1790497D01*
G01X88711191Y-1812565D01*
G01X88712922Y-1814161D01*
G01X88712922Y-1814161D01*
G01X88743462Y-1871817D01*
G01X88752928Y-1927723D01*
G01X88753644Y-1943360D01*
G01X88753644Y-1943360D01*
G01X88752375Y-1997575D01*
G01X88751593Y-2029786D01*
G01X88751593Y-2029786D01*
G01X88749986Y-2110968D01*
G01X88749559Y-2152045D01*
G01X88749543Y-2157227D01*
G01X88749543Y-2157227D01*
G01X88753466Y-2239830D01*
G01X88761633Y-2299799D01*
G01X88768643Y-2332966D01*
G01X88770050Y-2338282D01*
G01X88770050Y-2338282D01*
G01X88723175Y-2347657D01*
G01X88723175Y-2347657D01*
G01X88678351Y-2333887D01*
G01X88678351Y-2333887D01*
G01X88664582Y-2286719D01*
G01X88664582Y-2286719D01*
G01X88664582Y-2286719D01*
G01X88665386Y-2229729D01*
G01X88666960Y-2163285D01*
G01X88668048Y-2123208D01*
G01X88668097Y-2121485D01*
G01X88668097Y-2121485D01*
G01X88670648Y-2026311D01*
G01X88671518Y-1984066D01*
G01X88671613Y-1975586D01*
G01X88671613Y-1975586D01*
G01X88658815Y-1902306D01*
G01X88643780Y-1874574D01*
G01X88643488Y-1874219D01*
G01X88643488Y-1874219D01*
G01X88586760Y-1843353D01*
G01X88569660Y-1841407D01*
G01X88569660Y-1841407D01*
G01X88504747Y-1855880D01*
G01X88450244Y-1884219D01*
G01X88421964Y-1903801D01*
G01X88420832Y-1904688D01*
G01X88420832Y-1904688D01*
G01X88422020Y-1996298D01*
G01X88422718Y-2065515D01*
G01X88423057Y-2112893D01*
G01X88423166Y-2138987D01*
G01X88423175Y-2144922D01*
G01X88423175Y-2144922D01*
G01X88424452Y-2227928D01*
G01X88427212Y-2291793D01*
G01X88429849Y-2331636D01*
G01X88430793Y-2342969D01*
G01X88430793Y-2342969D01*
G01X88389777Y-2346485D01*
G01X88389777Y-2346485D01*
G01X88338386Y-2314286D01*
G01X88335871Y-2300782D01*
G01X88335871Y-2300782D01*
G01X88337629Y-2252442D01*
G01X88337629Y-2252442D01*
G01X88339490Y-2188507D01*
G01X88340471Y-2138568D01*
G01X88340558Y-2133204D01*
G01X88340558Y-2133204D01*
G01X88341362Y-2061560D01*
G01X88341675Y-2003352D01*
G01X88341730Y-1975974D01*
G01X88341730Y-1975586D01*
G01X88341730Y-1975586D01*
G01X88322816Y-1893605D01*
G01X88282681Y-1854467D01*
G01X88246237Y-1842327D01*
G01X88236261Y-1841407D01*
G01X88236261Y-1841407D01*
G01X88172136Y-1856550D01*
G01X88117953Y-1886201D01*
G01X88089737Y-1906690D01*
G01X88088605Y-1907618D01*
G01X88088605Y-1907618D01*
G01X88089837Y-2002664D01*
G01X88090537Y-2072687D01*
G01X88090857Y-2118697D01*
G01X88090945Y-2141706D01*
G01X88090949Y-2144922D01*
G01X88090949Y-2144922D01*
G01X88092128Y-2227928D01*
G01X88094675Y-2291793D01*
G01X88097109Y-2331636D01*
G01X88097980Y-2342969D01*
G01X88097980Y-2342969D01*
G01X88057550Y-2346485D01*
G01X88057550Y-2346485D01*
G01X88006159Y-2314286D01*
G01X88003644Y-2300782D01*
G01X88003644Y-2300782D01*
G01X88005415Y-2246009D01*
G01X88006574Y-2212598D01*
G01X88006574Y-2212598D01*
G01X88008541Y-2137635D01*
G01X88009343Y-2077789D01*
G01X88009503Y-2047671D01*
G01X88009504Y-2046485D01*
G01X88009504Y-2046485D01*
G01X88007127Y-1944438D01*
G01X88001460Y-1871922D01*
G01X87994696Y-1825000D01*
G01X87989029Y-1799735D01*
G01X87986652Y-1792188D01*
G01X87986652Y-1792188D01*
G37*
G36*
G01X88896027Y-2187110D02*
G01X88896027Y-2187110D01*
G01X88911243Y-2117540D01*
G01X88924738Y-2097168D01*
G01X88924738Y-2097168D01*
G01X88979795Y-2062388D01*
G01X89003840Y-2053516D01*
G01X89003840Y-2053516D01*
G01X89068387Y-2039877D01*
G01X89134982Y-2030345D01*
G01X89191723Y-2024434D01*
G01X89226703Y-2021657D01*
G01X89232355Y-2021290D01*
G01X89232355Y-2021290D01*
G01X89225256Y-1936357D01*
G01X89212602Y-1891541D01*
G01X89207160Y-1880372D01*
G01X89207160Y-1880372D01*
G01X89154172Y-1848623D01*
G01X89104376Y-1841514D01*
G01X89099933Y-1841407D01*
G01X89099933Y-1841407D01*
G01X89039737Y-1857902D01*
G01X89030500Y-1862793D01*
G01X89030500Y-1862793D01*
G01X88985000Y-1909390D01*
G01X88976300Y-1925196D01*
G01X88976300Y-1925196D01*
G01X88923792Y-1888722D01*
G01X88921222Y-1877149D01*
G01X88921222Y-1877149D01*
G01X88950945Y-1821304D01*
G01X88978937Y-1802149D01*
G01X88978937Y-1802149D01*
G01X89045969Y-1781056D01*
G01X89099527Y-1774518D01*
G01X89113410Y-1774024D01*
G01X89113410Y-1774024D01*
G01X89195720Y-1784361D01*
G01X89245573Y-1804158D01*
G01X89264351Y-1816597D01*
G01X89264582Y-1816797D01*
G01X89264582Y-1816797D01*
G01X89296845Y-1870714D01*
G01X89309992Y-1931749D01*
G01X89312612Y-1968169D01*
G01X89312629Y-1969727D01*
G01X89312629Y-1969727D01*
G01X89311695Y-2027642D01*
G01X89311457Y-2040332D01*
G01X89311457Y-2040332D01*
G01X89310392Y-2113495D01*
G01X89310285Y-2132032D01*
G01X89310285Y-2132032D01*
G01X89313855Y-2222596D01*
G01X89321711Y-2287012D01*
G01X89329566Y-2325501D01*
G01X89333136Y-2338282D01*
G01X89333136Y-2338282D01*
G01X89333136Y-2338282D01*
G01X89286261Y-2347657D01*
G01X89286261Y-2347657D01*
G01X89249054Y-2335059D01*
G01X89249054Y-2335059D01*
G01X89234699Y-2294922D01*
G01X89234699Y-2294922D01*
G01X89168723Y-2334958D01*
G01X89113790Y-2351960D01*
G01X89083473Y-2355799D01*
G01X89081183Y-2355860D01*
G01X89081183Y-2355860D01*
G01X88998329Y-2341426D01*
G01X88944824Y-2305996D01*
G01X88914250Y-2261381D01*
G01X88900191Y-2219391D01*
G01X88896228Y-2191835D01*
G01X88896027Y-2187110D01*
G37*
%LPC*%
G36*
G01X88980402Y-2187110D02*
G01X88980402Y-2187110D01*
G01X88999169Y-2252310D01*
G01X89011457Y-2266797D01*
G01X89011457Y-2266797D01*
G01X89071658Y-2290929D01*
G01X89090558Y-2292579D01*
G01X89090558Y-2292579D01*
G01X89163674Y-2278121D01*
G01X89211991Y-2251700D01*
G01X89228254Y-2238672D01*
G01X89228254Y-2238672D01*
G01X89227083Y-2183765D01*
G01X89227082Y-2182422D01*
G01X89227082Y-2182422D01*
G01X89229409Y-2113043D01*
G01X89231183Y-2082813D01*
G01X89231183Y-2082813D01*
G01X89179119Y-2088661D01*
G01X89179035Y-2088672D01*
G01X89179035Y-2088672D01*
G01X89131867Y-2094532D01*
G01X89131867Y-2094532D01*
G01X89087922Y-2101563D01*
G01X89087922Y-2101563D01*
G01X89052765Y-2111231D01*
G01X89052765Y-2111231D01*
G01X89021711Y-2124707D01*
G01X89021711Y-2124707D01*
G01X89000031Y-2140821D01*
G01X89000031Y-2140821D01*
G01X88984504Y-2161036D01*
G01X88984504Y-2161036D01*
G01X88980402Y-2187110D01*
G37*
%LPD*%
G36*
G01X89446808Y-2260352D02*
G01X89446808Y-2260352D01*
G01X89484786Y-2216249D01*
G01X89500715Y-2209961D01*
G01X89500715Y-2209961D01*
G01X89541615Y-2259257D01*
G01X89557843Y-2268848D01*
G01X89557843Y-2268848D01*
G01X89623995Y-2286827D01*
G01X89653058Y-2289063D01*
G01X89653058Y-2289063D01*
G01X89720567Y-2274918D01*
G01X89736554Y-2266211D01*
G01X89736554Y-2266211D01*
G01X89766870Y-2211336D01*
G01X89768488Y-2195313D01*
G01X89768488Y-2195313D01*
G01X89741190Y-2143536D01*
G01X89736554Y-2140235D01*
G01X89736554Y-2140235D01*
G01X89676438Y-2115254D01*
G01X89659211Y-2110645D01*
G01X89659211Y-2110645D01*
G01X89592633Y-2093680D01*
G01X89568097Y-2086622D01*
G01X89568097Y-2086622D01*
G01X89509737Y-2053367D01*
G01X89490461Y-2034473D01*
G01X89490461Y-2034473D01*
G01X89463281Y-1973012D01*
G01X89458534Y-1933477D01*
G01X89458527Y-1932813D01*
G01X89458527Y-1932813D01*
G01X89478522Y-1865300D01*
G01X89511371Y-1825983D01*
G01X89520343Y-1818555D01*
G01X89520343Y-1818555D01*
G01X89585288Y-1786826D01*
G01X89639231Y-1775483D01*
G01X89660090Y-1774024D01*
G01X89660090Y-1774024D01*
G01X89728706Y-1784365D01*
G01X89768287Y-1798218D01*
G01X89770539Y-1799219D01*
G01X89770539Y-1799219D01*
G01X89819462Y-1846894D01*
G01X89824738Y-1868946D01*
G01X89824738Y-1868946D01*
G01X89786760Y-1913632D01*
G01X89770832Y-1919336D01*
G01X89770832Y-1919336D01*
G01X89729914Y-1871545D01*
G01X89716633Y-1863086D01*
G01X89716633Y-1863086D01*
G01X89652237Y-1843130D01*
G01X89631379Y-1841407D01*
G01X89631379Y-1841407D01*
G01X89569569Y-1857998D01*
G01X89560480Y-1863672D01*
G01X89560480Y-1863672D01*
G01X89531404Y-1917034D01*
G01X89530597Y-1926368D01*
G01X89530597Y-1926368D01*
G01X89557541Y-1978855D01*
G01X89562531Y-1982618D01*
G01X89562531Y-1982618D01*
G01X89621847Y-2008837D01*
G01X89639875Y-2013965D01*
G01X89639875Y-2013965D01*
G01X89705476Y-2031183D01*
G01X89730988Y-2038575D01*
G01X89730988Y-2038575D01*
G01X89790121Y-2071179D01*
G01X89808625Y-2088379D01*
G01X89808625Y-2088379D01*
G01X89836567Y-2148914D01*
G01X89840558Y-2182422D01*
G01X89840558Y-2182422D01*
G01X89840558Y-2182422D01*
G01X89824137Y-2254822D01*
G01X89794125Y-2298147D01*
G01X89779328Y-2311622D01*
G01X89779328Y-2311622D01*
G01X89715012Y-2342555D01*
G01X89658758Y-2354121D01*
G01X89633748Y-2355860D01*
G01X89633722Y-2355860D01*
G01X89633722Y-2355860D01*
G01X89559552Y-2346952D01*
G01X89512907Y-2332318D01*
G01X89503644Y-2328321D01*
G01X89503644Y-2328321D01*
G01X89452340Y-2280827D01*
G01X89446808Y-2260352D01*
G37*
G36*
G01X89961261Y-1455860D02*
G01X89961261Y-1455860D01*
G01X90003449Y-1452344D01*
G01X90003449Y-1452344D01*
G01X90055737Y-1483907D01*
G01X90058527Y-1498047D01*
G01X90058527Y-1498047D01*
G01X90056809Y-1551971D01*
G01X90056769Y-1553125D01*
G01X90056769Y-1553125D01*
G01X90054577Y-1618514D01*
G01X90052782Y-1674196D01*
G01X90052375Y-1687012D01*
G01X90052375Y-1687012D01*
G01X90050642Y-1759968D01*
G01X90049907Y-1819460D01*
G01X90049741Y-1851868D01*
G01X90049738Y-1854297D01*
G01X90049738Y-1854297D01*
G01X90114328Y-1807889D01*
G01X90173591Y-1784058D01*
G01X90216922Y-1775278D01*
G01X90233722Y-1774024D01*
G01X90233722Y-1774024D01*
G01X90233722Y-1774024D01*
G01X90307714Y-1788467D01*
G01X90346499Y-1811498D01*
G01X90352375Y-1816797D01*
G01X90352375Y-1816797D01*
G01X90385946Y-1877551D01*
G01X90393027Y-1919138D01*
G01X90393097Y-1921680D01*
G01X90393097Y-1921680D01*
G01X90379229Y-1993105D01*
G01X90355788Y-2038016D01*
G01X90348273Y-2048243D01*
G01X90348273Y-2048243D01*
G01X90292977Y-2089396D01*
G01X90241265Y-2107014D01*
G01X90222590Y-2110352D01*
G01X90222590Y-2110352D01*
G01X90272747Y-2189313D01*
G01X90302053Y-2230302D01*
G01X90312697Y-2243224D01*
G01X90312824Y-2243360D01*
G01X90312824Y-2243360D01*
G01X90370952Y-2279366D01*
G01X90387238Y-2282032D01*
G01X90387238Y-2282032D01*
G01X90418293Y-2276758D01*
G01X90418293Y-2276758D01*
G01X90429425Y-2311915D01*
G01X90429425Y-2311915D01*
G01X90404230Y-2344727D01*
G01X90404230Y-2344727D01*
G01X90356183Y-2355860D01*
G01X90356183Y-2355860D01*
G01X90294304Y-2333832D01*
G01X90269465Y-2313086D01*
G01X90269465Y-2313086D01*
G01X90239289Y-2277051D01*
G01X90239289Y-2277051D01*
G01X90209479Y-2234098D01*
G01X90209406Y-2233985D01*
G01X90209406Y-2233985D01*
G01X90184211Y-2193555D01*
G01X90184211Y-2193555D01*
G01X90156925Y-2147402D01*
G01X90156672Y-2146973D01*
G01X90156672Y-2146973D01*
G01X90132941Y-2106250D01*
G01X90132941Y-2106250D01*
G01X90101300Y-2081055D01*
G01X90101300Y-2081055D01*
G01X90107746Y-2052344D01*
G01X90107746Y-2052344D01*
G01X90166553Y-2061035D01*
G01X90168683Y-2061133D01*
G01X90168683Y-2061133D01*
G01X90240328Y-2045015D01*
G01X90270241Y-2025178D01*
G01X90270929Y-2024512D01*
G01X90270929Y-2024512D01*
G01X90303457Y-1964556D01*
G01X90306965Y-1939844D01*
G01X90306965Y-1939844D01*
G01X90288626Y-1878908D01*
G01X90282355Y-1870118D01*
G01X90282355Y-1870118D01*
G01X90226816Y-1842638D01*
G01X90213215Y-1841407D01*
G01X90213215Y-1841407D01*
G01X90149992Y-1855916D01*
G01X90127961Y-1866016D01*
G01X90127961Y-1866016D01*
G01X90070995Y-1906741D01*
G01X90049738Y-1927540D01*
G01X90049738Y-2101563D01*
G01X90049738Y-2101563D01*
G01X90052338Y-2191160D01*
G01X90058445Y-2259312D01*
G01X90065519Y-2306279D01*
G01X90071022Y-2332322D01*
G01X90072590Y-2338282D01*
G01X90072590Y-2338282D01*
G01X90027472Y-2347657D01*
G01X90027472Y-2347657D01*
G01X89981183Y-2333301D01*
G01X89981183Y-2333301D01*
G01X89968293Y-2285547D01*
G01X89968293Y-2285547D01*
G01X89968293Y-2285547D01*
G01X89968591Y-2235454D01*
G01X89969150Y-2168080D01*
G01X89969464Y-2132949D01*
G01X89969465Y-2132911D01*
G01X89969465Y-2132911D01*
G01X89970181Y-2043698D01*
G01X89970522Y-1982444D01*
G01X89970628Y-1949047D01*
G01X89970636Y-1942188D01*
G01X89970636Y-1802735D01*
G01X89970636Y-1802735D01*
G01X89970067Y-1689649D01*
G01X89968611Y-1603003D01*
G01X89966650Y-1539653D01*
G01X89964561Y-1496454D01*
G01X89962726Y-1470261D01*
G01X89961524Y-1457931D01*
G01X89961261Y-1455860D01*
G37*

G04 Pad flashes *
%LPD*%
D11*

G04 end of program *
M02*
