M48
METRIC,TZ
G90
M71
T1C1
T2C0.35
T3C1.1
T4C0.7
T5C3.1
M95
T1
X75.335082Y-45.578671
X75.635916Y-36.963922
X32.603141Y-39.556989
X26.507881Y-33.461729
X65.348308Y-31.203422
X65.348308Y-22.583422
X62.531913Y-70.976115
X56.436653Y-64.880855
X32.410575Y-60.052187
X24.084295Y-57.821167
X64.282034Y-60.549038
X70.377294Y-54.453778
T2
X54.707808Y-36.467432
X77.408121Y-46.928610
X56.537238Y-14.287128
X45.180312Y-63.507823
X27.558497Y-81.266837
X58.704167Y-5.801492
X74.861985Y-25.039010
X36.407223Y-37.823281
X33.736170Y-57.936184
T3
X50.032895Y-61.629568
X51.828946Y-59.833517
X73.972246Y-31.071330
X74.369590Y-33.580058
X73.652508Y-49.334367
X72.382508Y-51.534072
X22.765797Y-91.613202
X25.880002Y-90.113770
X30.551310Y-78.233655
X33.031140Y-75.523143
X28.729763Y-70.765379
X26.173657Y-73.261387
X7.409714Y-81.864194
X7.434728Y-85.444272
X21.380944Y-31.430931
X23.176995Y-33.226982
X18.917748Y-60.680606
X19.786479Y-58.293787
X65.566470Y-15.611077
X66.007536Y-18.112489
T4
X20.180733Y-88.595273
X23.772836Y-85.003170
X21.976784Y-86.799222
X20.180733Y-77.818966
X25.568887Y-83.207119
X16.588631Y-81.411068
X18.384682Y-79.615017
X14.792579Y-83.207119
T5
X45.689614Y-6.361730
M30
