G04                                                      *
G04 Greetings!                                           *
G04 This Gerber was generated by PCBmodE, an open source *
G04 PCB design software. Get it here:                    *
G04                                                      *
G04   http://pcbmode.com                                 *
G04                                                      *
G04 Also visit                                           *
G04                                                      *
G04   http://boldport.com                                *
G04                                                      *
G04 and follow @boldport / @pcbmode for updates!         *
G04                                                      *

G04 leading zeros omitted (L); absolute data (A); 6 integer digits and 6 fractional digits *
%FSLAX66Y66*%

G04 mode (MO): millimeters (MM) *
%MOMM*%

G04 Aperture definitions *
%ADD10C,0.001X*%
%ADD11C,0.001X*%

%LPD*%
G36*
G01X22962959Y-16791369D02*
G01X22962959Y-16791369D01*
G01X22900959Y-16727328D01*
G01X22841490Y-16661778D01*
G01X22784552Y-16594781D01*
G01X22730144Y-16526401D01*
G01X22678267Y-16456700D01*
G01X22628920Y-16385742D01*
G01X22582104Y-16313588D01*
G01X22537818Y-16240302D01*
G01X22496064Y-16165947D01*
G01X22456839Y-16090586D01*
G01X22420146Y-16014281D01*
G01X22385983Y-15937096D01*
G01X22354350Y-15859093D01*
G01X22325248Y-15780336D01*
G01X22298677Y-15700887D01*
G01X22274636Y-15620808D01*
G01X22253126Y-15540164D01*
G01X22234147Y-15459017D01*
G01X22217698Y-15377429D01*
G01X22203780Y-15295464D01*
G01X22192392Y-15213185D01*
G01X22183535Y-15130654D01*
G01X22177208Y-15047934D01*
G01X22173412Y-14965089D01*
G01X22172147Y-14882180D01*
G01X22173412Y-14799272D01*
G01X22177208Y-14716427D01*
G01X22183535Y-14633707D01*
G01X22192392Y-14551176D01*
G01X22203780Y-14468896D01*
G01X22217698Y-14386932D01*
G01X22234147Y-14305344D01*
G01X22253126Y-14224197D01*
G01X22274636Y-14143552D01*
G01X22298677Y-14063474D01*
G01X22325248Y-13984025D01*
G01X22354350Y-13905267D01*
G01X22385983Y-13827265D01*
G01X22420146Y-13750080D01*
G01X22456839Y-13673775D01*
G01X22496064Y-13598414D01*
G01X22537818Y-13524059D01*
G01X22582104Y-13450773D01*
G01X22628920Y-13378619D01*
G01X22678267Y-13307660D01*
G01X22730144Y-13237959D01*
G01X22784552Y-13169579D01*
G01X22841490Y-13102583D01*
G01X22900959Y-13037033D01*
G01X22962959Y-12972992D01*
G01X22962959Y-12972992D01*
G01X22962959Y-12972992D01*
G01X23026999Y-12910992D01*
G01X23092549Y-12851523D01*
G01X23159546Y-12794585D01*
G01X23227926Y-12740177D01*
G01X23297627Y-12688300D01*
G01X23368586Y-12638953D01*
G01X23440740Y-12592137D01*
G01X23514025Y-12547852D01*
G01X23588380Y-12506097D01*
G01X23663742Y-12466873D01*
G01X23740046Y-12430179D01*
G01X23817231Y-12396016D01*
G01X23895234Y-12364383D01*
G01X23973992Y-12335282D01*
G01X24053441Y-12308710D01*
G01X24133519Y-12284670D01*
G01X24214163Y-12263159D01*
G01X24295311Y-12244180D01*
G01X24376898Y-12227731D01*
G01X24458863Y-12213813D01*
G01X24541143Y-12202425D01*
G01X24623674Y-12193568D01*
G01X24706393Y-12187242D01*
G01X24789239Y-12183446D01*
G01X24872147Y-12182180D01*
G01X24955055Y-12183446D01*
G01X25037901Y-12187242D01*
G01X25120621Y-12193568D01*
G01X25203152Y-12202425D01*
G01X25285431Y-12213813D01*
G01X25367396Y-12227731D01*
G01X25448984Y-12244180D01*
G01X25530131Y-12263159D01*
G01X25610775Y-12284670D01*
G01X25690853Y-12308710D01*
G01X25770303Y-12335282D01*
G01X25849060Y-12364383D01*
G01X25927063Y-12396016D01*
G01X26004248Y-12430179D01*
G01X26080553Y-12466873D01*
G01X26155914Y-12506097D01*
G01X26230269Y-12547852D01*
G01X26303555Y-12592137D01*
G01X26375708Y-12638953D01*
G01X26446667Y-12688300D01*
G01X26516368Y-12740177D01*
G01X26584748Y-12794585D01*
G01X26651745Y-12851523D01*
G01X26717295Y-12910992D01*
G01X26781335Y-12972992D01*
G01X26781335Y-12972992D01*
G01X26781335Y-12972992D01*
G01X26843335Y-13037033D01*
G01X26902804Y-13102583D01*
G01X26959743Y-13169579D01*
G01X27014150Y-13237959D01*
G01X27066028Y-13307660D01*
G01X27115374Y-13378619D01*
G01X27162190Y-13450773D01*
G01X27206476Y-13524059D01*
G01X27248231Y-13598414D01*
G01X27287455Y-13673775D01*
G01X27324149Y-13750080D01*
G01X27358312Y-13827265D01*
G01X27389944Y-13905267D01*
G01X27419046Y-13984025D01*
G01X27445617Y-14063474D01*
G01X27469658Y-14143552D01*
G01X27491168Y-14224197D01*
G01X27510147Y-14305344D01*
G01X27526596Y-14386932D01*
G01X27540515Y-14468896D01*
G01X27551902Y-14551176D01*
G01X27560759Y-14633707D01*
G01X27567086Y-14716427D01*
G01X27570882Y-14799272D01*
G01X27572147Y-14882180D01*
G01X27570882Y-14965089D01*
G01X27567086Y-15047934D01*
G01X27560759Y-15130654D01*
G01X27551902Y-15213185D01*
G01X27540515Y-15295464D01*
G01X27526596Y-15377429D01*
G01X27510147Y-15459017D01*
G01X27491168Y-15540164D01*
G01X27469658Y-15620808D01*
G01X27445617Y-15700887D01*
G01X27419046Y-15780336D01*
G01X27389944Y-15859093D01*
G01X27358312Y-15937096D01*
G01X27324149Y-16014281D01*
G01X27287455Y-16090586D01*
G01X27248231Y-16165947D01*
G01X27206476Y-16240302D01*
G01X27162190Y-16313588D01*
G01X27115374Y-16385742D01*
G01X27066028Y-16456700D01*
G01X27014150Y-16526401D01*
G01X26959743Y-16594781D01*
G01X26902804Y-16661778D01*
G01X26843335Y-16727328D01*
G01X26781335Y-16791369D01*
G01X26781335Y-16791369D01*
G01X26781335Y-16791369D01*
G01X26717295Y-16853368D01*
G01X26651745Y-16912837D01*
G01X26584748Y-16969776D01*
G01X26516368Y-17024184D01*
G01X26446667Y-17076061D01*
G01X26375708Y-17125408D01*
G01X26303555Y-17172224D01*
G01X26230269Y-17216509D01*
G01X26155914Y-17258264D01*
G01X26080553Y-17297488D01*
G01X26004248Y-17334182D01*
G01X25927063Y-17368345D01*
G01X25849060Y-17399977D01*
G01X25770303Y-17429079D01*
G01X25690853Y-17455650D01*
G01X25610775Y-17479691D01*
G01X25530131Y-17501201D01*
G01X25448984Y-17520181D01*
G01X25367396Y-17536630D01*
G01X25285431Y-17550548D01*
G01X25203152Y-17561936D01*
G01X25120621Y-17570793D01*
G01X25037901Y-17577119D01*
G01X24955055Y-17580915D01*
G01X24872147Y-17582180D01*
G01X24789239Y-17580915D01*
G01X24706393Y-17577119D01*
G01X24623674Y-17570793D01*
G01X24541143Y-17561936D01*
G01X24458863Y-17550548D01*
G01X24376898Y-17536630D01*
G01X24295311Y-17520181D01*
G01X24214163Y-17501201D01*
G01X24133519Y-17479691D01*
G01X24053441Y-17455650D01*
G01X23973992Y-17429079D01*
G01X23895234Y-17399977D01*
G01X23817231Y-17368345D01*
G01X23740046Y-17334182D01*
G01X23663742Y-17297488D01*
G01X23588380Y-17258264D01*
G01X23514025Y-17216509D01*
G01X23440740Y-17172224D01*
G01X23368586Y-17125408D01*
G01X23297627Y-17076061D01*
G01X23227926Y-17024184D01*
G01X23159546Y-16969776D01*
G01X23092549Y-16912837D01*
G01X23026999Y-16853368D01*
G01X22962959Y-16791369D01*
G01X22962959Y-16791369D01*
G37*
G36*
G01X45448954Y-31640612D02*
G01X45448954Y-31640612D01*
G01X45510953Y-31704652D01*
G01X45570423Y-31770202D01*
G01X45627361Y-31837199D01*
G01X45681769Y-31905579D01*
G01X45733646Y-31975280D01*
G01X45782993Y-32046239D01*
G01X45829809Y-32118393D01*
G01X45874094Y-32191678D01*
G01X45915849Y-32266033D01*
G01X45955073Y-32341395D01*
G01X45991767Y-32417699D01*
G01X46025930Y-32494884D01*
G01X46057563Y-32572887D01*
G01X46086664Y-32651645D01*
G01X46113236Y-32731094D01*
G01X46137276Y-32811172D01*
G01X46158786Y-32891816D01*
G01X46177766Y-32972964D01*
G01X46194215Y-33054551D01*
G01X46208133Y-33136516D01*
G01X46219521Y-33218796D01*
G01X46228378Y-33301327D01*
G01X46234704Y-33384046D01*
G01X46238500Y-33466892D01*
G01X46239766Y-33549800D01*
G01X46238500Y-33632708D01*
G01X46234704Y-33715554D01*
G01X46228378Y-33798273D01*
G01X46219521Y-33880804D01*
G01X46208133Y-33963084D01*
G01X46194215Y-34045049D01*
G01X46177766Y-34126636D01*
G01X46158786Y-34207784D01*
G01X46137276Y-34288428D01*
G01X46113236Y-34368506D01*
G01X46086664Y-34447955D01*
G01X46057563Y-34526713D01*
G01X46025930Y-34604716D01*
G01X45991767Y-34681901D01*
G01X45955073Y-34758205D01*
G01X45915849Y-34833567D01*
G01X45874094Y-34907922D01*
G01X45829809Y-34981207D01*
G01X45782993Y-35053361D01*
G01X45733646Y-35124320D01*
G01X45681769Y-35194021D01*
G01X45627361Y-35262401D01*
G01X45570423Y-35329398D01*
G01X45510953Y-35394948D01*
G01X45448954Y-35458988D01*
G01X45448954Y-35458988D01*
G01X45448954Y-35458988D01*
G01X45384913Y-35520988D01*
G01X45319363Y-35580457D01*
G01X45252367Y-35637395D01*
G01X45183986Y-35691803D01*
G01X45114286Y-35743681D01*
G01X45043327Y-35793027D01*
G01X44971173Y-35839843D01*
G01X44897887Y-35884129D01*
G01X44823532Y-35925884D01*
G01X44748171Y-35965108D01*
G01X44671866Y-36001801D01*
G01X44594681Y-36035965D01*
G01X44516678Y-36067597D01*
G01X44437921Y-36096699D01*
G01X44358472Y-36123270D01*
G01X44278394Y-36147311D01*
G01X44197749Y-36168821D01*
G01X44116602Y-36187800D01*
G01X44035014Y-36204249D01*
G01X43953049Y-36218168D01*
G01X43870770Y-36229555D01*
G01X43788239Y-36238412D01*
G01X43705519Y-36244739D01*
G01X43622674Y-36248535D01*
G01X43539766Y-36249800D01*
G01X43456857Y-36248535D01*
G01X43374012Y-36244739D01*
G01X43291292Y-36238412D01*
G01X43208761Y-36229555D01*
G01X43126482Y-36218168D01*
G01X43044517Y-36204249D01*
G01X42962929Y-36187800D01*
G01X42881782Y-36168821D01*
G01X42801137Y-36147311D01*
G01X42721059Y-36123270D01*
G01X42641610Y-36096699D01*
G01X42562853Y-36067597D01*
G01X42484850Y-36035965D01*
G01X42407665Y-36001801D01*
G01X42331360Y-35965108D01*
G01X42255999Y-35925884D01*
G01X42181644Y-35884129D01*
G01X42108358Y-35839843D01*
G01X42036204Y-35793027D01*
G01X41965246Y-35743681D01*
G01X41895545Y-35691803D01*
G01X41827164Y-35637395D01*
G01X41760168Y-35580457D01*
G01X41694618Y-35520988D01*
G01X41630577Y-35458988D01*
G01X41630577Y-35458988D01*
G01X41630577Y-35458988D01*
G01X41568578Y-35394948D01*
G01X41509109Y-35329398D01*
G01X41452170Y-35262401D01*
G01X41397762Y-35194021D01*
G01X41345885Y-35124320D01*
G01X41296538Y-35053361D01*
G01X41249722Y-34981207D01*
G01X41205437Y-34907922D01*
G01X41163682Y-34833567D01*
G01X41124458Y-34758205D01*
G01X41087764Y-34681901D01*
G01X41053601Y-34604716D01*
G01X41021969Y-34526713D01*
G01X40992867Y-34447955D01*
G01X40966295Y-34368506D01*
G01X40942255Y-34288428D01*
G01X40920745Y-34207784D01*
G01X40901765Y-34126636D01*
G01X40885316Y-34045049D01*
G01X40871398Y-33963084D01*
G01X40860010Y-33880804D01*
G01X40851153Y-33798273D01*
G01X40844827Y-33715554D01*
G01X40841031Y-33632708D01*
G01X40839766Y-33549800D01*
G01X40841031Y-33466892D01*
G01X40844827Y-33384046D01*
G01X40851153Y-33301327D01*
G01X40860010Y-33218796D01*
G01X40871398Y-33136516D01*
G01X40885316Y-33054551D01*
G01X40901765Y-32972964D01*
G01X40920745Y-32891816D01*
G01X40942255Y-32811172D01*
G01X40966295Y-32731094D01*
G01X40992867Y-32651645D01*
G01X41021969Y-32572887D01*
G01X41053601Y-32494884D01*
G01X41087764Y-32417699D01*
G01X41124458Y-32341395D01*
G01X41163682Y-32266033D01*
G01X41205437Y-32191678D01*
G01X41249722Y-32118393D01*
G01X41296538Y-32046239D01*
G01X41345885Y-31975280D01*
G01X41397762Y-31905579D01*
G01X41452170Y-31837199D01*
G01X41509109Y-31770202D01*
G01X41568578Y-31704652D01*
G01X41630577Y-31640612D01*
G01X41630577Y-31640612D01*
G01X41630577Y-31640612D01*
G01X41694618Y-31578612D01*
G01X41760168Y-31519143D01*
G01X41827164Y-31462205D01*
G01X41895545Y-31407797D01*
G01X41965246Y-31355919D01*
G01X42036204Y-31306573D01*
G01X42108358Y-31259757D01*
G01X42181644Y-31215471D01*
G01X42255999Y-31173716D01*
G01X42331360Y-31134492D01*
G01X42407665Y-31097799D01*
G01X42484850Y-31063635D01*
G01X42562853Y-31032003D01*
G01X42641610Y-31002901D01*
G01X42721059Y-30976330D01*
G01X42801137Y-30952289D01*
G01X42881782Y-30930779D01*
G01X42962929Y-30911800D01*
G01X43044517Y-30895351D01*
G01X43126482Y-30881432D01*
G01X43208761Y-30870045D01*
G01X43291292Y-30861188D01*
G01X43374012Y-30854861D01*
G01X43456857Y-30851065D01*
G01X43539766Y-30849800D01*
G01X43622674Y-30851065D01*
G01X43705519Y-30854861D01*
G01X43788239Y-30861188D01*
G01X43870770Y-30870045D01*
G01X43953049Y-30881432D01*
G01X44035014Y-30895351D01*
G01X44116602Y-30911800D01*
G01X44197749Y-30930779D01*
G01X44278394Y-30952289D01*
G01X44358472Y-30976330D01*
G01X44437921Y-31002901D01*
G01X44516678Y-31032003D01*
G01X44594681Y-31063635D01*
G01X44671866Y-31097799D01*
G01X44748171Y-31134492D01*
G01X44823532Y-31173716D01*
G01X44897887Y-31215471D01*
G01X44971173Y-31259757D01*
G01X45043327Y-31306573D01*
G01X45114286Y-31355919D01*
G01X45183986Y-31407797D01*
G01X45252367Y-31462205D01*
G01X45319363Y-31519143D01*
G01X45384913Y-31578612D01*
G01X45448954Y-31640612D01*
G01X45448954Y-31640612D01*
G37*
G36*
G01X30705777Y-27716169D02*
G01X30705777Y-27716169D01*
G01X30648364Y-27657818D01*
G01X30592111Y-27598761D01*
G01X30537018Y-27539013D01*
G01X30483085Y-27478586D01*
G01X30430311Y-27417497D01*
G01X30378698Y-27355759D01*
G01X30328244Y-27293387D01*
G01X30278950Y-27230396D01*
G01X30230816Y-27166799D01*
G01X30183842Y-27102611D01*
G01X30138027Y-27037846D01*
G01X30093373Y-26972520D01*
G01X30049878Y-26906645D01*
G01X30007543Y-26840238D01*
G01X29966368Y-26773311D01*
G01X29926353Y-26705880D01*
G01X29887498Y-26637959D01*
G01X29849803Y-26569563D01*
G01X29813267Y-26500705D01*
G01X29777892Y-26431401D01*
G01X29743676Y-26361664D01*
G01X29710620Y-26291509D01*
G01X29678724Y-26220950D01*
G01X29647988Y-26150003D01*
G01X29618411Y-26078680D01*
G01X29589995Y-26006998D01*
G01X29562738Y-25934969D01*
G01X29536641Y-25862609D01*
G01X29511704Y-25789932D01*
G01X29487927Y-25716952D01*
G01X29465310Y-25643684D01*
G01X29443853Y-25570142D01*
G01X29423555Y-25496341D01*
G01X29404418Y-25422294D01*
G01X29386440Y-25348017D01*
G01X29369622Y-25273524D01*
G01X29353964Y-25198829D01*
G01X29339466Y-25123947D01*
G01X29326127Y-25048892D01*
G01X29313949Y-24973678D01*
G01X29302930Y-24898320D01*
G01X29293071Y-24822832D01*
G01X29284372Y-24747229D01*
G01X29276833Y-24671525D01*
G01X29270454Y-24595735D01*
G01X29265235Y-24519873D01*
G01X29261175Y-24443953D01*
G01X29258276Y-24367989D01*
G01X29256536Y-24291997D01*
G01X29255956Y-24215991D01*
G01X29256536Y-24139984D01*
G01X29258276Y-24063992D01*
G01X29261175Y-23988029D01*
G01X29265235Y-23912109D01*
G01X29270454Y-23836246D01*
G01X29276833Y-23760456D01*
G01X29284372Y-23684752D01*
G01X29293071Y-23609149D01*
G01X29302930Y-23533661D01*
G01X29313949Y-23458303D01*
G01X29326127Y-23383090D01*
G01X29339466Y-23308034D01*
G01X29353964Y-23233152D01*
G01X29369622Y-23158457D01*
G01X29386440Y-23083964D01*
G01X29404418Y-23009687D01*
G01X29423555Y-22935641D01*
G01X29443853Y-22861839D01*
G01X29465310Y-22788297D01*
G01X29487927Y-22715029D01*
G01X29511704Y-22642049D01*
G01X29536641Y-22569372D01*
G01X29562738Y-22497012D01*
G01X29589995Y-22424984D01*
G01X29618411Y-22353301D01*
G01X29647988Y-22281979D01*
G01X29678724Y-22211031D01*
G01X29710620Y-22140472D01*
G01X29743676Y-22070318D01*
G01X29777892Y-22000581D01*
G01X29813267Y-21931276D01*
G01X29849803Y-21862418D01*
G01X29887498Y-21794022D01*
G01X29926353Y-21726101D01*
G01X29966368Y-21658670D01*
G01X30007543Y-21591744D01*
G01X30049878Y-21525336D01*
G01X30093373Y-21459462D01*
G01X30138027Y-21394135D01*
G01X30183842Y-21329371D01*
G01X30230816Y-21265183D01*
G01X30278950Y-21201586D01*
G01X30328244Y-21138594D01*
G01X30378698Y-21076222D01*
G01X30430311Y-21014484D01*
G01X30483085Y-20953395D01*
G01X30537018Y-20892969D01*
G01X30592111Y-20833220D01*
G01X30648364Y-20774163D01*
G01X30705777Y-20715812D01*
G01X30705777Y-20715812D01*
G01X30705777Y-20715812D01*
G01X30764128Y-20658399D01*
G01X30823185Y-20602146D01*
G01X30882934Y-20547053D01*
G01X30943360Y-20493119D01*
G01X31004449Y-20440346D01*
G01X31066187Y-20388732D01*
G01X31128559Y-20338279D01*
G01X31191551Y-20288985D01*
G01X31255148Y-20240851D01*
G01X31319336Y-20193876D01*
G01X31384100Y-20148062D01*
G01X31449427Y-20103407D01*
G01X31515301Y-20059913D01*
G01X31581709Y-20017578D01*
G01X31648635Y-19976403D01*
G01X31716066Y-19936388D01*
G01X31783987Y-19897533D01*
G01X31852384Y-19859837D01*
G01X31921241Y-19823302D01*
G01X31990546Y-19787926D01*
G01X32060283Y-19753711D01*
G01X32130438Y-19720655D01*
G01X32200996Y-19688759D01*
G01X32271944Y-19658022D01*
G01X32343266Y-19628446D01*
G01X32414949Y-19600029D01*
G01X32486977Y-19572773D01*
G01X32559337Y-19546676D01*
G01X32632015Y-19521739D01*
G01X32704994Y-19497962D01*
G01X32778263Y-19475345D01*
G01X32851804Y-19453887D01*
G01X32925606Y-19433590D01*
G01X32999652Y-19414452D01*
G01X33073929Y-19396475D01*
G01X33148422Y-19379657D01*
G01X33223117Y-19363999D01*
G01X33298000Y-19349500D01*
G01X33373055Y-19336162D01*
G01X33448269Y-19323983D01*
G01X33523627Y-19312965D01*
G01X33599114Y-19303106D01*
G01X33674717Y-19294407D01*
G01X33750421Y-19286868D01*
G01X33826212Y-19280489D01*
G01X33902074Y-19275269D01*
G01X33977994Y-19271210D01*
G01X34053957Y-19268310D01*
G01X34129949Y-19266571D01*
G01X34205956Y-19265991D01*
G01X34281962Y-19266571D01*
G01X34357955Y-19268310D01*
G01X34433918Y-19271210D01*
G01X34509838Y-19275269D01*
G01X34585700Y-19280489D01*
G01X34661491Y-19286868D01*
G01X34737194Y-19294407D01*
G01X34812797Y-19303106D01*
G01X34888285Y-19312965D01*
G01X34963643Y-19323983D01*
G01X35038857Y-19336162D01*
G01X35113912Y-19349500D01*
G01X35188794Y-19363999D01*
G01X35263489Y-19379657D01*
G01X35337983Y-19396475D01*
G01X35412260Y-19414452D01*
G01X35486306Y-19433590D01*
G01X35560107Y-19453887D01*
G01X35633649Y-19475345D01*
G01X35706917Y-19497962D01*
G01X35779897Y-19521739D01*
G01X35852574Y-19546676D01*
G01X35924934Y-19572773D01*
G01X35996963Y-19600029D01*
G01X36068646Y-19628446D01*
G01X36139968Y-19658022D01*
G01X36210916Y-19688759D01*
G01X36281474Y-19720655D01*
G01X36351629Y-19753711D01*
G01X36421366Y-19787926D01*
G01X36490670Y-19823302D01*
G01X36559528Y-19859837D01*
G01X36627925Y-19897533D01*
G01X36695846Y-19936388D01*
G01X36763277Y-19976403D01*
G01X36830203Y-20017578D01*
G01X36896611Y-20059913D01*
G01X36962485Y-20103407D01*
G01X37027811Y-20148062D01*
G01X37092576Y-20193876D01*
G01X37156764Y-20240851D01*
G01X37220361Y-20288985D01*
G01X37283353Y-20338279D01*
G01X37345725Y-20388732D01*
G01X37407462Y-20440346D01*
G01X37468552Y-20493119D01*
G01X37528978Y-20547053D01*
G01X37588727Y-20602146D01*
G01X37647784Y-20658399D01*
G01X37706134Y-20715812D01*
G01X37706134Y-20715812D01*
G01X37706134Y-20715812D01*
G01X37763547Y-20774163D01*
G01X37819800Y-20833220D01*
G01X37874894Y-20892969D01*
G01X37928827Y-20953395D01*
G01X37981601Y-21014484D01*
G01X38033214Y-21076222D01*
G01X38083668Y-21138594D01*
G01X38132962Y-21201586D01*
G01X38181096Y-21265183D01*
G01X38228070Y-21329371D01*
G01X38273885Y-21394135D01*
G01X38318539Y-21459462D01*
G01X38362034Y-21525336D01*
G01X38404368Y-21591744D01*
G01X38445543Y-21658670D01*
G01X38485558Y-21726101D01*
G01X38524414Y-21794022D01*
G01X38562109Y-21862418D01*
G01X38598645Y-21931276D01*
G01X38634020Y-22000581D01*
G01X38668236Y-22070318D01*
G01X38701292Y-22140472D01*
G01X38733188Y-22211031D01*
G01X38763924Y-22281979D01*
G01X38793501Y-22353301D01*
G01X38821917Y-22424984D01*
G01X38849174Y-22497012D01*
G01X38875270Y-22569372D01*
G01X38900207Y-22642049D01*
G01X38923984Y-22715029D01*
G01X38946602Y-22788297D01*
G01X38968059Y-22861839D01*
G01X38988357Y-22935641D01*
G01X39007494Y-23009687D01*
G01X39025472Y-23083964D01*
G01X39042290Y-23158457D01*
G01X39057948Y-23233152D01*
G01X39072446Y-23308034D01*
G01X39085785Y-23383090D01*
G01X39097963Y-23458303D01*
G01X39108982Y-23533661D01*
G01X39118840Y-23609149D01*
G01X39127539Y-23684752D01*
G01X39135078Y-23760456D01*
G01X39141458Y-23836246D01*
G01X39146677Y-23912109D01*
G01X39150737Y-23988029D01*
G01X39153636Y-24063992D01*
G01X39155376Y-24139984D01*
G01X39155956Y-24215991D01*
G01X39155376Y-24291997D01*
G01X39153636Y-24367989D01*
G01X39150737Y-24443953D01*
G01X39146677Y-24519873D01*
G01X39141458Y-24595735D01*
G01X39135078Y-24671525D01*
G01X39127539Y-24747229D01*
G01X39118840Y-24822832D01*
G01X39108982Y-24898320D01*
G01X39097963Y-24973678D01*
G01X39085785Y-25048892D01*
G01X39072446Y-25123947D01*
G01X39057948Y-25198829D01*
G01X39042290Y-25273524D01*
G01X39025472Y-25348017D01*
G01X39007494Y-25422294D01*
G01X38988357Y-25496341D01*
G01X38968059Y-25570142D01*
G01X38946602Y-25643684D01*
G01X38923984Y-25716952D01*
G01X38900207Y-25789932D01*
G01X38875270Y-25862609D01*
G01X38849174Y-25934969D01*
G01X38821917Y-26006998D01*
G01X38793501Y-26078680D01*
G01X38763924Y-26150003D01*
G01X38733188Y-26220950D01*
G01X38701292Y-26291509D01*
G01X38668236Y-26361664D01*
G01X38634020Y-26431401D01*
G01X38598645Y-26500705D01*
G01X38562109Y-26569563D01*
G01X38524414Y-26637959D01*
G01X38485558Y-26705880D01*
G01X38445543Y-26773311D01*
G01X38404368Y-26840238D01*
G01X38362034Y-26906645D01*
G01X38318539Y-26972520D01*
G01X38273885Y-27037846D01*
G01X38228070Y-27102611D01*
G01X38181096Y-27166799D01*
G01X38132962Y-27230396D01*
G01X38083668Y-27293387D01*
G01X38033214Y-27355759D01*
G01X37981601Y-27417497D01*
G01X37928827Y-27478586D01*
G01X37874894Y-27539013D01*
G01X37819800Y-27598761D01*
G01X37763547Y-27657818D01*
G01X37706134Y-27716169D01*
G01X37706134Y-27716169D01*
G01X37706134Y-27716169D01*
G01X37647784Y-27773582D01*
G01X37588727Y-27829835D01*
G01X37528978Y-27884928D01*
G01X37468552Y-27938862D01*
G01X37407462Y-27991635D01*
G01X37345725Y-28043249D01*
G01X37283353Y-28093703D01*
G01X37220361Y-28142997D01*
G01X37156764Y-28191131D01*
G01X37092576Y-28238105D01*
G01X37027811Y-28283919D01*
G01X36962485Y-28328574D01*
G01X36896611Y-28372068D01*
G01X36830203Y-28414403D01*
G01X36763277Y-28455578D01*
G01X36695846Y-28495593D01*
G01X36627925Y-28534448D01*
G01X36559528Y-28572144D01*
G01X36490670Y-28608679D01*
G01X36421366Y-28644055D01*
G01X36351629Y-28678271D01*
G01X36281474Y-28711327D01*
G01X36210916Y-28743223D01*
G01X36139968Y-28773959D01*
G01X36068646Y-28803535D01*
G01X35996963Y-28831952D01*
G01X35924934Y-28859208D01*
G01X35852574Y-28885305D01*
G01X35779897Y-28910242D01*
G01X35706917Y-28934019D01*
G01X35633649Y-28956636D01*
G01X35560107Y-28978094D01*
G01X35486306Y-28998391D01*
G01X35412260Y-29017529D01*
G01X35337983Y-29035507D01*
G01X35263489Y-29052325D01*
G01X35188794Y-29067983D01*
G01X35113912Y-29082481D01*
G01X35038857Y-29095819D01*
G01X34963643Y-29107998D01*
G01X34888285Y-29119016D01*
G01X34812797Y-29128875D01*
G01X34737194Y-29137574D01*
G01X34661491Y-29145113D01*
G01X34585700Y-29151492D01*
G01X34509838Y-29156712D01*
G01X34433918Y-29160771D01*
G01X34357955Y-29163671D01*
G01X34281962Y-29165411D01*
G01X34205956Y-29165991D01*
G01X34129949Y-29165411D01*
G01X34053957Y-29163671D01*
G01X33977994Y-29160771D01*
G01X33902074Y-29156712D01*
G01X33826212Y-29151492D01*
G01X33750421Y-29145113D01*
G01X33674717Y-29137574D01*
G01X33599114Y-29128875D01*
G01X33523627Y-29119016D01*
G01X33448269Y-29107998D01*
G01X33373055Y-29095819D01*
G01X33298000Y-29082481D01*
G01X33223117Y-29067983D01*
G01X33148422Y-29052325D01*
G01X33073929Y-29035507D01*
G01X32999652Y-29017529D01*
G01X32925606Y-28998391D01*
G01X32851804Y-28978094D01*
G01X32778263Y-28956636D01*
G01X32704994Y-28934019D01*
G01X32632015Y-28910242D01*
G01X32559337Y-28885305D01*
G01X32486977Y-28859208D01*
G01X32414949Y-28831952D01*
G01X32343266Y-28803535D01*
G01X32271944Y-28773959D01*
G01X32200996Y-28743223D01*
G01X32130438Y-28711327D01*
G01X32060283Y-28678271D01*
G01X31990546Y-28644055D01*
G01X31921241Y-28608679D01*
G01X31852384Y-28572144D01*
G01X31783987Y-28534448D01*
G01X31716066Y-28495593D01*
G01X31648635Y-28455578D01*
G01X31581709Y-28414403D01*
G01X31515301Y-28372068D01*
G01X31449427Y-28328574D01*
G01X31384100Y-28283919D01*
G01X31319336Y-28238105D01*
G01X31255148Y-28191131D01*
G01X31191551Y-28142997D01*
G01X31128559Y-28093703D01*
G01X31066187Y-28043249D01*
G01X31004449Y-27991635D01*
G01X30943360Y-27938862D01*
G01X30882934Y-27884928D01*
G01X30823185Y-27829835D01*
G01X30764128Y-27773582D01*
G01X30705777Y-27716169D01*
G01X30705777Y-27716169D01*
G37*
G36*
G01X50669291Y-62265964D02*
G01X50669291Y-62265964D01*
G01X50709780Y-62222767D01*
G01X50746896Y-62177641D01*
G01X50780637Y-62130755D01*
G01X50811004Y-62082275D01*
G01X50837997Y-62032370D01*
G01X50861616Y-61981206D01*
G01X50881861Y-61928953D01*
G01X50898731Y-61875777D01*
G01X50912228Y-61821847D01*
G01X50922350Y-61767329D01*
G01X50929099Y-61712392D01*
G01X50932473Y-61657204D01*
G01X50932473Y-61601932D01*
G01X50929099Y-61546743D01*
G01X50922350Y-61491806D01*
G01X50912228Y-61437289D01*
G01X50898731Y-61383358D01*
G01X50881861Y-61330183D01*
G01X50861616Y-61277929D01*
G01X50837997Y-61226766D01*
G01X50811004Y-61176860D01*
G01X50780637Y-61128381D01*
G01X50746896Y-61081494D01*
G01X50709780Y-61036368D01*
G01X50669291Y-60993172D01*
G01X50669291Y-60993172D01*
G01X50669291Y-60993172D01*
G01X50626094Y-60952682D01*
G01X50580968Y-60915567D01*
G01X50534081Y-60881825D01*
G01X50485602Y-60851458D01*
G01X50435696Y-60824465D01*
G01X50384533Y-60800846D01*
G01X50332280Y-60780601D01*
G01X50279104Y-60763731D01*
G01X50225173Y-60750234D01*
G01X50170656Y-60740112D01*
G01X50115719Y-60733364D01*
G01X50060531Y-60729989D01*
G01X50005258Y-60729989D01*
G01X49950070Y-60733364D01*
G01X49895133Y-60740112D01*
G01X49840616Y-60750234D01*
G01X49786685Y-60763731D01*
G01X49733509Y-60780601D01*
G01X49681256Y-60800846D01*
G01X49630093Y-60824465D01*
G01X49580187Y-60851458D01*
G01X49531707Y-60881825D01*
G01X49484821Y-60915567D01*
G01X49439695Y-60952682D01*
G01X49396498Y-60993172D01*
G01X49396498Y-60993172D01*
G01X49396498Y-60993172D01*
G01X49356009Y-61036368D01*
G01X49318893Y-61081494D01*
G01X49285152Y-61128381D01*
G01X49254785Y-61176860D01*
G01X49227792Y-61226766D01*
G01X49204173Y-61277929D01*
G01X49183928Y-61330183D01*
G01X49167057Y-61383358D01*
G01X49153561Y-61437289D01*
G01X49143439Y-61491806D01*
G01X49136690Y-61546743D01*
G01X49133316Y-61601932D01*
G01X49133316Y-61657204D01*
G01X49136690Y-61712392D01*
G01X49143439Y-61767329D01*
G01X49153561Y-61821847D01*
G01X49167057Y-61875777D01*
G01X49183928Y-61928953D01*
G01X49204173Y-61981206D01*
G01X49227792Y-62032370D01*
G01X49254785Y-62082275D01*
G01X49285152Y-62130755D01*
G01X49318893Y-62177641D01*
G01X49356009Y-62222767D01*
G01X49396498Y-62265964D01*
G01X49396498Y-62265964D01*
G01X49396498Y-62265964D01*
G01X49439695Y-62306453D01*
G01X49484821Y-62343569D01*
G01X49531707Y-62377310D01*
G01X49580187Y-62407677D01*
G01X49630093Y-62434670D01*
G01X49681256Y-62458289D01*
G01X49733509Y-62478534D01*
G01X49786685Y-62495405D01*
G01X49840616Y-62508901D01*
G01X49895133Y-62519024D01*
G01X49950070Y-62525772D01*
G01X50005258Y-62529146D01*
G01X50060531Y-62529146D01*
G01X50115719Y-62525772D01*
G01X50170656Y-62519024D01*
G01X50225173Y-62508901D01*
G01X50279104Y-62495405D01*
G01X50332280Y-62478534D01*
G01X50384533Y-62458289D01*
G01X50435696Y-62434670D01*
G01X50485602Y-62407677D01*
G01X50534081Y-62377310D01*
G01X50580968Y-62343569D01*
G01X50626094Y-62306453D01*
G01X50669291Y-62265964D01*
G01X50669291Y-62265964D01*
G37*
G36*
G01X51192550Y-60469913D02*
G01X50768286Y-60045649D01*
G01X50768286Y-60045649D01*
G01X50736653Y-60008463D01*
G01X50712050Y-59967784D01*
G01X50694477Y-59924484D01*
G01X50683933Y-59879437D01*
G01X50680418Y-59833516D01*
G01X50683933Y-59787596D01*
G01X50694477Y-59742549D01*
G01X50712050Y-59699249D01*
G01X50736653Y-59658570D01*
G01X50768286Y-59621384D01*
G01X50768286Y-59621384D01*
G01X51192550Y-59197120D01*
G01X51616814Y-58772856D01*
G01X51616814Y-58772856D01*
G01X51653999Y-58741224D01*
G01X51694678Y-58716621D01*
G01X51737978Y-58699047D01*
G01X51783025Y-58688503D01*
G01X51828946Y-58684989D01*
G01X51874866Y-58688503D01*
G01X51919913Y-58699047D01*
G01X51963213Y-58716621D01*
G01X52003893Y-58741224D01*
G01X52041078Y-58772856D01*
G01X52041078Y-58772856D01*
G01X52465342Y-59197120D01*
G01X52889606Y-59621384D01*
G01X52889606Y-59621384D01*
G01X52921238Y-59658570D01*
G01X52945841Y-59699249D01*
G01X52963415Y-59742549D01*
G01X52973959Y-59787596D01*
G01X52977474Y-59833516D01*
G01X52973959Y-59879437D01*
G01X52963415Y-59924484D01*
G01X52945841Y-59967784D01*
G01X52921238Y-60008463D01*
G01X52889606Y-60045649D01*
G01X52889606Y-60045649D01*
G01X52465342Y-60469913D01*
G01X52041078Y-60894177D01*
G01X52041078Y-60894177D01*
G01X52003893Y-60925809D01*
G01X51963213Y-60950412D01*
G01X51919913Y-60967986D01*
G01X51874866Y-60978530D01*
G01X51828946Y-60982044D01*
G01X51783025Y-60978530D01*
G01X51737978Y-60967986D01*
G01X51694678Y-60950412D01*
G01X51653999Y-60925809D01*
G01X51616814Y-60894177D01*
G01X51616814Y-60894177D01*
G01X51192550Y-60469913D01*
G37*
G36*
G01X73083326Y-31212121D02*
G01X73083326Y-31212121D01*
G01X73094474Y-31270268D01*
G01X73109166Y-31326819D01*
G01X73127265Y-31381676D01*
G01X73148637Y-31434739D01*
G01X73173145Y-31485911D01*
G01X73200654Y-31535092D01*
G01X73231028Y-31582184D01*
G01X73264132Y-31627089D01*
G01X73299830Y-31669707D01*
G01X73337986Y-31709941D01*
G01X73378464Y-31747691D01*
G01X73421129Y-31782860D01*
G01X73465845Y-31815348D01*
G01X73512477Y-31845057D01*
G01X73560888Y-31871889D01*
G01X73610943Y-31895744D01*
G01X73662507Y-31916525D01*
G01X73715444Y-31934132D01*
G01X73769617Y-31948468D01*
G01X73824892Y-31959433D01*
G01X73881132Y-31966928D01*
G01X73938203Y-31970857D01*
G01X73995967Y-31971119D01*
G01X74054291Y-31967616D01*
G01X74113037Y-31960249D01*
G01X74113037Y-31960249D01*
G01X74113037Y-31960249D01*
G01X74171184Y-31949102D01*
G01X74227735Y-31934410D01*
G01X74282592Y-31916311D01*
G01X74335655Y-31894939D01*
G01X74386827Y-31870431D01*
G01X74436008Y-31842922D01*
G01X74483100Y-31812548D01*
G01X74528004Y-31779444D01*
G01X74570623Y-31743746D01*
G01X74610857Y-31705590D01*
G01X74648607Y-31665112D01*
G01X74683776Y-31622447D01*
G01X74716264Y-31577731D01*
G01X74745973Y-31531099D01*
G01X74772805Y-31482688D01*
G01X74796660Y-31432632D01*
G01X74817441Y-31381069D01*
G01X74835048Y-31328132D01*
G01X74849384Y-31273959D01*
G01X74860349Y-31218684D01*
G01X74867844Y-31162443D01*
G01X74871773Y-31105373D01*
G01X74872034Y-31047608D01*
G01X74868532Y-30989285D01*
G01X74861165Y-30930539D01*
G01X74861165Y-30930539D01*
G01X74861165Y-30930539D01*
G01X74850018Y-30872392D01*
G01X74835326Y-30815841D01*
G01X74817227Y-30760984D01*
G01X74795855Y-30707921D01*
G01X74771347Y-30656749D01*
G01X74743838Y-30607568D01*
G01X74713463Y-30560476D01*
G01X74680360Y-30515571D01*
G01X74644662Y-30472953D01*
G01X74606506Y-30432719D01*
G01X74566028Y-30394969D01*
G01X74523363Y-30359800D01*
G01X74478647Y-30327312D01*
G01X74432015Y-30297603D01*
G01X74383604Y-30270771D01*
G01X74333548Y-30246916D01*
G01X74281985Y-30226135D01*
G01X74229048Y-30208528D01*
G01X74174875Y-30194192D01*
G01X74119600Y-30183227D01*
G01X74063359Y-30175731D01*
G01X74006289Y-30171803D01*
G01X73948524Y-30171541D01*
G01X73890201Y-30175044D01*
G01X73831455Y-30182410D01*
G01X73831455Y-30182410D01*
G01X73831455Y-30182410D01*
G01X73773308Y-30193558D01*
G01X73716756Y-30208250D01*
G01X73661900Y-30226349D01*
G01X73608837Y-30247721D01*
G01X73557665Y-30272229D01*
G01X73508484Y-30299738D01*
G01X73461392Y-30330112D01*
G01X73416487Y-30363216D01*
G01X73373869Y-30398914D01*
G01X73333635Y-30437070D01*
G01X73295885Y-30477548D01*
G01X73260716Y-30520213D01*
G01X73228228Y-30564929D01*
G01X73198519Y-30611561D01*
G01X73171687Y-30659972D01*
G01X73147832Y-30710028D01*
G01X73127051Y-30761591D01*
G01X73109444Y-30814528D01*
G01X73095108Y-30868701D01*
G01X73084143Y-30923976D01*
G01X73076647Y-30980216D01*
G01X73072719Y-31037287D01*
G01X73072457Y-31095052D01*
G01X73075960Y-31153375D01*
G01X73083326Y-31212121D01*
G01X73083326Y-31212121D01*
G37*
G36*
G01X74228799Y-32691138D02*
G01X74821412Y-32597278D01*
G01X74821412Y-32597278D01*
G01X74870088Y-32593544D01*
G01X74917460Y-32597550D01*
G01X74962820Y-32608784D01*
G01X75005461Y-32626731D01*
G01X75044678Y-32650879D01*
G01X75079762Y-32680714D01*
G01X75110008Y-32715722D01*
G01X75134709Y-32755391D01*
G01X75153158Y-32799206D01*
G01X75164649Y-32846654D01*
G01X75164649Y-32846654D01*
G01X75258509Y-33439267D01*
G01X75352370Y-34031880D01*
G01X75352370Y-34031880D01*
G01X75356104Y-34080556D01*
G01X75352098Y-34127928D01*
G01X75340864Y-34173288D01*
G01X75322916Y-34215929D01*
G01X75298769Y-34255146D01*
G01X75268934Y-34290230D01*
G01X75233925Y-34320476D01*
G01X75194257Y-34345177D01*
G01X75150442Y-34363626D01*
G01X75102994Y-34375117D01*
G01X75102994Y-34375117D01*
G01X74510381Y-34468977D01*
G01X73917768Y-34562838D01*
G01X73917768Y-34562838D01*
G01X73869091Y-34566572D01*
G01X73821720Y-34562566D01*
G01X73776360Y-34551332D01*
G01X73733718Y-34533384D01*
G01X73694502Y-34509236D01*
G01X73659418Y-34479402D01*
G01X73629172Y-34444393D01*
G01X73604471Y-34404725D01*
G01X73586022Y-34360910D01*
G01X73574531Y-34313462D01*
G01X73574531Y-34313462D01*
G01X73480670Y-33720849D01*
G01X73386810Y-33128236D01*
G01X73386810Y-33128236D01*
G01X73383076Y-33079559D01*
G01X73387082Y-33032188D01*
G01X73398316Y-32986828D01*
G01X73416263Y-32944186D01*
G01X73440411Y-32904970D01*
G01X73470246Y-32869886D01*
G01X73505254Y-32839639D01*
G01X73544923Y-32814939D01*
G01X73588738Y-32796490D01*
G01X73636186Y-32784999D01*
G01X73636186Y-32784999D01*
G01X74228799Y-32691138D01*
G37*
G36*
G01X72873085Y-48884367D02*
G01X72873085Y-48884367D01*
G01X72845155Y-48936571D01*
G01X72820984Y-48989766D01*
G01X72800528Y-49043787D01*
G01X72783743Y-49098475D01*
G01X72770586Y-49153666D01*
G01X72761014Y-49209199D01*
G01X72754983Y-49264912D01*
G01X72752450Y-49320642D01*
G01X72753372Y-49376228D01*
G01X72757704Y-49431508D01*
G01X72765405Y-49486319D01*
G01X72776429Y-49540501D01*
G01X72790735Y-49593889D01*
G01X72808278Y-49646324D01*
G01X72829015Y-49697642D01*
G01X72852903Y-49747682D01*
G01X72879897Y-49796282D01*
G01X72909956Y-49843280D01*
G01X72943035Y-49888513D01*
G01X72979091Y-49931820D01*
G01X73018081Y-49973038D01*
G01X73059961Y-50012007D01*
G01X73104688Y-50048563D01*
G01X73152218Y-50082544D01*
G01X73202508Y-50113790D01*
G01X73202508Y-50113790D01*
G01X73202508Y-50113790D01*
G01X73254712Y-50141720D01*
G01X73307907Y-50165891D01*
G01X73361928Y-50186347D01*
G01X73416616Y-50203132D01*
G01X73471807Y-50216289D01*
G01X73527340Y-50225861D01*
G01X73583053Y-50231892D01*
G01X73638783Y-50234425D01*
G01X73694369Y-50233503D01*
G01X73749649Y-50229171D01*
G01X73804460Y-50221470D01*
G01X73858642Y-50210446D01*
G01X73912030Y-50196140D01*
G01X73964465Y-50178597D01*
G01X74015783Y-50157860D01*
G01X74065823Y-50133972D01*
G01X74114423Y-50106978D01*
G01X74161420Y-50076919D01*
G01X74206654Y-50043840D01*
G01X74249961Y-50007784D01*
G01X74291179Y-49968794D01*
G01X74330148Y-49926914D01*
G01X74366704Y-49882187D01*
G01X74400685Y-49834657D01*
G01X74431931Y-49784367D01*
G01X74431931Y-49784367D01*
G01X74431931Y-49784367D01*
G01X74459861Y-49732163D01*
G01X74484032Y-49678968D01*
G01X74504488Y-49624947D01*
G01X74521273Y-49570259D01*
G01X74534430Y-49515068D01*
G01X74544002Y-49459535D01*
G01X74550033Y-49403822D01*
G01X74552566Y-49348092D01*
G01X74551644Y-49292506D01*
G01X74547312Y-49237226D01*
G01X74539611Y-49182415D01*
G01X74528587Y-49128233D01*
G01X74514281Y-49074845D01*
G01X74496738Y-49022410D01*
G01X74476001Y-48971092D01*
G01X74452113Y-48921052D01*
G01X74425119Y-48872452D01*
G01X74395060Y-48825455D01*
G01X74361981Y-48780221D01*
G01X74325925Y-48736914D01*
G01X74286935Y-48695696D01*
G01X74245055Y-48656728D01*
G01X74200328Y-48620171D01*
G01X74152798Y-48586190D01*
G01X74102508Y-48554944D01*
G01X74102508Y-48554944D01*
G01X74102508Y-48554944D01*
G01X74050304Y-48527014D01*
G01X73997109Y-48502843D01*
G01X73943088Y-48482387D01*
G01X73888400Y-48465602D01*
G01X73833209Y-48452445D01*
G01X73777676Y-48442873D01*
G01X73721963Y-48436842D01*
G01X73666233Y-48434309D01*
G01X73610647Y-48435231D01*
G01X73555367Y-48439563D01*
G01X73500556Y-48447264D01*
G01X73446374Y-48458288D01*
G01X73392986Y-48472594D01*
G01X73340551Y-48490137D01*
G01X73289233Y-48510874D01*
G01X73239193Y-48534762D01*
G01X73190593Y-48561756D01*
G01X73143595Y-48591815D01*
G01X73098362Y-48624894D01*
G01X73055055Y-48660950D01*
G01X73013837Y-48699940D01*
G01X72974868Y-48741820D01*
G01X72938312Y-48786547D01*
G01X72904331Y-48834077D01*
G01X72873085Y-48884367D01*
G01X72873085Y-48884367D01*
G37*
G36*
G01X72832508Y-50754649D02*
G01X73352123Y-51054649D01*
G01X73352123Y-51054649D01*
G01X73392302Y-51082380D01*
G01X73426595Y-51115305D01*
G01X73454777Y-51152581D01*
G01X73476621Y-51193364D01*
G01X73491901Y-51236811D01*
G01X73500391Y-51282076D01*
G01X73501865Y-51328317D01*
G01X73496097Y-51374690D01*
G01X73482861Y-51420351D01*
G01X73461931Y-51464456D01*
G01X73461931Y-51464456D01*
G01X73161931Y-51984071D01*
G01X72861931Y-52503687D01*
G01X72861931Y-52503687D01*
G01X72834200Y-52543865D01*
G01X72801274Y-52578159D01*
G01X72763998Y-52606340D01*
G01X72723215Y-52628184D01*
G01X72679769Y-52643464D01*
G01X72634504Y-52651954D01*
G01X72588263Y-52653428D01*
G01X72541890Y-52647661D01*
G01X72496229Y-52634425D01*
G01X72452123Y-52613494D01*
G01X72452123Y-52613494D01*
G01X71932508Y-52313494D01*
G01X71412893Y-52013494D01*
G01X71412893Y-52013494D01*
G01X71372714Y-51985763D01*
G01X71338421Y-51952838D01*
G01X71310239Y-51915561D01*
G01X71288395Y-51874778D01*
G01X71273115Y-51831332D01*
G01X71264625Y-51786067D01*
G01X71263151Y-51739826D01*
G01X71268919Y-51693453D01*
G01X71282155Y-51647792D01*
G01X71303085Y-51603687D01*
G01X71303085Y-51603687D01*
G01X71603085Y-51084071D01*
G01X71903085Y-50564456D01*
G01X71903085Y-50564456D01*
G01X71930816Y-50524277D01*
G01X71963742Y-50489984D01*
G01X72001018Y-50461803D01*
G01X72041801Y-50439959D01*
G01X72085247Y-50424679D01*
G01X72130513Y-50416188D01*
G01X72176754Y-50414714D01*
G01X72223127Y-50420482D01*
G01X72268788Y-50433718D01*
G01X72312893Y-50454649D01*
G01X72312893Y-50454649D01*
G01X72832508Y-50754649D01*
G37*
G36*
G01X22765797Y-92513202D02*
G01X22765797Y-92513202D01*
G01X22824972Y-92511288D01*
G01X22883126Y-92505624D01*
G01X22940138Y-92496329D01*
G01X22995891Y-92483521D01*
G01X23050267Y-92467320D01*
G01X23103146Y-92447843D01*
G01X23154410Y-92425209D01*
G01X23203940Y-92399538D01*
G01X23251618Y-92370946D01*
G01X23297325Y-92339554D01*
G01X23340943Y-92305480D01*
G01X23382353Y-92268842D01*
G01X23421437Y-92229758D01*
G01X23458075Y-92188348D01*
G01X23492149Y-92144730D01*
G01X23523541Y-92099023D01*
G01X23552133Y-92051345D01*
G01X23577804Y-92001815D01*
G01X23600438Y-91950551D01*
G01X23619915Y-91897672D01*
G01X23636116Y-91843296D01*
G01X23648924Y-91787543D01*
G01X23658219Y-91730531D01*
G01X23663883Y-91672377D01*
G01X23665797Y-91613202D01*
G01X23665797Y-91613202D01*
G01X23665797Y-91613202D01*
G01X23663883Y-91554027D01*
G01X23658219Y-91495874D01*
G01X23648924Y-91438861D01*
G01X23636116Y-91383108D01*
G01X23619915Y-91328733D01*
G01X23600438Y-91275854D01*
G01X23577804Y-91224590D01*
G01X23552133Y-91175059D01*
G01X23523541Y-91127381D01*
G01X23492149Y-91081674D01*
G01X23458075Y-91038056D01*
G01X23421437Y-90996646D01*
G01X23382353Y-90957563D01*
G01X23340943Y-90920924D01*
G01X23297325Y-90886850D01*
G01X23251618Y-90855458D01*
G01X23203940Y-90826867D01*
G01X23154410Y-90801195D01*
G01X23103146Y-90778562D01*
G01X23050267Y-90759085D01*
G01X22995891Y-90742883D01*
G01X22940138Y-90730076D01*
G01X22883126Y-90720781D01*
G01X22824972Y-90715117D01*
G01X22765797Y-90713202D01*
G01X22765797Y-90713202D01*
G01X22765797Y-90713202D01*
G01X22706622Y-90715117D01*
G01X22648469Y-90720781D01*
G01X22591456Y-90730076D01*
G01X22535703Y-90742883D01*
G01X22481328Y-90759085D01*
G01X22428449Y-90778562D01*
G01X22377185Y-90801195D01*
G01X22327654Y-90826867D01*
G01X22279976Y-90855458D01*
G01X22234269Y-90886850D01*
G01X22190651Y-90920924D01*
G01X22149241Y-90957563D01*
G01X22110158Y-90996646D01*
G01X22073519Y-91038056D01*
G01X22039445Y-91081674D01*
G01X22008053Y-91127381D01*
G01X21979462Y-91175059D01*
G01X21953790Y-91224590D01*
G01X21931157Y-91275854D01*
G01X21911680Y-91328733D01*
G01X21895478Y-91383108D01*
G01X21882671Y-91438861D01*
G01X21873376Y-91495874D01*
G01X21867711Y-91554027D01*
G01X21865797Y-91613202D01*
G01X21865797Y-91613202D01*
G01X21865797Y-91613202D01*
G01X21867711Y-91672377D01*
G01X21873376Y-91730531D01*
G01X21882671Y-91787543D01*
G01X21895478Y-91843296D01*
G01X21911680Y-91897672D01*
G01X21931157Y-91950551D01*
G01X21953790Y-92001815D01*
G01X21979462Y-92051345D01*
G01X22008053Y-92099023D01*
G01X22039445Y-92144730D01*
G01X22073519Y-92188348D01*
G01X22110158Y-92229758D01*
G01X22149241Y-92268842D01*
G01X22190651Y-92305480D01*
G01X22234269Y-92339554D01*
G01X22279976Y-92370946D01*
G01X22327654Y-92399538D01*
G01X22377185Y-92425209D01*
G01X22428449Y-92447843D01*
G01X22481328Y-92467320D01*
G01X22535703Y-92483521D01*
G01X22591456Y-92496329D01*
G01X22648469Y-92505624D01*
G01X22706622Y-92511288D01*
G01X22765797Y-92513202D01*
G01X22765797Y-92513202D01*
G37*
G36*
G01X25880002Y-91013770D02*
G01X25880002Y-91013770D01*
G01X25939177Y-91011856D01*
G01X25997331Y-91006192D01*
G01X26054343Y-90996897D01*
G01X26110096Y-90984089D01*
G01X26164472Y-90967888D01*
G01X26217351Y-90948411D01*
G01X26268615Y-90925777D01*
G01X26318145Y-90900106D01*
G01X26365823Y-90871514D01*
G01X26411530Y-90840122D01*
G01X26455148Y-90806048D01*
G01X26496558Y-90769410D01*
G01X26535642Y-90730326D01*
G01X26572280Y-90688916D01*
G01X26606354Y-90645298D01*
G01X26637746Y-90599591D01*
G01X26666338Y-90551913D01*
G01X26692009Y-90502383D01*
G01X26714643Y-90451119D01*
G01X26734120Y-90398240D01*
G01X26750321Y-90343864D01*
G01X26763129Y-90288111D01*
G01X26772424Y-90231099D01*
G01X26778088Y-90172945D01*
G01X26780002Y-90113770D01*
G01X26780002Y-90113770D01*
G01X26780002Y-90113770D01*
G01X26778088Y-90054595D01*
G01X26772424Y-89996442D01*
G01X26763129Y-89939429D01*
G01X26750321Y-89883676D01*
G01X26734120Y-89829301D01*
G01X26714643Y-89776422D01*
G01X26692009Y-89725158D01*
G01X26666338Y-89675627D01*
G01X26637746Y-89627949D01*
G01X26606354Y-89582242D01*
G01X26572280Y-89538624D01*
G01X26535642Y-89497214D01*
G01X26496558Y-89458131D01*
G01X26455148Y-89421492D01*
G01X26411530Y-89387418D01*
G01X26365823Y-89356026D01*
G01X26318145Y-89327435D01*
G01X26268615Y-89301763D01*
G01X26217351Y-89279130D01*
G01X26164472Y-89259653D01*
G01X26110096Y-89243451D01*
G01X26054343Y-89230644D01*
G01X25997331Y-89221349D01*
G01X25939177Y-89215685D01*
G01X25880002Y-89213770D01*
G01X25880002Y-89213770D01*
G01X25880002Y-89213770D01*
G01X25820827Y-89215685D01*
G01X25762674Y-89221349D01*
G01X25705661Y-89230644D01*
G01X25649908Y-89243451D01*
G01X25595533Y-89259653D01*
G01X25542654Y-89279130D01*
G01X25491390Y-89301763D01*
G01X25441859Y-89327435D01*
G01X25394181Y-89356026D01*
G01X25348474Y-89387418D01*
G01X25304856Y-89421492D01*
G01X25263446Y-89458131D01*
G01X25224363Y-89497214D01*
G01X25187724Y-89538624D01*
G01X25153650Y-89582242D01*
G01X25122258Y-89627949D01*
G01X25093667Y-89675627D01*
G01X25067995Y-89725158D01*
G01X25045362Y-89776422D01*
G01X25025885Y-89829301D01*
G01X25009683Y-89883676D01*
G01X24996876Y-89939429D01*
G01X24987581Y-89996442D01*
G01X24981916Y-90054595D01*
G01X24980002Y-90113770D01*
G01X24980002Y-90113770D01*
G01X24980002Y-90113770D01*
G01X24981916Y-90172945D01*
G01X24987581Y-90231099D01*
G01X24996876Y-90288111D01*
G01X25009683Y-90343864D01*
G01X25025885Y-90398240D01*
G01X25045362Y-90451119D01*
G01X25067995Y-90502383D01*
G01X25093667Y-90551913D01*
G01X25122258Y-90599591D01*
G01X25153650Y-90645298D01*
G01X25187724Y-90688916D01*
G01X25224363Y-90730326D01*
G01X25263446Y-90769410D01*
G01X25304856Y-90806048D01*
G01X25348474Y-90840122D01*
G01X25394181Y-90871514D01*
G01X25441859Y-90900106D01*
G01X25491390Y-90925777D01*
G01X25542654Y-90948411D01*
G01X25595533Y-90967888D01*
G01X25649908Y-90984089D01*
G01X25705661Y-90996897D01*
G01X25762674Y-91006192D01*
G01X25820827Y-91011856D01*
G01X25880002Y-91013770D01*
G01X25880002Y-91013770D01*
G37*
G36*
G01X30551310Y-79133655D02*
G01X30551310Y-79133655D01*
G01X30610485Y-79131741D01*
G01X30668638Y-79126077D01*
G01X30725651Y-79116782D01*
G01X30781404Y-79103974D01*
G01X30835779Y-79087773D01*
G01X30888658Y-79068296D01*
G01X30939922Y-79045662D01*
G01X30989452Y-79019991D01*
G01X31037131Y-78991399D01*
G01X31082838Y-78960007D01*
G01X31126456Y-78925933D01*
G01X31167866Y-78889295D01*
G01X31206949Y-78850211D01*
G01X31243587Y-78808801D01*
G01X31277662Y-78765183D01*
G01X31309054Y-78719476D01*
G01X31337645Y-78671798D01*
G01X31363317Y-78622268D01*
G01X31385950Y-78571004D01*
G01X31405427Y-78518125D01*
G01X31421629Y-78463749D01*
G01X31434436Y-78407996D01*
G01X31443731Y-78350984D01*
G01X31449395Y-78292830D01*
G01X31451310Y-78233655D01*
G01X31451310Y-78233655D01*
G01X31451310Y-78233655D01*
G01X31449395Y-78174480D01*
G01X31443731Y-78116327D01*
G01X31434436Y-78059314D01*
G01X31421629Y-78003561D01*
G01X31405427Y-77949186D01*
G01X31385950Y-77896307D01*
G01X31363317Y-77845043D01*
G01X31337645Y-77795512D01*
G01X31309054Y-77747834D01*
G01X31277662Y-77702127D01*
G01X31243587Y-77658509D01*
G01X31206949Y-77617099D01*
G01X31167866Y-77578016D01*
G01X31126456Y-77541377D01*
G01X31082838Y-77507303D01*
G01X31037131Y-77475911D01*
G01X30989452Y-77447320D01*
G01X30939922Y-77421648D01*
G01X30888658Y-77399015D01*
G01X30835779Y-77379538D01*
G01X30781404Y-77363336D01*
G01X30725651Y-77350529D01*
G01X30668638Y-77341234D01*
G01X30610485Y-77335570D01*
G01X30551310Y-77333655D01*
G01X30551310Y-77333655D01*
G01X30551310Y-77333655D01*
G01X30492134Y-77335570D01*
G01X30433981Y-77341234D01*
G01X30376969Y-77350529D01*
G01X30321215Y-77363336D01*
G01X30266840Y-77379538D01*
G01X30213961Y-77399015D01*
G01X30162697Y-77421648D01*
G01X30113167Y-77447320D01*
G01X30065489Y-77475911D01*
G01X30019781Y-77507303D01*
G01X29976163Y-77541377D01*
G01X29934753Y-77578016D01*
G01X29895670Y-77617099D01*
G01X29859032Y-77658509D01*
G01X29824957Y-77702127D01*
G01X29793565Y-77747834D01*
G01X29764974Y-77795512D01*
G01X29739303Y-77845043D01*
G01X29716669Y-77896307D01*
G01X29697192Y-77949186D01*
G01X29680991Y-78003561D01*
G01X29668183Y-78059314D01*
G01X29658888Y-78116327D01*
G01X29653224Y-78174480D01*
G01X29651310Y-78233655D01*
G01X29651310Y-78233655D01*
G01X29651310Y-78233655D01*
G01X29653224Y-78292830D01*
G01X29658888Y-78350984D01*
G01X29668183Y-78407996D01*
G01X29680991Y-78463749D01*
G01X29697192Y-78518125D01*
G01X29716669Y-78571004D01*
G01X29739303Y-78622268D01*
G01X29764974Y-78671798D01*
G01X29793565Y-78719476D01*
G01X29824957Y-78765183D01*
G01X29859032Y-78808801D01*
G01X29895670Y-78850211D01*
G01X29934753Y-78889295D01*
G01X29976163Y-78925933D01*
G01X30019781Y-78960007D01*
G01X30065489Y-78991399D01*
G01X30113167Y-79019991D01*
G01X30162697Y-79045662D01*
G01X30213961Y-79068296D01*
G01X30266840Y-79087773D01*
G01X30321215Y-79103974D01*
G01X30376969Y-79116782D01*
G01X30433981Y-79126077D01*
G01X30492134Y-79131741D01*
G01X30551310Y-79133655D01*
G01X30551310Y-79133655D01*
G37*
G36*
G01X33031140Y-76423143D02*
G01X33031140Y-76423143D01*
G01X33090315Y-76421229D01*
G01X33148468Y-76415565D01*
G01X33205480Y-76406270D01*
G01X33261234Y-76393462D01*
G01X33315609Y-76377261D01*
G01X33368488Y-76357784D01*
G01X33419752Y-76335150D01*
G01X33469282Y-76309479D01*
G01X33516961Y-76280887D01*
G01X33562668Y-76249495D01*
G01X33606286Y-76215421D01*
G01X33647696Y-76178783D01*
G01X33686779Y-76139699D01*
G01X33723417Y-76098289D01*
G01X33757492Y-76054671D01*
G01X33788884Y-76008964D01*
G01X33817475Y-75961286D01*
G01X33843147Y-75911756D01*
G01X33865780Y-75860492D01*
G01X33885257Y-75807613D01*
G01X33901458Y-75753237D01*
G01X33914266Y-75697484D01*
G01X33923561Y-75640472D01*
G01X33929225Y-75582318D01*
G01X33931140Y-75523143D01*
G01X33931140Y-75523143D01*
G01X33931140Y-75523143D01*
G01X33929225Y-75463968D01*
G01X33923561Y-75405815D01*
G01X33914266Y-75348802D01*
G01X33901458Y-75293049D01*
G01X33885257Y-75238674D01*
G01X33865780Y-75185795D01*
G01X33843147Y-75134531D01*
G01X33817475Y-75085000D01*
G01X33788884Y-75037322D01*
G01X33757492Y-74991615D01*
G01X33723417Y-74947997D01*
G01X33686779Y-74906587D01*
G01X33647696Y-74867504D01*
G01X33606286Y-74830865D01*
G01X33562668Y-74796791D01*
G01X33516961Y-74765399D01*
G01X33469282Y-74736808D01*
G01X33419752Y-74711136D01*
G01X33368488Y-74688503D01*
G01X33315609Y-74669026D01*
G01X33261234Y-74652824D01*
G01X33205480Y-74640017D01*
G01X33148468Y-74630722D01*
G01X33090315Y-74625058D01*
G01X33031140Y-74623143D01*
G01X33031140Y-74623143D01*
G01X33031140Y-74623143D01*
G01X32971964Y-74625058D01*
G01X32913811Y-74630722D01*
G01X32856799Y-74640017D01*
G01X32801045Y-74652824D01*
G01X32746670Y-74669026D01*
G01X32693791Y-74688503D01*
G01X32642527Y-74711136D01*
G01X32592997Y-74736808D01*
G01X32545319Y-74765399D01*
G01X32499611Y-74796791D01*
G01X32455993Y-74830865D01*
G01X32414583Y-74867504D01*
G01X32375500Y-74906587D01*
G01X32338862Y-74947997D01*
G01X32304787Y-74991615D01*
G01X32273395Y-75037322D01*
G01X32244804Y-75085000D01*
G01X32219132Y-75134531D01*
G01X32196499Y-75185795D01*
G01X32177022Y-75238674D01*
G01X32160821Y-75293049D01*
G01X32148013Y-75348802D01*
G01X32138718Y-75405815D01*
G01X32133054Y-75463968D01*
G01X32131140Y-75523143D01*
G01X32131140Y-75523143D01*
G01X32131140Y-75523143D01*
G01X32133054Y-75582318D01*
G01X32138718Y-75640472D01*
G01X32148013Y-75697484D01*
G01X32160821Y-75753237D01*
G01X32177022Y-75807613D01*
G01X32196499Y-75860492D01*
G01X32219132Y-75911756D01*
G01X32244804Y-75961286D01*
G01X32273395Y-76008964D01*
G01X32304787Y-76054671D01*
G01X32338862Y-76098289D01*
G01X32375500Y-76139699D01*
G01X32414583Y-76178783D01*
G01X32455993Y-76215421D01*
G01X32499611Y-76249495D01*
G01X32545319Y-76280887D01*
G01X32592997Y-76309479D01*
G01X32642527Y-76335150D01*
G01X32693791Y-76357784D01*
G01X32746670Y-76377261D01*
G01X32801045Y-76393462D01*
G01X32856799Y-76406270D01*
G01X32913811Y-76415565D01*
G01X32971964Y-76421229D01*
G01X33031140Y-76423143D01*
G01X33031140Y-76423143D01*
G37*
G36*
G01X28729763Y-71665379D02*
G01X28729763Y-71665379D01*
G01X28788938Y-71663465D01*
G01X28847092Y-71657801D01*
G01X28904104Y-71648506D01*
G01X28959857Y-71635698D01*
G01X29014233Y-71619497D01*
G01X29067112Y-71600020D01*
G01X29118376Y-71577386D01*
G01X29167906Y-71551715D01*
G01X29215584Y-71523123D01*
G01X29261291Y-71491731D01*
G01X29304909Y-71457657D01*
G01X29346319Y-71421019D01*
G01X29385403Y-71381935D01*
G01X29422041Y-71340525D01*
G01X29456115Y-71296907D01*
G01X29487507Y-71251200D01*
G01X29516099Y-71203522D01*
G01X29541770Y-71153992D01*
G01X29564404Y-71102728D01*
G01X29583881Y-71049849D01*
G01X29600082Y-70995473D01*
G01X29612890Y-70939720D01*
G01X29622185Y-70882708D01*
G01X29627849Y-70824554D01*
G01X29629763Y-70765379D01*
G01X29629763Y-70765379D01*
G01X29629763Y-70765379D01*
G01X29627849Y-70706204D01*
G01X29622185Y-70648051D01*
G01X29612890Y-70591038D01*
G01X29600082Y-70535285D01*
G01X29583881Y-70480910D01*
G01X29564404Y-70428031D01*
G01X29541770Y-70376767D01*
G01X29516099Y-70327236D01*
G01X29487507Y-70279558D01*
G01X29456115Y-70233851D01*
G01X29422041Y-70190233D01*
G01X29385403Y-70148823D01*
G01X29346319Y-70109740D01*
G01X29304909Y-70073101D01*
G01X29261291Y-70039027D01*
G01X29215584Y-70007635D01*
G01X29167906Y-69979044D01*
G01X29118376Y-69953372D01*
G01X29067112Y-69930739D01*
G01X29014233Y-69911262D01*
G01X28959857Y-69895060D01*
G01X28904104Y-69882253D01*
G01X28847092Y-69872958D01*
G01X28788938Y-69867294D01*
G01X28729763Y-69865379D01*
G01X28729763Y-69865379D01*
G01X28729763Y-69865379D01*
G01X28670588Y-69867294D01*
G01X28612435Y-69872958D01*
G01X28555422Y-69882253D01*
G01X28499669Y-69895060D01*
G01X28445294Y-69911262D01*
G01X28392415Y-69930739D01*
G01X28341151Y-69953372D01*
G01X28291620Y-69979044D01*
G01X28243942Y-70007635D01*
G01X28198235Y-70039027D01*
G01X28154617Y-70073101D01*
G01X28113207Y-70109740D01*
G01X28074124Y-70148823D01*
G01X28037485Y-70190233D01*
G01X28003411Y-70233851D01*
G01X27972019Y-70279558D01*
G01X27943428Y-70327236D01*
G01X27917756Y-70376767D01*
G01X27895123Y-70428031D01*
G01X27875646Y-70480910D01*
G01X27859444Y-70535285D01*
G01X27846637Y-70591038D01*
G01X27837342Y-70648051D01*
G01X27831677Y-70706204D01*
G01X27829763Y-70765379D01*
G01X27829763Y-70765379D01*
G01X27829763Y-70765379D01*
G01X27831677Y-70824554D01*
G01X27837342Y-70882708D01*
G01X27846637Y-70939720D01*
G01X27859444Y-70995473D01*
G01X27875646Y-71049849D01*
G01X27895123Y-71102728D01*
G01X27917756Y-71153992D01*
G01X27943428Y-71203522D01*
G01X27972019Y-71251200D01*
G01X28003411Y-71296907D01*
G01X28037485Y-71340525D01*
G01X28074124Y-71381935D01*
G01X28113207Y-71421019D01*
G01X28154617Y-71457657D01*
G01X28198235Y-71491731D01*
G01X28243942Y-71523123D01*
G01X28291620Y-71551715D01*
G01X28341151Y-71577386D01*
G01X28392415Y-71600020D01*
G01X28445294Y-71619497D01*
G01X28499669Y-71635698D01*
G01X28555422Y-71648506D01*
G01X28612435Y-71657801D01*
G01X28670588Y-71663465D01*
G01X28729763Y-71665379D01*
G01X28729763Y-71665379D01*
G37*
G36*
G01X26173657Y-74161387D02*
G01X26173657Y-74161387D01*
G01X26232832Y-74159473D01*
G01X26290986Y-74153809D01*
G01X26347998Y-74144514D01*
G01X26403751Y-74131706D01*
G01X26458127Y-74115505D01*
G01X26511006Y-74096028D01*
G01X26562270Y-74073394D01*
G01X26611800Y-74047723D01*
G01X26659478Y-74019131D01*
G01X26705185Y-73987739D01*
G01X26748803Y-73953665D01*
G01X26790213Y-73917027D01*
G01X26829297Y-73877943D01*
G01X26865935Y-73836533D01*
G01X26900009Y-73792915D01*
G01X26931401Y-73747208D01*
G01X26959993Y-73699530D01*
G01X26985664Y-73650000D01*
G01X27008298Y-73598736D01*
G01X27027775Y-73545857D01*
G01X27043976Y-73491481D01*
G01X27056784Y-73435728D01*
G01X27066079Y-73378716D01*
G01X27071743Y-73320562D01*
G01X27073657Y-73261387D01*
G01X27073657Y-73261387D01*
G01X27073657Y-73261387D01*
G01X27071743Y-73202212D01*
G01X27066079Y-73144059D01*
G01X27056784Y-73087046D01*
G01X27043976Y-73031293D01*
G01X27027775Y-72976918D01*
G01X27008298Y-72924039D01*
G01X26985664Y-72872775D01*
G01X26959993Y-72823244D01*
G01X26931401Y-72775566D01*
G01X26900009Y-72729859D01*
G01X26865935Y-72686241D01*
G01X26829297Y-72644831D01*
G01X26790213Y-72605748D01*
G01X26748803Y-72569109D01*
G01X26705185Y-72535035D01*
G01X26659478Y-72503643D01*
G01X26611800Y-72475052D01*
G01X26562270Y-72449380D01*
G01X26511006Y-72426747D01*
G01X26458127Y-72407270D01*
G01X26403751Y-72391068D01*
G01X26347998Y-72378261D01*
G01X26290986Y-72368966D01*
G01X26232832Y-72363302D01*
G01X26173657Y-72361387D01*
G01X26173657Y-72361387D01*
G01X26173657Y-72361387D01*
G01X26114482Y-72363302D01*
G01X26056329Y-72368966D01*
G01X25999316Y-72378261D01*
G01X25943563Y-72391068D01*
G01X25889188Y-72407270D01*
G01X25836309Y-72426747D01*
G01X25785045Y-72449380D01*
G01X25735514Y-72475052D01*
G01X25687836Y-72503643D01*
G01X25642129Y-72535035D01*
G01X25598511Y-72569109D01*
G01X25557101Y-72605748D01*
G01X25518018Y-72644831D01*
G01X25481379Y-72686241D01*
G01X25447305Y-72729859D01*
G01X25415913Y-72775566D01*
G01X25387322Y-72823244D01*
G01X25361650Y-72872775D01*
G01X25339017Y-72924039D01*
G01X25319540Y-72976918D01*
G01X25303338Y-73031293D01*
G01X25290531Y-73087046D01*
G01X25281236Y-73144059D01*
G01X25275571Y-73202212D01*
G01X25273657Y-73261387D01*
G01X25273657Y-73261387D01*
G01X25273657Y-73261387D01*
G01X25275571Y-73320562D01*
G01X25281236Y-73378716D01*
G01X25290531Y-73435728D01*
G01X25303338Y-73491481D01*
G01X25319540Y-73545857D01*
G01X25339017Y-73598736D01*
G01X25361650Y-73650000D01*
G01X25387322Y-73699530D01*
G01X25415913Y-73747208D01*
G01X25447305Y-73792915D01*
G01X25481379Y-73836533D01*
G01X25518018Y-73877943D01*
G01X25557101Y-73917027D01*
G01X25598511Y-73953665D01*
G01X25642129Y-73987739D01*
G01X25687836Y-74019131D01*
G01X25735514Y-74047723D01*
G01X25785045Y-74073394D01*
G01X25836309Y-74096028D01*
G01X25889188Y-74115505D01*
G01X25943563Y-74131706D01*
G01X25999316Y-74144514D01*
G01X26056329Y-74153809D01*
G01X26114482Y-74159473D01*
G01X26173657Y-74161387D01*
G01X26173657Y-74161387D01*
G37*
G36*
G01X7409714Y-82764194D02*
G01X7409714Y-82764194D01*
G01X7468889Y-82762280D01*
G01X7527043Y-82756616D01*
G01X7584055Y-82747321D01*
G01X7639808Y-82734513D01*
G01X7694184Y-82718312D01*
G01X7747063Y-82698835D01*
G01X7798327Y-82676201D01*
G01X7847857Y-82650530D01*
G01X7895535Y-82621938D01*
G01X7941242Y-82590546D01*
G01X7984860Y-82556472D01*
G01X8026270Y-82519834D01*
G01X8065354Y-82480750D01*
G01X8101992Y-82439340D01*
G01X8136066Y-82395722D01*
G01X8167458Y-82350015D01*
G01X8196050Y-82302337D01*
G01X8221721Y-82252807D01*
G01X8244355Y-82201543D01*
G01X8263832Y-82148664D01*
G01X8280033Y-82094288D01*
G01X8292841Y-82038535D01*
G01X8302136Y-81981523D01*
G01X8307800Y-81923369D01*
G01X8309714Y-81864194D01*
G01X8309714Y-81864194D01*
G01X8309714Y-81864194D01*
G01X8307800Y-81805019D01*
G01X8302136Y-81746866D01*
G01X8292841Y-81689853D01*
G01X8280033Y-81634100D01*
G01X8263832Y-81579725D01*
G01X8244355Y-81526846D01*
G01X8221721Y-81475582D01*
G01X8196050Y-81426051D01*
G01X8167458Y-81378373D01*
G01X8136066Y-81332666D01*
G01X8101992Y-81289048D01*
G01X8065354Y-81247638D01*
G01X8026270Y-81208555D01*
G01X7984860Y-81171916D01*
G01X7941242Y-81137842D01*
G01X7895535Y-81106450D01*
G01X7847857Y-81077859D01*
G01X7798327Y-81052187D01*
G01X7747063Y-81029554D01*
G01X7694184Y-81010077D01*
G01X7639808Y-80993875D01*
G01X7584055Y-80981068D01*
G01X7527043Y-80971773D01*
G01X7468889Y-80966109D01*
G01X7409714Y-80964194D01*
G01X7409714Y-80964194D01*
G01X7409714Y-80964194D01*
G01X7350539Y-80966109D01*
G01X7292386Y-80971773D01*
G01X7235373Y-80981068D01*
G01X7179620Y-80993875D01*
G01X7125245Y-81010077D01*
G01X7072366Y-81029554D01*
G01X7021102Y-81052187D01*
G01X6971571Y-81077859D01*
G01X6923893Y-81106450D01*
G01X6878186Y-81137842D01*
G01X6834568Y-81171916D01*
G01X6793158Y-81208555D01*
G01X6754075Y-81247638D01*
G01X6717436Y-81289048D01*
G01X6683362Y-81332666D01*
G01X6651970Y-81378373D01*
G01X6623379Y-81426051D01*
G01X6597707Y-81475582D01*
G01X6575074Y-81526846D01*
G01X6555597Y-81579725D01*
G01X6539395Y-81634100D01*
G01X6526588Y-81689853D01*
G01X6517293Y-81746866D01*
G01X6511628Y-81805019D01*
G01X6509714Y-81864194D01*
G01X6509714Y-81864194D01*
G01X6509714Y-81864194D01*
G01X6511628Y-81923369D01*
G01X6517293Y-81981523D01*
G01X6526588Y-82038535D01*
G01X6539395Y-82094288D01*
G01X6555597Y-82148664D01*
G01X6575074Y-82201543D01*
G01X6597707Y-82252807D01*
G01X6623379Y-82302337D01*
G01X6651970Y-82350015D01*
G01X6683362Y-82395722D01*
G01X6717436Y-82439340D01*
G01X6754075Y-82480750D01*
G01X6793158Y-82519834D01*
G01X6834568Y-82556472D01*
G01X6878186Y-82590546D01*
G01X6923893Y-82621938D01*
G01X6971571Y-82650530D01*
G01X7021102Y-82676201D01*
G01X7072366Y-82698835D01*
G01X7125245Y-82718312D01*
G01X7179620Y-82734513D01*
G01X7235373Y-82747321D01*
G01X7292386Y-82756616D01*
G01X7350539Y-82762280D01*
G01X7409714Y-82764194D01*
G01X7409714Y-82764194D01*
G37*
G36*
G01X7434728Y-86344272D02*
G01X7434728Y-86344272D01*
G01X7493903Y-86342358D01*
G01X7552057Y-86336694D01*
G01X7609069Y-86327399D01*
G01X7664822Y-86314591D01*
G01X7719198Y-86298390D01*
G01X7772077Y-86278913D01*
G01X7823341Y-86256279D01*
G01X7872871Y-86230608D01*
G01X7920549Y-86202016D01*
G01X7966256Y-86170624D01*
G01X8009874Y-86136550D01*
G01X8051284Y-86099912D01*
G01X8090368Y-86060828D01*
G01X8127006Y-86019418D01*
G01X8161080Y-85975800D01*
G01X8192472Y-85930093D01*
G01X8221064Y-85882415D01*
G01X8246735Y-85832885D01*
G01X8269369Y-85781621D01*
G01X8288846Y-85728742D01*
G01X8305047Y-85674366D01*
G01X8317855Y-85618613D01*
G01X8327150Y-85561601D01*
G01X8332814Y-85503447D01*
G01X8334728Y-85444272D01*
G01X8334728Y-85444272D01*
G01X8334728Y-85444272D01*
G01X8332814Y-85385097D01*
G01X8327150Y-85326944D01*
G01X8317855Y-85269931D01*
G01X8305047Y-85214178D01*
G01X8288846Y-85159803D01*
G01X8269369Y-85106924D01*
G01X8246735Y-85055660D01*
G01X8221064Y-85006129D01*
G01X8192472Y-84958451D01*
G01X8161080Y-84912744D01*
G01X8127006Y-84869126D01*
G01X8090368Y-84827716D01*
G01X8051284Y-84788633D01*
G01X8009874Y-84751994D01*
G01X7966256Y-84717920D01*
G01X7920549Y-84686528D01*
G01X7872871Y-84657937D01*
G01X7823341Y-84632265D01*
G01X7772077Y-84609632D01*
G01X7719198Y-84590155D01*
G01X7664822Y-84573953D01*
G01X7609069Y-84561146D01*
G01X7552057Y-84551851D01*
G01X7493903Y-84546187D01*
G01X7434728Y-84544272D01*
G01X7434728Y-84544272D01*
G01X7434728Y-84544272D01*
G01X7375553Y-84546187D01*
G01X7317400Y-84551851D01*
G01X7260387Y-84561146D01*
G01X7204634Y-84573953D01*
G01X7150259Y-84590155D01*
G01X7097380Y-84609632D01*
G01X7046116Y-84632265D01*
G01X6996585Y-84657937D01*
G01X6948907Y-84686528D01*
G01X6903200Y-84717920D01*
G01X6859582Y-84751994D01*
G01X6818172Y-84788633D01*
G01X6779089Y-84827716D01*
G01X6742450Y-84869126D01*
G01X6708376Y-84912744D01*
G01X6676984Y-84958451D01*
G01X6648393Y-85006129D01*
G01X6622721Y-85055660D01*
G01X6600088Y-85106924D01*
G01X6580611Y-85159803D01*
G01X6564409Y-85214178D01*
G01X6551602Y-85269931D01*
G01X6542307Y-85326944D01*
G01X6536642Y-85385097D01*
G01X6534728Y-85444272D01*
G01X6534728Y-85444272D01*
G01X6534728Y-85444272D01*
G01X6536642Y-85503447D01*
G01X6542307Y-85561601D01*
G01X6551602Y-85618613D01*
G01X6564409Y-85674366D01*
G01X6580611Y-85728742D01*
G01X6600088Y-85781621D01*
G01X6622721Y-85832885D01*
G01X6648393Y-85882415D01*
G01X6676984Y-85930093D01*
G01X6708376Y-85975800D01*
G01X6742450Y-86019418D01*
G01X6779089Y-86060828D01*
G01X6818172Y-86099912D01*
G01X6859582Y-86136550D01*
G01X6903200Y-86170624D01*
G01X6948907Y-86202016D01*
G01X6996585Y-86230608D01*
G01X7046116Y-86256279D01*
G01X7097380Y-86278913D01*
G01X7150259Y-86298390D01*
G01X7204634Y-86314591D01*
G01X7260387Y-86327399D01*
G01X7317400Y-86336694D01*
G01X7375553Y-86342358D01*
G01X7434728Y-86344272D01*
G01X7434728Y-86344272D01*
G37*
G36*
G01X47492488Y-7194740D02*
G01X47492488Y-7194740D01*
G01X47488519Y-7240406D01*
G01X47477166Y-7287270D01*
G01X47459259Y-7333891D01*
G01X47435630Y-7378833D01*
G01X47407108Y-7420655D01*
G01X47374525Y-7457919D01*
G01X47338709Y-7489185D01*
G01X47312458Y-7506562D01*
G01X45869637Y-8339583D01*
G01X45869637Y-8339583D01*
G01X45828109Y-8358970D01*
G01X45781850Y-8372563D01*
G01X45732524Y-8380362D01*
G01X45681791Y-8382367D01*
G01X45631314Y-8378579D01*
G01X45582752Y-8368997D01*
G01X45537769Y-8353621D01*
G01X45509597Y-8339583D01*
G01X44066769Y-7506562D01*
G01X44066769Y-7506562D01*
G01X44029206Y-7480289D01*
G01X43994297Y-7447024D01*
G01X43962875Y-7408204D01*
G01X43935770Y-7365270D01*
G01X43913812Y-7319658D01*
G01X43897833Y-7272809D01*
G01X43888663Y-7226161D01*
G01X43886740Y-7194740D01*
G01X43886740Y-5528720D01*
G01X43886740Y-5528720D01*
G01X43890709Y-5483056D01*
G01X43902063Y-5436194D01*
G01X43919970Y-5389574D01*
G01X43943600Y-5344634D01*
G01X43972122Y-5302814D01*
G01X44004705Y-5265553D01*
G01X44040519Y-5234290D01*
G01X44066769Y-5216917D01*
G01X45509597Y-4383902D01*
G01X45509597Y-4383902D01*
G01X45551129Y-4364504D01*
G01X45597390Y-4350903D01*
G01X45646718Y-4343100D01*
G01X45697452Y-4341093D01*
G01X45747928Y-4344883D01*
G01X45796488Y-4354471D01*
G01X45841467Y-4369855D01*
G01X45869637Y-4383902D01*
G01X47312458Y-5216917D01*
G01X47312458Y-5216917D01*
G01X47350024Y-5243184D01*
G01X47384933Y-5276446D01*
G01X47416355Y-5315263D01*
G01X47443460Y-5358196D01*
G01X47465417Y-5403806D01*
G01X47481396Y-5450654D01*
G01X47490565Y-5497301D01*
G01X47492488Y-5528720D01*
G37*
G36*
G01X74435630Y-45547261D02*
G01X74435630Y-45547261D01*
G01X74435478Y-45606467D01*
G01X74439109Y-45664782D01*
G01X74446409Y-45722084D01*
G01X74457263Y-45778251D01*
G01X74471557Y-45833158D01*
G01X74489177Y-45886685D01*
G01X74510007Y-45938708D01*
G01X74533935Y-45989104D01*
G01X74560844Y-46037751D01*
G01X74590622Y-46084526D01*
G01X74623154Y-46129306D01*
G01X74658324Y-46171969D01*
G01X74696020Y-46212393D01*
G01X74736126Y-46250454D01*
G01X74778528Y-46286030D01*
G01X74823112Y-46318998D01*
G01X74869763Y-46349236D01*
G01X74918368Y-46376620D01*
G01X74968810Y-46401029D01*
G01X75020977Y-46422340D01*
G01X75074754Y-46440429D01*
G01X75130027Y-46455174D01*
G01X75186680Y-46466454D01*
G01X75244600Y-46474144D01*
G01X75303672Y-46478122D01*
G01X75303672Y-46478122D01*
G01X75303672Y-46478122D01*
G01X75362879Y-46478274D01*
G01X75421194Y-46474643D01*
G01X75478496Y-46467343D01*
G01X75534662Y-46456489D01*
G01X75589570Y-46442195D01*
G01X75643097Y-46424576D01*
G01X75695119Y-46403745D01*
G01X75745515Y-46379818D01*
G01X75794162Y-46352908D01*
G01X75840937Y-46323130D01*
G01X75885718Y-46290599D01*
G01X75928381Y-46255428D01*
G01X75968805Y-46217732D01*
G01X76006866Y-46177626D01*
G01X76042442Y-46135224D01*
G01X76075410Y-46090640D01*
G01X76105648Y-46043989D01*
G01X76133032Y-45995385D01*
G01X76157441Y-45944942D01*
G01X76178751Y-45892775D01*
G01X76196841Y-45838998D01*
G01X76211586Y-45783726D01*
G01X76222865Y-45727072D01*
G01X76230555Y-45669152D01*
G01X76234534Y-45610080D01*
G01X76234534Y-45610080D01*
G01X76234534Y-45610080D01*
G01X76234686Y-45550874D01*
G01X76231055Y-45492559D01*
G01X76223755Y-45435256D01*
G01X76212901Y-45379090D01*
G01X76198607Y-45324182D01*
G01X76180988Y-45270656D01*
G01X76160157Y-45218633D01*
G01X76136229Y-45168237D01*
G01X76109320Y-45119590D01*
G01X76079542Y-45072815D01*
G01X76047010Y-45028035D01*
G01X76011840Y-44985371D01*
G01X75974144Y-44944948D01*
G01X75934038Y-44906887D01*
G01X75891636Y-44871311D01*
G01X75847052Y-44838343D01*
G01X75800401Y-44808105D01*
G01X75751796Y-44780720D01*
G01X75701354Y-44756312D01*
G01X75649187Y-44735001D01*
G01X75595410Y-44716912D01*
G01X75540137Y-44702166D01*
G01X75483484Y-44690887D01*
G01X75425564Y-44683197D01*
G01X75366492Y-44679219D01*
G01X75366492Y-44679219D01*
G01X75366492Y-44679219D01*
G01X75307286Y-44679067D01*
G01X75248970Y-44682698D01*
G01X75191668Y-44689997D01*
G01X75135502Y-44700851D01*
G01X75080594Y-44715145D01*
G01X75027067Y-44732765D01*
G01X74975045Y-44753596D01*
G01X74924649Y-44777523D01*
G01X74876002Y-44804433D01*
G01X74829227Y-44834211D01*
G01X74784446Y-44866742D01*
G01X74741783Y-44901913D01*
G01X74701359Y-44939608D01*
G01X74663298Y-44979714D01*
G01X74627722Y-45022117D01*
G01X74594754Y-45066700D01*
G01X74564517Y-45113352D01*
G01X74537132Y-45161956D01*
G01X74512723Y-45212399D01*
G01X74491413Y-45264566D01*
G01X74473323Y-45318343D01*
G01X74458578Y-45373615D01*
G01X74447299Y-45430268D01*
G01X74439609Y-45488188D01*
G01X74435630Y-45547261D01*
G01X74435630Y-45547261D01*
G37*
G36*
G01X74736464Y-36932512D02*
G01X74736464Y-36932512D01*
G01X74736312Y-36991718D01*
G01X74739943Y-37050033D01*
G01X74747243Y-37107336D01*
G01X74758097Y-37163502D01*
G01X74772391Y-37218410D01*
G01X74790010Y-37271936D01*
G01X74810841Y-37323959D01*
G01X74834768Y-37374355D01*
G01X74861678Y-37423002D01*
G01X74891456Y-37469777D01*
G01X74923987Y-37514557D01*
G01X74959158Y-37557221D01*
G01X74996854Y-37597644D01*
G01X75036960Y-37635705D01*
G01X75079362Y-37671281D01*
G01X75123946Y-37704249D01*
G01X75170597Y-37734487D01*
G01X75219201Y-37761872D01*
G01X75269644Y-37786280D01*
G01X75321811Y-37807591D01*
G01X75375588Y-37825680D01*
G01X75430860Y-37840426D01*
G01X75487514Y-37851705D01*
G01X75545434Y-37859395D01*
G01X75604506Y-37863373D01*
G01X75604506Y-37863373D01*
G01X75604506Y-37863373D01*
G01X75663712Y-37863525D01*
G01X75722028Y-37859894D01*
G01X75779330Y-37852594D01*
G01X75835496Y-37841740D01*
G01X75890404Y-37827446D01*
G01X75943930Y-37809827D01*
G01X75995953Y-37788996D01*
G01X76046349Y-37765069D01*
G01X76094996Y-37738159D01*
G01X76141771Y-37708381D01*
G01X76186551Y-37675850D01*
G01X76229215Y-37640679D01*
G01X76269638Y-37602984D01*
G01X76307699Y-37562877D01*
G01X76343275Y-37520475D01*
G01X76376244Y-37475891D01*
G01X76406481Y-37429240D01*
G01X76433866Y-37380636D01*
G01X76458275Y-37330193D01*
G01X76479585Y-37278026D01*
G01X76497674Y-37224249D01*
G01X76512420Y-37168977D01*
G01X76523699Y-37112323D01*
G01X76531389Y-37054403D01*
G01X76535367Y-36995331D01*
G01X76535367Y-36995331D01*
G01X76535367Y-36995331D01*
G01X76535519Y-36936125D01*
G01X76531888Y-36877810D01*
G01X76524589Y-36820507D01*
G01X76513735Y-36764341D01*
G01X76499441Y-36709433D01*
G01X76481821Y-36655907D01*
G01X76460991Y-36603884D01*
G01X76437063Y-36553488D01*
G01X76410153Y-36504841D01*
G01X76380376Y-36458066D01*
G01X76347844Y-36413286D01*
G01X76312673Y-36370622D01*
G01X76274978Y-36330199D01*
G01X76234872Y-36292138D01*
G01X76192470Y-36256562D01*
G01X76147886Y-36223594D01*
G01X76101234Y-36193356D01*
G01X76052630Y-36165971D01*
G01X76002187Y-36141563D01*
G01X75950020Y-36120252D01*
G01X75896243Y-36102163D01*
G01X75840971Y-36087417D01*
G01X75784318Y-36076138D01*
G01X75726398Y-36068448D01*
G01X75667325Y-36064470D01*
G01X75667325Y-36064470D01*
G01X75667325Y-36064470D01*
G01X75608119Y-36064318D01*
G01X75549804Y-36067949D01*
G01X75492502Y-36075249D01*
G01X75436335Y-36086103D01*
G01X75381428Y-36100397D01*
G01X75327901Y-36118016D01*
G01X75275879Y-36138847D01*
G01X75225482Y-36162774D01*
G01X75176836Y-36189684D01*
G01X75130061Y-36219462D01*
G01X75085280Y-36251993D01*
G01X75042617Y-36287164D01*
G01X75002193Y-36324859D01*
G01X74964132Y-36364965D01*
G01X74928556Y-36407368D01*
G01X74895588Y-36451952D01*
G01X74865350Y-36498603D01*
G01X74837966Y-36547207D01*
G01X74813557Y-36597650D01*
G01X74792246Y-36649817D01*
G01X74774157Y-36703594D01*
G01X74759412Y-36758866D01*
G01X74748132Y-36815519D01*
G01X74740442Y-36873440D01*
G01X74736464Y-36932512D01*
G01X74736464Y-36932512D01*
G37*
G36*
G01X31966745Y-40193385D02*
G01X31966745Y-40193385D01*
G01X32009942Y-40233875D01*
G01X32055068Y-40270990D01*
G01X32101954Y-40304732D01*
G01X32150434Y-40335099D01*
G01X32200340Y-40362092D01*
G01X32251503Y-40385711D01*
G01X32303756Y-40405956D01*
G01X32356932Y-40422826D01*
G01X32410863Y-40436323D01*
G01X32465380Y-40446445D01*
G01X32520317Y-40453193D01*
G01X32575505Y-40456568D01*
G01X32630778Y-40456568D01*
G01X32685966Y-40453193D01*
G01X32740903Y-40446445D01*
G01X32795420Y-40436323D01*
G01X32849351Y-40422826D01*
G01X32902527Y-40405956D01*
G01X32954780Y-40385711D01*
G01X33005943Y-40362092D01*
G01X33055849Y-40335099D01*
G01X33104329Y-40304732D01*
G01X33151215Y-40270990D01*
G01X33196341Y-40233875D01*
G01X33239538Y-40193385D01*
G01X33239538Y-40193385D01*
G01X33239538Y-40193385D01*
G01X33280027Y-40150189D01*
G01X33317143Y-40105063D01*
G01X33350884Y-40058176D01*
G01X33381251Y-40009697D01*
G01X33408244Y-39959791D01*
G01X33431863Y-39908628D01*
G01X33452108Y-39856374D01*
G01X33468978Y-39803199D01*
G01X33482475Y-39749268D01*
G01X33492597Y-39694751D01*
G01X33499346Y-39639814D01*
G01X33502720Y-39584625D01*
G01X33502720Y-39529353D01*
G01X33499346Y-39474165D01*
G01X33492597Y-39419228D01*
G01X33482475Y-39364710D01*
G01X33468978Y-39310780D01*
G01X33452108Y-39257604D01*
G01X33431863Y-39205351D01*
G01X33408244Y-39154187D01*
G01X33381251Y-39104282D01*
G01X33350884Y-39055802D01*
G01X33317143Y-39008916D01*
G01X33280027Y-38963790D01*
G01X33239538Y-38920593D01*
G01X33239538Y-38920593D01*
G01X33239538Y-38920593D01*
G01X33196341Y-38880104D01*
G01X33151215Y-38842988D01*
G01X33104329Y-38809247D01*
G01X33055849Y-38778880D01*
G01X33005943Y-38751887D01*
G01X32954780Y-38728268D01*
G01X32902527Y-38708023D01*
G01X32849351Y-38691152D01*
G01X32795420Y-38677656D01*
G01X32740903Y-38667533D01*
G01X32685966Y-38660785D01*
G01X32630778Y-38657411D01*
G01X32575505Y-38657411D01*
G01X32520317Y-38660785D01*
G01X32465380Y-38667533D01*
G01X32410863Y-38677656D01*
G01X32356932Y-38691152D01*
G01X32303756Y-38708023D01*
G01X32251503Y-38728268D01*
G01X32200340Y-38751887D01*
G01X32150434Y-38778880D01*
G01X32101954Y-38809247D01*
G01X32055068Y-38842988D01*
G01X32009942Y-38880104D01*
G01X31966745Y-38920593D01*
G01X31966745Y-38920593D01*
G01X31966745Y-38920593D01*
G01X31926256Y-38963790D01*
G01X31889140Y-39008916D01*
G01X31855399Y-39055802D01*
G01X31825032Y-39104282D01*
G01X31798039Y-39154187D01*
G01X31774420Y-39205351D01*
G01X31754175Y-39257604D01*
G01X31737305Y-39310780D01*
G01X31723808Y-39364710D01*
G01X31713686Y-39419228D01*
G01X31706937Y-39474165D01*
G01X31703563Y-39529353D01*
G01X31703563Y-39584625D01*
G01X31706937Y-39639814D01*
G01X31713686Y-39694751D01*
G01X31723808Y-39749268D01*
G01X31737305Y-39803199D01*
G01X31754175Y-39856374D01*
G01X31774420Y-39908628D01*
G01X31798039Y-39959791D01*
G01X31825032Y-40009697D01*
G01X31855399Y-40058176D01*
G01X31889140Y-40105063D01*
G01X31926256Y-40150189D01*
G01X31966745Y-40193385D01*
G01X31966745Y-40193385D01*
G37*
G36*
G01X25871485Y-34098125D02*
G01X25871485Y-34098125D01*
G01X25914682Y-34138615D01*
G01X25959807Y-34175730D01*
G01X26006694Y-34209471D01*
G01X26055174Y-34239838D01*
G01X26105079Y-34266831D01*
G01X26156242Y-34290450D01*
G01X26208496Y-34310695D01*
G01X26261672Y-34327566D01*
G01X26315602Y-34341062D01*
G01X26370120Y-34351185D01*
G01X26425057Y-34357933D01*
G01X26480245Y-34361307D01*
G01X26535517Y-34361307D01*
G01X26590705Y-34357933D01*
G01X26645642Y-34351185D01*
G01X26700160Y-34341062D01*
G01X26754090Y-34327566D01*
G01X26807266Y-34310695D01*
G01X26859520Y-34290450D01*
G01X26910683Y-34266831D01*
G01X26960588Y-34239838D01*
G01X27009068Y-34209471D01*
G01X27055955Y-34175730D01*
G01X27101080Y-34138615D01*
G01X27144277Y-34098125D01*
G01X27144277Y-34098125D01*
G01X27144277Y-34098125D01*
G01X27184767Y-34054928D01*
G01X27221882Y-34009802D01*
G01X27255623Y-33962916D01*
G01X27285991Y-33914436D01*
G01X27312984Y-33864531D01*
G01X27336603Y-33813367D01*
G01X27356847Y-33761114D01*
G01X27373718Y-33707938D01*
G01X27387214Y-33654008D01*
G01X27397337Y-33599490D01*
G01X27404085Y-33544553D01*
G01X27407459Y-33489365D01*
G01X27407459Y-33434093D01*
G01X27404085Y-33378904D01*
G01X27397337Y-33323968D01*
G01X27387214Y-33269450D01*
G01X27373718Y-33215519D01*
G01X27356847Y-33162344D01*
G01X27336603Y-33110090D01*
G01X27312984Y-33058927D01*
G01X27285991Y-33009022D01*
G01X27255623Y-32960542D01*
G01X27221882Y-32913655D01*
G01X27184767Y-32868530D01*
G01X27144277Y-32825333D01*
G01X27144277Y-32825333D01*
G01X27144277Y-32825333D01*
G01X27101080Y-32784843D01*
G01X27055955Y-32747728D01*
G01X27009068Y-32713986D01*
G01X26960588Y-32683619D01*
G01X26910683Y-32656626D01*
G01X26859520Y-32633007D01*
G01X26807266Y-32612763D01*
G01X26754090Y-32595892D01*
G01X26700160Y-32582395D01*
G01X26645642Y-32572273D01*
G01X26590705Y-32565525D01*
G01X26535517Y-32562151D01*
G01X26480245Y-32562151D01*
G01X26425057Y-32565525D01*
G01X26370120Y-32572273D01*
G01X26315602Y-32582395D01*
G01X26261672Y-32595892D01*
G01X26208496Y-32612763D01*
G01X26156242Y-32633007D01*
G01X26105079Y-32656626D01*
G01X26055174Y-32683619D01*
G01X26006694Y-32713986D01*
G01X25959807Y-32747728D01*
G01X25914682Y-32784843D01*
G01X25871485Y-32825333D01*
G01X25871485Y-32825333D01*
G01X25871485Y-32825333D01*
G01X25830995Y-32868530D01*
G01X25793880Y-32913655D01*
G01X25760139Y-32960542D01*
G01X25729771Y-33009022D01*
G01X25702778Y-33058927D01*
G01X25679159Y-33110090D01*
G01X25658915Y-33162344D01*
G01X25642044Y-33215519D01*
G01X25628548Y-33269450D01*
G01X25618425Y-33323968D01*
G01X25611677Y-33378904D01*
G01X25608303Y-33434093D01*
G01X25608303Y-33489365D01*
G01X25611677Y-33544553D01*
G01X25618425Y-33599490D01*
G01X25628548Y-33654008D01*
G01X25642044Y-33707938D01*
G01X25658915Y-33761114D01*
G01X25679159Y-33813367D01*
G01X25702778Y-33864531D01*
G01X25729771Y-33914436D01*
G01X25760139Y-33962916D01*
G01X25793880Y-34009802D01*
G01X25830995Y-34054928D01*
G01X25871485Y-34098125D01*
G01X25871485Y-34098125D01*
G37*
G36*
G01X64448308Y-31203422D02*
G01X64448308Y-31203422D01*
G01X64450222Y-31262597D01*
G01X64455887Y-31320751D01*
G01X64465182Y-31377763D01*
G01X64477989Y-31433516D01*
G01X64494191Y-31487892D01*
G01X64513668Y-31540771D01*
G01X64536301Y-31592035D01*
G01X64561973Y-31641565D01*
G01X64590564Y-31689243D01*
G01X64621956Y-31734950D01*
G01X64656030Y-31778568D01*
G01X64692669Y-31819978D01*
G01X64731752Y-31859062D01*
G01X64773162Y-31895700D01*
G01X64816780Y-31929774D01*
G01X64862487Y-31961166D01*
G01X64910165Y-31989758D01*
G01X64959696Y-32015429D01*
G01X65010960Y-32038063D01*
G01X65063839Y-32057540D01*
G01X65118214Y-32073741D01*
G01X65173967Y-32086549D01*
G01X65230980Y-32095844D01*
G01X65289133Y-32101508D01*
G01X65348308Y-32103422D01*
G01X65348308Y-32103422D01*
G01X65348308Y-32103422D01*
G01X65407483Y-32101508D01*
G01X65465637Y-32095844D01*
G01X65522649Y-32086549D01*
G01X65578402Y-32073741D01*
G01X65632778Y-32057540D01*
G01X65685657Y-32038063D01*
G01X65736921Y-32015429D01*
G01X65786451Y-31989758D01*
G01X65834129Y-31961166D01*
G01X65879836Y-31929774D01*
G01X65923454Y-31895700D01*
G01X65964864Y-31859062D01*
G01X66003948Y-31819978D01*
G01X66040586Y-31778568D01*
G01X66074660Y-31734950D01*
G01X66106052Y-31689243D01*
G01X66134644Y-31641565D01*
G01X66160315Y-31592035D01*
G01X66182949Y-31540771D01*
G01X66202426Y-31487892D01*
G01X66218627Y-31433516D01*
G01X66231435Y-31377763D01*
G01X66240730Y-31320751D01*
G01X66246394Y-31262597D01*
G01X66248308Y-31203422D01*
G01X66248308Y-31203422D01*
G01X66248308Y-31203422D01*
G01X66246394Y-31144247D01*
G01X66240730Y-31086094D01*
G01X66231435Y-31029081D01*
G01X66218627Y-30973328D01*
G01X66202426Y-30918953D01*
G01X66182949Y-30866074D01*
G01X66160315Y-30814810D01*
G01X66134644Y-30765279D01*
G01X66106052Y-30717601D01*
G01X66074660Y-30671894D01*
G01X66040586Y-30628276D01*
G01X66003948Y-30586866D01*
G01X65964864Y-30547783D01*
G01X65923454Y-30511144D01*
G01X65879836Y-30477070D01*
G01X65834129Y-30445678D01*
G01X65786451Y-30417087D01*
G01X65736921Y-30391415D01*
G01X65685657Y-30368782D01*
G01X65632778Y-30349305D01*
G01X65578402Y-30333103D01*
G01X65522649Y-30320296D01*
G01X65465637Y-30311001D01*
G01X65407483Y-30305337D01*
G01X65348308Y-30303422D01*
G01X65348308Y-30303422D01*
G01X65348308Y-30303422D01*
G01X65289133Y-30305337D01*
G01X65230980Y-30311001D01*
G01X65173967Y-30320296D01*
G01X65118214Y-30333103D01*
G01X65063839Y-30349305D01*
G01X65010960Y-30368782D01*
G01X64959696Y-30391415D01*
G01X64910165Y-30417087D01*
G01X64862487Y-30445678D01*
G01X64816780Y-30477070D01*
G01X64773162Y-30511144D01*
G01X64731752Y-30547783D01*
G01X64692669Y-30586866D01*
G01X64656030Y-30628276D01*
G01X64621956Y-30671894D01*
G01X64590564Y-30717601D01*
G01X64561973Y-30765279D01*
G01X64536301Y-30814810D01*
G01X64513668Y-30866074D01*
G01X64494191Y-30918953D01*
G01X64477989Y-30973328D01*
G01X64465182Y-31029081D01*
G01X64455887Y-31086094D01*
G01X64450222Y-31144247D01*
G01X64448308Y-31203422D01*
G01X64448308Y-31203422D01*
G37*
G36*
G01X64448308Y-22583422D02*
G01X64448308Y-22583422D01*
G01X64450222Y-22642597D01*
G01X64455887Y-22700751D01*
G01X64465182Y-22757763D01*
G01X64477989Y-22813516D01*
G01X64494191Y-22867892D01*
G01X64513668Y-22920771D01*
G01X64536301Y-22972035D01*
G01X64561973Y-23021565D01*
G01X64590564Y-23069243D01*
G01X64621956Y-23114950D01*
G01X64656030Y-23158568D01*
G01X64692669Y-23199978D01*
G01X64731752Y-23239062D01*
G01X64773162Y-23275700D01*
G01X64816780Y-23309774D01*
G01X64862487Y-23341166D01*
G01X64910165Y-23369758D01*
G01X64959696Y-23395429D01*
G01X65010960Y-23418063D01*
G01X65063839Y-23437540D01*
G01X65118214Y-23453741D01*
G01X65173967Y-23466549D01*
G01X65230980Y-23475844D01*
G01X65289133Y-23481508D01*
G01X65348308Y-23483422D01*
G01X65348308Y-23483422D01*
G01X65348308Y-23483422D01*
G01X65407483Y-23481508D01*
G01X65465637Y-23475844D01*
G01X65522649Y-23466549D01*
G01X65578402Y-23453741D01*
G01X65632778Y-23437540D01*
G01X65685657Y-23418063D01*
G01X65736921Y-23395429D01*
G01X65786451Y-23369758D01*
G01X65834129Y-23341166D01*
G01X65879836Y-23309774D01*
G01X65923454Y-23275700D01*
G01X65964864Y-23239062D01*
G01X66003948Y-23199978D01*
G01X66040586Y-23158568D01*
G01X66074660Y-23114950D01*
G01X66106052Y-23069243D01*
G01X66134644Y-23021565D01*
G01X66160315Y-22972035D01*
G01X66182949Y-22920771D01*
G01X66202426Y-22867892D01*
G01X66218627Y-22813516D01*
G01X66231435Y-22757763D01*
G01X66240730Y-22700751D01*
G01X66246394Y-22642597D01*
G01X66248308Y-22583422D01*
G01X66248308Y-22583422D01*
G01X66248308Y-22583422D01*
G01X66246394Y-22524247D01*
G01X66240730Y-22466094D01*
G01X66231435Y-22409081D01*
G01X66218627Y-22353328D01*
G01X66202426Y-22298953D01*
G01X66182949Y-22246074D01*
G01X66160315Y-22194810D01*
G01X66134644Y-22145279D01*
G01X66106052Y-22097601D01*
G01X66074660Y-22051894D01*
G01X66040586Y-22008276D01*
G01X66003948Y-21966866D01*
G01X65964864Y-21927783D01*
G01X65923454Y-21891144D01*
G01X65879836Y-21857070D01*
G01X65834129Y-21825678D01*
G01X65786451Y-21797087D01*
G01X65736921Y-21771415D01*
G01X65685657Y-21748782D01*
G01X65632778Y-21729305D01*
G01X65578402Y-21713103D01*
G01X65522649Y-21700296D01*
G01X65465637Y-21691001D01*
G01X65407483Y-21685337D01*
G01X65348308Y-21683422D01*
G01X65348308Y-21683422D01*
G01X65348308Y-21683422D01*
G01X65289133Y-21685337D01*
G01X65230980Y-21691001D01*
G01X65173967Y-21700296D01*
G01X65118214Y-21713103D01*
G01X65063839Y-21729305D01*
G01X65010960Y-21748782D01*
G01X64959696Y-21771415D01*
G01X64910165Y-21797087D01*
G01X64862487Y-21825678D01*
G01X64816780Y-21857070D01*
G01X64773162Y-21891144D01*
G01X64731752Y-21927783D01*
G01X64692669Y-21966866D01*
G01X64656030Y-22008276D01*
G01X64621956Y-22051894D01*
G01X64590564Y-22097601D01*
G01X64561973Y-22145279D01*
G01X64536301Y-22194810D01*
G01X64513668Y-22246074D01*
G01X64494191Y-22298953D01*
G01X64477989Y-22353328D01*
G01X64465182Y-22409081D01*
G01X64455887Y-22466094D01*
G01X64450222Y-22524247D01*
G01X64448308Y-22583422D01*
G01X64448308Y-22583422D01*
G37*
G36*
G01X61895517Y-71612511D02*
G01X61895517Y-71612511D01*
G01X61938714Y-71653001D01*
G01X61983840Y-71690116D01*
G01X62030726Y-71723858D01*
G01X62079206Y-71754225D01*
G01X62129112Y-71781218D01*
G01X62180275Y-71804837D01*
G01X62232528Y-71825082D01*
G01X62285704Y-71841952D01*
G01X62339635Y-71855449D01*
G01X62394152Y-71865571D01*
G01X62449089Y-71872319D01*
G01X62504277Y-71875694D01*
G01X62559550Y-71875694D01*
G01X62614738Y-71872319D01*
G01X62669675Y-71865571D01*
G01X62724192Y-71855449D01*
G01X62778123Y-71841952D01*
G01X62831299Y-71825082D01*
G01X62883552Y-71804837D01*
G01X62934715Y-71781218D01*
G01X62984621Y-71754225D01*
G01X63033101Y-71723858D01*
G01X63079987Y-71690116D01*
G01X63125113Y-71653001D01*
G01X63168310Y-71612511D01*
G01X63168310Y-71612511D01*
G01X63168310Y-71612511D01*
G01X63208799Y-71569315D01*
G01X63245915Y-71524189D01*
G01X63279656Y-71477302D01*
G01X63310023Y-71428823D01*
G01X63337016Y-71378917D01*
G01X63360635Y-71327754D01*
G01X63380880Y-71275500D01*
G01X63397750Y-71222325D01*
G01X63411247Y-71168394D01*
G01X63421369Y-71113877D01*
G01X63428118Y-71058940D01*
G01X63431492Y-71003751D01*
G01X63431492Y-70948479D01*
G01X63428118Y-70893291D01*
G01X63421369Y-70838354D01*
G01X63411247Y-70783836D01*
G01X63397750Y-70729906D01*
G01X63380880Y-70676730D01*
G01X63360635Y-70624477D01*
G01X63337016Y-70573313D01*
G01X63310023Y-70523408D01*
G01X63279656Y-70474928D01*
G01X63245915Y-70428042D01*
G01X63208799Y-70382916D01*
G01X63168310Y-70339719D01*
G01X63168310Y-70339719D01*
G01X63168310Y-70339719D01*
G01X63125113Y-70299230D01*
G01X63079987Y-70262114D01*
G01X63033101Y-70228373D01*
G01X62984621Y-70198006D01*
G01X62934715Y-70171013D01*
G01X62883552Y-70147394D01*
G01X62831299Y-70127149D01*
G01X62778123Y-70110278D01*
G01X62724192Y-70096782D01*
G01X62669675Y-70086659D01*
G01X62614738Y-70079911D01*
G01X62559550Y-70076537D01*
G01X62504277Y-70076537D01*
G01X62449089Y-70079911D01*
G01X62394152Y-70086659D01*
G01X62339635Y-70096782D01*
G01X62285704Y-70110278D01*
G01X62232528Y-70127149D01*
G01X62180275Y-70147394D01*
G01X62129112Y-70171013D01*
G01X62079206Y-70198006D01*
G01X62030726Y-70228373D01*
G01X61983840Y-70262114D01*
G01X61938714Y-70299230D01*
G01X61895517Y-70339719D01*
G01X61895517Y-70339719D01*
G01X61895517Y-70339719D01*
G01X61855028Y-70382916D01*
G01X61817912Y-70428042D01*
G01X61784171Y-70474928D01*
G01X61753804Y-70523408D01*
G01X61726811Y-70573313D01*
G01X61703192Y-70624477D01*
G01X61682947Y-70676730D01*
G01X61666077Y-70729906D01*
G01X61652580Y-70783836D01*
G01X61642458Y-70838354D01*
G01X61635709Y-70893291D01*
G01X61632335Y-70948479D01*
G01X61632335Y-71003751D01*
G01X61635709Y-71058940D01*
G01X61642458Y-71113877D01*
G01X61652580Y-71168394D01*
G01X61666077Y-71222325D01*
G01X61682947Y-71275500D01*
G01X61703192Y-71327754D01*
G01X61726811Y-71378917D01*
G01X61753804Y-71428823D01*
G01X61784171Y-71477302D01*
G01X61817912Y-71524189D01*
G01X61855028Y-71569315D01*
G01X61895517Y-71612511D01*
G01X61895517Y-71612511D01*
G37*
G36*
G01X55800257Y-65517251D02*
G01X55800257Y-65517251D01*
G01X55843454Y-65557741D01*
G01X55888579Y-65594856D01*
G01X55935466Y-65628597D01*
G01X55983946Y-65658964D01*
G01X56033851Y-65685957D01*
G01X56085014Y-65709576D01*
G01X56137268Y-65729821D01*
G01X56190444Y-65746692D01*
G01X56244374Y-65760188D01*
G01X56298892Y-65770311D01*
G01X56353829Y-65777059D01*
G01X56409017Y-65780433D01*
G01X56464289Y-65780433D01*
G01X56519477Y-65777059D01*
G01X56574414Y-65770311D01*
G01X56628932Y-65760188D01*
G01X56682862Y-65746692D01*
G01X56736038Y-65729821D01*
G01X56788292Y-65709576D01*
G01X56839455Y-65685957D01*
G01X56889360Y-65658964D01*
G01X56937840Y-65628597D01*
G01X56984727Y-65594856D01*
G01X57029852Y-65557741D01*
G01X57073049Y-65517251D01*
G01X57073049Y-65517251D01*
G01X57073049Y-65517251D01*
G01X57113539Y-65474054D01*
G01X57150654Y-65428928D01*
G01X57184395Y-65382042D01*
G01X57214763Y-65333562D01*
G01X57241756Y-65283657D01*
G01X57265375Y-65232493D01*
G01X57285619Y-65180240D01*
G01X57302490Y-65127064D01*
G01X57315986Y-65073134D01*
G01X57326109Y-65018616D01*
G01X57332857Y-64963679D01*
G01X57336231Y-64908491D01*
G01X57336231Y-64853219D01*
G01X57332857Y-64798030D01*
G01X57326109Y-64743094D01*
G01X57315986Y-64688576D01*
G01X57302490Y-64634645D01*
G01X57285619Y-64581470D01*
G01X57265375Y-64529216D01*
G01X57241756Y-64478053D01*
G01X57214763Y-64428148D01*
G01X57184395Y-64379668D01*
G01X57150654Y-64332781D01*
G01X57113539Y-64287656D01*
G01X57073049Y-64244459D01*
G01X57073049Y-64244459D01*
G01X57073049Y-64244459D01*
G01X57029852Y-64203969D01*
G01X56984727Y-64166854D01*
G01X56937840Y-64133112D01*
G01X56889360Y-64102745D01*
G01X56839455Y-64075752D01*
G01X56788292Y-64052133D01*
G01X56736038Y-64031889D01*
G01X56682862Y-64015018D01*
G01X56628932Y-64001521D01*
G01X56574414Y-63991399D01*
G01X56519477Y-63984651D01*
G01X56464289Y-63981277D01*
G01X56409017Y-63981277D01*
G01X56353829Y-63984651D01*
G01X56298892Y-63991399D01*
G01X56244374Y-64001521D01*
G01X56190444Y-64015018D01*
G01X56137268Y-64031889D01*
G01X56085014Y-64052133D01*
G01X56033851Y-64075752D01*
G01X55983946Y-64102745D01*
G01X55935466Y-64133112D01*
G01X55888579Y-64166854D01*
G01X55843454Y-64203969D01*
G01X55800257Y-64244459D01*
G01X55800257Y-64244459D01*
G01X55800257Y-64244459D01*
G01X55759767Y-64287656D01*
G01X55722652Y-64332781D01*
G01X55688911Y-64379668D01*
G01X55658543Y-64428148D01*
G01X55631550Y-64478053D01*
G01X55607931Y-64529216D01*
G01X55587687Y-64581470D01*
G01X55570816Y-64634645D01*
G01X55557320Y-64688576D01*
G01X55547197Y-64743094D01*
G01X55540449Y-64798030D01*
G01X55537075Y-64853219D01*
G01X55537075Y-64908491D01*
G01X55540449Y-64963679D01*
G01X55547197Y-65018616D01*
G01X55557320Y-65073134D01*
G01X55570816Y-65127064D01*
G01X55587687Y-65180240D01*
G01X55607931Y-65232493D01*
G01X55631550Y-65283657D01*
G01X55658543Y-65333562D01*
G01X55688911Y-65382042D01*
G01X55722652Y-65428928D01*
G01X55759767Y-65474054D01*
G01X55800257Y-65517251D01*
G01X55800257Y-65517251D01*
G37*
G36*
G01X32177638Y-60921520D02*
G01X32177638Y-60921520D01*
G01X32235293Y-60934987D01*
G01X32292930Y-60944567D01*
G01X32350406Y-60950344D01*
G01X32407574Y-60952403D01*
G01X32464290Y-60950827D01*
G01X32520408Y-60945700D01*
G01X32575784Y-60937106D01*
G01X32630270Y-60925128D01*
G01X32683724Y-60909852D01*
G01X32735999Y-60891359D01*
G01X32786950Y-60869735D01*
G01X32836431Y-60845063D01*
G01X32884298Y-60817427D01*
G01X32930406Y-60786910D01*
G01X32974608Y-60753598D01*
G01X33016761Y-60717573D01*
G01X33056718Y-60678919D01*
G01X33094334Y-60637721D01*
G01X33129464Y-60594062D01*
G01X33161963Y-60548025D01*
G01X33191686Y-60499696D01*
G01X33218488Y-60449157D01*
G01X33242222Y-60396493D01*
G01X33262744Y-60341788D01*
G01X33279909Y-60285124D01*
G01X33279909Y-60285124D01*
G01X33279909Y-60285124D01*
G01X33293375Y-60227470D01*
G01X33302955Y-60169832D01*
G01X33308733Y-60112357D01*
G01X33310792Y-60055188D01*
G01X33309216Y-59998472D01*
G01X33304089Y-59942354D01*
G01X33295495Y-59886979D01*
G01X33283517Y-59832492D01*
G01X33268240Y-59779039D01*
G01X33249748Y-59726764D01*
G01X33228123Y-59675813D01*
G01X33203451Y-59626331D01*
G01X33175815Y-59578464D01*
G01X33145299Y-59532357D01*
G01X33111986Y-59488154D01*
G01X33075961Y-59446002D01*
G01X33037308Y-59406045D01*
G01X32996109Y-59368429D01*
G01X32952450Y-59333298D01*
G01X32906414Y-59300799D01*
G01X32858085Y-59271076D01*
G01X32807546Y-59244275D01*
G01X32754882Y-59220541D01*
G01X32700176Y-59200019D01*
G01X32643513Y-59182854D01*
G01X32643513Y-59182854D01*
G01X32643513Y-59182854D01*
G01X32585858Y-59169387D01*
G01X32528221Y-59159807D01*
G01X32470745Y-59154030D01*
G01X32413577Y-59151971D01*
G01X32356861Y-59153547D01*
G01X32300743Y-59158674D01*
G01X32245368Y-59167268D01*
G01X32190881Y-59179246D01*
G01X32137427Y-59194522D01*
G01X32085152Y-59213015D01*
G01X32034202Y-59234639D01*
G01X31984720Y-59259311D01*
G01X31936853Y-59286947D01*
G01X31890745Y-59317464D01*
G01X31846543Y-59350776D01*
G01X31804391Y-59386801D01*
G01X31764434Y-59425455D01*
G01X31726817Y-59466653D01*
G01X31691687Y-59510312D01*
G01X31659188Y-59556349D01*
G01X31629465Y-59604678D01*
G01X31602664Y-59655217D01*
G01X31578929Y-59707881D01*
G01X31558407Y-59762586D01*
G01X31541242Y-59819250D01*
G01X31541242Y-59819250D01*
G01X31541242Y-59819250D01*
G01X31527776Y-59876904D01*
G01X31518196Y-59934542D01*
G01X31512418Y-59992017D01*
G01X31510359Y-60049186D01*
G01X31511935Y-60105902D01*
G01X31517062Y-60162020D01*
G01X31525657Y-60217395D01*
G01X31537634Y-60271882D01*
G01X31552911Y-60325335D01*
G01X31571404Y-60377610D01*
G01X31593028Y-60428561D01*
G01X31617700Y-60478043D01*
G01X31645336Y-60525910D01*
G01X31675852Y-60572017D01*
G01X31709165Y-60616220D01*
G01X31745190Y-60658372D01*
G01X31783843Y-60698329D01*
G01X31825042Y-60735945D01*
G01X31868701Y-60771076D01*
G01X31914737Y-60803575D01*
G01X31963067Y-60833298D01*
G01X32013605Y-60860099D01*
G01X32066269Y-60883833D01*
G01X32120975Y-60904355D01*
G01X32177638Y-60921520D01*
G01X32177638Y-60921520D01*
G37*
G36*
G01X23851358Y-58690500D02*
G01X23851358Y-58690500D01*
G01X23909012Y-58703967D01*
G01X23966650Y-58713547D01*
G01X24024125Y-58719324D01*
G01X24081294Y-58721383D01*
G01X24138010Y-58719807D01*
G01X24194128Y-58714680D01*
G01X24249503Y-58706086D01*
G01X24303990Y-58694108D01*
G01X24357443Y-58678831D01*
G01X24409718Y-58660339D01*
G01X24460669Y-58638715D01*
G01X24510150Y-58614043D01*
G01X24558018Y-58586406D01*
G01X24604125Y-58555890D01*
G01X24648328Y-58522578D01*
G01X24690480Y-58486553D01*
G01X24730437Y-58447899D01*
G01X24768053Y-58406701D01*
G01X24803184Y-58363041D01*
G01X24835683Y-58317005D01*
G01X24865406Y-58268676D01*
G01X24892207Y-58218137D01*
G01X24915941Y-58165473D01*
G01X24936463Y-58110767D01*
G01X24953628Y-58054104D01*
G01X24953628Y-58054104D01*
G01X24953628Y-58054104D01*
G01X24967095Y-57996450D01*
G01X24976675Y-57938812D01*
G01X24982452Y-57881336D01*
G01X24984511Y-57824168D01*
G01X24982935Y-57767452D01*
G01X24977808Y-57711334D01*
G01X24969214Y-57655959D01*
G01X24957236Y-57601472D01*
G01X24941959Y-57548018D01*
G01X24923467Y-57495744D01*
G01X24901843Y-57444793D01*
G01X24877171Y-57395311D01*
G01X24849535Y-57347444D01*
G01X24819018Y-57301337D01*
G01X24785706Y-57257134D01*
G01X24749681Y-57214982D01*
G01X24711027Y-57175025D01*
G01X24669829Y-57137409D01*
G01X24626170Y-57102278D01*
G01X24580133Y-57069779D01*
G01X24531804Y-57040056D01*
G01X24481265Y-57013255D01*
G01X24428601Y-56989521D01*
G01X24373896Y-56968998D01*
G01X24317232Y-56951834D01*
G01X24317232Y-56951834D01*
G01X24317232Y-56951834D01*
G01X24259578Y-56938367D01*
G01X24201940Y-56928787D01*
G01X24144465Y-56923009D01*
G01X24087296Y-56920951D01*
G01X24030580Y-56922527D01*
G01X23974462Y-56927654D01*
G01X23919087Y-56936248D01*
G01X23864600Y-56948225D01*
G01X23811147Y-56963502D01*
G01X23758872Y-56981995D01*
G01X23707921Y-57003619D01*
G01X23658439Y-57028291D01*
G01X23610572Y-57055927D01*
G01X23564465Y-57086444D01*
G01X23520262Y-57119756D01*
G01X23478110Y-57155781D01*
G01X23438153Y-57194435D01*
G01X23400537Y-57235633D01*
G01X23365406Y-57279292D01*
G01X23332907Y-57325328D01*
G01X23303184Y-57373658D01*
G01X23276383Y-57424196D01*
G01X23252649Y-57476861D01*
G01X23232127Y-57531566D01*
G01X23214962Y-57588230D01*
G01X23214962Y-57588230D01*
G01X23214962Y-57588230D01*
G01X23201495Y-57645884D01*
G01X23191915Y-57703522D01*
G01X23186138Y-57760997D01*
G01X23184079Y-57818166D01*
G01X23185655Y-57874882D01*
G01X23190782Y-57931000D01*
G01X23199376Y-57986375D01*
G01X23211354Y-58040862D01*
G01X23226630Y-58094315D01*
G01X23245123Y-58146590D01*
G01X23266747Y-58197541D01*
G01X23291419Y-58247022D01*
G01X23319055Y-58294890D01*
G01X23349572Y-58340997D01*
G01X23382884Y-58385200D01*
G01X23418909Y-58427352D01*
G01X23457563Y-58467309D01*
G01X23498761Y-58504925D01*
G01X23542420Y-58540056D01*
G01X23588457Y-58572555D01*
G01X23636786Y-58602278D01*
G01X23687325Y-58629079D01*
G01X23739989Y-58652813D01*
G01X23794694Y-58673335D01*
G01X23851358Y-58690500D01*
G01X23851358Y-58690500D01*
G37*
G36*
G01X63645638Y-59912642D02*
G01X63645638Y-59912642D01*
G01X63605148Y-59955839D01*
G01X63568033Y-60000965D01*
G01X63534292Y-60047851D01*
G01X63503924Y-60096331D01*
G01X63476931Y-60146237D01*
G01X63453312Y-60197400D01*
G01X63433068Y-60249653D01*
G01X63416197Y-60302829D01*
G01X63402701Y-60356760D01*
G01X63392578Y-60411277D01*
G01X63385830Y-60466214D01*
G01X63382456Y-60521402D01*
G01X63382456Y-60576675D01*
G01X63385830Y-60631863D01*
G01X63392578Y-60686800D01*
G01X63402701Y-60741317D01*
G01X63416197Y-60795248D01*
G01X63433068Y-60848424D01*
G01X63453312Y-60900677D01*
G01X63476931Y-60951840D01*
G01X63503924Y-61001746D01*
G01X63534292Y-61050226D01*
G01X63568033Y-61097112D01*
G01X63605148Y-61142238D01*
G01X63645638Y-61185435D01*
G01X63645638Y-61185435D01*
G01X63645638Y-61185435D01*
G01X63688835Y-61225924D01*
G01X63733960Y-61263040D01*
G01X63780847Y-61296781D01*
G01X63829327Y-61327148D01*
G01X63879232Y-61354141D01*
G01X63930395Y-61377760D01*
G01X63982649Y-61398005D01*
G01X64035825Y-61414875D01*
G01X64089755Y-61428372D01*
G01X64144273Y-61438494D01*
G01X64199210Y-61445243D01*
G01X64254398Y-61448617D01*
G01X64309670Y-61448617D01*
G01X64364858Y-61445243D01*
G01X64419795Y-61438494D01*
G01X64474313Y-61428372D01*
G01X64528243Y-61414875D01*
G01X64581419Y-61398005D01*
G01X64633673Y-61377760D01*
G01X64684836Y-61354141D01*
G01X64734741Y-61327148D01*
G01X64783221Y-61296781D01*
G01X64830108Y-61263040D01*
G01X64875233Y-61225924D01*
G01X64918430Y-61185435D01*
G01X64918430Y-61185435D01*
G01X64918430Y-61185435D01*
G01X64958920Y-61142238D01*
G01X64996035Y-61097112D01*
G01X65029776Y-61050226D01*
G01X65060144Y-61001746D01*
G01X65087137Y-60951840D01*
G01X65110756Y-60900677D01*
G01X65131000Y-60848424D01*
G01X65147871Y-60795248D01*
G01X65161367Y-60741317D01*
G01X65171490Y-60686800D01*
G01X65178238Y-60631863D01*
G01X65181612Y-60576675D01*
G01X65181612Y-60521402D01*
G01X65178238Y-60466214D01*
G01X65171490Y-60411277D01*
G01X65161367Y-60356760D01*
G01X65147871Y-60302829D01*
G01X65131000Y-60249653D01*
G01X65110756Y-60197400D01*
G01X65087137Y-60146237D01*
G01X65060144Y-60096331D01*
G01X65029776Y-60047851D01*
G01X64996035Y-60000965D01*
G01X64958920Y-59955839D01*
G01X64918430Y-59912642D01*
G01X64918430Y-59912642D01*
G01X64918430Y-59912642D01*
G01X64875233Y-59872153D01*
G01X64830108Y-59835037D01*
G01X64783221Y-59801296D01*
G01X64734741Y-59770929D01*
G01X64684836Y-59743936D01*
G01X64633673Y-59720317D01*
G01X64581419Y-59700072D01*
G01X64528243Y-59683202D01*
G01X64474313Y-59669705D01*
G01X64419795Y-59659583D01*
G01X64364858Y-59652834D01*
G01X64309670Y-59649460D01*
G01X64254398Y-59649460D01*
G01X64199210Y-59652834D01*
G01X64144273Y-59659583D01*
G01X64089755Y-59669705D01*
G01X64035825Y-59683202D01*
G01X63982649Y-59700072D01*
G01X63930395Y-59720317D01*
G01X63879232Y-59743936D01*
G01X63829327Y-59770929D01*
G01X63780847Y-59801296D01*
G01X63733960Y-59835037D01*
G01X63688835Y-59872153D01*
G01X63645638Y-59912642D01*
G01X63645638Y-59912642D01*
G37*
G36*
G01X69740898Y-53817382D02*
G01X69740898Y-53817382D01*
G01X69700409Y-53860579D01*
G01X69663293Y-53905704D01*
G01X69629552Y-53952591D01*
G01X69599185Y-54001071D01*
G01X69572192Y-54050976D01*
G01X69548573Y-54102139D01*
G01X69528328Y-54154393D01*
G01X69511458Y-54207569D01*
G01X69497961Y-54261499D01*
G01X69487839Y-54316017D01*
G01X69481090Y-54370954D01*
G01X69477716Y-54426142D01*
G01X69477716Y-54481414D01*
G01X69481090Y-54536603D01*
G01X69487839Y-54591539D01*
G01X69497961Y-54646057D01*
G01X69511458Y-54699987D01*
G01X69528328Y-54753163D01*
G01X69548573Y-54805417D01*
G01X69572192Y-54856580D01*
G01X69599185Y-54906485D01*
G01X69629552Y-54954965D01*
G01X69663293Y-55001852D01*
G01X69700409Y-55046977D01*
G01X69740898Y-55090174D01*
G01X69740898Y-55090174D01*
G01X69740898Y-55090174D01*
G01X69784095Y-55130664D01*
G01X69829221Y-55167779D01*
G01X69876107Y-55201520D01*
G01X69924587Y-55231888D01*
G01X69974493Y-55258881D01*
G01X70025656Y-55282500D01*
G01X70077909Y-55302744D01*
G01X70131085Y-55319615D01*
G01X70185016Y-55333112D01*
G01X70239533Y-55343234D01*
G01X70294470Y-55349982D01*
G01X70349658Y-55353356D01*
G01X70404931Y-55353356D01*
G01X70460119Y-55349982D01*
G01X70515056Y-55343234D01*
G01X70569573Y-55333112D01*
G01X70623504Y-55319615D01*
G01X70676680Y-55302744D01*
G01X70728933Y-55282500D01*
G01X70780096Y-55258881D01*
G01X70830002Y-55231888D01*
G01X70878482Y-55201520D01*
G01X70925368Y-55167779D01*
G01X70970494Y-55130664D01*
G01X71013691Y-55090174D01*
G01X71013691Y-55090174D01*
G01X71013691Y-55090174D01*
G01X71054180Y-55046977D01*
G01X71091296Y-55001852D01*
G01X71125037Y-54954965D01*
G01X71155404Y-54906485D01*
G01X71182397Y-54856580D01*
G01X71206016Y-54805417D01*
G01X71226261Y-54753163D01*
G01X71243131Y-54699987D01*
G01X71256628Y-54646057D01*
G01X71266750Y-54591539D01*
G01X71273499Y-54536603D01*
G01X71276873Y-54481414D01*
G01X71276873Y-54426142D01*
G01X71273499Y-54370954D01*
G01X71266750Y-54316017D01*
G01X71256628Y-54261499D01*
G01X71243131Y-54207569D01*
G01X71226261Y-54154393D01*
G01X71206016Y-54102139D01*
G01X71182397Y-54050976D01*
G01X71155404Y-54001071D01*
G01X71125037Y-53952591D01*
G01X71091296Y-53905704D01*
G01X71054180Y-53860579D01*
G01X71013691Y-53817382D01*
G01X71013691Y-53817382D01*
G01X71013691Y-53817382D01*
G01X70970494Y-53776892D01*
G01X70925368Y-53739777D01*
G01X70878482Y-53706036D01*
G01X70830002Y-53675668D01*
G01X70780096Y-53648675D01*
G01X70728933Y-53625057D01*
G01X70676680Y-53604812D01*
G01X70623504Y-53587941D01*
G01X70569573Y-53574445D01*
G01X70515056Y-53564322D01*
G01X70460119Y-53557574D01*
G01X70404931Y-53554200D01*
G01X70349658Y-53554200D01*
G01X70294470Y-53557574D01*
G01X70239533Y-53564322D01*
G01X70185016Y-53574445D01*
G01X70131085Y-53587941D01*
G01X70077909Y-53604812D01*
G01X70025656Y-53625057D01*
G01X69974493Y-53648675D01*
G01X69924587Y-53675668D01*
G01X69876107Y-53706036D01*
G01X69829221Y-53739777D01*
G01X69784095Y-53776892D01*
G01X69740898Y-53817382D01*
G01X69740898Y-53817382D01*
G37*
G36*
G01X20744548Y-32067327D02*
G01X20744548Y-32067327D01*
G01X20787744Y-32107816D01*
G01X20832870Y-32144932D01*
G01X20879757Y-32178673D01*
G01X20928236Y-32209040D01*
G01X20978142Y-32236033D01*
G01X21029305Y-32259652D01*
G01X21081558Y-32279897D01*
G01X21134734Y-32296767D01*
G01X21188665Y-32310264D01*
G01X21243182Y-32320386D01*
G01X21298119Y-32327135D01*
G01X21353308Y-32330509D01*
G01X21408580Y-32330509D01*
G01X21463768Y-32327135D01*
G01X21518705Y-32320386D01*
G01X21573222Y-32310264D01*
G01X21627153Y-32296767D01*
G01X21680329Y-32279897D01*
G01X21732582Y-32259652D01*
G01X21783745Y-32236033D01*
G01X21833651Y-32209040D01*
G01X21882131Y-32178673D01*
G01X21929017Y-32144932D01*
G01X21974143Y-32107816D01*
G01X22017340Y-32067327D01*
G01X22017340Y-32067327D01*
G01X22017340Y-32067327D01*
G01X22057829Y-32024130D01*
G01X22094945Y-31979004D01*
G01X22128686Y-31932118D01*
G01X22159053Y-31883638D01*
G01X22186046Y-31833732D01*
G01X22209665Y-31782569D01*
G01X22229910Y-31730316D01*
G01X22246781Y-31677140D01*
G01X22260277Y-31623209D01*
G01X22270399Y-31568692D01*
G01X22277148Y-31513755D01*
G01X22280522Y-31458567D01*
G01X22280522Y-31403294D01*
G01X22277148Y-31348106D01*
G01X22270399Y-31293169D01*
G01X22260277Y-31238652D01*
G01X22246781Y-31184721D01*
G01X22229910Y-31131545D01*
G01X22209665Y-31079292D01*
G01X22186046Y-31028129D01*
G01X22159053Y-30978223D01*
G01X22128686Y-30929743D01*
G01X22094945Y-30882857D01*
G01X22057829Y-30837731D01*
G01X22017340Y-30794534D01*
G01X22017340Y-30794534D01*
G01X22017340Y-30794534D01*
G01X21974143Y-30754045D01*
G01X21929017Y-30716929D01*
G01X21882131Y-30683188D01*
G01X21833651Y-30652821D01*
G01X21783745Y-30625828D01*
G01X21732582Y-30602209D01*
G01X21680329Y-30581964D01*
G01X21627153Y-30565094D01*
G01X21573222Y-30551597D01*
G01X21518705Y-30541475D01*
G01X21463768Y-30534726D01*
G01X21408580Y-30531352D01*
G01X21353308Y-30531352D01*
G01X21298119Y-30534726D01*
G01X21243182Y-30541475D01*
G01X21188665Y-30551597D01*
G01X21134734Y-30565094D01*
G01X21081558Y-30581964D01*
G01X21029305Y-30602209D01*
G01X20978142Y-30625828D01*
G01X20928236Y-30652821D01*
G01X20879757Y-30683188D01*
G01X20832870Y-30716929D01*
G01X20787744Y-30754045D01*
G01X20744548Y-30794534D01*
G01X20744548Y-30794534D01*
G01X20744548Y-30794534D01*
G01X20704058Y-30837731D01*
G01X20666943Y-30882857D01*
G01X20633201Y-30929743D01*
G01X20602834Y-30978223D01*
G01X20575841Y-31028129D01*
G01X20552222Y-31079292D01*
G01X20531977Y-31131545D01*
G01X20515107Y-31184721D01*
G01X20501610Y-31238652D01*
G01X20491488Y-31293169D01*
G01X20484740Y-31348106D01*
G01X20481365Y-31403294D01*
G01X20481365Y-31458567D01*
G01X20484740Y-31513755D01*
G01X20491488Y-31568692D01*
G01X20501610Y-31623209D01*
G01X20515107Y-31677140D01*
G01X20531977Y-31730316D01*
G01X20552222Y-31782569D01*
G01X20575841Y-31833732D01*
G01X20602834Y-31883638D01*
G01X20633201Y-31932118D01*
G01X20666943Y-31979004D01*
G01X20704058Y-32024130D01*
G01X20744548Y-32067327D01*
G01X20744548Y-32067327D01*
G37*
G36*
G01X22540599Y-32590586D02*
G01X22964863Y-32166322D01*
G01X22964863Y-32166322D01*
G01X23002048Y-32134689D01*
G01X23042727Y-32110086D01*
G01X23086027Y-32092513D01*
G01X23131074Y-32081969D01*
G01X23176995Y-32078454D01*
G01X23222915Y-32081969D01*
G01X23267962Y-32092513D01*
G01X23311262Y-32110086D01*
G01X23351942Y-32134689D01*
G01X23389127Y-32166322D01*
G01X23389127Y-32166322D01*
G01X23813391Y-32590586D01*
G01X24237655Y-33014850D01*
G01X24237655Y-33014850D01*
G01X24269287Y-33052035D01*
G01X24293890Y-33092715D01*
G01X24311464Y-33136014D01*
G01X24322008Y-33181061D01*
G01X24325523Y-33226982D01*
G01X24322008Y-33272902D01*
G01X24311464Y-33317949D01*
G01X24293890Y-33361249D01*
G01X24269287Y-33401929D01*
G01X24237655Y-33439114D01*
G01X24237655Y-33439114D01*
G01X23813391Y-33863378D01*
G01X23389127Y-34287642D01*
G01X23389127Y-34287642D01*
G01X23351942Y-34319274D01*
G01X23311262Y-34343877D01*
G01X23267962Y-34361451D01*
G01X23222915Y-34371995D01*
G01X23176995Y-34375510D01*
G01X23131074Y-34371995D01*
G01X23086027Y-34361451D01*
G01X23042727Y-34343877D01*
G01X23002048Y-34319274D01*
G01X22964863Y-34287642D01*
G01X22964863Y-34287642D01*
G01X22540599Y-33863378D01*
G01X22116335Y-33439114D01*
G01X22116335Y-33439114D01*
G01X22084702Y-33401929D01*
G01X22060099Y-33361249D01*
G01X22042526Y-33317949D01*
G01X22031982Y-33272902D01*
G01X22028467Y-33226982D01*
G01X22031982Y-33181061D01*
G01X22042526Y-33136014D01*
G01X22060099Y-33092715D01*
G01X22084702Y-33052035D01*
G01X22116335Y-33014850D01*
G01X22116335Y-33014850D01*
G01X22540599Y-32590586D01*
G37*
G36*
G01X19763471Y-60988424D02*
G01X19763471Y-60988424D01*
G01X19781911Y-60932163D01*
G01X19796478Y-60875579D01*
G01X19807243Y-60818826D01*
G01X19814276Y-60762054D01*
G01X19817649Y-60705417D01*
G01X19817433Y-60649066D01*
G01X19813698Y-60593152D01*
G01X19806515Y-60537829D01*
G01X19795954Y-60483247D01*
G01X19782088Y-60429560D01*
G01X19764987Y-60376918D01*
G01X19744721Y-60325474D01*
G01X19721362Y-60275381D01*
G01X19694981Y-60226789D01*
G01X19665648Y-60179851D01*
G01X19633433Y-60134720D01*
G01X19598409Y-60091546D01*
G01X19560646Y-60050482D01*
G01X19520215Y-60011680D01*
G01X19477187Y-59975292D01*
G01X19431632Y-59941470D01*
G01X19383621Y-59910366D01*
G01X19333226Y-59882132D01*
G01X19280517Y-59856920D01*
G01X19225565Y-59834882D01*
G01X19225565Y-59834882D01*
G01X19225565Y-59834882D01*
G01X19169304Y-59816442D01*
G01X19112721Y-59801875D01*
G01X19055967Y-59791110D01*
G01X18999196Y-59784077D01*
G01X18942559Y-59780704D01*
G01X18886207Y-59780920D01*
G01X18830294Y-59784655D01*
G01X18774970Y-59791838D01*
G01X18720389Y-59802398D01*
G01X18666701Y-59816264D01*
G01X18614059Y-59833366D01*
G01X18562616Y-59853631D01*
G01X18512522Y-59876990D01*
G01X18463930Y-59903372D01*
G01X18416993Y-59932705D01*
G01X18371861Y-59964919D01*
G01X18328687Y-59999943D01*
G01X18287623Y-60037707D01*
G01X18248822Y-60078138D01*
G01X18212434Y-60121166D01*
G01X18178612Y-60166721D01*
G01X18147508Y-60214732D01*
G01X18119274Y-60265127D01*
G01X18094062Y-60317836D01*
G01X18072024Y-60372788D01*
G01X18072024Y-60372788D01*
G01X18072024Y-60372788D01*
G01X18053584Y-60429049D01*
G01X18039017Y-60485632D01*
G01X18028252Y-60542386D01*
G01X18021218Y-60599157D01*
G01X18017845Y-60655794D01*
G01X18018062Y-60712146D01*
G01X18021797Y-60768059D01*
G01X18028980Y-60823383D01*
G01X18039540Y-60877964D01*
G01X18053406Y-60931652D01*
G01X18070507Y-60984293D01*
G01X18090773Y-61035737D01*
G01X18114132Y-61085831D01*
G01X18140514Y-61134422D01*
G01X18169847Y-61181360D01*
G01X18202061Y-61226492D01*
G01X18237085Y-61269666D01*
G01X18274848Y-61310729D01*
G01X18315279Y-61349531D01*
G01X18358308Y-61385919D01*
G01X18403863Y-61419741D01*
G01X18451873Y-61450845D01*
G01X18502268Y-61479079D01*
G01X18554977Y-61504291D01*
G01X18609929Y-61526329D01*
G01X18609929Y-61526329D01*
G01X18609929Y-61526329D01*
G01X18666190Y-61544769D01*
G01X18722774Y-61559336D01*
G01X18779527Y-61570101D01*
G01X18836298Y-61577135D01*
G01X18892936Y-61580508D01*
G01X18949287Y-61580291D01*
G01X19005201Y-61576556D01*
G01X19060524Y-61569373D01*
G01X19115106Y-61558813D01*
G01X19168793Y-61544947D01*
G01X19221435Y-61527846D01*
G01X19272879Y-61507580D01*
G01X19322972Y-61484221D01*
G01X19371564Y-61457839D01*
G01X19418502Y-61428506D01*
G01X19463633Y-61396292D01*
G01X19506807Y-61361268D01*
G01X19547871Y-61323505D01*
G01X19586673Y-61283074D01*
G01X19623061Y-61240045D01*
G01X19656883Y-61194490D01*
G01X19687987Y-61146480D01*
G01X19716221Y-61096084D01*
G01X19741433Y-61043376D01*
G01X19763471Y-60988424D01*
G01X19763471Y-60988424D01*
G37*
G36*
G01X19478661Y-59139510D02*
G01X18914845Y-58934297D01*
G01X18914845Y-58934297D01*
G01X18870461Y-58913965D01*
G01X18830972Y-58887494D01*
G01X18796745Y-58855678D01*
G01X18768151Y-58819308D01*
G01X18745559Y-58779175D01*
G01X18729338Y-58736072D01*
G01X18719856Y-58690789D01*
G01X18717484Y-58644119D01*
G01X18722590Y-58596853D01*
G01X18735543Y-58549784D01*
G01X18735543Y-58549784D01*
G01X18940755Y-57985968D01*
G01X19145968Y-57422152D01*
G01X19145968Y-57422152D01*
G01X19166300Y-57377769D01*
G01X19192771Y-57338279D01*
G01X19224587Y-57304053D01*
G01X19260957Y-57275459D01*
G01X19301090Y-57252866D01*
G01X19344193Y-57236645D01*
G01X19389476Y-57227164D01*
G01X19436146Y-57224791D01*
G01X19483412Y-57229897D01*
G01X19530481Y-57242851D01*
G01X19530481Y-57242851D01*
G01X20094297Y-57448063D01*
G01X20658113Y-57653275D01*
G01X20658113Y-57653275D01*
G01X20702496Y-57673608D01*
G01X20741986Y-57700078D01*
G01X20776212Y-57731894D01*
G01X20804806Y-57768265D01*
G01X20827399Y-57808397D01*
G01X20843620Y-57851501D01*
G01X20853101Y-57896783D01*
G01X20855474Y-57943453D01*
G01X20850368Y-57990719D01*
G01X20837414Y-58037789D01*
G01X20837414Y-58037789D01*
G01X20632202Y-58601604D01*
G01X20426990Y-59165420D01*
G01X20426990Y-59165420D01*
G01X20406657Y-59209804D01*
G01X20380187Y-59249293D01*
G01X20348371Y-59283520D01*
G01X20312000Y-59312114D01*
G01X20271868Y-59334706D01*
G01X20228764Y-59350927D01*
G01X20183482Y-59360409D01*
G01X20136812Y-59362781D01*
G01X20089546Y-59357675D01*
G01X20042476Y-59344722D01*
G01X20042476Y-59344722D01*
G01X19478661Y-59139510D01*
G37*
G36*
G01X20675708Y-88100298D02*
G01X21170683Y-88595273D01*
G01X20675708Y-89090247D01*
G01X20180733Y-89585222D01*
G01X19685759Y-89090247D01*
G01X19190784Y-88595273D01*
G01X19685759Y-88100298D01*
G01X19650403Y-88135653D01*
G01X19650403Y-88135653D01*
G01X19695657Y-88093916D01*
G01X19743367Y-88056572D01*
G01X19793261Y-88023621D01*
G01X19845065Y-87995064D01*
G01X19898508Y-87970901D01*
G01X19953315Y-87951130D01*
G01X20009214Y-87935753D01*
G01X20065932Y-87924770D01*
G01X20123196Y-87918180D01*
G01X20180733Y-87915983D01*
G01X20238270Y-87918180D01*
G01X20295534Y-87924770D01*
G01X20352253Y-87935753D01*
G01X20408152Y-87951130D01*
G01X20462959Y-87970901D01*
G01X20516401Y-87995064D01*
G01X20568206Y-88023621D01*
G01X20618100Y-88056572D01*
G01X20665810Y-88093916D01*
G01X20711063Y-88135653D01*
G01X20711063Y-88135653D01*
G01X20675708Y-88100298D01*
G37*
G36*
G01X24267811Y-85498145D02*
G01X24267811Y-85498145D01*
G01X24306765Y-85455909D01*
G01X24341620Y-85411380D01*
G01X24372373Y-85364812D01*
G01X24399027Y-85316461D01*
G01X24421580Y-85266581D01*
G01X24440032Y-85215428D01*
G01X24454384Y-85163255D01*
G01X24464635Y-85110318D01*
G01X24470786Y-85056872D01*
G01X24472836Y-85003171D01*
G01X24470786Y-84949469D01*
G01X24464635Y-84896023D01*
G01X24454384Y-84843086D01*
G01X24440032Y-84790913D01*
G01X24421580Y-84739760D01*
G01X24399027Y-84689880D01*
G01X24372373Y-84641529D01*
G01X24341620Y-84594962D01*
G01X24306765Y-84550432D01*
G01X24267811Y-84508196D01*
G01X24267811Y-84508196D01*
G01X24267811Y-84508196D01*
G01X24225574Y-84469241D01*
G01X24181045Y-84434387D01*
G01X24134477Y-84403633D01*
G01X24086126Y-84376980D01*
G01X24036247Y-84354427D01*
G01X23985093Y-84335975D01*
G01X23932920Y-84321623D01*
G01X23879984Y-84311372D01*
G01X23826537Y-84305221D01*
G01X23772836Y-84303171D01*
G01X23719135Y-84305221D01*
G01X23665688Y-84311372D01*
G01X23612751Y-84321623D01*
G01X23560579Y-84335975D01*
G01X23509425Y-84354427D01*
G01X23459546Y-84376980D01*
G01X23411195Y-84403633D01*
G01X23364627Y-84434387D01*
G01X23320098Y-84469241D01*
G01X23277861Y-84508196D01*
G01X23277861Y-84508196D01*
G01X23277861Y-84508196D01*
G01X23238906Y-84550432D01*
G01X23204052Y-84594962D01*
G01X23173298Y-84641529D01*
G01X23146645Y-84689880D01*
G01X23124092Y-84739760D01*
G01X23105640Y-84790913D01*
G01X23091288Y-84843086D01*
G01X23081037Y-84896023D01*
G01X23074886Y-84949469D01*
G01X23072836Y-85003171D01*
G01X23074886Y-85056872D01*
G01X23081037Y-85110318D01*
G01X23091288Y-85163255D01*
G01X23105640Y-85215428D01*
G01X23124092Y-85266581D01*
G01X23146645Y-85316461D01*
G01X23173298Y-85364812D01*
G01X23204052Y-85411380D01*
G01X23238906Y-85455909D01*
G01X23277861Y-85498145D01*
G01X23277861Y-85498145D01*
G01X23277861Y-85498145D01*
G01X23320098Y-85537100D01*
G01X23364627Y-85571954D01*
G01X23411195Y-85602708D01*
G01X23459546Y-85629362D01*
G01X23509425Y-85651914D01*
G01X23560579Y-85670367D01*
G01X23612751Y-85684718D01*
G01X23665688Y-85694970D01*
G01X23719135Y-85701120D01*
G01X23772836Y-85703171D01*
G01X23826537Y-85701120D01*
G01X23879984Y-85694970D01*
G01X23932920Y-85684718D01*
G01X23985093Y-85670367D01*
G01X24036247Y-85651914D01*
G01X24086126Y-85629362D01*
G01X24134477Y-85602708D01*
G01X24181045Y-85571954D01*
G01X24225574Y-85537100D01*
G01X24267811Y-85498145D01*
G01X24267811Y-85498145D01*
G37*
G36*
G01X22471759Y-87294197D02*
G01X22471759Y-87294197D01*
G01X22510714Y-87251960D01*
G01X22545568Y-87207431D01*
G01X22576322Y-87160863D01*
G01X22602976Y-87112512D01*
G01X22625528Y-87062633D01*
G01X22643981Y-87011479D01*
G01X22658332Y-86959306D01*
G01X22668584Y-86906370D01*
G01X22674734Y-86852923D01*
G01X22676785Y-86799222D01*
G01X22674734Y-86745521D01*
G01X22668584Y-86692074D01*
G01X22658332Y-86639137D01*
G01X22643981Y-86586965D01*
G01X22625528Y-86535811D01*
G01X22602976Y-86485932D01*
G01X22576322Y-86437581D01*
G01X22545568Y-86391013D01*
G01X22510714Y-86346484D01*
G01X22471759Y-86304247D01*
G01X22471759Y-86304247D01*
G01X22471759Y-86304247D01*
G01X22429523Y-86265292D01*
G01X22384993Y-86230438D01*
G01X22338426Y-86199684D01*
G01X22290075Y-86173031D01*
G01X22240195Y-86150478D01*
G01X22189042Y-86132026D01*
G01X22136869Y-86117674D01*
G01X22083932Y-86107423D01*
G01X22030486Y-86101272D01*
G01X21976785Y-86099222D01*
G01X21923083Y-86101272D01*
G01X21869637Y-86107423D01*
G01X21816700Y-86117674D01*
G01X21764527Y-86132026D01*
G01X21713374Y-86150478D01*
G01X21663494Y-86173031D01*
G01X21615143Y-86199684D01*
G01X21568576Y-86230438D01*
G01X21524046Y-86265292D01*
G01X21481810Y-86304247D01*
G01X21481810Y-86304247D01*
G01X21481810Y-86304247D01*
G01X21442855Y-86346484D01*
G01X21408001Y-86391013D01*
G01X21377247Y-86437581D01*
G01X21350594Y-86485932D01*
G01X21328041Y-86535811D01*
G01X21309589Y-86586965D01*
G01X21295237Y-86639137D01*
G01X21284986Y-86692074D01*
G01X21278835Y-86745521D01*
G01X21276785Y-86799222D01*
G01X21278835Y-86852923D01*
G01X21284986Y-86906370D01*
G01X21295237Y-86959306D01*
G01X21309589Y-87011479D01*
G01X21328041Y-87062633D01*
G01X21350594Y-87112512D01*
G01X21377247Y-87160863D01*
G01X21408001Y-87207431D01*
G01X21442855Y-87251960D01*
G01X21481810Y-87294197D01*
G01X21481810Y-87294197D01*
G01X21481810Y-87294197D01*
G01X21524046Y-87333151D01*
G01X21568576Y-87368006D01*
G01X21615143Y-87398760D01*
G01X21663494Y-87425413D01*
G01X21713374Y-87447966D01*
G01X21764527Y-87466418D01*
G01X21816700Y-87480770D01*
G01X21869637Y-87491021D01*
G01X21923083Y-87497172D01*
G01X21976785Y-87499222D01*
G01X22030486Y-87497172D01*
G01X22083932Y-87491021D01*
G01X22136869Y-87480770D01*
G01X22189042Y-87466418D01*
G01X22240195Y-87447966D01*
G01X22290075Y-87425413D01*
G01X22338426Y-87398760D01*
G01X22384993Y-87368006D01*
G01X22429523Y-87333151D01*
G01X22471759Y-87294197D01*
G01X22471759Y-87294197D01*
G37*
G36*
G01X20675708Y-78313941D02*
G01X20675708Y-78313941D01*
G01X20714663Y-78271704D01*
G01X20749517Y-78227175D01*
G01X20780271Y-78180607D01*
G01X20806924Y-78132256D01*
G01X20829477Y-78082376D01*
G01X20847929Y-78031223D01*
G01X20862281Y-77979050D01*
G01X20872532Y-77926113D01*
G01X20878683Y-77872667D01*
G01X20880733Y-77818966D01*
G01X20878683Y-77765265D01*
G01X20872532Y-77711818D01*
G01X20862281Y-77658881D01*
G01X20847929Y-77606709D01*
G01X20829477Y-77555555D01*
G01X20806924Y-77505675D01*
G01X20780271Y-77457324D01*
G01X20749517Y-77410757D01*
G01X20714663Y-77366227D01*
G01X20675708Y-77323991D01*
G01X20675708Y-77323991D01*
G01X20675708Y-77323991D01*
G01X20633472Y-77285036D01*
G01X20588942Y-77250182D01*
G01X20542375Y-77219428D01*
G01X20494024Y-77192775D01*
G01X20444144Y-77170222D01*
G01X20392991Y-77151770D01*
G01X20340818Y-77137418D01*
G01X20287881Y-77127167D01*
G01X20234435Y-77121016D01*
G01X20180733Y-77118966D01*
G01X20127032Y-77121016D01*
G01X20073586Y-77127167D01*
G01X20020649Y-77137418D01*
G01X19968476Y-77151770D01*
G01X19917323Y-77170222D01*
G01X19867443Y-77192775D01*
G01X19819092Y-77219428D01*
G01X19772524Y-77250182D01*
G01X19727995Y-77285036D01*
G01X19685759Y-77323991D01*
G01X19685759Y-77323991D01*
G01X19685759Y-77323991D01*
G01X19646804Y-77366227D01*
G01X19611950Y-77410757D01*
G01X19581196Y-77457324D01*
G01X19554542Y-77505675D01*
G01X19531990Y-77555555D01*
G01X19513537Y-77606709D01*
G01X19499186Y-77658881D01*
G01X19488934Y-77711818D01*
G01X19482784Y-77765265D01*
G01X19480733Y-77818966D01*
G01X19482784Y-77872667D01*
G01X19488934Y-77926113D01*
G01X19499186Y-77979050D01*
G01X19513537Y-78031223D01*
G01X19531990Y-78082376D01*
G01X19554542Y-78132256D01*
G01X19581196Y-78180607D01*
G01X19611950Y-78227175D01*
G01X19646804Y-78271704D01*
G01X19685759Y-78313941D01*
G01X19685759Y-78313941D01*
G01X19685759Y-78313941D01*
G01X19727995Y-78352895D01*
G01X19772524Y-78387750D01*
G01X19819092Y-78418503D01*
G01X19867443Y-78445157D01*
G01X19917323Y-78467709D01*
G01X19968476Y-78486162D01*
G01X20020649Y-78500513D01*
G01X20073586Y-78510765D01*
G01X20127032Y-78516916D01*
G01X20180733Y-78518966D01*
G01X20234435Y-78516916D01*
G01X20287881Y-78510765D01*
G01X20340818Y-78500513D01*
G01X20392991Y-78486162D01*
G01X20444144Y-78467709D01*
G01X20494024Y-78445157D01*
G01X20542375Y-78418503D01*
G01X20588942Y-78387750D01*
G01X20633472Y-78352895D01*
G01X20675708Y-78313941D01*
G01X20675708Y-78313941D01*
G37*
G36*
G01X26063862Y-83702094D02*
G01X26063862Y-83702094D01*
G01X26102817Y-83659858D01*
G01X26137671Y-83615328D01*
G01X26168425Y-83568761D01*
G01X26195078Y-83520410D01*
G01X26217631Y-83470530D01*
G01X26236083Y-83419377D01*
G01X26250435Y-83367204D01*
G01X26260686Y-83314267D01*
G01X26266837Y-83260821D01*
G01X26268887Y-83207119D01*
G01X26266837Y-83153418D01*
G01X26260686Y-83099972D01*
G01X26250435Y-83047035D01*
G01X26236083Y-82994862D01*
G01X26217631Y-82943709D01*
G01X26195078Y-82893829D01*
G01X26168425Y-82845478D01*
G01X26137671Y-82798911D01*
G01X26102817Y-82754381D01*
G01X26063862Y-82712145D01*
G01X26063862Y-82712145D01*
G01X26063862Y-82712145D01*
G01X26021625Y-82673190D01*
G01X25977096Y-82638336D01*
G01X25930528Y-82607582D01*
G01X25882177Y-82580929D01*
G01X25832298Y-82558376D01*
G01X25781144Y-82539923D01*
G01X25728972Y-82525572D01*
G01X25676035Y-82515320D01*
G01X25622588Y-82509170D01*
G01X25568887Y-82507119D01*
G01X25515186Y-82509170D01*
G01X25461739Y-82515320D01*
G01X25408802Y-82525572D01*
G01X25356630Y-82539923D01*
G01X25305476Y-82558376D01*
G01X25255597Y-82580929D01*
G01X25207246Y-82607582D01*
G01X25160678Y-82638336D01*
G01X25116149Y-82673190D01*
G01X25073912Y-82712145D01*
G01X25073912Y-82712145D01*
G01X25073912Y-82712145D01*
G01X25034958Y-82754381D01*
G01X25000103Y-82798911D01*
G01X24969349Y-82845478D01*
G01X24942696Y-82893829D01*
G01X24920143Y-82943709D01*
G01X24901691Y-82994862D01*
G01X24887339Y-83047035D01*
G01X24877088Y-83099972D01*
G01X24870937Y-83153418D01*
G01X24868887Y-83207119D01*
G01X24870937Y-83260821D01*
G01X24877088Y-83314267D01*
G01X24887339Y-83367204D01*
G01X24901691Y-83419377D01*
G01X24920143Y-83470530D01*
G01X24942696Y-83520410D01*
G01X24969349Y-83568761D01*
G01X25000103Y-83615328D01*
G01X25034958Y-83659858D01*
G01X25073912Y-83702094D01*
G01X25073912Y-83702094D01*
G01X25073912Y-83702094D01*
G01X25116149Y-83741049D01*
G01X25160678Y-83775903D01*
G01X25207246Y-83806657D01*
G01X25255597Y-83833310D01*
G01X25305476Y-83855863D01*
G01X25356630Y-83874315D01*
G01X25408802Y-83888667D01*
G01X25461739Y-83898918D01*
G01X25515186Y-83905069D01*
G01X25568887Y-83907119D01*
G01X25622588Y-83905069D01*
G01X25676035Y-83898918D01*
G01X25728972Y-83888667D01*
G01X25781144Y-83874315D01*
G01X25832298Y-83855863D01*
G01X25882177Y-83833310D01*
G01X25930528Y-83806657D01*
G01X25977096Y-83775903D01*
G01X26021625Y-83741049D01*
G01X26063862Y-83702094D01*
G01X26063862Y-83702094D01*
G37*
G36*
G01X17083606Y-81906043D02*
G01X17083606Y-81906043D01*
G01X17122560Y-81863807D01*
G01X17157415Y-81819277D01*
G01X17188169Y-81772710D01*
G01X17214822Y-81724359D01*
G01X17237375Y-81674479D01*
G01X17255827Y-81623325D01*
G01X17270179Y-81571153D01*
G01X17280430Y-81518216D01*
G01X17286581Y-81464769D01*
G01X17288631Y-81411068D01*
G01X17286581Y-81357367D01*
G01X17280430Y-81303921D01*
G01X17270179Y-81250984D01*
G01X17255827Y-81198811D01*
G01X17237375Y-81147658D01*
G01X17214822Y-81097778D01*
G01X17188169Y-81049427D01*
G01X17157415Y-81002859D01*
G01X17122560Y-80958330D01*
G01X17083606Y-80916093D01*
G01X17083606Y-80916093D01*
G01X17083606Y-80916093D01*
G01X17041369Y-80877139D01*
G01X16996840Y-80842284D01*
G01X16950272Y-80811531D01*
G01X16901921Y-80784877D01*
G01X16852042Y-80762325D01*
G01X16800888Y-80743872D01*
G01X16748716Y-80729520D01*
G01X16695779Y-80719269D01*
G01X16642332Y-80713118D01*
G01X16588631Y-80711068D01*
G01X16534930Y-80713118D01*
G01X16481483Y-80719269D01*
G01X16428546Y-80729520D01*
G01X16376374Y-80743872D01*
G01X16325220Y-80762325D01*
G01X16275341Y-80784877D01*
G01X16226990Y-80811531D01*
G01X16180422Y-80842284D01*
G01X16135893Y-80877139D01*
G01X16093656Y-80916093D01*
G01X16093656Y-80916093D01*
G01X16093656Y-80916093D01*
G01X16054701Y-80958330D01*
G01X16019847Y-81002859D01*
G01X15989093Y-81049427D01*
G01X15962440Y-81097778D01*
G01X15939887Y-81147658D01*
G01X15921435Y-81198811D01*
G01X15907083Y-81250984D01*
G01X15896832Y-81303921D01*
G01X15890681Y-81357367D01*
G01X15888631Y-81411068D01*
G01X15890681Y-81464769D01*
G01X15896832Y-81518216D01*
G01X15907083Y-81571153D01*
G01X15921435Y-81623325D01*
G01X15939887Y-81674479D01*
G01X15962440Y-81724359D01*
G01X15989093Y-81772710D01*
G01X16019847Y-81819277D01*
G01X16054701Y-81863807D01*
G01X16093656Y-81906043D01*
G01X16093656Y-81906043D01*
G01X16093656Y-81906043D01*
G01X16135893Y-81944998D01*
G01X16180422Y-81979852D01*
G01X16226990Y-82010606D01*
G01X16275341Y-82037259D01*
G01X16325220Y-82059812D01*
G01X16376374Y-82078264D01*
G01X16428546Y-82092616D01*
G01X16481483Y-82102867D01*
G01X16534930Y-82109018D01*
G01X16588631Y-82111068D01*
G01X16642332Y-82109018D01*
G01X16695779Y-82102867D01*
G01X16748716Y-82092616D01*
G01X16800888Y-82078264D01*
G01X16852042Y-82059812D01*
G01X16901921Y-82037259D01*
G01X16950272Y-82010606D01*
G01X16996840Y-81979852D01*
G01X17041369Y-81944998D01*
G01X17083606Y-81906043D01*
G01X17083606Y-81906043D01*
G37*
G36*
G01X18879657Y-80109992D02*
G01X18879657Y-80109992D01*
G01X18918612Y-80067755D01*
G01X18953466Y-80023226D01*
G01X18984220Y-79976658D01*
G01X19010873Y-79928307D01*
G01X19033426Y-79878428D01*
G01X19051878Y-79827274D01*
G01X19066230Y-79775102D01*
G01X19076481Y-79722165D01*
G01X19082632Y-79668718D01*
G01X19084682Y-79615017D01*
G01X19082632Y-79561316D01*
G01X19076481Y-79507869D01*
G01X19066230Y-79454932D01*
G01X19051878Y-79402760D01*
G01X19033426Y-79351606D01*
G01X19010873Y-79301727D01*
G01X18984220Y-79253376D01*
G01X18953466Y-79206808D01*
G01X18918612Y-79162279D01*
G01X18879657Y-79120042D01*
G01X18879657Y-79120042D01*
G01X18879657Y-79120042D01*
G01X18837420Y-79081087D01*
G01X18792891Y-79046233D01*
G01X18746323Y-79015479D01*
G01X18697972Y-78988826D01*
G01X18648093Y-78966273D01*
G01X18596939Y-78947821D01*
G01X18544767Y-78933469D01*
G01X18491830Y-78923218D01*
G01X18438383Y-78917067D01*
G01X18384682Y-78915017D01*
G01X18330981Y-78917067D01*
G01X18277534Y-78923218D01*
G01X18224598Y-78933469D01*
G01X18172425Y-78947821D01*
G01X18121271Y-78966273D01*
G01X18071392Y-78988826D01*
G01X18023041Y-79015479D01*
G01X17976473Y-79046233D01*
G01X17931944Y-79081087D01*
G01X17889707Y-79120042D01*
G01X17889707Y-79120042D01*
G01X17889707Y-79120042D01*
G01X17850753Y-79162279D01*
G01X17815898Y-79206808D01*
G01X17785145Y-79253376D01*
G01X17758491Y-79301727D01*
G01X17735938Y-79351606D01*
G01X17717486Y-79402760D01*
G01X17703134Y-79454932D01*
G01X17692883Y-79507869D01*
G01X17686732Y-79561316D01*
G01X17684682Y-79615017D01*
G01X17686732Y-79668718D01*
G01X17692883Y-79722165D01*
G01X17703134Y-79775102D01*
G01X17717486Y-79827274D01*
G01X17735938Y-79878428D01*
G01X17758491Y-79928307D01*
G01X17785145Y-79976658D01*
G01X17815898Y-80023226D01*
G01X17850753Y-80067755D01*
G01X17889707Y-80109992D01*
G01X17889707Y-80109992D01*
G01X17889707Y-80109992D01*
G01X17931944Y-80148947D01*
G01X17976473Y-80183801D01*
G01X18023041Y-80214555D01*
G01X18071392Y-80241208D01*
G01X18121271Y-80263761D01*
G01X18172425Y-80282213D01*
G01X18224598Y-80296565D01*
G01X18277534Y-80306816D01*
G01X18330981Y-80312967D01*
G01X18384682Y-80315017D01*
G01X18438383Y-80312967D01*
G01X18491830Y-80306816D01*
G01X18544767Y-80296565D01*
G01X18596939Y-80282213D01*
G01X18648093Y-80263761D01*
G01X18697972Y-80241208D01*
G01X18746323Y-80214555D01*
G01X18792891Y-80183801D01*
G01X18837420Y-80148947D01*
G01X18879657Y-80109992D01*
G01X18879657Y-80109992D01*
G37*
G36*
G01X15287554Y-83702094D02*
G01X15287554Y-83702094D01*
G01X15326509Y-83659858D01*
G01X15361364Y-83615328D01*
G01X15392117Y-83568761D01*
G01X15418771Y-83520410D01*
G01X15441323Y-83470530D01*
G01X15459776Y-83419377D01*
G01X15474127Y-83367204D01*
G01X15484379Y-83314267D01*
G01X15490529Y-83260821D01*
G01X15492580Y-83207119D01*
G01X15490529Y-83153418D01*
G01X15484379Y-83099972D01*
G01X15474127Y-83047035D01*
G01X15459776Y-82994862D01*
G01X15441323Y-82943709D01*
G01X15418771Y-82893829D01*
G01X15392117Y-82845478D01*
G01X15361364Y-82798911D01*
G01X15326509Y-82754381D01*
G01X15287554Y-82712145D01*
G01X15287554Y-82712145D01*
G01X15287554Y-82712145D01*
G01X15245318Y-82673190D01*
G01X15200789Y-82638336D01*
G01X15154221Y-82607582D01*
G01X15105870Y-82580929D01*
G01X15055990Y-82558376D01*
G01X15004837Y-82539923D01*
G01X14952664Y-82525572D01*
G01X14899727Y-82515320D01*
G01X14846281Y-82509170D01*
G01X14792580Y-82507119D01*
G01X14738878Y-82509170D01*
G01X14685432Y-82515320D01*
G01X14632495Y-82525572D01*
G01X14580323Y-82539923D01*
G01X14529169Y-82558376D01*
G01X14479289Y-82580929D01*
G01X14430938Y-82607582D01*
G01X14384371Y-82638336D01*
G01X14339841Y-82673190D01*
G01X14297605Y-82712145D01*
G01X14297605Y-82712145D01*
G01X14297605Y-82712145D01*
G01X14258650Y-82754381D01*
G01X14223796Y-82798911D01*
G01X14193042Y-82845478D01*
G01X14166389Y-82893829D01*
G01X14143836Y-82943709D01*
G01X14125384Y-82994862D01*
G01X14111032Y-83047035D01*
G01X14100781Y-83099972D01*
G01X14094630Y-83153418D01*
G01X14092580Y-83207119D01*
G01X14094630Y-83260821D01*
G01X14100781Y-83314267D01*
G01X14111032Y-83367204D01*
G01X14125384Y-83419377D01*
G01X14143836Y-83470530D01*
G01X14166389Y-83520410D01*
G01X14193042Y-83568761D01*
G01X14223796Y-83615328D01*
G01X14258650Y-83659858D01*
G01X14297605Y-83702094D01*
G01X14297605Y-83702094D01*
G01X14297605Y-83702094D01*
G01X14339841Y-83741049D01*
G01X14384371Y-83775903D01*
G01X14430938Y-83806657D01*
G01X14479289Y-83833310D01*
G01X14529169Y-83855863D01*
G01X14580323Y-83874315D01*
G01X14632495Y-83888667D01*
G01X14685432Y-83898918D01*
G01X14738878Y-83905069D01*
G01X14792580Y-83907119D01*
G01X14846281Y-83905069D01*
G01X14899727Y-83898918D01*
G01X14952664Y-83888667D01*
G01X15004837Y-83874315D01*
G01X15055990Y-83855863D01*
G01X15105870Y-83833310D01*
G01X15154221Y-83806657D01*
G01X15200789Y-83775903D01*
G01X15245318Y-83741049D01*
G01X15287554Y-83702094D01*
G01X15287554Y-83702094D01*
G37*
G36*
G01X64680143Y-15767360D02*
G01X64680143Y-15767360D01*
G01X64692304Y-15825304D01*
G01X64707980Y-15881590D01*
G01X64727034Y-15936123D01*
G01X64749329Y-15988805D01*
G01X64774726Y-16039541D01*
G01X64803089Y-16088234D01*
G01X64834281Y-16134789D01*
G01X64868163Y-16179109D01*
G01X64904599Y-16221098D01*
G01X64943452Y-16260660D01*
G01X64984583Y-16297698D01*
G01X65027855Y-16332117D01*
G01X65073131Y-16363820D01*
G01X65120274Y-16392711D01*
G01X65169146Y-16418693D01*
G01X65219611Y-16441671D01*
G01X65271529Y-16461549D01*
G01X65324765Y-16478230D01*
G01X65379180Y-16491617D01*
G01X65434638Y-16501616D01*
G01X65491001Y-16508129D01*
G01X65548131Y-16511061D01*
G01X65605891Y-16510315D01*
G01X65664145Y-16505794D01*
G01X65722753Y-16497404D01*
G01X65722753Y-16497404D01*
G01X65722753Y-16497404D01*
G01X65780697Y-16485243D01*
G01X65836983Y-16469567D01*
G01X65891516Y-16450513D01*
G01X65944198Y-16428218D01*
G01X65994934Y-16402821D01*
G01X66043627Y-16374458D01*
G01X66090182Y-16343266D01*
G01X66134502Y-16309384D01*
G01X66176491Y-16272948D01*
G01X66216053Y-16234095D01*
G01X66253091Y-16192964D01*
G01X66287510Y-16149692D01*
G01X66319213Y-16104416D01*
G01X66348104Y-16057273D01*
G01X66374086Y-16008400D01*
G01X66397064Y-15957936D01*
G01X66416942Y-15906018D01*
G01X66433623Y-15852782D01*
G01X66447010Y-15798367D01*
G01X66457009Y-15742909D01*
G01X66463522Y-15686546D01*
G01X66466454Y-15629416D01*
G01X66465707Y-15571656D01*
G01X66461187Y-15513402D01*
G01X66452797Y-15454794D01*
G01X66452797Y-15454794D01*
G01X66452797Y-15454794D01*
G01X66440636Y-15396850D01*
G01X66424960Y-15340564D01*
G01X66405906Y-15286031D01*
G01X66383611Y-15233349D01*
G01X66358214Y-15182613D01*
G01X66329850Y-15133920D01*
G01X66298659Y-15087365D01*
G01X66264776Y-15043045D01*
G01X66228340Y-15001056D01*
G01X66189488Y-14961494D01*
G01X66148357Y-14924456D01*
G01X66105085Y-14890037D01*
G01X66059809Y-14858334D01*
G01X66012666Y-14829443D01*
G01X65963793Y-14803461D01*
G01X65913329Y-14780483D01*
G01X65861411Y-14760605D01*
G01X65808175Y-14743924D01*
G01X65753760Y-14730536D01*
G01X65698302Y-14720538D01*
G01X65641939Y-14714025D01*
G01X65584809Y-14711093D01*
G01X65527048Y-14711839D01*
G01X65468795Y-14716360D01*
G01X65410187Y-14724750D01*
G01X65410187Y-14724750D01*
G01X65410187Y-14724750D01*
G01X65352243Y-14736911D01*
G01X65295957Y-14752587D01*
G01X65241424Y-14771641D01*
G01X65188742Y-14793936D01*
G01X65138006Y-14819333D01*
G01X65089313Y-14847696D01*
G01X65042758Y-14878888D01*
G01X64998438Y-14912770D01*
G01X64956449Y-14949206D01*
G01X64916887Y-14988059D01*
G01X64879849Y-15029190D01*
G01X64845430Y-15072462D01*
G01X64813727Y-15117738D01*
G01X64784836Y-15164881D01*
G01X64758854Y-15213754D01*
G01X64735876Y-15264218D01*
G01X64715998Y-15316136D01*
G01X64699317Y-15369372D01*
G01X64685929Y-15423787D01*
G01X64675931Y-15479245D01*
G01X64669418Y-15535608D01*
G01X64666486Y-15592738D01*
G01X64667232Y-15650498D01*
G01X64671753Y-15708752D01*
G01X64680143Y-15767360D01*
G01X64680143Y-15767360D01*
G37*
G36*
G01X65851253Y-17226162D02*
G01X66442138Y-17121973D01*
G01X66442138Y-17121973D01*
G01X66490742Y-17117390D01*
G01X66538176Y-17120569D01*
G01X66583725Y-17131010D01*
G01X66626673Y-17148210D01*
G01X66666305Y-17171670D01*
G01X66701905Y-17200888D01*
G01X66732758Y-17235363D01*
G01X66758147Y-17274594D01*
G01X66777358Y-17318081D01*
G01X66789675Y-17365321D01*
G01X66789675Y-17365321D01*
G01X66893864Y-17956206D01*
G01X66998053Y-18547090D01*
G01X66998053Y-18547090D01*
G01X67002636Y-18595694D01*
G01X66999457Y-18643129D01*
G01X66989016Y-18688678D01*
G01X66971815Y-18731626D01*
G01X66948356Y-18771258D01*
G01X66919138Y-18806857D01*
G01X66884663Y-18837710D01*
G01X66845431Y-18863099D01*
G01X66801945Y-18882310D01*
G01X66754705Y-18894627D01*
G01X66754705Y-18894627D01*
G01X66163820Y-18998816D01*
G01X65572935Y-19103005D01*
G01X65572935Y-19103005D01*
G01X65524331Y-19107588D01*
G01X65476897Y-19104409D01*
G01X65431348Y-19093968D01*
G01X65388400Y-19076768D01*
G01X65348768Y-19053308D01*
G01X65313168Y-19024090D01*
G01X65282316Y-18989615D01*
G01X65256926Y-18950384D01*
G01X65237715Y-18906897D01*
G01X65225399Y-18859657D01*
G01X65225399Y-18859657D01*
G01X65121210Y-18268772D01*
G01X65017021Y-17677888D01*
G01X65017021Y-17677888D01*
G01X65012438Y-17629284D01*
G01X65015617Y-17581849D01*
G01X65026057Y-17536300D01*
G01X65043258Y-17493352D01*
G01X65066718Y-17453720D01*
G01X65095936Y-17418121D01*
G01X65130411Y-17387268D01*
G01X65169642Y-17361879D01*
G01X65213128Y-17342668D01*
G01X65260369Y-17330351D01*
G01X65260369Y-17330351D01*
G01X65851253Y-17226162D01*
G37*
G36*
G01X81580792Y-14750000D02*
G01X82780792Y-14750000D01*
G01X82780792Y-15950000D01*
G01X81580792Y-15950000D01*
G01X81580792Y-14750000D01*
G37*
G36*
G01X83030792Y-14755859D02*
G01X83030792Y-14755859D01*
G01X83074151Y-14752343D01*
G01X83074151Y-14752343D01*
G01X83125543Y-14784542D01*
G01X83128058Y-14798047D01*
G01X83128058Y-14798047D01*
G01X83127774Y-14843372D01*
G01X83127232Y-14913646D01*
G01X83126891Y-14955875D01*
G01X83126886Y-14956543D01*
G01X83126886Y-14956543D01*
G01X83126151Y-15053363D01*
G01X83125814Y-15109864D01*
G01X83125719Y-15134653D01*
G01X83125714Y-15137890D01*
G01X83125714Y-15137890D01*
G01X83194394Y-15099904D01*
G01X83255744Y-15081086D01*
G01X83298396Y-15074703D01*
G01X83311456Y-15074023D01*
G01X83311456Y-15074023D01*
G01X83385643Y-15088704D01*
G01X83436985Y-15118067D01*
G01X83461781Y-15140089D01*
G01X83463507Y-15141992D01*
G01X83463507Y-15141992D01*
G01X83496215Y-15199600D01*
G01X83513610Y-15263470D01*
G01X83520528Y-15316980D01*
G01X83521804Y-15343509D01*
G01X83521808Y-15344140D01*
G01X83521808Y-15344140D01*
G01X83513749Y-15424557D01*
G01X83495114Y-15489739D01*
G01X83474212Y-15536614D01*
G01X83459354Y-15562115D01*
G01X83456769Y-15565918D01*
G01X83456769Y-15565918D01*
G01X83402505Y-15616377D01*
G01X83343316Y-15643213D01*
G01X83294123Y-15653885D01*
G01X83269845Y-15655853D01*
G01X83269269Y-15655859D01*
G01X83269269Y-15655859D01*
G01X83191500Y-15646592D01*
G01X83126541Y-15624826D01*
G01X83077748Y-15599612D01*
G01X83048472Y-15580001D01*
G01X83041339Y-15574414D01*
G01X83041339Y-15574414D01*
G01X83045403Y-15519926D01*
G01X83047976Y-15452529D01*
G01X83049397Y-15386595D01*
G01X83050001Y-15336495D01*
G01X83050128Y-15316601D01*
G01X83050128Y-15316601D01*
G01X83050128Y-15316601D01*
G01X83049655Y-15255239D01*
G01X83048478Y-15185855D01*
G01X83046960Y-15117345D01*
G01X83045462Y-15058603D01*
G01X83044349Y-15018526D01*
G01X83043976Y-15005761D01*
G01X83043976Y-15005761D01*
G01X83040242Y-14901359D01*
G01X83036677Y-14829582D01*
G01X83033661Y-14785015D01*
G01X83031573Y-14762246D01*
G01X83030792Y-14755859D01*
G01X83030792Y-14755859D01*
G37*
%LPC*%
G36*
G01X83124542Y-15526367D02*
G01X83124542Y-15526367D01*
G01X83189474Y-15567299D01*
G01X83245958Y-15584881D01*
G01X83277952Y-15588984D01*
G01X83280401Y-15589062D01*
G01X83280401Y-15589062D01*
G01X83348758Y-15569582D01*
G01X83387916Y-15534856D01*
G01X83398468Y-15519922D01*
G01X83398468Y-15519922D01*
G01X83424068Y-15453993D01*
G01X83434939Y-15393697D01*
G01X83437394Y-15358586D01*
G01X83437433Y-15355859D01*
G01X83437433Y-15355859D01*
G01X83428130Y-15273509D01*
G01X83409526Y-15220395D01*
G01X83395572Y-15196327D01*
G01X83394366Y-15194726D01*
G01X83394366Y-15194726D01*
G01X83336311Y-15152357D01*
G01X83292075Y-15141717D01*
G01X83286261Y-15141406D01*
G01X83284503Y-15141406D01*
G01X83284503Y-15141406D01*
G01X83215163Y-15154285D01*
G01X83160864Y-15180575D01*
G01X83130437Y-15201757D01*
G01X83126886Y-15204687D01*
G01X83126886Y-15204687D01*
G01X83127307Y-15263528D01*
G01X83127472Y-15281738D01*
G01X83127472Y-15281738D01*
G01X83127984Y-15355676D01*
G01X83128058Y-15382812D01*
G01X83128058Y-15382812D01*
G01X83128058Y-15382812D01*
G01X83127067Y-15465888D01*
G01X83125301Y-15513521D01*
G01X83124542Y-15526367D01*
G37*
%LPD*%
G36*
G01X83622003Y-15365820D02*
G01X83622003Y-15365820D01*
G01X83630933Y-15286637D01*
G01X83651583Y-15224310D01*
G01X83674745Y-15180635D01*
G01X83691209Y-15157410D01*
G01X83694073Y-15154004D01*
G01X83694073Y-15154004D01*
G01X83751431Y-15109133D01*
G01X83810815Y-15085269D01*
G01X83858858Y-15075779D01*
G01X83882196Y-15074028D01*
G01X83882745Y-15074023D01*
G01X83882745Y-15074023D01*
G01X83959238Y-15085632D01*
G01X84017695Y-15111615D01*
G01X84055980Y-15138704D01*
G01X84071953Y-15153630D01*
G01X84072296Y-15154004D01*
G01X84072296Y-15154004D01*
G01X84110011Y-15212364D01*
G01X84131468Y-15274048D01*
G01X84141252Y-15327319D01*
G01X84143949Y-15360442D01*
G01X84144073Y-15365820D01*
G01X84144073Y-15365820D01*
G01X84134429Y-15448097D01*
G01X84112482Y-15511711D01*
G01X84088713Y-15554738D01*
G01X84073601Y-15575252D01*
G01X84072296Y-15576757D01*
G01X84072296Y-15576757D01*
G01X84014932Y-15621135D01*
G01X83955256Y-15644737D01*
G01X83906850Y-15654123D01*
G01X83883300Y-15655854D01*
G01X83882745Y-15655859D01*
G01X83882745Y-15655859D01*
G01X83806868Y-15644377D01*
G01X83748665Y-15618680D01*
G01X83710420Y-15591889D01*
G01X83694417Y-15577127D01*
G01X83694073Y-15576757D01*
G01X83694073Y-15576757D01*
G01X83656204Y-15518859D01*
G01X83634660Y-15457438D01*
G01X83624836Y-15404286D01*
G01X83622128Y-15371196D01*
G01X83622003Y-15365820D01*
G37*
%LPC*%
G36*
G01X83706378Y-15348828D02*
G01X83706378Y-15348828D01*
G01X83715289Y-15426576D01*
G01X83733841Y-15483586D01*
G01X83749764Y-15515382D01*
G01X83752960Y-15520507D01*
G01X83752960Y-15520507D01*
G01X83806734Y-15568443D01*
G01X83858600Y-15586368D01*
G01X83882720Y-15589062D01*
G01X83882745Y-15589062D01*
G01X83882745Y-15589062D01*
G01X83956731Y-15573214D01*
G01X84001022Y-15544962D01*
G01X84013409Y-15532812D01*
G01X84013409Y-15532812D01*
G01X84045545Y-15471593D01*
G01X84058097Y-15413139D01*
G01X84060281Y-15383254D01*
G01X84060284Y-15382812D01*
G01X84060284Y-15382812D01*
G01X84051093Y-15304952D01*
G01X84031957Y-15247709D01*
G01X84015534Y-15215713D01*
G01X84012237Y-15210547D01*
G01X84012237Y-15210547D01*
G01X83957887Y-15162201D01*
G01X83906477Y-15144123D01*
G01X83882769Y-15141406D01*
G01X83882745Y-15141406D01*
G01X83882745Y-15141406D01*
G01X83808925Y-15157419D01*
G01X83764928Y-15185965D01*
G01X83752667Y-15198242D01*
G01X83752667Y-15198242D01*
G01X83720933Y-15259863D01*
G01X83708538Y-15318474D01*
G01X83706381Y-15348386D01*
G01X83706378Y-15348828D01*
G37*
%LPD*%
G36*
G01X84197980Y-15129101D02*
G01X84197980Y-15129101D01*
G01X84215851Y-15093945D01*
G01X84215851Y-15093945D01*
G01X84272858Y-15086380D01*
G01X84277081Y-15086328D01*
G01X84311065Y-15086328D01*
G01X84311065Y-15086328D01*
G01X84307575Y-15007560D01*
G01X84304246Y-14960581D01*
G01X84303448Y-14951562D01*
G01X84303448Y-14951562D01*
G01X84343292Y-14948047D01*
G01X84343292Y-14948047D01*
G01X84397563Y-14978967D01*
G01X84400714Y-14993750D01*
G01X84400714Y-14993750D01*
G01X84398090Y-15052062D01*
G01X84396026Y-15087500D01*
G01X84396026Y-15087500D01*
G01X84491791Y-15086493D01*
G01X84553937Y-15084277D01*
G01X84587518Y-15082061D01*
G01X84597589Y-15081054D01*
G01X84597589Y-15081054D01*
G01X84597589Y-15081054D01*
G01X84602276Y-15109179D01*
G01X84602276Y-15109179D01*
G01X84589679Y-15141406D01*
G01X84589679Y-15141406D01*
G01X84549542Y-15150781D01*
G01X84549542Y-15150781D01*
G01X84491597Y-15151600D01*
G01X84426095Y-15151907D01*
G01X84393717Y-15151953D01*
G01X84393683Y-15151953D01*
G01X84393683Y-15151953D01*
G01X84392584Y-15226150D01*
G01X84391898Y-15296827D01*
G01X84391525Y-15357547D01*
G01X84391371Y-15401871D01*
G01X84391339Y-15423361D01*
G01X84391339Y-15424414D01*
G01X84391339Y-15424414D01*
G01X84398264Y-15510114D01*
G01X84410293Y-15551574D01*
G01X84414776Y-15560058D01*
G01X84414776Y-15560058D01*
G01X84469844Y-15590168D01*
G01X84492120Y-15592578D01*
G01X84492120Y-15592578D01*
G01X84556757Y-15572781D01*
G01X84578253Y-15556250D01*
G01X84578253Y-15556250D01*
G01X84599933Y-15599609D01*
G01X84599933Y-15599609D01*
G01X84569200Y-15640165D01*
G01X84568878Y-15640332D01*
G01X84568878Y-15640332D01*
G01X84507170Y-15655193D01*
G01X84493292Y-15655859D01*
G01X84493292Y-15655859D01*
G01X84415020Y-15641982D01*
G01X84369228Y-15615405D01*
G01X84352573Y-15598705D01*
G01X84352374Y-15598437D01*
G01X84352374Y-15598437D01*
G01X84326484Y-15540591D01*
G01X84314584Y-15478544D01*
G01X84311235Y-15434832D01*
G01X84311065Y-15426757D01*
G01X84311065Y-15426757D01*
G01X84312164Y-15319359D01*
G01X84312851Y-15242231D01*
G01X84313223Y-15191249D01*
G01X84313377Y-15162291D01*
G01X84313409Y-15151233D01*
G01X84313409Y-15150781D01*
G01X84313409Y-15150781D01*
G01X84264382Y-15154518D01*
G01X84204534Y-15159324D01*
G01X84201495Y-15159570D01*
G01X84201495Y-15159570D01*
G01X84197980Y-15129101D01*
G37*
G36*
G01X84619855Y-15129101D02*
G01X84619855Y-15129101D01*
G01X84637726Y-15093945D01*
G01X84637726Y-15093945D01*
G01X84694733Y-15086380D01*
G01X84698956Y-15086328D01*
G01X84732940Y-15086328D01*
G01X84732940Y-15086328D01*
G01X84729450Y-15007560D01*
G01X84726121Y-14960581D01*
G01X84725323Y-14951562D01*
G01X84725323Y-14951562D01*
G01X84765167Y-14948047D01*
G01X84765167Y-14948047D01*
G01X84819438Y-14978967D01*
G01X84822589Y-14993750D01*
G01X84822589Y-14993750D01*
G01X84819965Y-15052062D01*
G01X84817901Y-15087500D01*
G01X84817901Y-15087500D01*
G01X84913666Y-15086493D01*
G01X84975812Y-15084277D01*
G01X85009393Y-15082061D01*
G01X85019464Y-15081054D01*
G01X85019464Y-15081054D01*
G01X85019464Y-15081054D01*
G01X85024151Y-15109179D01*
G01X85024151Y-15109179D01*
G01X85011554Y-15141406D01*
G01X85011554Y-15141406D01*
G01X84971417Y-15150781D01*
G01X84971417Y-15150781D01*
G01X84913472Y-15151600D01*
G01X84847970Y-15151907D01*
G01X84815592Y-15151953D01*
G01X84815558Y-15151953D01*
G01X84815558Y-15151953D01*
G01X84814459Y-15226150D01*
G01X84813773Y-15296827D01*
G01X84813400Y-15357547D01*
G01X84813246Y-15401871D01*
G01X84813214Y-15423361D01*
G01X84813214Y-15424414D01*
G01X84813214Y-15424414D01*
G01X84820139Y-15510114D01*
G01X84832168Y-15551574D01*
G01X84836651Y-15560058D01*
G01X84836651Y-15560058D01*
G01X84891719Y-15590168D01*
G01X84913995Y-15592578D01*
G01X84913995Y-15592578D01*
G01X84978632Y-15572781D01*
G01X85000128Y-15556250D01*
G01X85000128Y-15556250D01*
G01X85021808Y-15599609D01*
G01X85021808Y-15599609D01*
G01X84991075Y-15640165D01*
G01X84990753Y-15640332D01*
G01X84990753Y-15640332D01*
G01X84929045Y-15655193D01*
G01X84915167Y-15655859D01*
G01X84915167Y-15655859D01*
G01X84836895Y-15641982D01*
G01X84791103Y-15615405D01*
G01X84774448Y-15598705D01*
G01X84774249Y-15598437D01*
G01X84774249Y-15598437D01*
G01X84748359Y-15540591D01*
G01X84736459Y-15478544D01*
G01X84733110Y-15434832D01*
G01X84732940Y-15426757D01*
G01X84732940Y-15426757D01*
G01X84734039Y-15319359D01*
G01X84734726Y-15242231D01*
G01X84735098Y-15191249D01*
G01X84735252Y-15162291D01*
G01X84735284Y-15151233D01*
G01X84735284Y-15150781D01*
G01X84735284Y-15150781D01*
G01X84686257Y-15154518D01*
G01X84626409Y-15159324D01*
G01X84623370Y-15159570D01*
G01X84623370Y-15159570D01*
G01X84619855Y-15129101D01*
G37*
G36*
G01X85095636Y-15365820D02*
G01X85095636Y-15365820D01*
G01X85104566Y-15286637D01*
G01X85125216Y-15224310D01*
G01X85148377Y-15180635D01*
G01X85164842Y-15157410D01*
G01X85167706Y-15154004D01*
G01X85167706Y-15154004D01*
G01X85225064Y-15109133D01*
G01X85284447Y-15085269D01*
G01X85332490Y-15075779D01*
G01X85355829Y-15074028D01*
G01X85356378Y-15074023D01*
G01X85356378Y-15074023D01*
G01X85432870Y-15085632D01*
G01X85491328Y-15111615D01*
G01X85529613Y-15138704D01*
G01X85545586Y-15153630D01*
G01X85545929Y-15154004D01*
G01X85545929Y-15154004D01*
G01X85583644Y-15212364D01*
G01X85605101Y-15274048D01*
G01X85614885Y-15327319D01*
G01X85617582Y-15360442D01*
G01X85617706Y-15365820D01*
G01X85617706Y-15365820D01*
G01X85608062Y-15448097D01*
G01X85586115Y-15511711D01*
G01X85562346Y-15554738D01*
G01X85547233Y-15575252D01*
G01X85545929Y-15576757D01*
G01X85545929Y-15576757D01*
G01X85488565Y-15621135D01*
G01X85428888Y-15644737D01*
G01X85380483Y-15654123D01*
G01X85356933Y-15655854D01*
G01X85356378Y-15655859D01*
G01X85356378Y-15655859D01*
G01X85280501Y-15644377D01*
G01X85222297Y-15618680D01*
G01X85184053Y-15591889D01*
G01X85168050Y-15577127D01*
G01X85167706Y-15576757D01*
G01X85167706Y-15576757D01*
G01X85129837Y-15518859D01*
G01X85108292Y-15457438D01*
G01X85098468Y-15404286D01*
G01X85095760Y-15371196D01*
G01X85095636Y-15365820D01*
G37*
%LPC*%
G36*
G01X85180011Y-15348828D02*
G01X85180011Y-15348828D01*
G01X85188922Y-15426576D01*
G01X85207474Y-15483586D01*
G01X85223397Y-15515382D01*
G01X85226593Y-15520507D01*
G01X85226593Y-15520507D01*
G01X85280367Y-15568443D01*
G01X85332233Y-15586368D01*
G01X85356353Y-15589062D01*
G01X85356378Y-15589062D01*
G01X85356378Y-15589062D01*
G01X85430364Y-15573214D01*
G01X85474655Y-15544962D01*
G01X85487042Y-15532812D01*
G01X85487042Y-15532812D01*
G01X85519178Y-15471593D01*
G01X85531730Y-15413139D01*
G01X85533914Y-15383254D01*
G01X85533917Y-15382812D01*
G01X85533917Y-15382812D01*
G01X85524726Y-15304952D01*
G01X85505590Y-15247709D01*
G01X85489167Y-15215713D01*
G01X85485870Y-15210547D01*
G01X85485870Y-15210547D01*
G01X85431520Y-15162201D01*
G01X85380109Y-15144123D01*
G01X85356402Y-15141406D01*
G01X85356378Y-15141406D01*
G01X85356378Y-15141406D01*
G01X85282558Y-15157419D01*
G01X85238561Y-15185965D01*
G01X85226300Y-15198242D01*
G01X85226300Y-15198242D01*
G01X85194566Y-15259863D01*
G01X85182170Y-15318474D01*
G01X85180014Y-15348386D01*
G01X85180011Y-15348828D01*
G37*
%LPD*%
G36*
G01X85743683Y-15092187D02*
G01X85743683Y-15092187D01*
G01X85787042Y-15082812D01*
G01X85787042Y-15082812D01*
G01X85837101Y-15117162D01*
G01X85842120Y-15142578D01*
G01X85842120Y-15142578D01*
G01X85900201Y-15106762D01*
G01X85930597Y-15093359D01*
G01X85930597Y-15093359D01*
G01X85930597Y-15093359D01*
G01X85999737Y-15076440D01*
G01X86030206Y-15074023D01*
G01X86030206Y-15074023D01*
G01X86030206Y-15074023D01*
G01X86104606Y-15091847D01*
G01X86147184Y-15126746D01*
G01X86163281Y-15150861D01*
G01X86163800Y-15151953D01*
G01X86163800Y-15151953D01*
G01X86217759Y-15114125D01*
G01X86253716Y-15097119D01*
G01X86254327Y-15096875D01*
G01X86254327Y-15096875D01*
G01X86324855Y-15077825D01*
G01X86362688Y-15074046D01*
G01X86364190Y-15074023D01*
G01X86364190Y-15074023D01*
G01X86434522Y-15090496D01*
G01X86468221Y-15112565D01*
G01X86469952Y-15114160D01*
G01X86469952Y-15114160D01*
G01X86500492Y-15171816D01*
G01X86509959Y-15227722D01*
G01X86510675Y-15243359D01*
G01X86510675Y-15243359D01*
G01X86509405Y-15297574D01*
G01X86508624Y-15329785D01*
G01X86508624Y-15329785D01*
G01X86507016Y-15410968D01*
G01X86506590Y-15452044D01*
G01X86506573Y-15457226D01*
G01X86506573Y-15457226D01*
G01X86510496Y-15539829D01*
G01X86518664Y-15599798D01*
G01X86525674Y-15632965D01*
G01X86527081Y-15638281D01*
G01X86527081Y-15638281D01*
G01X86480206Y-15647656D01*
G01X86480206Y-15647656D01*
G01X86435382Y-15633886D01*
G01X86435382Y-15633886D01*
G01X86421612Y-15586718D01*
G01X86421612Y-15586718D01*
G01X86421612Y-15586718D01*
G01X86422416Y-15529728D01*
G01X86423991Y-15463284D01*
G01X86425079Y-15423207D01*
G01X86425128Y-15421484D01*
G01X86425128Y-15421484D01*
G01X86427678Y-15326310D01*
G01X86428549Y-15284065D01*
G01X86428644Y-15275586D01*
G01X86428644Y-15275586D01*
G01X86415845Y-15202306D01*
G01X86400810Y-15174573D01*
G01X86400519Y-15174218D01*
G01X86400519Y-15174218D01*
G01X86343791Y-15143352D01*
G01X86326690Y-15141406D01*
G01X86326690Y-15141406D01*
G01X86261778Y-15155879D01*
G01X86207274Y-15184218D01*
G01X86178995Y-15203800D01*
G01X86177862Y-15204687D01*
G01X86177862Y-15204687D01*
G01X86179051Y-15296297D01*
G01X86179749Y-15365514D01*
G01X86180087Y-15412893D01*
G01X86180197Y-15438986D01*
G01X86180206Y-15444922D01*
G01X86180206Y-15444922D01*
G01X86181483Y-15527927D01*
G01X86184243Y-15591793D01*
G01X86186879Y-15631635D01*
G01X86187823Y-15642968D01*
G01X86187823Y-15642968D01*
G01X86146808Y-15646484D01*
G01X86146808Y-15646484D01*
G01X86095416Y-15614286D01*
G01X86092901Y-15600781D01*
G01X86092901Y-15600781D01*
G01X86094659Y-15552441D01*
G01X86094659Y-15552441D01*
G01X86096521Y-15488506D01*
G01X86097501Y-15438567D01*
G01X86097589Y-15433203D01*
G01X86097589Y-15433203D01*
G01X86098392Y-15361559D01*
G01X86098706Y-15303351D01*
G01X86098761Y-15275974D01*
G01X86098761Y-15275586D01*
G01X86098761Y-15275586D01*
G01X86079847Y-15193604D01*
G01X86039712Y-15154466D01*
G01X86003267Y-15142326D01*
G01X85993292Y-15141406D01*
G01X85993292Y-15141406D01*
G01X85929166Y-15156550D01*
G01X85874983Y-15186200D01*
G01X85846768Y-15206689D01*
G01X85845636Y-15207617D01*
G01X85845636Y-15207617D01*
G01X85846867Y-15302663D01*
G01X85847568Y-15372686D01*
G01X85847887Y-15418696D01*
G01X85847975Y-15441705D01*
G01X85847980Y-15444922D01*
G01X85847980Y-15444922D01*
G01X85849158Y-15527927D01*
G01X85851706Y-15591793D01*
G01X85854140Y-15631635D01*
G01X85855011Y-15642968D01*
G01X85855011Y-15642968D01*
G01X85814581Y-15646484D01*
G01X85814581Y-15646484D01*
G01X85763190Y-15614286D01*
G01X85760675Y-15600781D01*
G01X85760675Y-15600781D01*
G01X85762445Y-15546008D01*
G01X85763605Y-15512597D01*
G01X85763605Y-15512597D01*
G01X85765572Y-15437634D01*
G01X85766373Y-15377789D01*
G01X85766533Y-15347670D01*
G01X85766534Y-15346484D01*
G01X85766534Y-15346484D01*
G01X85764158Y-15244437D01*
G01X85758490Y-15171922D01*
G01X85751726Y-15125000D01*
G01X85746059Y-15099734D01*
G01X85743683Y-15092187D01*
G01X85743683Y-15092187D01*
G37*
G36*
G01X86923175Y-15560351D02*
G01X86923175Y-15560351D01*
G01X86961152Y-15516248D01*
G01X86977081Y-15509961D01*
G01X86977081Y-15509961D01*
G01X87017982Y-15559257D01*
G01X87034210Y-15568847D01*
G01X87034210Y-15568847D01*
G01X87100362Y-15586827D01*
G01X87129425Y-15589062D01*
G01X87129425Y-15589062D01*
G01X87196933Y-15574918D01*
G01X87212921Y-15566211D01*
G01X87212921Y-15566211D01*
G01X87243237Y-15511335D01*
G01X87244855Y-15495312D01*
G01X87244855Y-15495312D01*
G01X87217556Y-15443535D01*
G01X87212921Y-15440234D01*
G01X87212921Y-15440234D01*
G01X87152805Y-15415254D01*
G01X87135577Y-15410644D01*
G01X87135577Y-15410644D01*
G01X87068999Y-15393679D01*
G01X87044464Y-15386621D01*
G01X87044464Y-15386621D01*
G01X86986104Y-15353366D01*
G01X86966827Y-15334472D01*
G01X86966827Y-15334472D01*
G01X86939648Y-15273011D01*
G01X86934901Y-15233477D01*
G01X86934894Y-15232812D01*
G01X86934894Y-15232812D01*
G01X86954888Y-15165299D01*
G01X86987737Y-15125982D01*
G01X86996710Y-15118554D01*
G01X86996710Y-15118554D01*
G01X87061655Y-15086826D01*
G01X87115598Y-15075482D01*
G01X87136456Y-15074023D01*
G01X87136456Y-15074023D01*
G01X87205073Y-15084364D01*
G01X87244654Y-15098217D01*
G01X87246905Y-15099218D01*
G01X87246905Y-15099218D01*
G01X87295829Y-15146893D01*
G01X87301105Y-15168945D01*
G01X87301105Y-15168945D01*
G01X87263127Y-15213631D01*
G01X87247198Y-15219336D01*
G01X87247198Y-15219336D01*
G01X87206281Y-15171544D01*
G01X87192999Y-15163086D01*
G01X87192999Y-15163086D01*
G01X87128603Y-15143130D01*
G01X87107745Y-15141406D01*
G01X87107745Y-15141406D01*
G01X87045936Y-15157998D01*
G01X87036847Y-15163672D01*
G01X87036847Y-15163672D01*
G01X87007771Y-15217033D01*
G01X87006964Y-15226367D01*
G01X87006964Y-15226367D01*
G01X87033908Y-15278854D01*
G01X87038898Y-15282617D01*
G01X87038898Y-15282617D01*
G01X87098213Y-15308836D01*
G01X87116241Y-15313964D01*
G01X87116241Y-15313964D01*
G01X87181843Y-15331183D01*
G01X87207355Y-15338574D01*
G01X87207355Y-15338574D01*
G01X87266488Y-15371178D01*
G01X87284991Y-15388379D01*
G01X87284991Y-15388379D01*
G01X87312933Y-15448913D01*
G01X87316925Y-15482422D01*
G01X87316925Y-15482422D01*
G01X87316925Y-15482422D01*
G01X87300503Y-15554821D01*
G01X87270492Y-15598146D01*
G01X87255694Y-15611621D01*
G01X87255694Y-15611621D01*
G01X87191379Y-15642554D01*
G01X87135124Y-15654120D01*
G01X87110114Y-15655859D01*
G01X87110089Y-15655859D01*
G01X87110089Y-15655859D01*
G01X87035918Y-15646951D01*
G01X86989273Y-15632317D01*
G01X86980011Y-15628320D01*
G01X86980011Y-15628320D01*
G01X86928707Y-15580826D01*
G01X86923175Y-15560351D01*
G37*
G36*
G01X87419464Y-15365820D02*
G01X87419464Y-15365820D01*
G01X87428394Y-15286637D01*
G01X87449044Y-15224310D01*
G01X87472206Y-15180635D01*
G01X87488670Y-15157410D01*
G01X87491534Y-15154004D01*
G01X87491534Y-15154004D01*
G01X87548892Y-15109133D01*
G01X87608275Y-15085269D01*
G01X87656319Y-15075779D01*
G01X87679657Y-15074028D01*
G01X87680206Y-15074023D01*
G01X87680206Y-15074023D01*
G01X87756698Y-15085632D01*
G01X87815156Y-15111615D01*
G01X87853441Y-15138704D01*
G01X87869414Y-15153630D01*
G01X87869757Y-15154004D01*
G01X87869757Y-15154004D01*
G01X87907472Y-15212364D01*
G01X87928929Y-15274048D01*
G01X87938713Y-15327319D01*
G01X87941410Y-15360442D01*
G01X87941534Y-15365820D01*
G01X87941534Y-15365820D01*
G01X87931890Y-15448097D01*
G01X87909943Y-15511711D01*
G01X87886174Y-15554738D01*
G01X87871062Y-15575252D01*
G01X87869757Y-15576757D01*
G01X87869757Y-15576757D01*
G01X87812393Y-15621135D01*
G01X87752717Y-15644737D01*
G01X87704311Y-15654123D01*
G01X87680761Y-15655854D01*
G01X87680206Y-15655859D01*
G01X87680206Y-15655859D01*
G01X87604329Y-15644377D01*
G01X87546125Y-15618680D01*
G01X87507881Y-15591889D01*
G01X87491878Y-15577127D01*
G01X87491534Y-15576757D01*
G01X87491534Y-15576757D01*
G01X87453665Y-15518859D01*
G01X87432121Y-15457438D01*
G01X87422297Y-15404286D01*
G01X87419588Y-15371196D01*
G01X87419464Y-15365820D01*
G37*
%LPC*%
G36*
G01X87503839Y-15348828D02*
G01X87503839Y-15348828D01*
G01X87512750Y-15426576D01*
G01X87531302Y-15483586D01*
G01X87547225Y-15515382D01*
G01X87550421Y-15520507D01*
G01X87550421Y-15520507D01*
G01X87604195Y-15568443D01*
G01X87656061Y-15586368D01*
G01X87680181Y-15589062D01*
G01X87680206Y-15589062D01*
G01X87680206Y-15589062D01*
G01X87754192Y-15573214D01*
G01X87798483Y-15544962D01*
G01X87810870Y-15532812D01*
G01X87810870Y-15532812D01*
G01X87843006Y-15471593D01*
G01X87855558Y-15413139D01*
G01X87857742Y-15383254D01*
G01X87857745Y-15382812D01*
G01X87857745Y-15382812D01*
G01X87848554Y-15304952D01*
G01X87829418Y-15247709D01*
G01X87812995Y-15215713D01*
G01X87809698Y-15210547D01*
G01X87809698Y-15210547D01*
G01X87755348Y-15162201D01*
G01X87703938Y-15144123D01*
G01X87680230Y-15141406D01*
G01X87680206Y-15141406D01*
G01X87680206Y-15141406D01*
G01X87606386Y-15157419D01*
G01X87562389Y-15185965D01*
G01X87550128Y-15198242D01*
G01X87550128Y-15198242D01*
G01X87518394Y-15259863D01*
G01X87505999Y-15318474D01*
G01X87503842Y-15348386D01*
G01X87503839Y-15348828D01*
G37*
%LPD*%
G36*
G01X88067511Y-14755859D02*
G01X88067511Y-14755859D01*
G01X88109698Y-14752343D01*
G01X88109698Y-14752343D01*
G01X88161987Y-14783906D01*
G01X88164776Y-14798047D01*
G01X88164776Y-14798047D01*
G01X88163236Y-14854788D01*
G01X88163019Y-14862207D01*
G01X88163019Y-14862207D01*
G01X88161176Y-14926626D01*
G01X88159485Y-14987842D01*
G01X88158637Y-15019070D01*
G01X88158624Y-15019531D01*
G01X88158624Y-15019531D01*
G01X88157056Y-15094037D01*
G01X88156279Y-15158110D01*
G01X88156015Y-15201555D01*
G01X88155987Y-15214648D01*
G01X88155987Y-15401562D01*
G01X88155987Y-15401562D01*
G01X88158587Y-15491159D01*
G01X88164694Y-15559311D01*
G01X88171769Y-15606278D01*
G01X88177271Y-15632322D01*
G01X88178839Y-15638281D01*
G01X88178839Y-15638281D01*
G01X88133722Y-15647656D01*
G01X88133722Y-15647656D01*
G01X88087433Y-15633300D01*
G01X88087433Y-15633300D01*
G01X88074542Y-15585547D01*
G01X88074542Y-15585547D01*
G01X88074542Y-15585547D01*
G01X88074841Y-15535454D01*
G01X88075400Y-15468079D01*
G01X88075714Y-15432948D01*
G01X88075714Y-15432910D01*
G01X88075714Y-15432910D01*
G01X88076430Y-15343697D01*
G01X88076772Y-15282444D01*
G01X88076878Y-15249047D01*
G01X88076886Y-15242187D01*
G01X88076886Y-15102734D01*
G01X88076886Y-15102734D01*
G01X88076316Y-14989648D01*
G01X88074861Y-14903003D01*
G01X88072899Y-14839652D01*
G01X88070811Y-14796453D01*
G01X88068976Y-14770260D01*
G01X88067773Y-14757930D01*
G01X88067511Y-14755859D01*
G37*
G36*
G01X88304815Y-15365820D02*
G01X88304815Y-15365820D01*
G01X88313963Y-15287180D01*
G01X88335117Y-15225036D01*
G01X88358843Y-15181332D01*
G01X88375709Y-15158017D01*
G01X88378644Y-15154589D01*
G01X88378644Y-15154589D01*
G01X88437622Y-15108012D01*
G01X88495392Y-15084094D01*
G01X88539319Y-15075282D01*
G01X88556769Y-15074023D01*
G01X88556769Y-15074023D01*
G01X88556769Y-15074023D01*
G01X88628032Y-15085579D01*
G01X88679721Y-15106179D01*
G01X88696222Y-15115039D01*
G01X88696222Y-15115039D01*
G01X88698084Y-15036438D01*
G01X88698552Y-14994791D01*
G01X88698565Y-14990234D01*
G01X88698565Y-14990234D01*
G01X88697404Y-14901904D01*
G01X88694718Y-14832916D01*
G01X88691705Y-14784920D01*
G01X88689563Y-14759561D01*
G01X88689190Y-14755859D01*
G01X88689190Y-14755859D01*
G01X88731964Y-14752343D01*
G01X88731964Y-14752343D01*
G01X88783355Y-14784542D01*
G01X88785870Y-14798047D01*
G01X88785870Y-14798047D01*
G01X88785371Y-14839367D01*
G01X88784164Y-14902902D01*
G01X88782683Y-14972159D01*
G01X88781362Y-15030643D01*
G01X88780635Y-15061861D01*
G01X88780597Y-15063476D01*
G01X88780597Y-15063476D01*
G01X88778449Y-15160156D01*
G01X88776981Y-15237668D01*
G01X88776065Y-15297009D01*
G01X88775569Y-15339170D01*
G01X88775365Y-15365145D01*
G01X88775324Y-15375928D01*
G01X88775323Y-15376367D01*
G01X88775323Y-15376367D01*
G01X88777485Y-15476081D01*
G01X88782715Y-15548899D01*
G01X88789133Y-15598004D01*
G01X88794858Y-15626580D01*
G01X88798009Y-15637810D01*
G01X88798175Y-15638281D01*
G01X88798175Y-15638281D01*
G01X88752472Y-15647656D01*
G01X88752472Y-15647656D01*
G01X88704671Y-15611539D01*
G01X88699737Y-15587890D01*
G01X88699737Y-15587890D01*
G01X88636666Y-15631532D01*
G01X88581323Y-15650823D01*
G01X88547942Y-15655710D01*
G01X88543878Y-15655859D01*
G01X88542706Y-15655859D01*
G01X88542706Y-15655859D01*
G01X88471280Y-15641148D01*
G01X88416272Y-15609932D01*
G01X88383079Y-15581586D01*
G01X88375714Y-15573828D01*
G01X88375714Y-15573828D01*
G01X88337183Y-15512320D01*
G01X88315979Y-15449268D01*
G01X88306928Y-15397077D01*
G01X88304852Y-15368152D01*
G01X88304815Y-15365820D01*
G37*
%LPC*%
G36*
G01X88389190Y-15348828D02*
G01X88389190Y-15348828D01*
G01X88398830Y-15428779D01*
G01X88418899Y-15486802D01*
G01X88436124Y-15518883D01*
G01X88439581Y-15524023D01*
G01X88439581Y-15524023D01*
G01X88496274Y-15573751D01*
G01X88544655Y-15590727D01*
G01X88561456Y-15592578D01*
G01X88561456Y-15592578D01*
G01X88627306Y-15575108D01*
G01X88676306Y-15542409D01*
G01X88696203Y-15524043D01*
G01X88696222Y-15524023D01*
G01X88696222Y-15524023D01*
G01X88695317Y-15402174D01*
G01X88694682Y-15312405D01*
G01X88694268Y-15249934D01*
G01X88694028Y-15209979D01*
G01X88693915Y-15187759D01*
G01X88693880Y-15178492D01*
G01X88693878Y-15177148D01*
G01X88693878Y-15177148D01*
G01X88624327Y-15149519D01*
G01X88578330Y-15141786D01*
G01X88570245Y-15141406D01*
G01X88570245Y-15141406D01*
G01X88497502Y-15156649D01*
G01X88452322Y-15184507D01*
G01X88437823Y-15198242D01*
G01X88437823Y-15198242D01*
G01X88404482Y-15259863D01*
G01X88391459Y-15318474D01*
G01X88389194Y-15348386D01*
G01X88389190Y-15348828D01*
G37*
%LPD*%
G36*
G01X88923565Y-15368164D02*
G01X88923565Y-15368164D01*
G01X88933475Y-15284219D01*
G01X88956392Y-15220005D01*
G01X88982096Y-15176197D01*
G01X89000367Y-15153467D01*
G01X89003546Y-15150195D01*
G01X89003546Y-15150195D01*
G01X89066630Y-15106158D01*
G01X89127435Y-15083545D01*
G01X89173244Y-15075213D01*
G01X89191339Y-15074023D01*
G01X89191339Y-15074023D01*
G01X89191339Y-15074023D01*
G01X89266810Y-15087395D01*
G01X89313750Y-15111232D01*
G01X89327276Y-15121484D01*
G01X89327276Y-15121484D01*
G01X89368161Y-15181175D01*
G01X89379008Y-15225790D01*
G01X89379425Y-15232812D01*
G01X89379425Y-15232812D01*
G01X89367892Y-15298759D01*
G01X89362726Y-15310742D01*
G01X89362726Y-15310742D01*
G01X89323216Y-15356644D01*
G01X89319073Y-15359668D01*
G01X89319073Y-15359668D01*
G01X89259955Y-15382882D01*
G01X89241144Y-15387207D01*
G01X89241144Y-15387207D01*
G01X89171930Y-15396838D01*
G01X89140948Y-15399218D01*
G01X89140948Y-15399218D01*
G01X89140948Y-15399218D01*
G01X89075796Y-15401030D01*
G01X89021926Y-15401537D01*
G01X89011456Y-15401562D01*
G01X89011456Y-15401562D01*
G01X89029529Y-15476525D01*
G01X89052738Y-15523308D01*
G01X89063312Y-15538379D01*
G01X89063312Y-15538379D01*
G01X89120116Y-15576983D01*
G01X89169819Y-15588361D01*
G01X89181378Y-15589062D01*
G01X89181378Y-15589062D01*
G01X89256769Y-15572248D01*
G01X89297583Y-15541518D01*
G01X89309112Y-15526367D01*
G01X89309112Y-15526367D01*
G01X89355276Y-15569079D01*
G01X89356573Y-15576757D01*
G01X89356573Y-15576757D01*
G01X89321262Y-15624261D01*
G01X89302081Y-15634179D01*
G01X89302081Y-15634179D01*
G01X89234088Y-15651406D01*
G01X89186288Y-15655733D01*
G01X89180206Y-15655859D01*
G01X89180206Y-15655859D01*
G01X89103613Y-15644735D01*
G01X89045367Y-15620263D01*
G01X89008325Y-15595791D01*
G01X88995343Y-15584668D01*
G01X88995343Y-15584668D01*
G01X88995343Y-15584668D01*
G01X88957628Y-15529255D01*
G01X88936171Y-15466338D01*
G01X88926387Y-15409933D01*
G01X88923690Y-15374062D01*
G01X88923565Y-15368164D01*
G37*
%LPC*%
G36*
G01X89010284Y-15341797D02*
G01X89010284Y-15341797D01*
G01X89080543Y-15341054D01*
G01X89096417Y-15340625D01*
G01X89096417Y-15340625D01*
G01X89159376Y-15334996D01*
G01X89172003Y-15333300D01*
G01X89172003Y-15333300D01*
G01X89233075Y-15318373D01*
G01X89238214Y-15316308D01*
G01X89238214Y-15316308D01*
G01X89279476Y-15285307D01*
G01X89279523Y-15285254D01*
G01X89279523Y-15285254D01*
G01X89296802Y-15235582D01*
G01X89296808Y-15235156D01*
G01X89296808Y-15235156D01*
G01X89273653Y-15177422D01*
G01X89265167Y-15168359D01*
G01X89265167Y-15168359D01*
G01X89206010Y-15142172D01*
G01X89186651Y-15140234D01*
G01X89186651Y-15140234D01*
G01X89116830Y-15155462D01*
G01X89073417Y-15181201D01*
G01X89063605Y-15189453D01*
G01X89063605Y-15189453D01*
G01X89028838Y-15246089D01*
G01X89013840Y-15305739D01*
G01X89010335Y-15340334D01*
G01X89010284Y-15341797D01*
G37*
%LPD*%
G36*
G01X89505401Y-15086328D02*
G01X89505401Y-15086328D01*
G01X89546417Y-15082812D01*
G01X89546417Y-15082812D01*
G01X89595953Y-15115829D01*
G01X89597980Y-15127929D01*
G01X89597980Y-15127929D01*
G01X89597394Y-15144336D01*
G01X89597394Y-15144336D01*
G01X89596808Y-15170117D01*
G01X89596808Y-15170117D01*
G01X89640964Y-15120229D01*
G01X89660968Y-15103613D01*
G01X89660968Y-15103613D01*
G01X89723210Y-15076062D01*
G01X89740362Y-15074023D01*
G01X89740362Y-15074023D01*
G01X89783722Y-15086621D01*
G01X89783722Y-15086621D01*
G01X89799542Y-15120898D01*
G01X89799542Y-15120898D01*
G01X89777167Y-15172580D01*
G01X89775519Y-15174804D01*
G01X89775519Y-15174804D01*
G01X89721355Y-15152164D01*
G01X89717511Y-15151953D01*
G01X89717511Y-15151953D01*
G01X89659122Y-15172289D01*
G01X89650421Y-15178320D01*
G01X89650421Y-15178320D01*
G01X89606127Y-15228004D01*
G01X89593878Y-15248047D01*
G01X89593878Y-15248047D01*
G01X89593059Y-15305095D01*
G01X89592752Y-15368921D01*
G01X89592706Y-15400357D01*
G01X89592706Y-15400390D01*
G01X89592706Y-15400390D01*
G01X89595306Y-15491042D01*
G01X89601413Y-15559579D01*
G01X89608488Y-15606522D01*
G01X89613990Y-15632392D01*
G01X89615558Y-15638281D01*
G01X89615558Y-15638281D01*
G01X89569855Y-15647656D01*
G01X89569855Y-15647656D01*
G01X89523273Y-15632129D01*
G01X89523273Y-15632129D01*
G01X89523273Y-15632129D01*
G01X89511270Y-15579969D01*
G01X89511261Y-15579101D01*
G01X89511261Y-15579101D01*
G01X89511899Y-15520742D01*
G01X89512433Y-15484472D01*
G01X89512433Y-15484472D01*
G01X89513388Y-15406430D01*
G01X89513601Y-15369448D01*
G01X89513605Y-15366992D01*
G01X89513605Y-15366992D01*
G01X89512903Y-15280649D01*
G01X89511181Y-15208113D01*
G01X89509012Y-15151005D01*
G01X89506971Y-15110945D01*
G01X89505631Y-15089551D01*
G01X89505401Y-15086328D01*
G37*
G36*
G01X89883331Y-15092187D02*
G01X89883331Y-15092187D01*
G01X89930206Y-15082812D01*
G01X89930206Y-15082812D01*
G01X89977669Y-15118929D01*
G01X89981769Y-15142578D01*
G01X89981769Y-15142578D01*
G01X90049902Y-15102945D01*
G01X90110675Y-15082592D01*
G01X90154309Y-15075094D01*
G01X90171026Y-15074023D01*
G01X90171026Y-15074023D01*
G01X90171026Y-15074023D01*
G01X90244952Y-15088698D01*
G01X90295752Y-15117430D01*
G01X90318714Y-15137284D01*
G01X90319562Y-15138183D01*
G01X90319562Y-15138183D01*
G01X90353267Y-15195784D01*
G01X90370575Y-15259948D01*
G01X90376951Y-15312083D01*
G01X90377862Y-15333593D01*
G01X90377862Y-15333593D01*
G01X90377862Y-15333593D01*
G01X90371278Y-15409918D01*
G01X90358667Y-15466069D01*
G01X90350744Y-15490871D01*
G01X90350616Y-15491211D01*
G01X90350616Y-15491211D01*
G01X90315175Y-15554636D01*
G01X90278941Y-15595677D01*
G01X90263605Y-15609277D01*
G01X90263605Y-15609277D01*
G01X90200313Y-15641849D01*
G01X90144442Y-15654028D01*
G01X90119489Y-15655859D01*
G01X90119464Y-15655859D01*
G01X90119464Y-15655859D01*
G01X90048452Y-15643913D01*
G01X89998946Y-15623163D01*
G01X89985284Y-15615429D01*
G01X89985284Y-15615429D01*
G01X89985809Y-15672429D01*
G01X89985870Y-15678418D01*
G01X89985870Y-15678418D01*
G01X89986852Y-15747616D01*
G01X89987042Y-15755761D01*
G01X89987042Y-15755761D01*
G01X89989723Y-15814139D01*
G01X89989972Y-15818750D01*
G01X89989972Y-15818750D01*
G01X89996225Y-15882414D01*
G01X89997296Y-15889062D01*
G01X89997296Y-15889062D01*
G01X90009306Y-15938274D01*
G01X90009308Y-15938281D01*
G01X90009308Y-15938281D01*
G01X89961261Y-15947656D01*
G01X89961261Y-15947656D01*
G01X89914679Y-15932129D01*
G01X89914679Y-15932129D01*
G01X89914679Y-15932129D01*
G01X89902676Y-15879969D01*
G01X89902667Y-15879101D01*
G01X89902667Y-15879101D01*
G01X89902817Y-15811404D01*
G01X89903186Y-15740866D01*
G01X89903651Y-15675525D01*
G01X89904089Y-15623417D01*
G01X89904376Y-15592580D01*
G01X89904425Y-15587597D01*
G01X89904425Y-15587597D01*
G01X89905316Y-15491723D01*
G01X89905840Y-15421643D01*
G01X89906094Y-15375323D01*
G01X89906175Y-15350727D01*
G01X89906183Y-15345312D01*
G01X89906183Y-15345312D01*
G01X89903806Y-15246312D01*
G01X89898139Y-15174453D01*
G01X89891375Y-15126781D01*
G01X89885708Y-15100343D01*
G01X89883331Y-15092187D01*
G01X89883331Y-15092187D01*
G37*
%LPC*%
G36*
G01X89985284Y-15207617D02*
G01X89985284Y-15207617D01*
G01X89986189Y-15314309D01*
G01X89986824Y-15398441D01*
G01X89987238Y-15462055D01*
G01X89987478Y-15507190D01*
G01X89987591Y-15535888D01*
G01X89987626Y-15550190D01*
G01X89987628Y-15552734D01*
G01X89987628Y-15552734D01*
G01X90050757Y-15578358D01*
G01X90108441Y-15587749D01*
G01X90131769Y-15589062D01*
G01X90131769Y-15589062D01*
G01X90197833Y-15570752D01*
G01X90223468Y-15552441D01*
G01X90223468Y-15552441D01*
G01X90223468Y-15552441D01*
G01X90263245Y-15496459D01*
G01X90276713Y-15463917D01*
G01X90276788Y-15463672D01*
G01X90276788Y-15463672D01*
G01X90289589Y-15395911D01*
G01X90292289Y-15353660D01*
G01X90292315Y-15351172D01*
G01X90292315Y-15351172D01*
G01X90282867Y-15267117D01*
G01X90264368Y-15214787D01*
G01X90251586Y-15193134D01*
G01X90251007Y-15192382D01*
G01X90251007Y-15192382D01*
G01X90192977Y-15151352D01*
G01X90149291Y-15141615D01*
G01X90144659Y-15141406D01*
G01X90144659Y-15141406D01*
G01X90076504Y-15154881D01*
G01X90021011Y-15182389D01*
G01X89989072Y-15204551D01*
G01X89985284Y-15207617D01*
G37*
%LPD*%
G36*
G01X90485089Y-15487109D02*
G01X90485089Y-15487109D01*
G01X90500305Y-15417539D01*
G01X90513800Y-15397168D01*
G01X90513800Y-15397168D01*
G01X90568857Y-15362387D01*
G01X90592901Y-15353515D01*
G01X90592901Y-15353515D01*
G01X90657448Y-15339876D01*
G01X90724044Y-15330344D01*
G01X90780785Y-15324433D01*
G01X90815765Y-15321656D01*
G01X90821417Y-15321289D01*
G01X90821417Y-15321289D01*
G01X90814318Y-15236356D01*
G01X90801664Y-15191540D01*
G01X90796222Y-15180371D01*
G01X90796222Y-15180371D01*
G01X90743234Y-15148622D01*
G01X90693438Y-15141513D01*
G01X90688995Y-15141406D01*
G01X90688995Y-15141406D01*
G01X90628798Y-15157901D01*
G01X90619562Y-15162793D01*
G01X90619562Y-15162793D01*
G01X90574062Y-15209389D01*
G01X90565362Y-15225195D01*
G01X90565362Y-15225195D01*
G01X90512854Y-15188721D01*
G01X90510284Y-15177148D01*
G01X90510284Y-15177148D01*
G01X90540007Y-15121304D01*
G01X90567999Y-15102148D01*
G01X90567999Y-15102148D01*
G01X90635031Y-15081056D01*
G01X90688589Y-15074517D01*
G01X90702472Y-15074023D01*
G01X90702472Y-15074023D01*
G01X90784782Y-15084360D01*
G01X90834635Y-15104157D01*
G01X90853413Y-15116597D01*
G01X90853644Y-15116797D01*
G01X90853644Y-15116797D01*
G01X90885907Y-15170713D01*
G01X90899054Y-15231748D01*
G01X90901674Y-15268168D01*
G01X90901690Y-15269726D01*
G01X90901690Y-15269726D01*
G01X90900757Y-15327641D01*
G01X90900519Y-15340332D01*
G01X90900519Y-15340332D01*
G01X90899454Y-15413494D01*
G01X90899347Y-15432031D01*
G01X90899347Y-15432031D01*
G01X90902917Y-15522595D01*
G01X90910773Y-15587011D01*
G01X90918628Y-15625500D01*
G01X90922198Y-15638281D01*
G01X90922198Y-15638281D01*
G01X90922198Y-15638281D01*
G01X90875323Y-15647656D01*
G01X90875323Y-15647656D01*
G01X90838116Y-15635058D01*
G01X90838116Y-15635058D01*
G01X90823761Y-15594922D01*
G01X90823761Y-15594922D01*
G01X90757785Y-15634957D01*
G01X90702851Y-15651959D01*
G01X90672534Y-15655798D01*
G01X90670245Y-15655859D01*
G01X90670245Y-15655859D01*
G01X90587391Y-15641425D01*
G01X90533886Y-15605995D01*
G01X90503312Y-15561381D01*
G01X90489253Y-15519390D01*
G01X90485290Y-15491834D01*
G01X90485089Y-15487109D01*
G37*
%LPC*%
G36*
G01X90569464Y-15487109D02*
G01X90569464Y-15487109D01*
G01X90588231Y-15552309D01*
G01X90600519Y-15566797D01*
G01X90600519Y-15566797D01*
G01X90660720Y-15590928D01*
G01X90679620Y-15592578D01*
G01X90679620Y-15592578D01*
G01X90752736Y-15578121D01*
G01X90801053Y-15551699D01*
G01X90817315Y-15538672D01*
G01X90817315Y-15538672D01*
G01X90816145Y-15483765D01*
G01X90816144Y-15482422D01*
G01X90816144Y-15482422D01*
G01X90818471Y-15413042D01*
G01X90820245Y-15382812D01*
G01X90820245Y-15382812D01*
G01X90768181Y-15388660D01*
G01X90768097Y-15388672D01*
G01X90768097Y-15388672D01*
G01X90720929Y-15394531D01*
G01X90720929Y-15394531D01*
G01X90676983Y-15401562D01*
G01X90676983Y-15401562D01*
G01X90641827Y-15411230D01*
G01X90641827Y-15411230D01*
G01X90610773Y-15424707D01*
G01X90610773Y-15424707D01*
G01X90589093Y-15440820D01*
G01X90589093Y-15440820D01*
G01X90573565Y-15461035D01*
G01X90573565Y-15461035D01*
G01X90569464Y-15487109D01*
G37*
%LPD*%
G36*
G01X91035870Y-15560351D02*
G01X91035870Y-15560351D01*
G01X91073848Y-15516248D01*
G01X91089776Y-15509961D01*
G01X91089776Y-15509961D01*
G01X91130677Y-15559257D01*
G01X91146905Y-15568847D01*
G01X91146905Y-15568847D01*
G01X91213057Y-15586827D01*
G01X91242120Y-15589062D01*
G01X91242120Y-15589062D01*
G01X91309629Y-15574918D01*
G01X91325616Y-15566211D01*
G01X91325616Y-15566211D01*
G01X91355932Y-15511335D01*
G01X91357550Y-15495312D01*
G01X91357550Y-15495312D01*
G01X91330251Y-15443535D01*
G01X91325616Y-15440234D01*
G01X91325616Y-15440234D01*
G01X91265500Y-15415254D01*
G01X91248273Y-15410644D01*
G01X91248273Y-15410644D01*
G01X91181695Y-15393679D01*
G01X91157159Y-15386621D01*
G01X91157159Y-15386621D01*
G01X91098799Y-15353366D01*
G01X91079523Y-15334472D01*
G01X91079523Y-15334472D01*
G01X91052343Y-15273011D01*
G01X91047596Y-15233477D01*
G01X91047589Y-15232812D01*
G01X91047589Y-15232812D01*
G01X91067584Y-15165299D01*
G01X91100433Y-15125982D01*
G01X91109405Y-15118554D01*
G01X91109405Y-15118554D01*
G01X91174350Y-15086826D01*
G01X91228293Y-15075482D01*
G01X91249151Y-15074023D01*
G01X91249151Y-15074023D01*
G01X91317768Y-15084364D01*
G01X91357349Y-15098217D01*
G01X91359601Y-15099218D01*
G01X91359601Y-15099218D01*
G01X91408524Y-15146893D01*
G01X91413800Y-15168945D01*
G01X91413800Y-15168945D01*
G01X91375822Y-15213631D01*
G01X91359894Y-15219336D01*
G01X91359894Y-15219336D01*
G01X91318976Y-15171544D01*
G01X91305694Y-15163086D01*
G01X91305694Y-15163086D01*
G01X91241299Y-15143130D01*
G01X91220440Y-15141406D01*
G01X91220440Y-15141406D01*
G01X91158631Y-15157998D01*
G01X91149542Y-15163672D01*
G01X91149542Y-15163672D01*
G01X91120466Y-15217033D01*
G01X91119659Y-15226367D01*
G01X91119659Y-15226367D01*
G01X91146603Y-15278854D01*
G01X91151593Y-15282617D01*
G01X91151593Y-15282617D01*
G01X91210908Y-15308836D01*
G01X91228937Y-15313964D01*
G01X91228937Y-15313964D01*
G01X91294538Y-15331183D01*
G01X91320050Y-15338574D01*
G01X91320050Y-15338574D01*
G01X91379183Y-15371178D01*
G01X91397687Y-15388379D01*
G01X91397687Y-15388379D01*
G01X91425628Y-15448913D01*
G01X91429620Y-15482422D01*
G01X91429620Y-15482422D01*
G01X91429620Y-15482422D01*
G01X91413199Y-15554821D01*
G01X91383187Y-15598146D01*
G01X91368390Y-15611621D01*
G01X91368390Y-15611621D01*
G01X91304074Y-15642554D01*
G01X91247820Y-15654120D01*
G01X91222809Y-15655859D01*
G01X91222784Y-15655859D01*
G01X91222784Y-15655859D01*
G01X91148614Y-15646951D01*
G01X91101968Y-15632317D01*
G01X91092706Y-15628320D01*
G01X91092706Y-15628320D01*
G01X91041402Y-15580826D01*
G01X91035870Y-15560351D01*
G37*
G36*
G01X91478253Y-15129101D02*
G01X91478253Y-15129101D01*
G01X91496124Y-15093945D01*
G01X91496124Y-15093945D01*
G01X91553131Y-15086380D01*
G01X91557355Y-15086328D01*
G01X91591339Y-15086328D01*
G01X91591339Y-15086328D01*
G01X91587848Y-15007560D01*
G01X91584520Y-14960581D01*
G01X91583722Y-14951562D01*
G01X91583722Y-14951562D01*
G01X91623565Y-14948047D01*
G01X91623565Y-14948047D01*
G01X91677837Y-14978967D01*
G01X91680987Y-14993750D01*
G01X91680987Y-14993750D01*
G01X91678363Y-15052062D01*
G01X91676300Y-15087500D01*
G01X91676300Y-15087500D01*
G01X91772064Y-15086493D01*
G01X91834210Y-15084277D01*
G01X91867792Y-15082061D01*
G01X91877862Y-15081054D01*
G01X91877862Y-15081054D01*
G01X91877862Y-15081054D01*
G01X91882550Y-15109179D01*
G01X91882550Y-15109179D01*
G01X91869952Y-15141406D01*
G01X91869952Y-15141406D01*
G01X91829815Y-15150781D01*
G01X91829815Y-15150781D01*
G01X91771871Y-15151600D01*
G01X91706368Y-15151907D01*
G01X91673990Y-15151953D01*
G01X91673956Y-15151953D01*
G01X91673956Y-15151953D01*
G01X91672858Y-15226150D01*
G01X91672171Y-15296827D01*
G01X91671799Y-15357547D01*
G01X91671645Y-15401871D01*
G01X91671613Y-15423361D01*
G01X91671612Y-15424414D01*
G01X91671612Y-15424414D01*
G01X91678538Y-15510114D01*
G01X91690566Y-15551574D01*
G01X91695050Y-15560058D01*
G01X91695050Y-15560058D01*
G01X91750118Y-15590168D01*
G01X91772394Y-15592578D01*
G01X91772394Y-15592578D01*
G01X91837030Y-15572781D01*
G01X91858526Y-15556250D01*
G01X91858526Y-15556250D01*
G01X91880206Y-15599609D01*
G01X91880206Y-15599609D01*
G01X91849473Y-15640165D01*
G01X91849151Y-15640332D01*
G01X91849151Y-15640332D01*
G01X91787444Y-15655193D01*
G01X91773565Y-15655859D01*
G01X91773565Y-15655859D01*
G01X91695294Y-15641982D01*
G01X91649501Y-15615405D01*
G01X91632847Y-15598705D01*
G01X91632648Y-15598437D01*
G01X91632648Y-15598437D01*
G01X91606757Y-15540591D01*
G01X91594858Y-15478544D01*
G01X91591508Y-15434832D01*
G01X91591339Y-15426757D01*
G01X91591339Y-15426757D01*
G01X91592437Y-15319359D01*
G01X91593124Y-15242231D01*
G01X91593496Y-15191249D01*
G01X91593650Y-15162291D01*
G01X91593682Y-15151233D01*
G01X91593683Y-15150781D01*
G01X91593683Y-15150781D01*
G01X91544656Y-15154518D01*
G01X91484807Y-15159324D01*
G01X91481769Y-15159570D01*
G01X91481769Y-15159570D01*
G01X91478253Y-15129101D01*
G37*
G36*
G01X91954034Y-15368164D02*
G01X91954034Y-15368164D01*
G01X91963944Y-15284219D01*
G01X91986861Y-15220005D01*
G01X92012565Y-15176197D01*
G01X92030836Y-15153467D01*
G01X92034015Y-15150195D01*
G01X92034015Y-15150195D01*
G01X92097099Y-15106158D01*
G01X92157904Y-15083545D01*
G01X92203712Y-15075213D01*
G01X92221808Y-15074023D01*
G01X92221808Y-15074023D01*
G01X92221808Y-15074023D01*
G01X92297279Y-15087395D01*
G01X92344219Y-15111232D01*
G01X92357745Y-15121484D01*
G01X92357745Y-15121484D01*
G01X92398630Y-15181175D01*
G01X92409476Y-15225790D01*
G01X92409894Y-15232812D01*
G01X92409894Y-15232812D01*
G01X92398361Y-15298759D01*
G01X92393194Y-15310742D01*
G01X92393194Y-15310742D01*
G01X92353685Y-15356644D01*
G01X92349542Y-15359668D01*
G01X92349542Y-15359668D01*
G01X92290424Y-15382882D01*
G01X92271612Y-15387207D01*
G01X92271612Y-15387207D01*
G01X92202398Y-15396838D01*
G01X92171417Y-15399218D01*
G01X92171417Y-15399218D01*
G01X92171417Y-15399218D01*
G01X92106265Y-15401030D01*
G01X92052395Y-15401537D01*
G01X92041925Y-15401562D01*
G01X92041925Y-15401562D01*
G01X92059998Y-15476525D01*
G01X92083207Y-15523308D01*
G01X92093780Y-15538379D01*
G01X92093780Y-15538379D01*
G01X92150585Y-15576983D01*
G01X92200288Y-15588361D01*
G01X92211847Y-15589062D01*
G01X92211847Y-15589062D01*
G01X92287238Y-15572248D01*
G01X92328052Y-15541518D01*
G01X92339581Y-15526367D01*
G01X92339581Y-15526367D01*
G01X92385745Y-15569079D01*
G01X92387042Y-15576757D01*
G01X92387042Y-15576757D01*
G01X92351731Y-15624261D01*
G01X92332550Y-15634179D01*
G01X92332550Y-15634179D01*
G01X92264556Y-15651406D01*
G01X92216756Y-15655733D01*
G01X92210675Y-15655859D01*
G01X92210675Y-15655859D01*
G01X92134082Y-15644735D01*
G01X92075836Y-15620263D01*
G01X92038794Y-15595791D01*
G01X92025812Y-15584668D01*
G01X92025812Y-15584668D01*
G01X92025812Y-15584668D01*
G01X91988096Y-15529255D01*
G01X91966639Y-15466338D01*
G01X91956855Y-15409933D01*
G01X91954158Y-15374062D01*
G01X91954034Y-15368164D01*
G37*
%LPC*%
G36*
G01X92040753Y-15341797D02*
G01X92040753Y-15341797D01*
G01X92111012Y-15341054D01*
G01X92126886Y-15340625D01*
G01X92126886Y-15340625D01*
G01X92189845Y-15334996D01*
G01X92202472Y-15333300D01*
G01X92202472Y-15333300D01*
G01X92263544Y-15318373D01*
G01X92268683Y-15316308D01*
G01X92268683Y-15316308D01*
G01X92309945Y-15285307D01*
G01X92309991Y-15285254D01*
G01X92309991Y-15285254D01*
G01X92327270Y-15235582D01*
G01X92327276Y-15235156D01*
G01X92327276Y-15235156D01*
G01X92304122Y-15177422D01*
G01X92295636Y-15168359D01*
G01X92295636Y-15168359D01*
G01X92236479Y-15142172D01*
G01X92217120Y-15140234D01*
G01X92217120Y-15140234D01*
G01X92147299Y-15155462D01*
G01X92103886Y-15181201D01*
G01X92094073Y-15189453D01*
G01X92094073Y-15189453D01*
G01X92059307Y-15246089D01*
G01X92044308Y-15305739D01*
G01X92040803Y-15340334D01*
G01X92040753Y-15341797D01*
G37*

G04 Pad flashes *
%LPD*%
D11*

G04 end of program *
M02*
