G04                                                      *
G04 Greetings!                                           *
G04 This Gerber was generated by PCBmodE, an open source *
G04 PCB design software. Get it here:                    *
G04                                                      *
G04   http://pcbmode.com                                 *
G04                                                      *
G04 Also visit                                           *
G04                                                      *
G04   http://boldport.com                                *
G04                                                      *
G04 and follow @boldport / @pcbmode for updates!         *
G04                                                      *

G04 leading zeros omitted (L); absolute data (A); 6 integer digits and 6 fractional digits *
%FSLAX66Y66*%

G04 mode (MO): millimeters (MM) *
%MOMM*%

G04 Aperture definitions *
%ADD10C,0.001X*%
%ADD11C,0.001X*%
%ADD20C,0.40X*%

%LPD*%
D20*
G01X49316402Y-60533445D02*
G01X48464962Y-59682005D01*
D20*
G01X50732824Y-59117024D02*
G01X49009904Y-57394104D01*
D20*
G01X75280171Y-31135960D02*
G01X76469464Y-30947594D01*
D20*
G01X75593528Y-33114421D02*
G01X78000106Y-32733256D01*
D20*
G01X74628284Y-50207698D02*
G01X75671080Y-50809757D01*
D20*
G01X73626722Y-51942453D02*
G01X75736859Y-53160741D01*
D20*
G01X22477066Y-30714438D02*
G01X23328506Y-29862998D01*
D20*
G01X23893488Y-32130860D02*
G01X25616407Y-30407940D01*
D20*
G01X17805144Y-59989985D02*
G01X16673643Y-59578152D01*
D20*
G01X18490252Y-58107665D02*
G01X16200619Y-57274307D01*
D20*
G01X66875324Y-15652871D02*
G01X68061148Y-15443778D01*
D20*
G01X67223162Y-17625561D02*
G01X69622721Y-17202454D01*
G36*
G01X81580792Y-11850000D02*
G01X82780792Y-11850000D01*
G01X82780792Y-13050000D01*
G01X81580792Y-13050000D01*
G01X81580792Y-11850000D01*
G37*
G36*
G01X83030792Y-12001758D02*
G01X83030792Y-12001758D01*
G01X83074151Y-11998242D01*
G01X83074151Y-11998242D01*
G01X83125542Y-12030441D01*
G01X83128058Y-12043946D01*
G01X83128058Y-12043946D01*
G01X83127774Y-12089271D01*
G01X83127232Y-12159545D01*
G01X83126891Y-12201774D01*
G01X83126886Y-12202442D01*
G01X83126886Y-12202442D01*
G01X83126151Y-12299262D01*
G01X83125814Y-12355763D01*
G01X83125719Y-12380552D01*
G01X83125714Y-12383789D01*
G01X83125714Y-12383789D01*
G01X83194394Y-12345803D01*
G01X83255744Y-12326985D01*
G01X83298396Y-12320602D01*
G01X83311456Y-12319922D01*
G01X83311456Y-12319922D01*
G01X83385643Y-12334603D01*
G01X83436985Y-12363966D01*
G01X83461781Y-12385988D01*
G01X83463507Y-12387891D01*
G01X83463507Y-12387891D01*
G01X83496215Y-12445499D01*
G01X83513610Y-12509369D01*
G01X83520528Y-12562879D01*
G01X83521804Y-12589408D01*
G01X83521808Y-12590039D01*
G01X83521808Y-12590039D01*
G01X83513749Y-12670456D01*
G01X83495113Y-12735638D01*
G01X83474211Y-12782513D01*
G01X83459353Y-12808014D01*
G01X83456768Y-12811817D01*
G01X83456768Y-12811817D01*
G01X83402505Y-12862276D01*
G01X83343316Y-12889112D01*
G01X83294123Y-12899784D01*
G01X83269845Y-12901752D01*
G01X83269268Y-12901758D01*
G01X83269268Y-12901758D01*
G01X83191499Y-12892491D01*
G01X83126541Y-12870725D01*
G01X83077748Y-12845511D01*
G01X83048472Y-12825900D01*
G01X83041339Y-12820313D01*
G01X83041339Y-12820313D01*
G01X83045403Y-12765825D01*
G01X83047976Y-12698428D01*
G01X83049397Y-12632494D01*
G01X83050001Y-12582394D01*
G01X83050128Y-12562500D01*
G01X83050128Y-12562500D01*
G01X83050128Y-12562500D01*
G01X83049655Y-12501138D01*
G01X83048478Y-12431754D01*
G01X83046959Y-12363244D01*
G01X83045462Y-12304502D01*
G01X83044349Y-12264425D01*
G01X83043976Y-12251660D01*
G01X83043976Y-12251660D01*
G01X83040242Y-12147258D01*
G01X83036677Y-12075481D01*
G01X83033661Y-12030914D01*
G01X83031572Y-12008145D01*
G01X83030792Y-12001758D01*
G01X83030792Y-12001758D01*
G37*
%LPC*%
G36*
G01X83124542Y-12772266D02*
G01X83124542Y-12772266D01*
G01X83189474Y-12813198D01*
G01X83245958Y-12830780D01*
G01X83277951Y-12834883D01*
G01X83280401Y-12834961D01*
G01X83280401Y-12834961D01*
G01X83348758Y-12815481D01*
G01X83387916Y-12780755D01*
G01X83398468Y-12765821D01*
G01X83398468Y-12765821D01*
G01X83424068Y-12699892D01*
G01X83434939Y-12639596D01*
G01X83437394Y-12604485D01*
G01X83437433Y-12601758D01*
G01X83437433Y-12601758D01*
G01X83428130Y-12519408D01*
G01X83409526Y-12466294D01*
G01X83395572Y-12442226D01*
G01X83394366Y-12440625D01*
G01X83394366Y-12440625D01*
G01X83336311Y-12398256D01*
G01X83292075Y-12387616D01*
G01X83286261Y-12387305D01*
G01X83284503Y-12387305D01*
G01X83284503Y-12387305D01*
G01X83215163Y-12400184D01*
G01X83160864Y-12426474D01*
G01X83130437Y-12447656D01*
G01X83126886Y-12450586D01*
G01X83126886Y-12450586D01*
G01X83127307Y-12509427D01*
G01X83127472Y-12527637D01*
G01X83127472Y-12527637D01*
G01X83127984Y-12601575D01*
G01X83128058Y-12628711D01*
G01X83128058Y-12628711D01*
G01X83128058Y-12628711D01*
G01X83127067Y-12711787D01*
G01X83125301Y-12759420D01*
G01X83124542Y-12772266D01*
G37*
%LPD*%
G36*
G01X83622003Y-12611719D02*
G01X83622003Y-12611719D01*
G01X83630933Y-12532536D01*
G01X83651583Y-12470209D01*
G01X83674744Y-12426534D01*
G01X83691209Y-12403309D01*
G01X83694073Y-12399903D01*
G01X83694073Y-12399903D01*
G01X83751431Y-12355032D01*
G01X83810814Y-12331168D01*
G01X83858858Y-12321678D01*
G01X83882196Y-12319927D01*
G01X83882745Y-12319922D01*
G01X83882745Y-12319922D01*
G01X83959237Y-12331531D01*
G01X84017695Y-12357514D01*
G01X84055980Y-12384603D01*
G01X84071953Y-12399529D01*
G01X84072296Y-12399903D01*
G01X84072296Y-12399903D01*
G01X84110011Y-12458263D01*
G01X84131468Y-12519947D01*
G01X84141252Y-12573218D01*
G01X84143949Y-12606341D01*
G01X84144073Y-12611719D01*
G01X84144073Y-12611719D01*
G01X84134429Y-12693996D01*
G01X84112482Y-12757610D01*
G01X84088713Y-12800637D01*
G01X84073600Y-12821151D01*
G01X84072296Y-12822656D01*
G01X84072296Y-12822656D01*
G01X84014932Y-12867034D01*
G01X83955256Y-12890636D01*
G01X83906850Y-12900022D01*
G01X83883300Y-12901753D01*
G01X83882745Y-12901758D01*
G01X83882745Y-12901758D01*
G01X83806868Y-12890276D01*
G01X83748664Y-12864579D01*
G01X83710420Y-12837788D01*
G01X83694417Y-12823026D01*
G01X83694073Y-12822656D01*
G01X83694073Y-12822656D01*
G01X83656204Y-12764758D01*
G01X83634660Y-12703337D01*
G01X83624836Y-12650185D01*
G01X83622127Y-12617095D01*
G01X83622003Y-12611719D01*
G37*
%LPC*%
G36*
G01X83706378Y-12594727D02*
G01X83706378Y-12594727D01*
G01X83715289Y-12672475D01*
G01X83733841Y-12729485D01*
G01X83749764Y-12761281D01*
G01X83752960Y-12766406D01*
G01X83752960Y-12766406D01*
G01X83806734Y-12814342D01*
G01X83858600Y-12832267D01*
G01X83882720Y-12834961D01*
G01X83882745Y-12834961D01*
G01X83882745Y-12834961D01*
G01X83956731Y-12819113D01*
G01X84001022Y-12790861D01*
G01X84013409Y-12778711D01*
G01X84013409Y-12778711D01*
G01X84045545Y-12717492D01*
G01X84058097Y-12659038D01*
G01X84060281Y-12629153D01*
G01X84060284Y-12628711D01*
G01X84060284Y-12628711D01*
G01X84051093Y-12550851D01*
G01X84031957Y-12493608D01*
G01X84015534Y-12461612D01*
G01X84012237Y-12456446D01*
G01X84012237Y-12456446D01*
G01X83957887Y-12408100D01*
G01X83906476Y-12390022D01*
G01X83882769Y-12387305D01*
G01X83882745Y-12387305D01*
G01X83882745Y-12387305D01*
G01X83808925Y-12403318D01*
G01X83764928Y-12431864D01*
G01X83752667Y-12444141D01*
G01X83752667Y-12444141D01*
G01X83720933Y-12505762D01*
G01X83708538Y-12564373D01*
G01X83706381Y-12594285D01*
G01X83706378Y-12594727D01*
G37*
%LPD*%
G36*
G01X84197979Y-12375000D02*
G01X84197979Y-12375000D01*
G01X84215851Y-12339844D01*
G01X84215851Y-12339844D01*
G01X84272857Y-12332279D01*
G01X84277081Y-12332227D01*
G01X84311065Y-12332227D01*
G01X84311065Y-12332227D01*
G01X84307574Y-12253459D01*
G01X84304246Y-12206480D01*
G01X84303448Y-12197461D01*
G01X84303448Y-12197461D01*
G01X84343292Y-12193946D01*
G01X84343292Y-12193946D01*
G01X84397563Y-12224866D01*
G01X84400714Y-12239649D01*
G01X84400714Y-12239649D01*
G01X84398089Y-12297961D01*
G01X84396026Y-12333399D01*
G01X84396026Y-12333399D01*
G01X84491790Y-12332392D01*
G01X84553936Y-12330176D01*
G01X84587518Y-12327960D01*
G01X84597589Y-12326953D01*
G01X84597589Y-12326953D01*
G01X84597589Y-12326953D01*
G01X84602276Y-12355078D01*
G01X84602276Y-12355078D01*
G01X84589679Y-12387305D01*
G01X84589679Y-12387305D01*
G01X84549542Y-12396680D01*
G01X84549542Y-12396680D01*
G01X84491597Y-12397499D01*
G01X84426095Y-12397806D01*
G01X84393717Y-12397852D01*
G01X84393683Y-12397852D01*
G01X84393683Y-12397852D01*
G01X84392584Y-12472049D01*
G01X84391897Y-12542726D01*
G01X84391525Y-12603446D01*
G01X84391371Y-12647770D01*
G01X84391339Y-12669260D01*
G01X84391339Y-12670313D01*
G01X84391339Y-12670313D01*
G01X84398264Y-12756013D01*
G01X84410293Y-12797473D01*
G01X84414776Y-12805957D01*
G01X84414776Y-12805957D01*
G01X84469844Y-12836067D01*
G01X84492120Y-12838477D01*
G01X84492120Y-12838477D01*
G01X84556757Y-12818680D01*
G01X84578253Y-12802149D01*
G01X84578253Y-12802149D01*
G01X84599933Y-12845508D01*
G01X84599933Y-12845508D01*
G01X84569200Y-12886064D01*
G01X84568878Y-12886231D01*
G01X84568878Y-12886231D01*
G01X84507170Y-12901092D01*
G01X84493292Y-12901758D01*
G01X84493292Y-12901758D01*
G01X84415020Y-12887881D01*
G01X84369228Y-12861304D01*
G01X84352573Y-12844604D01*
G01X84352374Y-12844336D01*
G01X84352374Y-12844336D01*
G01X84326484Y-12786490D01*
G01X84314584Y-12724443D01*
G01X84311235Y-12680731D01*
G01X84311065Y-12672656D01*
G01X84311065Y-12672656D01*
G01X84312164Y-12565258D01*
G01X84312851Y-12488130D01*
G01X84313223Y-12437148D01*
G01X84313377Y-12408190D01*
G01X84313409Y-12397132D01*
G01X84313409Y-12396680D01*
G01X84313409Y-12396680D01*
G01X84264382Y-12400417D01*
G01X84204534Y-12405223D01*
G01X84201495Y-12405469D01*
G01X84201495Y-12405469D01*
G01X84197979Y-12375000D01*
G37*
G36*
G01X84619854Y-12375000D02*
G01X84619854Y-12375000D01*
G01X84637726Y-12339844D01*
G01X84637726Y-12339844D01*
G01X84694732Y-12332279D01*
G01X84698956Y-12332227D01*
G01X84732940Y-12332227D01*
G01X84732940Y-12332227D01*
G01X84729449Y-12253459D01*
G01X84726121Y-12206480D01*
G01X84725323Y-12197461D01*
G01X84725323Y-12197461D01*
G01X84765167Y-12193946D01*
G01X84765167Y-12193946D01*
G01X84819438Y-12224866D01*
G01X84822589Y-12239649D01*
G01X84822589Y-12239649D01*
G01X84819964Y-12297961D01*
G01X84817901Y-12333399D01*
G01X84817901Y-12333399D01*
G01X84913665Y-12332392D01*
G01X84975811Y-12330176D01*
G01X85009393Y-12327960D01*
G01X85019464Y-12326953D01*
G01X85019464Y-12326953D01*
G01X85019464Y-12326953D01*
G01X85024151Y-12355078D01*
G01X85024151Y-12355078D01*
G01X85011554Y-12387305D01*
G01X85011554Y-12387305D01*
G01X84971417Y-12396680D01*
G01X84971417Y-12396680D01*
G01X84913472Y-12397499D01*
G01X84847970Y-12397806D01*
G01X84815592Y-12397852D01*
G01X84815558Y-12397852D01*
G01X84815558Y-12397852D01*
G01X84814459Y-12472049D01*
G01X84813772Y-12542726D01*
G01X84813400Y-12603446D01*
G01X84813246Y-12647770D01*
G01X84813214Y-12669260D01*
G01X84813214Y-12670313D01*
G01X84813214Y-12670313D01*
G01X84820139Y-12756013D01*
G01X84832168Y-12797473D01*
G01X84836651Y-12805957D01*
G01X84836651Y-12805957D01*
G01X84891719Y-12836067D01*
G01X84913995Y-12838477D01*
G01X84913995Y-12838477D01*
G01X84978632Y-12818680D01*
G01X85000128Y-12802149D01*
G01X85000128Y-12802149D01*
G01X85021808Y-12845508D01*
G01X85021808Y-12845508D01*
G01X84991075Y-12886064D01*
G01X84990753Y-12886231D01*
G01X84990753Y-12886231D01*
G01X84929045Y-12901092D01*
G01X84915167Y-12901758D01*
G01X84915167Y-12901758D01*
G01X84836895Y-12887881D01*
G01X84791103Y-12861304D01*
G01X84774448Y-12844604D01*
G01X84774249Y-12844336D01*
G01X84774249Y-12844336D01*
G01X84748359Y-12786490D01*
G01X84736459Y-12724443D01*
G01X84733110Y-12680731D01*
G01X84732940Y-12672656D01*
G01X84732940Y-12672656D01*
G01X84734039Y-12565258D01*
G01X84734726Y-12488130D01*
G01X84735098Y-12437148D01*
G01X84735252Y-12408190D01*
G01X84735284Y-12397132D01*
G01X84735284Y-12396680D01*
G01X84735284Y-12396680D01*
G01X84686257Y-12400417D01*
G01X84626409Y-12405223D01*
G01X84623370Y-12405469D01*
G01X84623370Y-12405469D01*
G01X84619854Y-12375000D01*
G37*
G36*
G01X85095636Y-12611719D02*
G01X85095636Y-12611719D01*
G01X85104565Y-12532536D01*
G01X85125216Y-12470209D01*
G01X85148377Y-12426534D01*
G01X85164842Y-12403309D01*
G01X85167706Y-12399903D01*
G01X85167706Y-12399903D01*
G01X85225064Y-12355032D01*
G01X85284447Y-12331168D01*
G01X85332490Y-12321678D01*
G01X85355828Y-12319927D01*
G01X85356378Y-12319922D01*
G01X85356378Y-12319922D01*
G01X85432870Y-12331531D01*
G01X85491328Y-12357514D01*
G01X85529613Y-12384603D01*
G01X85545586Y-12399529D01*
G01X85545929Y-12399903D01*
G01X85545929Y-12399903D01*
G01X85583644Y-12458263D01*
G01X85605101Y-12519947D01*
G01X85614885Y-12573218D01*
G01X85617582Y-12606341D01*
G01X85617706Y-12611719D01*
G01X85617706Y-12611719D01*
G01X85608062Y-12693996D01*
G01X85586115Y-12757610D01*
G01X85562345Y-12800637D01*
G01X85547233Y-12821151D01*
G01X85545929Y-12822656D01*
G01X85545929Y-12822656D01*
G01X85488565Y-12867034D01*
G01X85428888Y-12890636D01*
G01X85380483Y-12900022D01*
G01X85356933Y-12901753D01*
G01X85356378Y-12901758D01*
G01X85356378Y-12901758D01*
G01X85280500Y-12890276D01*
G01X85222297Y-12864579D01*
G01X85184052Y-12837788D01*
G01X85168050Y-12823026D01*
G01X85167706Y-12822656D01*
G01X85167706Y-12822656D01*
G01X85129837Y-12764758D01*
G01X85108292Y-12703337D01*
G01X85098468Y-12650185D01*
G01X85095760Y-12617095D01*
G01X85095636Y-12611719D01*
G37*
%LPC*%
G36*
G01X85180011Y-12594727D02*
G01X85180011Y-12594727D01*
G01X85188922Y-12672475D01*
G01X85207474Y-12729485D01*
G01X85223397Y-12761281D01*
G01X85226593Y-12766406D01*
G01X85226593Y-12766406D01*
G01X85280367Y-12814342D01*
G01X85332233Y-12832267D01*
G01X85356353Y-12834961D01*
G01X85356378Y-12834961D01*
G01X85356378Y-12834961D01*
G01X85430363Y-12819113D01*
G01X85474655Y-12790861D01*
G01X85487042Y-12778711D01*
G01X85487042Y-12778711D01*
G01X85519178Y-12717492D01*
G01X85531730Y-12659038D01*
G01X85533914Y-12629153D01*
G01X85533917Y-12628711D01*
G01X85533917Y-12628711D01*
G01X85524726Y-12550851D01*
G01X85505590Y-12493608D01*
G01X85489166Y-12461612D01*
G01X85485870Y-12456446D01*
G01X85485870Y-12456446D01*
G01X85431520Y-12408100D01*
G01X85380109Y-12390022D01*
G01X85356402Y-12387305D01*
G01X85356378Y-12387305D01*
G01X85356378Y-12387305D01*
G01X85282557Y-12403318D01*
G01X85238560Y-12431864D01*
G01X85226300Y-12444141D01*
G01X85226300Y-12444141D01*
G01X85194565Y-12505762D01*
G01X85182170Y-12564373D01*
G01X85180014Y-12594285D01*
G01X85180011Y-12594727D01*
G37*
%LPD*%
G36*
G01X85743683Y-12338086D02*
G01X85743683Y-12338086D01*
G01X85787042Y-12328711D01*
G01X85787042Y-12328711D01*
G01X85837101Y-12363061D01*
G01X85842120Y-12388477D01*
G01X85842120Y-12388477D01*
G01X85900201Y-12352661D01*
G01X85930597Y-12339258D01*
G01X85930597Y-12339258D01*
G01X85930597Y-12339258D01*
G01X85999737Y-12322339D01*
G01X86030206Y-12319922D01*
G01X86030206Y-12319922D01*
G01X86030206Y-12319922D01*
G01X86104606Y-12337746D01*
G01X86147184Y-12372645D01*
G01X86163281Y-12396760D01*
G01X86163800Y-12397852D01*
G01X86163800Y-12397852D01*
G01X86217759Y-12360024D01*
G01X86253716Y-12343018D01*
G01X86254327Y-12342774D01*
G01X86254327Y-12342774D01*
G01X86324855Y-12323724D01*
G01X86362688Y-12319945D01*
G01X86364190Y-12319922D01*
G01X86364190Y-12319922D01*
G01X86434521Y-12336395D01*
G01X86468221Y-12358464D01*
G01X86469952Y-12360059D01*
G01X86469952Y-12360059D01*
G01X86500492Y-12417715D01*
G01X86509959Y-12473621D01*
G01X86510675Y-12489258D01*
G01X86510675Y-12489258D01*
G01X86509405Y-12543473D01*
G01X86508624Y-12575684D01*
G01X86508624Y-12575684D01*
G01X86507016Y-12656867D01*
G01X86506590Y-12697943D01*
G01X86506573Y-12703125D01*
G01X86506573Y-12703125D01*
G01X86510496Y-12785728D01*
G01X86518664Y-12845697D01*
G01X86525674Y-12878864D01*
G01X86527081Y-12884180D01*
G01X86527081Y-12884180D01*
G01X86480206Y-12893555D01*
G01X86480206Y-12893555D01*
G01X86435382Y-12879785D01*
G01X86435382Y-12879785D01*
G01X86421612Y-12832617D01*
G01X86421612Y-12832617D01*
G01X86421612Y-12832617D01*
G01X86422416Y-12775627D01*
G01X86423991Y-12709183D01*
G01X86425079Y-12669106D01*
G01X86425128Y-12667383D01*
G01X86425128Y-12667383D01*
G01X86427678Y-12572209D01*
G01X86428549Y-12529964D01*
G01X86428643Y-12521485D01*
G01X86428643Y-12521485D01*
G01X86415845Y-12448205D01*
G01X86400810Y-12420472D01*
G01X86400518Y-12420117D01*
G01X86400518Y-12420117D01*
G01X86343791Y-12389251D01*
G01X86326690Y-12387305D01*
G01X86326690Y-12387305D01*
G01X86261778Y-12401778D01*
G01X86207274Y-12430117D01*
G01X86178995Y-12449699D01*
G01X86177862Y-12450586D01*
G01X86177862Y-12450586D01*
G01X86179050Y-12542196D01*
G01X86179749Y-12611413D01*
G01X86180087Y-12658792D01*
G01X86180196Y-12684885D01*
G01X86180206Y-12690821D01*
G01X86180206Y-12690821D01*
G01X86181483Y-12773826D01*
G01X86184243Y-12837692D01*
G01X86186879Y-12877534D01*
G01X86187823Y-12888867D01*
G01X86187823Y-12888867D01*
G01X86146808Y-12892383D01*
G01X86146808Y-12892383D01*
G01X86095416Y-12860185D01*
G01X86092901Y-12846680D01*
G01X86092901Y-12846680D01*
G01X86094659Y-12798340D01*
G01X86094659Y-12798340D01*
G01X86096520Y-12734405D01*
G01X86097501Y-12684466D01*
G01X86097589Y-12679102D01*
G01X86097589Y-12679102D01*
G01X86098392Y-12607458D01*
G01X86098706Y-12549250D01*
G01X86098761Y-12521873D01*
G01X86098761Y-12521485D01*
G01X86098761Y-12521485D01*
G01X86079847Y-12439503D01*
G01X86039712Y-12400365D01*
G01X86003267Y-12388225D01*
G01X85993292Y-12387305D01*
G01X85993292Y-12387305D01*
G01X85929166Y-12402449D01*
G01X85874983Y-12432099D01*
G01X85846768Y-12452588D01*
G01X85845636Y-12453516D01*
G01X85845636Y-12453516D01*
G01X85846867Y-12548562D01*
G01X85847568Y-12618585D01*
G01X85847887Y-12664595D01*
G01X85847975Y-12687604D01*
G01X85847979Y-12690821D01*
G01X85847979Y-12690821D01*
G01X85849158Y-12773826D01*
G01X85851706Y-12837692D01*
G01X85854139Y-12877534D01*
G01X85855011Y-12888867D01*
G01X85855011Y-12888867D01*
G01X85814581Y-12892383D01*
G01X85814581Y-12892383D01*
G01X85763190Y-12860185D01*
G01X85760675Y-12846680D01*
G01X85760675Y-12846680D01*
G01X85762445Y-12791907D01*
G01X85763604Y-12758496D01*
G01X85763604Y-12758496D01*
G01X85765572Y-12683533D01*
G01X85766373Y-12623688D01*
G01X85766533Y-12593569D01*
G01X85766534Y-12592383D01*
G01X85766534Y-12592383D01*
G01X85764158Y-12490336D01*
G01X85758490Y-12417821D01*
G01X85751726Y-12370899D01*
G01X85746059Y-12345633D01*
G01X85743683Y-12338086D01*
G01X85743683Y-12338086D01*
G37*
G36*
G01X86923175Y-12806250D02*
G01X86923175Y-12806250D01*
G01X86961152Y-12762147D01*
G01X86977081Y-12755860D01*
G01X86977081Y-12755860D01*
G01X87017982Y-12805156D01*
G01X87034210Y-12814746D01*
G01X87034210Y-12814746D01*
G01X87100362Y-12832726D01*
G01X87129425Y-12834961D01*
G01X87129425Y-12834961D01*
G01X87196933Y-12820817D01*
G01X87212921Y-12812110D01*
G01X87212921Y-12812110D01*
G01X87243237Y-12757234D01*
G01X87244854Y-12741211D01*
G01X87244854Y-12741211D01*
G01X87217556Y-12689434D01*
G01X87212921Y-12686133D01*
G01X87212921Y-12686133D01*
G01X87152805Y-12661153D01*
G01X87135577Y-12656543D01*
G01X87135577Y-12656543D01*
G01X87068999Y-12639578D01*
G01X87044464Y-12632520D01*
G01X87044464Y-12632520D01*
G01X86986104Y-12599265D01*
G01X86966827Y-12580371D01*
G01X86966827Y-12580371D01*
G01X86939648Y-12518910D01*
G01X86934900Y-12479376D01*
G01X86934893Y-12478711D01*
G01X86934893Y-12478711D01*
G01X86954888Y-12411198D01*
G01X86987737Y-12371881D01*
G01X86996710Y-12364453D01*
G01X86996710Y-12364453D01*
G01X87061654Y-12332725D01*
G01X87115598Y-12321381D01*
G01X87136456Y-12319922D01*
G01X87136456Y-12319922D01*
G01X87205073Y-12330263D01*
G01X87244654Y-12344116D01*
G01X87246905Y-12345117D01*
G01X87246905Y-12345117D01*
G01X87295829Y-12392792D01*
G01X87301104Y-12414844D01*
G01X87301104Y-12414844D01*
G01X87263127Y-12459530D01*
G01X87247198Y-12465235D01*
G01X87247198Y-12465235D01*
G01X87206281Y-12417443D01*
G01X87192999Y-12408985D01*
G01X87192999Y-12408985D01*
G01X87128603Y-12389029D01*
G01X87107745Y-12387305D01*
G01X87107745Y-12387305D01*
G01X87045936Y-12403897D01*
G01X87036847Y-12409571D01*
G01X87036847Y-12409571D01*
G01X87007771Y-12462932D01*
G01X87006964Y-12472266D01*
G01X87006964Y-12472266D01*
G01X87033908Y-12524753D01*
G01X87038897Y-12528516D01*
G01X87038897Y-12528516D01*
G01X87098213Y-12554735D01*
G01X87116241Y-12559863D01*
G01X87116241Y-12559863D01*
G01X87181842Y-12577082D01*
G01X87207354Y-12584473D01*
G01X87207354Y-12584473D01*
G01X87266488Y-12617077D01*
G01X87284991Y-12634278D01*
G01X87284991Y-12634278D01*
G01X87312933Y-12694812D01*
G01X87316925Y-12728321D01*
G01X87316925Y-12728321D01*
G01X87316925Y-12728321D01*
G01X87300503Y-12800720D01*
G01X87270491Y-12844045D01*
G01X87255694Y-12857520D01*
G01X87255694Y-12857520D01*
G01X87191379Y-12888453D01*
G01X87135124Y-12900019D01*
G01X87110114Y-12901758D01*
G01X87110089Y-12901758D01*
G01X87110089Y-12901758D01*
G01X87035918Y-12892850D01*
G01X86989273Y-12878216D01*
G01X86980011Y-12874219D01*
G01X86980011Y-12874219D01*
G01X86928707Y-12826725D01*
G01X86923175Y-12806250D01*
G37*
G36*
G01X87429425Y-12199805D02*
G01X87429425Y-12199805D01*
G01X87448468Y-12154981D01*
G01X87448468Y-12154981D01*
G01X87492706Y-12136524D01*
G01X87492706Y-12136524D01*
G01X87534601Y-12154981D01*
G01X87534601Y-12154981D01*
G01X87552472Y-12199805D01*
G01X87552472Y-12199805D01*
G01X87533451Y-12246072D01*
G01X87533429Y-12246094D01*
G01X87533429Y-12246094D01*
G01X87490362Y-12264844D01*
G01X87490362Y-12264844D01*
G01X87447296Y-12246973D01*
G01X87447296Y-12246973D01*
G01X87429425Y-12199883D01*
G01X87429425Y-12199805D01*
G37*
G36*
G01X87444659Y-12332227D02*
G01X87444659Y-12332227D01*
G01X87485675Y-12328711D01*
G01X87485675Y-12328711D01*
G01X87539076Y-12359869D01*
G01X87541925Y-12373828D01*
G01X87541925Y-12373828D01*
G01X87539581Y-12423047D01*
G01X87539581Y-12423047D01*
G01X87536465Y-12488633D01*
G01X87534905Y-12527343D01*
G01X87534893Y-12527637D01*
G01X87534893Y-12527637D01*
G01X87532984Y-12600740D01*
G01X87532556Y-12643119D01*
G01X87532550Y-12646289D01*
G01X87532550Y-12646289D01*
G01X87535150Y-12736941D01*
G01X87541257Y-12805478D01*
G01X87548331Y-12852421D01*
G01X87553833Y-12878291D01*
G01X87555401Y-12884180D01*
G01X87555401Y-12884180D01*
G01X87509698Y-12893555D01*
G01X87509698Y-12893555D01*
G01X87462827Y-12878032D01*
G01X87462823Y-12878028D01*
G01X87462823Y-12878028D01*
G01X87450527Y-12825868D01*
G01X87450518Y-12825000D01*
G01X87450518Y-12825000D01*
G01X87451317Y-12766641D01*
G01X87451983Y-12730371D01*
G01X87451983Y-12730371D01*
G01X87453177Y-12652329D01*
G01X87453444Y-12615347D01*
G01X87453448Y-12612891D01*
G01X87453448Y-12612891D01*
G01X87452696Y-12526548D01*
G01X87450851Y-12454012D01*
G01X87448527Y-12396904D01*
G01X87446340Y-12356844D01*
G01X87444905Y-12335450D01*
G01X87444659Y-12332227D01*
G37*
G36*
G01X87693097Y-12001758D02*
G01X87693097Y-12001758D01*
G01X87735284Y-11998242D01*
G01X87735284Y-11998242D01*
G01X87787572Y-12029805D01*
G01X87790362Y-12043946D01*
G01X87790362Y-12043946D01*
G01X87788822Y-12100687D01*
G01X87788604Y-12108106D01*
G01X87788604Y-12108106D01*
G01X87786762Y-12172525D01*
G01X87785071Y-12233741D01*
G01X87784222Y-12264969D01*
G01X87784210Y-12265430D01*
G01X87784210Y-12265430D01*
G01X87782642Y-12339936D01*
G01X87781865Y-12404009D01*
G01X87781601Y-12447454D01*
G01X87781573Y-12460547D01*
G01X87781573Y-12647461D01*
G01X87781573Y-12647461D01*
G01X87784173Y-12737058D01*
G01X87790280Y-12805210D01*
G01X87797355Y-12852177D01*
G01X87802857Y-12878221D01*
G01X87804425Y-12884180D01*
G01X87804425Y-12884180D01*
G01X87759308Y-12893555D01*
G01X87759308Y-12893555D01*
G01X87713018Y-12879199D01*
G01X87713018Y-12879199D01*
G01X87700128Y-12831446D01*
G01X87700128Y-12831446D01*
G01X87700128Y-12831446D01*
G01X87700426Y-12781353D01*
G01X87700985Y-12713978D01*
G01X87701299Y-12678847D01*
G01X87701300Y-12678809D01*
G01X87701300Y-12678809D01*
G01X87702016Y-12589596D01*
G01X87702358Y-12528343D01*
G01X87702464Y-12494946D01*
G01X87702472Y-12488086D01*
G01X87702472Y-12348633D01*
G01X87702472Y-12348633D01*
G01X87701902Y-12235547D01*
G01X87700447Y-12148902D01*
G01X87698485Y-12085551D01*
G01X87696397Y-12042352D01*
G01X87694561Y-12016159D01*
G01X87693359Y-12003829D01*
G01X87693097Y-12001758D01*
G37*
G36*
G01X87948565Y-12001758D02*
G01X87948565Y-12001758D01*
G01X87990753Y-11998242D01*
G01X87990753Y-11998242D01*
G01X88043041Y-12029805D01*
G01X88045831Y-12043946D01*
G01X88045831Y-12043946D01*
G01X88044113Y-12097869D01*
G01X88044073Y-12099024D01*
G01X88044073Y-12099024D01*
G01X88041881Y-12164412D01*
G01X88040086Y-12220094D01*
G01X88039679Y-12232910D01*
G01X88039679Y-12232910D01*
G01X88037946Y-12305866D01*
G01X88037211Y-12365358D01*
G01X88037045Y-12397766D01*
G01X88037042Y-12400196D01*
G01X88037042Y-12400196D01*
G01X88101632Y-12353787D01*
G01X88160894Y-12329956D01*
G01X88204226Y-12321176D01*
G01X88221026Y-12319922D01*
G01X88221026Y-12319922D01*
G01X88221026Y-12319922D01*
G01X88295018Y-12334365D01*
G01X88333803Y-12357396D01*
G01X88339679Y-12362696D01*
G01X88339679Y-12362696D01*
G01X88373250Y-12423449D01*
G01X88380331Y-12465036D01*
G01X88380401Y-12467578D01*
G01X88380401Y-12467578D01*
G01X88366533Y-12539003D01*
G01X88343092Y-12583914D01*
G01X88335577Y-12594141D01*
G01X88335577Y-12594141D01*
G01X88280281Y-12635294D01*
G01X88228569Y-12652912D01*
G01X88209893Y-12656250D01*
G01X88209893Y-12656250D01*
G01X88260051Y-12735211D01*
G01X88289357Y-12776200D01*
G01X88300001Y-12789123D01*
G01X88300128Y-12789258D01*
G01X88300128Y-12789258D01*
G01X88358256Y-12825265D01*
G01X88374542Y-12827930D01*
G01X88374542Y-12827930D01*
G01X88405597Y-12822656D01*
G01X88405597Y-12822656D01*
G01X88416729Y-12857813D01*
G01X88416729Y-12857813D01*
G01X88391534Y-12890625D01*
G01X88391534Y-12890625D01*
G01X88343487Y-12901758D01*
G01X88343487Y-12901758D01*
G01X88281608Y-12879730D01*
G01X88256768Y-12858985D01*
G01X88256768Y-12858985D01*
G01X88226593Y-12822949D01*
G01X88226593Y-12822949D01*
G01X88196783Y-12779996D01*
G01X88196710Y-12779883D01*
G01X88196710Y-12779883D01*
G01X88171515Y-12739453D01*
G01X88171515Y-12739453D01*
G01X88144229Y-12693300D01*
G01X88143976Y-12692871D01*
G01X88143976Y-12692871D01*
G01X88120245Y-12652149D01*
G01X88120245Y-12652149D01*
G01X88088604Y-12626953D01*
G01X88088604Y-12626953D01*
G01X88095050Y-12598242D01*
G01X88095050Y-12598242D01*
G01X88153857Y-12606933D01*
G01X88155987Y-12607031D01*
G01X88155987Y-12607031D01*
G01X88227632Y-12590913D01*
G01X88257544Y-12571076D01*
G01X88258233Y-12570410D01*
G01X88258233Y-12570410D01*
G01X88290761Y-12510454D01*
G01X88294268Y-12485742D01*
G01X88294268Y-12485742D01*
G01X88275930Y-12424806D01*
G01X88269659Y-12416016D01*
G01X88269659Y-12416016D01*
G01X88214120Y-12388536D01*
G01X88200518Y-12387305D01*
G01X88200518Y-12387305D01*
G01X88137296Y-12401814D01*
G01X88115265Y-12411914D01*
G01X88115265Y-12411914D01*
G01X88058299Y-12452639D01*
G01X88037042Y-12473438D01*
G01X88037042Y-12647461D01*
G01X88037042Y-12647461D01*
G01X88039642Y-12737058D01*
G01X88045749Y-12805210D01*
G01X88052823Y-12852177D01*
G01X88058326Y-12878221D01*
G01X88059893Y-12884180D01*
G01X88059893Y-12884180D01*
G01X88014776Y-12893555D01*
G01X88014776Y-12893555D01*
G01X87968487Y-12879199D01*
G01X87968487Y-12879199D01*
G01X87955597Y-12831446D01*
G01X87955597Y-12831446D01*
G01X87955597Y-12831446D01*
G01X87955895Y-12781353D01*
G01X87956454Y-12713978D01*
G01X87956768Y-12678847D01*
G01X87956768Y-12678809D01*
G01X87956768Y-12678809D01*
G01X87957484Y-12589596D01*
G01X87957826Y-12528343D01*
G01X87957932Y-12494946D01*
G01X87957940Y-12488086D01*
G01X87957940Y-12348633D01*
G01X87957940Y-12348633D01*
G01X87957371Y-12235547D01*
G01X87955915Y-12148902D01*
G01X87953954Y-12085551D01*
G01X87951865Y-12042352D01*
G01X87950030Y-12016159D01*
G01X87948828Y-12003829D01*
G01X87948565Y-12001758D01*
G37*
G36*
G01X88496417Y-12806250D02*
G01X88496417Y-12806250D01*
G01X88534395Y-12762147D01*
G01X88550323Y-12755860D01*
G01X88550323Y-12755860D01*
G01X88591224Y-12805156D01*
G01X88607452Y-12814746D01*
G01X88607452Y-12814746D01*
G01X88673604Y-12832726D01*
G01X88702667Y-12834961D01*
G01X88702667Y-12834961D01*
G01X88770175Y-12820817D01*
G01X88786163Y-12812110D01*
G01X88786163Y-12812110D01*
G01X88816479Y-12757234D01*
G01X88818097Y-12741211D01*
G01X88818097Y-12741211D01*
G01X88790798Y-12689434D01*
G01X88786163Y-12686133D01*
G01X88786163Y-12686133D01*
G01X88726047Y-12661153D01*
G01X88708819Y-12656543D01*
G01X88708819Y-12656543D01*
G01X88642241Y-12639578D01*
G01X88617706Y-12632520D01*
G01X88617706Y-12632520D01*
G01X88559346Y-12599265D01*
G01X88540069Y-12580371D01*
G01X88540069Y-12580371D01*
G01X88512890Y-12518910D01*
G01X88508143Y-12479376D01*
G01X88508136Y-12478711D01*
G01X88508136Y-12478711D01*
G01X88528131Y-12411198D01*
G01X88560979Y-12371881D01*
G01X88569952Y-12364453D01*
G01X88569952Y-12364453D01*
G01X88634897Y-12332725D01*
G01X88688840Y-12321381D01*
G01X88709698Y-12319922D01*
G01X88709698Y-12319922D01*
G01X88778315Y-12330263D01*
G01X88817896Y-12344116D01*
G01X88820147Y-12345117D01*
G01X88820147Y-12345117D01*
G01X88869071Y-12392792D01*
G01X88874347Y-12414844D01*
G01X88874347Y-12414844D01*
G01X88836369Y-12459530D01*
G01X88820440Y-12465235D01*
G01X88820440Y-12465235D01*
G01X88779523Y-12417443D01*
G01X88766241Y-12408985D01*
G01X88766241Y-12408985D01*
G01X88701845Y-12389029D01*
G01X88680987Y-12387305D01*
G01X88680987Y-12387305D01*
G01X88619178Y-12403897D01*
G01X88610089Y-12409571D01*
G01X88610089Y-12409571D01*
G01X88581013Y-12462932D01*
G01X88580206Y-12472266D01*
G01X88580206Y-12472266D01*
G01X88607150Y-12524753D01*
G01X88612140Y-12528516D01*
G01X88612140Y-12528516D01*
G01X88671455Y-12554735D01*
G01X88689483Y-12559863D01*
G01X88689483Y-12559863D01*
G01X88755085Y-12577082D01*
G01X88780597Y-12584473D01*
G01X88780597Y-12584473D01*
G01X88839730Y-12617077D01*
G01X88858233Y-12634278D01*
G01X88858233Y-12634278D01*
G01X88886175Y-12694812D01*
G01X88890167Y-12728321D01*
G01X88890167Y-12728321D01*
G01X88890167Y-12728321D01*
G01X88873745Y-12800720D01*
G01X88843734Y-12844045D01*
G01X88828936Y-12857520D01*
G01X88828936Y-12857520D01*
G01X88764621Y-12888453D01*
G01X88708366Y-12900019D01*
G01X88683356Y-12901758D01*
G01X88683331Y-12901758D01*
G01X88683331Y-12901758D01*
G01X88609161Y-12892850D01*
G01X88562515Y-12878216D01*
G01X88553253Y-12874219D01*
G01X88553253Y-12874219D01*
G01X88501949Y-12826725D01*
G01X88496417Y-12806250D01*
G37*
G36*
G01X88992706Y-12617578D02*
G01X88992706Y-12617578D01*
G01X89000139Y-12542492D01*
G01X89012702Y-12493819D01*
G01X89016729Y-12482520D01*
G01X89016729Y-12482520D01*
G01X89052767Y-12419543D01*
G01X89078690Y-12390516D01*
G01X89080304Y-12389063D01*
G01X89080304Y-12389063D01*
G01X89138437Y-12350024D01*
G01X89164972Y-12337500D01*
G01X89164972Y-12337500D01*
G01X89231941Y-12321633D01*
G01X89256964Y-12319922D01*
G01X89256964Y-12319922D01*
G01X89327109Y-12330415D01*
G01X89369224Y-12345572D01*
G01X89373272Y-12347461D01*
G01X89373272Y-12347461D01*
G01X89421722Y-12396753D01*
G01X89428643Y-12425391D01*
G01X89428643Y-12425391D01*
G01X89428643Y-12425391D01*
G01X89391054Y-12471291D01*
G01X89370636Y-12476953D01*
G01X89370636Y-12476953D01*
G01X89335039Y-12421919D01*
G01X89319952Y-12410449D01*
G01X89319952Y-12410449D01*
G01X89257036Y-12389020D01*
G01X89237628Y-12387305D01*
G01X89237628Y-12387305D01*
G01X89171427Y-12406542D01*
G01X89131857Y-12438145D01*
G01X89124249Y-12446778D01*
G01X89124249Y-12446778D01*
G01X89093363Y-12508557D01*
G01X89080777Y-12567602D01*
G01X89078269Y-12600399D01*
G01X89078253Y-12601758D01*
G01X89078253Y-12601758D01*
G01X89086974Y-12685288D01*
G01X89105481Y-12741840D01*
G01X89122286Y-12772246D01*
G01X89126886Y-12778418D01*
G01X89126886Y-12778418D01*
G01X89185451Y-12820139D01*
G01X89236525Y-12833720D01*
G01X89252276Y-12834961D01*
G01X89252276Y-12834961D01*
G01X89314460Y-12823391D01*
G01X89325226Y-12819434D01*
G01X89325226Y-12819434D01*
G01X89373831Y-12779519D01*
G01X89378253Y-12772266D01*
G01X89378253Y-12772266D01*
G01X89424661Y-12813998D01*
G01X89425714Y-12820313D01*
G01X89425714Y-12820313D01*
G01X89391984Y-12870080D01*
G01X89371222Y-12880957D01*
G01X89371222Y-12880957D01*
G01X89304368Y-12897265D01*
G01X89255740Y-12901592D01*
G01X89248175Y-12901758D01*
G01X89248175Y-12901758D01*
G01X89171075Y-12889823D01*
G01X89112426Y-12864028D01*
G01X89076184Y-12839387D01*
G01X89065948Y-12830567D01*
G01X89065948Y-12830567D01*
G01X89027463Y-12775590D01*
G01X89005568Y-12713680D01*
G01X88995585Y-12658405D01*
G01X88992833Y-12623337D01*
G01X88992706Y-12617578D01*
G37*
G36*
G01X89547003Y-12332227D02*
G01X89547003Y-12332227D01*
G01X89588018Y-12328711D01*
G01X89588018Y-12328711D01*
G01X89637554Y-12361728D01*
G01X89639581Y-12373828D01*
G01X89639581Y-12373828D01*
G01X89638995Y-12390235D01*
G01X89638995Y-12390235D01*
G01X89638409Y-12416016D01*
G01X89638409Y-12416016D01*
G01X89682566Y-12366128D01*
G01X89702569Y-12349512D01*
G01X89702569Y-12349512D01*
G01X89764811Y-12321961D01*
G01X89781964Y-12319922D01*
G01X89781964Y-12319922D01*
G01X89825323Y-12332520D01*
G01X89825323Y-12332520D01*
G01X89841143Y-12366797D01*
G01X89841143Y-12366797D01*
G01X89818768Y-12418479D01*
G01X89817120Y-12420703D01*
G01X89817120Y-12420703D01*
G01X89762956Y-12398063D01*
G01X89759112Y-12397852D01*
G01X89759112Y-12397852D01*
G01X89700723Y-12418188D01*
G01X89692022Y-12424219D01*
G01X89692022Y-12424219D01*
G01X89647728Y-12473903D01*
G01X89635479Y-12493946D01*
G01X89635479Y-12493946D01*
G01X89634660Y-12550994D01*
G01X89634354Y-12614820D01*
G01X89634308Y-12646256D01*
G01X89634308Y-12646289D01*
G01X89634308Y-12646289D01*
G01X89636908Y-12736941D01*
G01X89643015Y-12805478D01*
G01X89650089Y-12852421D01*
G01X89655591Y-12878291D01*
G01X89657159Y-12884180D01*
G01X89657159Y-12884180D01*
G01X89611456Y-12893555D01*
G01X89611456Y-12893555D01*
G01X89564874Y-12878028D01*
G01X89564874Y-12878028D01*
G01X89564874Y-12878028D01*
G01X89552871Y-12825868D01*
G01X89552862Y-12825000D01*
G01X89552862Y-12825000D01*
G01X89553501Y-12766641D01*
G01X89554034Y-12730371D01*
G01X89554034Y-12730371D01*
G01X89554989Y-12652329D01*
G01X89555203Y-12615347D01*
G01X89555206Y-12612891D01*
G01X89555206Y-12612891D01*
G01X89554504Y-12526548D01*
G01X89552782Y-12454012D01*
G01X89550613Y-12396904D01*
G01X89548572Y-12356844D01*
G01X89547233Y-12335450D01*
G01X89547003Y-12332227D01*
G37*
G36*
G01X89906768Y-12614063D02*
G01X89906768Y-12614063D01*
G01X89916678Y-12530118D01*
G01X89939595Y-12465904D01*
G01X89965299Y-12422096D01*
G01X89983570Y-12399366D01*
G01X89986749Y-12396094D01*
G01X89986749Y-12396094D01*
G01X90049833Y-12352057D01*
G01X90110638Y-12329444D01*
G01X90156447Y-12321112D01*
G01X90174542Y-12319922D01*
G01X90174542Y-12319922D01*
G01X90174542Y-12319922D01*
G01X90250013Y-12333294D01*
G01X90296953Y-12357131D01*
G01X90310479Y-12367383D01*
G01X90310479Y-12367383D01*
G01X90351364Y-12427074D01*
G01X90362211Y-12471689D01*
G01X90362628Y-12478711D01*
G01X90362628Y-12478711D01*
G01X90351095Y-12544658D01*
G01X90345929Y-12556641D01*
G01X90345929Y-12556641D01*
G01X90306419Y-12602543D01*
G01X90302276Y-12605567D01*
G01X90302276Y-12605567D01*
G01X90243158Y-12628781D01*
G01X90224347Y-12633106D01*
G01X90224347Y-12633106D01*
G01X90155133Y-12642737D01*
G01X90124151Y-12645117D01*
G01X90124151Y-12645117D01*
G01X90124151Y-12645117D01*
G01X90058999Y-12646929D01*
G01X90005129Y-12647436D01*
G01X89994659Y-12647461D01*
G01X89994659Y-12647461D01*
G01X90012732Y-12722424D01*
G01X90035941Y-12769207D01*
G01X90046515Y-12784278D01*
G01X90046515Y-12784278D01*
G01X90103319Y-12822882D01*
G01X90153022Y-12834260D01*
G01X90164581Y-12834961D01*
G01X90164581Y-12834961D01*
G01X90239972Y-12818147D01*
G01X90280786Y-12787417D01*
G01X90292315Y-12772266D01*
G01X90292315Y-12772266D01*
G01X90338479Y-12814978D01*
G01X90339776Y-12822656D01*
G01X90339776Y-12822656D01*
G01X90304465Y-12870160D01*
G01X90285284Y-12880078D01*
G01X90285284Y-12880078D01*
G01X90217291Y-12897305D01*
G01X90169491Y-12901632D01*
G01X90163409Y-12901758D01*
G01X90163409Y-12901758D01*
G01X90086816Y-12890634D01*
G01X90028570Y-12866162D01*
G01X89991528Y-12841690D01*
G01X89978546Y-12830567D01*
G01X89978546Y-12830567D01*
G01X89978546Y-12830567D01*
G01X89940831Y-12775154D01*
G01X89919374Y-12712237D01*
G01X89909590Y-12655832D01*
G01X89906893Y-12619961D01*
G01X89906768Y-12614063D01*
G37*
%LPC*%
G36*
G01X89993487Y-12587696D02*
G01X89993487Y-12587696D01*
G01X90063746Y-12586953D01*
G01X90079620Y-12586524D01*
G01X90079620Y-12586524D01*
G01X90142579Y-12580895D01*
G01X90155206Y-12579199D01*
G01X90155206Y-12579199D01*
G01X90216278Y-12564272D01*
G01X90221417Y-12562207D01*
G01X90221417Y-12562207D01*
G01X90262679Y-12531206D01*
G01X90262726Y-12531153D01*
G01X90262726Y-12531153D01*
G01X90280005Y-12481481D01*
G01X90280011Y-12481055D01*
G01X90280011Y-12481055D01*
G01X90256856Y-12423321D01*
G01X90248370Y-12414258D01*
G01X90248370Y-12414258D01*
G01X90189213Y-12388071D01*
G01X90169854Y-12386133D01*
G01X90169854Y-12386133D01*
G01X90100033Y-12401361D01*
G01X90056620Y-12427100D01*
G01X90046808Y-12435352D01*
G01X90046808Y-12435352D01*
G01X90012041Y-12491988D01*
G01X89997043Y-12551638D01*
G01X89993538Y-12586233D01*
G01X89993487Y-12587696D01*
G37*
%LPD*%
G36*
G01X90470440Y-12614063D02*
G01X90470440Y-12614063D01*
G01X90480350Y-12530118D01*
G01X90503267Y-12465904D01*
G01X90528971Y-12422096D01*
G01X90547242Y-12399366D01*
G01X90550421Y-12396094D01*
G01X90550421Y-12396094D01*
G01X90613505Y-12352057D01*
G01X90674310Y-12329444D01*
G01X90720118Y-12321112D01*
G01X90738214Y-12319922D01*
G01X90738214Y-12319922D01*
G01X90738214Y-12319922D01*
G01X90813685Y-12333294D01*
G01X90860625Y-12357131D01*
G01X90874151Y-12367383D01*
G01X90874151Y-12367383D01*
G01X90915036Y-12427074D01*
G01X90925883Y-12471689D01*
G01X90926300Y-12478711D01*
G01X90926300Y-12478711D01*
G01X90914767Y-12544658D01*
G01X90909601Y-12556641D01*
G01X90909601Y-12556641D01*
G01X90870091Y-12602543D01*
G01X90865948Y-12605567D01*
G01X90865948Y-12605567D01*
G01X90806830Y-12628781D01*
G01X90788018Y-12633106D01*
G01X90788018Y-12633106D01*
G01X90718805Y-12642737D01*
G01X90687823Y-12645117D01*
G01X90687823Y-12645117D01*
G01X90687823Y-12645117D01*
G01X90622671Y-12646929D01*
G01X90568801Y-12647436D01*
G01X90558331Y-12647461D01*
G01X90558331Y-12647461D01*
G01X90576404Y-12722424D01*
G01X90599613Y-12769207D01*
G01X90610186Y-12784278D01*
G01X90610186Y-12784278D01*
G01X90666991Y-12822882D01*
G01X90716694Y-12834260D01*
G01X90728253Y-12834961D01*
G01X90728253Y-12834961D01*
G01X90803644Y-12818147D01*
G01X90844458Y-12787417D01*
G01X90855987Y-12772266D01*
G01X90855987Y-12772266D01*
G01X90902151Y-12814978D01*
G01X90903448Y-12822656D01*
G01X90903448Y-12822656D01*
G01X90868137Y-12870160D01*
G01X90848956Y-12880078D01*
G01X90848956Y-12880078D01*
G01X90780962Y-12897305D01*
G01X90733162Y-12901632D01*
G01X90727081Y-12901758D01*
G01X90727081Y-12901758D01*
G01X90650488Y-12890634D01*
G01X90592242Y-12866162D01*
G01X90555200Y-12841690D01*
G01X90542218Y-12830567D01*
G01X90542218Y-12830567D01*
G01X90542218Y-12830567D01*
G01X90504502Y-12775154D01*
G01X90483046Y-12712237D01*
G01X90473261Y-12655832D01*
G01X90470564Y-12619961D01*
G01X90470440Y-12614063D01*
G37*
%LPC*%
G36*
G01X90557159Y-12587696D02*
G01X90557159Y-12587696D01*
G01X90627418Y-12586953D01*
G01X90643292Y-12586524D01*
G01X90643292Y-12586524D01*
G01X90706251Y-12580895D01*
G01X90718878Y-12579199D01*
G01X90718878Y-12579199D01*
G01X90779950Y-12564272D01*
G01X90785089Y-12562207D01*
G01X90785089Y-12562207D01*
G01X90826351Y-12531206D01*
G01X90826397Y-12531153D01*
G01X90826397Y-12531153D01*
G01X90843677Y-12481481D01*
G01X90843683Y-12481055D01*
G01X90843683Y-12481055D01*
G01X90820528Y-12423321D01*
G01X90812042Y-12414258D01*
G01X90812042Y-12414258D01*
G01X90752885Y-12388071D01*
G01X90733526Y-12386133D01*
G01X90733526Y-12386133D01*
G01X90663705Y-12401361D01*
G01X90620292Y-12427100D01*
G01X90610479Y-12435352D01*
G01X90610479Y-12435352D01*
G01X90575713Y-12491988D01*
G01X90560714Y-12551638D01*
G01X90557209Y-12586233D01*
G01X90557159Y-12587696D01*
G37*
%LPD*%
G36*
G01X91052276Y-12338086D02*
G01X91052276Y-12338086D01*
G01X91095636Y-12328711D01*
G01X91095636Y-12328711D01*
G01X91145695Y-12363061D01*
G01X91150714Y-12388477D01*
G01X91150714Y-12388477D01*
G01X91208006Y-12355171D01*
G01X91242732Y-12340527D01*
G01X91242999Y-12340430D01*
G01X91242999Y-12340430D01*
G01X91313058Y-12323334D01*
G01X91351882Y-12319943D01*
G01X91353448Y-12319922D01*
G01X91353448Y-12319922D01*
G01X91426212Y-12334630D01*
G01X91464923Y-12356626D01*
G01X91469171Y-12360059D01*
G01X91469171Y-12360059D01*
G01X91502245Y-12415991D01*
G01X91513011Y-12471340D01*
G01X91513995Y-12489258D01*
G01X91513995Y-12489258D01*
G01X91512907Y-12543473D01*
G01X91512237Y-12575684D01*
G01X91512237Y-12575684D01*
G01X91510859Y-12656867D01*
G01X91510493Y-12697943D01*
G01X91510479Y-12703125D01*
G01X91510479Y-12703125D01*
G01X91514402Y-12785728D01*
G01X91522570Y-12845697D01*
G01X91529580Y-12878864D01*
G01X91530987Y-12884180D01*
G01X91530987Y-12884180D01*
G01X91484112Y-12893555D01*
G01X91484112Y-12893555D01*
G01X91439288Y-12879785D01*
G01X91439288Y-12879785D01*
G01X91425518Y-12832617D01*
G01X91425518Y-12832617D01*
G01X91425518Y-12832617D01*
G01X91426323Y-12775627D01*
G01X91427897Y-12709183D01*
G01X91428985Y-12669106D01*
G01X91429034Y-12667383D01*
G01X91429034Y-12667383D01*
G01X91431584Y-12572209D01*
G01X91432455Y-12529964D01*
G01X91432550Y-12521485D01*
G01X91432550Y-12521485D01*
G01X91417485Y-12448935D01*
G01X91399788Y-12421064D01*
G01X91399444Y-12420703D01*
G01X91399444Y-12420703D01*
G01X91340693Y-12390556D01*
G01X91314776Y-12387305D01*
G01X91314776Y-12387305D01*
G01X91246382Y-12400780D01*
G01X91190403Y-12428288D01*
G01X91158071Y-12450450D01*
G01X91154229Y-12453516D01*
G01X91154229Y-12453516D01*
G01X91155461Y-12548562D01*
G01X91156162Y-12618585D01*
G01X91156481Y-12664595D01*
G01X91156569Y-12687604D01*
G01X91156573Y-12690821D01*
G01X91156573Y-12690821D01*
G01X91157752Y-12773826D01*
G01X91160300Y-12837692D01*
G01X91162733Y-12877534D01*
G01X91163604Y-12888867D01*
G01X91163604Y-12888867D01*
G01X91123175Y-12892383D01*
G01X91123175Y-12892383D01*
G01X91071784Y-12860185D01*
G01X91069268Y-12846680D01*
G01X91069268Y-12846680D01*
G01X91071039Y-12791907D01*
G01X91072198Y-12758496D01*
G01X91072198Y-12758496D01*
G01X91074165Y-12683533D01*
G01X91074967Y-12623688D01*
G01X91075127Y-12593569D01*
G01X91075128Y-12592383D01*
G01X91075128Y-12592383D01*
G01X91072751Y-12490336D01*
G01X91067084Y-12417821D01*
G01X91060320Y-12370899D01*
G01X91054653Y-12345633D01*
G01X91052276Y-12338086D01*
G01X91052276Y-12338086D01*
G37*

G04 Pad flashes *
%LPD*%
D11*

G04 end of program *
M02*
